<?xml version="1.0" encoding="utf-8"?>
<!-- Generator: Adobe Illustrator 25.4.1, SVG Export Plug-In . SVG Version: 6.00 Build 0)  -->
<svg version="1.0" id="Layer_1" xmlns="http://www.w3.org/2000/svg" xmlns:xlink="http://www.w3.org/1999/xlink" x="0px" y="0px"
	 viewBox="0 0 612 792" style="enable-background:new 0 0 612 792;" xml:space="preserve">
<g>
	<path d="M149,499.83c0.99,1.2,1.36,2.7,0.8,4.18c-0.63,1.63-2.13,2.56-3.62,3.25c-3.69,1.7-7.35,3.43-11.05,5.09
		c-3.03,1.35-6.07,2.58-9.33,3.24c-4.34,0.87-9.57-0.03-12.99-2.92c-3.33-2.81-4.88-7-5.71-11.18c-0.39-1.99-0.84-3.97-1.17-5.97
		c-0.58-3.55-1.12-7.1-1.64-10.66c-1.31-8.99-2.43-18-3.26-27.05c-0.46-5-0.79-9.99-1.13-14.99c-0.27-4.03-0.45-8.11-0.47-12.14
		c-0.04-9.59-0.03-19.16,0.71-28.73c0.38-5,0.79-9.97,1.34-14.95c0.34-3.08,0.65-6.17,1.08-9.24c0.45-3.24,1.04-6.45,1.67-9.66
		c0.24-1.25,0.52-2.43,0.92-3.63c0.35-1.08,1.66-2.76,2.44-3.82c1.93-2.6,5.65-4.02,8.68-4.6c1.29-0.24,2.58-0.36,3.86-0.36
		c1.29,0,2.58,0.12,3.86,0.36c2.32,0.41,4.45,1.28,6.41,2.58c1.68,1.11,2.92,2.58,3.73,4.42c0.6,2.03,0.94,3.57,0.14,5.62
		c-0.26,0.8-0.62,1.54-1.08,2.25c-0.41,0.75-1.09,1.93-1.71,2.81c-0.44,1.21-0.83,2.44-1.21,3.66c-0.68,2.13-1.38,4.25-1.92,6.42
		c-0.82,3.29-1.64,6.58-2.47,9.87c-1.16,4.65-1.9,9.42-2.83,14.12c0.14-0.73,0.29-1.45,0.42-2.17c-1.95,12.86-3.78,25.74-4.48,38.74
		c-0.36,6.69-0.69,13.38-0.46,20.07c0.13,3.62,0.36,7.18,0.68,10.8c0.27,2.97,0.75,5.92,1.18,8.88c1.25,6.23,2.56,12.66,5.21,18.45
		c4.21-1.52,8.36-3.22,12.6-4.68C141.67,496.68,146.47,496.74,149,499.83z"/>
	<path d="M223.48,420.62c0.38,3.76,0.75,7.57,0.65,11.35c-0.06,2.56-0.12,5.12-0.19,7.68c-0.04,1.79-0.26,3.53-0.45,5.31
		c-0.25,2.25-0.4,4.54-0.75,6.77c-1.03,6.36-2.33,12.68-4.23,18.85c-0.81,2.64-1.76,5.2-2.7,7.78c-1.09,2.99-2.16,5.96-3.4,8.88
		c-1.09,2.6-2.27,5.14-3.57,7.64c-1.25,2.43-2.53,4.94-4.18,7.12c-3.66,4.88-8.57,8.94-14.61,10.41c-5.65,1.38-11.46,0.6-16.68-1.91
		c-5.41-2.61-10.11-7.08-13.57-11.92c-3.45-4.81-6.43-10.02-8.6-15.54c-4.56-11.65-6.86-24.28-7.49-36.77
		c-0.64-12.47,0.09-25.19,3.14-37.35c0.85-3.37,1.74-6.8,3.09-10c1.15-2.72,2.4-5.63,4.18-8.02c0.79-1.06,1.59-2.01,2.53-2.94
		c0.17-0.19,0.34-0.36,0.52-0.53c-1.24-1.38-2.61-3.05-3.25-4.8c-0.91-2.48-1.38-4.89-1.02-7.51c0.28-2.05,0.95-3.85,1.98-5.62
		c2.68-4.61,7.03-7.62,11.98-9.42c1.51-0.55,3.31-1.04,4.92-1.21c1.47-0.14,2.97-0.38,4.46-0.38c0.13,0,0.26,0,0.39,0
		c2.37,0.07,4.84,0.19,7.14,0.76c4.82,1.2,9.52,3.02,13.54,6.01c8.25,6.15,14.32,14.87,18.32,24.3
		C219.77,399.41,222.4,409.99,223.48,420.62z M208.64,427.95c-0.06-7.5-0.65-14.94-1.99-22.32c-0.57-2.74-1.25-5.45-2.07-8.11
		c-4.16,0.49-8.31,0.68-12.51,0.7c-1.58,0.01-3.17-0.02-4.74-0.16c-3.32-0.28-6.67-0.47-9.95-1.1c-1.26-0.24-2.52-0.51-3.76-0.83
		c-3.65,6.61-5.71,14.01-7.23,21.37c-1.63,9-2.49,18.16-2.57,27.3c-0.08,8.74,0.38,17.45,1.89,26.07
		c1.68,8.01,4.23,15.74,8.32,22.85c1.67,2.56,3.51,4.94,5.71,7.05c0.91,0.73,1.84,1.4,2.83,2.01c0.47,0.21,0.95,0.41,1.43,0.58
		c0.2,0.04,0.4,0.08,0.61,0.12c0.22,0,0.45,0,0.67,0c0.14-0.02,0.28-0.05,0.42-0.07c0.62-0.23,1.21-0.48,1.8-0.76
		c0.82-0.53,1.58-1.08,2.33-1.69c1.37-1.38,2.56-2.82,3.65-4.44c3.39-5.85,5.82-12.17,7.85-18.61c0.69-2.19,1.38-4.39,2.07-6.59
		c1.02-3.26,1.75-6.63,2.43-9.99c0.91-4.93,1.49-9.86,1.94-14.84c0.22-2.5,0.46-4.97,0.55-7.47
		C208.45,435.34,208.67,431.65,208.64,427.95z M169.2,378.66c0.26,0.79,0.54,1.5,0.9,2.23c0.5,0.68,1.04,1.31,1.63,1.92
		c0.78,0.6,1.57,1.14,2.4,1.64c1.12,0.51,2.23,0.95,3.39,1.35c2.17,0.55,4.35,0.93,6.58,1.21c3.57,0.17,7.07,0.16,10.63-0.03
		c1.8-0.19,3.61-0.41,5.41-0.63c-0.51-1.01-1.05-2.01-1.62-3c-2.03-3.19-4.33-6.09-7.04-8.75c-1.63-1.35-3.31-2.57-5.14-3.64
		c-1.13-0.54-2.27-1.01-3.45-1.44c-1.1-0.27-2.19-0.49-3.3-0.65c-0.71-0.02-1.4-0.02-2.1-0.01c-0.71,0.11-1.41,0.24-2.11,0.39
		c-0.67,0.25-1.32,0.52-1.96,0.81c-0.6,0.39-1.17,0.8-1.72,1.24c-0.53,0.58-1.01,1.17-1.47,1.8c-0.44,0.88-0.78,1.75-1.05,2.69
		C169.07,376.77,169.09,377.69,169.2,378.66z"/>
	<path d="M302,395.05c-1.73,6.81-3.09,13.7-4.45,20.59c-3.06,16.86-5.87,33.77-9.03,50.61c-0.8,4.25-1.72,8.48-2.6,12.71
		c-1.01,4.83-2.2,9.73-3.63,14.46c-0.83,2.75-1.67,5.64-2.92,8.24c-0.58,1.21-1.23,2.35-1.92,3.49c-0.39,0.67-0.81,1.31-1.27,1.94
		c-1.67,1.89-3.86,3.54-6.45,3.91c-1.6,0.23-3.01,0.31-4.64,0.15c-0.91-0.03-1.79-0.23-2.64-0.58c-1.3-0.63-2.45-1.23-3.57-2.16
		c-1.05-0.87-2.17-1.88-2.95-3.02c-1.34-1.93-2.62-3.96-3.69-6.06c-2.24-4.39-4.19-8.97-5.77-13.63c-1.66-4.87-3.27-9.71-4.68-14.67
		c-1.41-4.9-2.53-9.84-3.66-14.82c-2.25-9.89-3.57-20.01-5.03-30.05c-1.36-9.41-2.24-18.89-3.12-28.36
		c-0.44-4.75-0.71-9.53-1.01-14.29c-0.14-2.15-0.18-4.3-0.25-6.45c-0.14-3.99-0.89-9.08,2.26-12.06c1.35-1.51,2.96-2.62,4.85-3.35
		c1.08-0.31,2.16-0.63,3.23-0.94c1.19-0.23,2.42-0.35,3.66-0.35c2.32,0,4.65,0.42,6.77,1.29c2,0.83,4.04,2.12,5.33,3.94
		c1.09,1.33,1.65,2.87,1.71,4.61c-0.04,0.88-0.04,1.76-0.02,2.64c0.02,0.59,0.03,1.15,0.02,1.73c0,1.37,0,2.74-0.01,4.1
		c-0.01,1.81-0.01,3.62,0.01,5.42c0.07,4.82,0.12,9.64,0.25,14.47c0.27,9.39,0.52,18.79,1.09,28.18c0.6,9.62,1.2,19.23,2.08,28.83
		c0.47,5.11,0.98,10.22,1.58,15.32c0.51,4.33,1.25,8.61,1.98,12.92c1.07,4.84,2.31,9.69,4.2,14.28c2.83-6.38,4.27-13.29,5.91-20.06
		c0.9-3.73,1.6-7.51,2.36-11.28c2.93-15.91,5.56-31.88,8.33-47.82c1.34-7.68,2.7-15.36,4.14-23.01c1.83-9.75,3.62-19.5,6.08-29.11
		c0.38-1.51,2.24-2.64,3.54-3.18c1.84-0.76,4-0.92,5.94-0.54c3.13,0.61,6.51,2.96,5.38,6.55C306.76,378.05,304.17,386.47,302,395.05
		z"/>
	<path d="M341.98,390.56c0,0.43-0.05,0.83-0.14,1.21c-0.29,1.86-0.93,3.67-1.37,5.51c-0.12,0.5-0.24,1.01-0.35,1.51
		c-0.37,1.53-0.72,3.05-1.08,4.58c-0.74,3.74-1.47,7.48-2.08,11.25c-0.77,4.73-1.47,9.45-2.12,14.2c-0.62,4.54-1.08,9.1-1.58,13.66
		c-0.4,3.72-0.72,7.5-0.88,11.23c-0.21,4.74-0.41,9.46-0.44,14.2c-0.03,4.44,0.09,8.86,0.23,13.29c0.29,9.69,1.52,19.38,2.65,29.02
		c0.18,1.48-1.18,2.9-2.36,3.68c-1.62,1.07-3.73,1.52-5.68,1.52c-1.97,0-4.06-0.45-5.69-1.52c-1.47-0.98-2.1-2.06-2.36-3.68
		c-0.67-4.21-1.23-8.4-1.77-12.62c-2.23-17.83-2.79-35.85-3.22-53.78c-0.19-8.21-0.27-16.48,0.15-24.68
		c0.25-4.91,0.58-9.77,1.05-14.66c0.21-2.13,0.49-4.22,0.81-6.34c0.15-0.99,0.25-2,0.44-2.98c0.3-1.55,0.56-3.12,0.95-4.65
		c0.17-1.19,0.7-2.25,1.58-3.17c0.19-0.25,0.37-0.5,0.56-0.74c1.21-1.27,2.66-2.21,4.36-2.82c1.95-0.72,3.98-1.08,6.09-1.08
		c0.02,0,0.04,0,0.05,0c2.96,0,6.14,0.68,8.6,2.31C340.38,386.29,341.98,388.21,341.98,390.56z M319.24,368.23
		c-0.23-1.62-0.47-2.79,0.14-4.46c0.17-0.46,0.34-0.92,0.51-1.38c1.04-2.83,3.61-4.11,6.15-5.29c1.42-0.66,3.11-0.94,4.76-0.94
		c0.94,0,1.87,0.09,2.74,0.26c1.55,0.28,2.98,0.86,4.29,1.73c0.78,0.7,1.57,1.4,2.35,2.1c1.2,1.08,1.55,2.84,1.55,4.36
		c0,0.45,0.01,0.89,0.01,1.33c0,1.56-0.76,2.89-1.37,4.25c-2.15,4.79-8.54,6.09-13.23,5.18c-2.36-0.46-4.86-1.51-6.42-3.42
		C319.77,370.9,319.28,369.65,319.24,368.23z"/>
	<path d="M426.98,399.03c-0.75,7.81-0.99,15.7-1.06,23.55c-0.08,8.69,0.06,17.37,0.26,26.05c0.18,7.83,0.6,15.74,1.39,23.53
		c0.45,4.51,0.9,9.01,1.51,13.51c0.54,3.91,1.18,7.78,1.86,11.66c0.47,2.2,0.95,4.41,1.31,6.63c0.25,1.5-1.21,3.05-2.29,3.81
		c-1.58,1.12-3.63,1.58-5.54,1.58c-2.73,0-6.47-1.09-7.55-3.96c-2.79-7.5-5.24-15.13-8.51-22.44
		c-6.87-15.35-14.66-30.27-22.79-44.99c-6.68-12.09-13.43-24.15-20.45-36.05c-0.24,3.97-0.37,7.95-0.3,11.93
		c0.07,4.4,0.17,8.77,0.4,13.15c0.23,4.41,0.58,8.79,0.94,13.18c0.69,8.23,1.84,16.41,2.94,24.58c1.03,7.61,2.52,15.16,3.96,22.71
		c0.83,3.76,1.62,7.53,2.49,11.29c0.58,2.49,1.25,4.96,1.66,7.48c0.19,1.08,0.36,2.16,0.55,3.24c0.13,0.78-0.04,1.46-0.17,2.25
		c-0.27,1.65-0.82,2.73-2.23,3.72c-1.03,0.68-2.14,1.13-3.36,1.35c-1.93,0.38-4.05,0.22-5.87-0.53c-1.06-0.41-1.97-1.04-2.73-1.89
		c-0.48-0.44-0.97-0.89-1.45-1.32c-0.55-0.5-1.08-1.86-1.45-2.59c-0.53-1.08-1.13-2.12-1.49-3.27c-0.74-2.38-1.6-4.75-2.15-7.18
		c-0.7-3.03-1.39-6.08-2.08-9.12c-0.7-3.06-1.12-6.21-1.66-9.29c-1.75-10.05-3.02-20.27-3.63-30.46c-0.26-4.33-0.53-8.65-0.66-12.99
		c-0.12-4.44-0.19-8.86-0.2-13.31c-0.02-8.03,0.15-16.07,0.21-24.1c0.01-2.1,0.03-4.21,0.08-6.31c0.07-3.19,0.04-6.38,0.68-9.52
		c0.65-3.22,2.27-5.87,5.45-7.18c3.18-1.31,6.81-0.95,9.92,0.27c2.44,0.95,4.36,2.88,5.71,5.06c1.42,2.29,2.84,4.56,4.14,6.92
		c4.27,7.75,8.38,15.59,12.51,23.41c7.66,14.48,15.34,28.93,22.62,43.61c-1.09-15.04-0.97-30.14-0.49-45.2
		c0.26-8,0.69-16,1.21-23.99c0.25-3.9,0.51-7.82,0.94-11.72c0.24-2.2,0.45-4.4,0.8-6.6c0.54-3.46,1.21-6.86,1.98-10.29
		c0.4-1.77,2.7-3.14,4.19-3.76c1.43-0.59,3-0.87,4.56-0.87c0.83,0,1.67,0.08,2.47,0.24c2,0.38,4.12,1.27,5.45,2.89
		c0.8,0.91,1.21,1.97,1.25,3.18c-0.92,6.75-2.1,13.47-3.14,20.21C428.24,387.06,427.56,393.03,426.98,399.03z"/>
	<path d="M515.5,385.27c0.75,5.21,0.59,10.44-0.57,15.59c-0.56,2.44-1.17,4.75-2.17,7.05c-1.29,2.93-3.8,5.13-6.96,5.73
		c-2.16,0.41-4.17-0.04-6.04-1.15c-1.15-0.69-1.68-1.75-2.2-2.9c-0.36-0.77-0.43-2.25-0.36-3.12c0.06-0.88,0.12-1.75,0.2-2.62
		c0.58-5.85,0.62-11.65-0.32-17.46c-0.77-3.29-1.85-6.43-3.44-9.42c-0.79-1.16-1.62-2.24-2.59-3.27c-0.55-0.43-1.11-0.84-1.69-1.21
		c-0.2-0.08-0.4-0.16-0.61-0.23c-0.11-0.02-0.22-0.05-0.33-0.07c-0.4,0-0.79,0-1.19,0.02c-0.32,0.05-0.65,0.11-0.97,0.18
		c-1.13,0.39-2.22,0.85-3.29,1.36c-1.76,1.07-3.39,2.27-4.96,3.59c-3.34,3.22-6.14,6.82-8.66,10.71
		c-4.94,8.46-8.19,17.72-10.2,27.29c-2.85,15.82-2.85,32.26-0.01,48.08c2.02,9.65,5.01,19.08,9.97,27.63c1.69,2.59,3.54,5,5.72,7.19
		c0.88,0.73,1.78,1.4,2.74,2.03c0.47,0.22,0.95,0.42,1.44,0.61c0.09,0.02,0.17,0.03,0.26,0.05c0.1,0,0.2,0,0.3,0
		c0.11-0.02,0.21-0.04,0.32-0.06c0.34-0.13,0.67-0.27,0.99-0.42c0.64-0.43,1.24-0.87,1.83-1.35c1.09-1.13,2.02-2.33,2.88-3.63
		c1.52-2.84,2.53-5.75,3.25-8.88c0.67-4.48,0.65-8.84-0.12-13.3c-0.88-3.77-2.29-7.28-4.21-10.63c-0.4-0.62-0.83-1.21-1.25-1.82
		c-0.92,0.36-1.84,0.7-2.75,1.09c-1.5,0.64-2.97,1.37-4.45,2.07c-2.25,1.07-4.63,1.8-7.13,1.83c-1.56,0.02-3.25-0.38-4.54-1.29
		c-1.15-0.82-1.7-1.75-1.88-3.12c-0.32-2.47,2.01-4.25,3.71-5.57c0.58-0.45,1.28-0.77,1.92-1.12c0.92-0.52,1.83-0.98,2.78-1.41
		c2.61-1.18,5.31-2.21,8.06-3.01c0.61-0.18,1.22-0.35,1.83-0.53c0.06-0.02,0.12-0.04,0.18-0.05c0.55-0.16,1.09-0.32,1.64-0.48
		c-0.18,0.05-0.36,0.1-0.54,0.15c0.24-0.07,0.48-0.14,0.72-0.21c0.37-0.11,0.74-0.21,1.11-0.32c-0.34,0.1-0.68,0.2-1.02,0.3
		c4.48-1.26,8.97-2.19,13.58-2.86c0.59-0.09,1.24-0.14,1.92-0.14c2.87,0,6.15,0.91,7.24,3.72c1.31,3.4-2.35,5.79-5.2,6.32
		c-0.99,0.18-1.96,0.4-2.94,0.6c0.41,0.78,0.79,1.56,1.11,2.38c1.15,2.95,2,5.99,2.53,9.12c1.06,6.21,1.08,12.56-0.11,18.75
		c-1.09,5.7-2.72,11.57-6.47,16.16c-3.83,4.7-9.23,7.66-15.35,7.92c-12.11,0.52-22.09-8.29-28.21-17.97
		c-3.44-5.44-6.47-11.12-8.54-17.23c-1.92-5.69-3.32-11.52-4.25-17.46c-1.88-12.02-1.93-24.59-0.06-36.63
		c1.87-12.06,5.14-24.06,11.48-34.6c3.21-5.33,6.72-10.6,11.39-14.78c2.17-1.94,4.32-3.94,6.79-5.51c2.38-1.51,4.91-3.02,7.56-4.01
		c3.02-1.13,6.12-2.01,9.34-2.32c1.31-0.12,2.52-0.22,3.79-0.22c0.3,0,0.61,0.01,0.92,0.02c1.5,0.06,3.36,0.18,4.83,0.58
		c3.01,0.81,5.86,1.71,8.51,3.38c2.22,1.39,4.37,3.08,6.07,5.09C512.65,373.99,514.67,379.48,515.5,385.27z"/>
</g>
<g>
	<path d="M162.1,331.77c0,1.12-0.11,2.25-0.56,3.37c-0.67,1.35-1.57,1.91-3.15,1.8c-2.7-0.11-5.5-0.34-8.31-0.56
		c-0.79,0-1.57-0.11-2.36-0.23c-2.7-0.56-3.71-1.69-3.93-4.38c-0.11-2.7,0-5.28,0-7.86c-0.11-0.67-0.11-1.24-0.11-1.91
		c-0.11-2.25-0.11-2.36-2.36-2.25c-4.04,0.11-7.98,0.34-12.02,0.67c-5.05,0.45-10.11,0.56-15.17,0.56c-2.58,0-2.58,0-2.58,2.81
		c0,2.47,0,5.05,0,7.53c0,1.01-0.11,2.02-0.34,2.92c-0.45,1.35-1.57,2.25-3.03,2.36c-1.57,0.22-2.7-0.56-3.48-1.8
		c-0.67-1.24-0.67-2.58-0.79-3.82c-0.79-9.32,0.34-18.54,2.36-27.52c1.12-4.94,2.36-9.89,4.04-14.72
		c2.47-6.96,5.95-13.48,11.12-18.98c2.92-3.26,6.63-5.17,10.78-6.07c6.07-1.35,11.12,0.67,15.5,4.83
		c5.62,5.5,8.76,12.36,10.67,19.77c2.02,8.31,3.03,16.74,3.37,25.16c0.11,2.47,0,4.83,0,7.3c0.11,0,0.22,0,0.34,0
		C162.1,324.47,162.1,328.06,162.1,331.77z M143.12,312c-0.11-1.57-0.22-3.48-0.34-5.28c-0.67-7.3-1.57-14.49-3.71-21.57
		c-1.12-3.71-3.03-6.85-5.5-9.77c-0.79-1.01-1.68-1.69-2.81-2.25c-1.35-0.56-2.36-0.45-3.59,0.56c-2.81,2.58-4.94,5.73-6.63,9.32
		c-4.61,9.89-7.08,20.56-8.54,31.34c-0.22,1.57,0,1.57,1.57,1.57c0.45,0,0.9,0,1.35,0c8.65-0.67,17.3-1.24,26.06-1.35
		C143.34,314.47,143.34,314.47,143.12,312z M153.67,329.86c0.34-13.82-0.45-27.52-3.15-41.11c-1.12-5.84-3.37-11.01-8.42-14.49
		c0.11,1.12,0.67,2.02,1.24,3.03c1.8,2.47,2.92,5.28,3.48,8.31c0.9,4.27,1.8,8.54,2.36,12.92c1.35,10.33,2.47,20.67,2.7,31.23
		c0,0.67-0.22,1.46,0.9,1.46C153.9,331.32,153.67,330.53,153.67,329.86z"/>
	<path d="M185.46,324.35c0.11,1.24,0.34,2.47,0.56,3.59c0.45,2.36,0.45,2.36,2.92,1.91c2.58-0.45,5.28-1.01,7.98-1.57
		c1.01-0.22,2.02-0.34,3.03-0.11c1.24,0.22,2.25,0.79,2.47,2.02c0.22,1.35-0.34,2.25-1.35,2.92c-0.67,0.34-1.35,0.56-2.02,0.79
		c-5.95,1.46-12.02,2.58-18.2,3.26c-2.13,0.22-4.16-0.22-6.18-1.01c-2.47-1.01-4.16-2.81-4.94-5.39c-0.79-2.7-1.35-5.5-1.46-8.2
		c-0.67-10-1.24-19.88-1.35-29.88c0-7.19-0.22-14.38-0.22-21.68c0-0.9-0.11-1.91,0.11-2.81c0.45-2.02,1.8-3.03,3.82-2.92
		c3.93,0,7.86,0,11.68,0.45c1.91,0.11,2.81,0.9,3.03,2.92c0.11,1.57,0,3.15,0,4.72c-0.22,7.75-0.45,15.5-0.67,26.29
		C184.45,305.93,185.12,315.14,185.46,324.35z M177.37,276.61c0.11-1.69,0.22-3.37,0.45-4.94c0.11-0.9-0.22-1.24-1.12-1.35
		c-2.47,0-2.7,0.22-2.7,2.58c-0.11,0.34-0.11,0.67,0,1.12c0.22,12.81,0.34,25.61,0.67,38.42c0.11,4.94,0.45,10,1.46,15.05
		c0.34,2.13,0.79,2.7,2.58,2.92c1.46,0.34,1.69,0.11,1.46-1.24c-1.24-5.5-1.69-11.12-2.25-16.85c-0.67-8.54-0.9-17.19-0.9-27.07
		C177.15,283.24,177.26,279.87,177.37,276.61z"/>
	<path d="M238.37,314.36c-1.12,4.61-3.03,9.1-5.06,13.37c-1.01,2.02-2.25,3.93-3.82,5.62c-5.28,5.28-12.47,5.39-18.09,0.22
		c-2.36-2.13-3.93-4.83-5.05-7.75c-1.8-4.94-3.15-10.11-3.37-15.28c-0.79-13.26-0.45-26.4,1.91-39.43c0.22-0.79,0.34-1.69,0.67-2.47
		c0.9-2.36,2.81-3.59,5.17-3.71c3.37,0,6.63,0.11,9.89,0.79c2.58,0.56,3.48,1.8,2.92,4.38c-1.69,7.98-2.02,16.06-2.58,24.15
		c-0.34,4.94-0.45,9.89-0.45,14.83c-0.11,2.02,0.11,4.04,0.34,6.07c0.34,4.38,2.7,7.75,6.07,10.67c1.12-0.79,1.46-2.02,2.02-3.03
		c3.48-6.74,5.06-14.04,6.29-21.46c1.24-6.85,2.47-13.71,3.26-20.67c0.22-2.36,1.35-3.48,3.59-3.71c3.37-0.34,6.63-0.67,9.89-0.9
		c2.36-0.22,3.48,0.79,3.82,3.03c0.22,1.46,0.34,2.92,0.34,4.38c-0.11,5.95,0,11.91,0.67,17.75c0.56,4.94,1.68,9.77,3.59,14.38
		c0.9,2.13,2.02,4.16,3.71,5.73c1.12,1.12,1.68,1.01,2.81-0.22c1.8-2.02,2.81-4.61,3.82-7.08c2.25-5.06,2.92-10.33,3.15-15.84
		c0.22-8.87,0.11-17.75-2.13-26.51c-0.34-1.12-0.45-2.25-0.22-3.37c0.34-2.25,2.47-3.03,4.27-1.69c1.01,0.79,1.57,1.91,1.91,3.03
		c1.35,3.71,1.68,7.53,2.02,11.35c0.9,10.67,0.45,21.46-1.01,32.13c-0.56,4.49-1.8,8.99-3.71,13.26c-0.9,2.25-2.13,4.16-3.71,6.07
		c-3.93,4.72-9.32,6.07-14.94,3.71c-4.27-1.8-7.75-4.61-10.33-8.54c-2.7-4.27-4.38-8.87-5.5-13.82c-0.22-1.01-0.45-2.02-0.67-3.26
		C238.82,311.77,238.71,313.12,238.37,314.36z M215.9,318.51c-0.56-2.13-1.12-4.38-1.35-6.63c-0.9-9.89-1.12-19.66-0.56-29.54
		c0.11-3.26,0.67-6.52,1.12-9.77c0.11-0.56,0.45-1.12-0.22-1.35c-0.45-0.22-1.01-0.22-1.57-0.11s-0.67,0.79-0.67,1.24
		c-0.34,1.91-0.67,3.82-0.9,5.73c-0.9,8.2-1.24,16.29-1.12,24.49c0,7.08,0.9,14.15,3.26,20.89c0.45,1.46,1.12,2.92,2.02,4.16
		c1.91,2.47,4.38,3.37,7.19,2.25C218.15,325.37,217.36,324.02,215.9,318.51z M263.42,329.63c-4.38-1.46-7.08-4.72-9.32-8.65
		c-1.91-3.48-2.92-7.3-3.82-11.12c-1.8-8.43-2.7-16.85-1.91-25.39c0-0.34,0.11-0.79,0-1.12c-0.22-0.67-0.79-0.56-1.24-0.22
		c-0.45,0.22-0.34,0.9-0.45,1.35c0,2.13-0.11,4.27-0.22,6.29c-0.22,7.41-0.22,14.83,1.35,22.13c0.79,3.82,1.91,7.41,3.93,10.78
		c1.8,3.03,4.38,5.39,7.75,6.52c1.46,0.45,2.81,0.79,4.27,0.11C263.64,329.97,263.53,329.63,263.42,329.63z"/>
	<path d="M343.28,331.77c0,1.12-0.11,2.25-0.56,3.37c-0.67,1.35-1.57,1.91-3.15,1.8c-2.7-0.11-5.5-0.34-8.31-0.56
		c-0.79,0-1.57-0.11-2.36-0.23c-2.7-0.56-3.71-1.69-3.93-4.38c-0.11-2.7,0-5.28,0-7.86c-0.11-0.67-0.11-1.24-0.11-1.91
		c-0.11-2.25-0.11-2.36-2.36-2.25c-4.04,0.11-7.98,0.34-12.02,0.67c-5.05,0.45-10.11,0.56-15.17,0.56c-2.58,0-2.58,0-2.58,2.81
		c0,2.47,0,5.05,0,7.53c0,1.01-0.11,2.02-0.34,2.92c-0.45,1.35-1.57,2.25-3.03,2.36c-1.57,0.22-2.7-0.56-3.48-1.8
		c-0.67-1.24-0.67-2.58-0.79-3.82c-0.79-9.32,0.34-18.54,2.36-27.52c1.12-4.94,2.36-9.89,4.04-14.72
		c2.47-6.96,5.95-13.48,11.12-18.98c2.92-3.26,6.63-5.17,10.78-6.07c6.07-1.35,11.12,0.67,15.5,4.83
		c5.62,5.5,8.76,12.36,10.67,19.77c2.02,8.31,3.03,16.74,3.37,25.16c0.11,2.47,0,4.83,0,7.3c0.11,0,0.22,0,0.34,0
		C343.28,324.47,343.28,328.06,343.28,331.77z M324.3,312c-0.11-1.57-0.22-3.48-0.34-5.28c-0.67-7.3-1.57-14.49-3.71-21.57
		c-1.12-3.71-3.03-6.85-5.5-9.77c-0.79-1.01-1.68-1.69-2.81-2.25c-1.35-0.56-2.36-0.45-3.59,0.56c-2.81,2.58-4.94,5.73-6.63,9.32
		c-4.61,9.89-7.08,20.56-8.54,31.34c-0.22,1.57,0,1.57,1.57,1.57c0.45,0,0.9,0,1.35,0c8.65-0.67,17.3-1.24,26.06-1.35
		C324.52,314.47,324.52,314.47,324.3,312z M334.86,329.86c0.34-13.82-0.45-27.52-3.15-41.11c-1.12-5.84-3.37-11.01-8.42-14.49
		c0.11,1.12,0.67,2.02,1.24,3.03c1.8,2.47,2.92,5.28,3.48,8.31c0.9,4.27,1.8,8.54,2.36,12.92c1.35,10.33,2.47,20.67,2.7,31.23
		c0,0.67-0.23,1.46,0.9,1.46C335.08,331.32,334.86,330.53,334.86,329.86z"/>
	<path d="M358.11,306.27c0.11-1.01-0.11-1.8-1.01-2.47c-7.98-5.62-11.57-13.82-13.14-23.14c-0.45-3.03-0.56-6.07-0.67-9.21
		c0-0.67,0-1.35,0.11-2.02c0.45-3.03,1.68-4.27,4.72-4.61c1.91-0.22,3.82,0,5.73,0.11c1.91,0.11,3.82,0.11,5.73,0.11
		c2.7,0.11,3.71,0.9,3.93,3.59c0.11,1.35,0.11,2.7,0.11,4.16c0.22,4.04,0.79,8.09,1.8,12.13c0.56,1.91,1.35,3.82,2.7,5.28
		c1.46,1.8,2.36,1.8,3.71,0c3.71-4.94,6.85-10.22,8.42-16.18c0.56-2.02,1.35-4.04,1.57-6.29c0.11-1.8,1.57-2.58,3.71-2.25
		c1.8,0.22,2.7,1.01,2.36,3.03s-1.01,4.04-1.46,6.07c-1.69,7.19-4.04,14.27-7.86,20.67c-0.11,0.22-0.22,0.45-0.45,0.67
		c-2.7,2.81-2.92,6.4-2.81,10.11c0.22,8.31-0.11,16.51,0.56,24.83c0.11,0.79,0.11,1.57,0.11,2.36c-0.11,1.57-0.9,2.7-2.36,3.03
		c-3.26,1.01-6.4,1.8-9.77,1.46c-3.93-0.45-5.28-1.69-5.62-5.5c-0.34-4.61-0.22-9.1-0.11-13.59
		C358.11,314.47,358.11,310.43,358.11,306.27z M360.8,290.54c-3.15-5.62-5.28-11.46-5.95-17.97c-0.11-1.91-0.34-1.91-2.47-1.8
		c-1.57,0.11-1.68,0.11-1.57,1.91c0.22,4.38,0.9,8.76,2.25,12.81c1.91,5.62,5.06,10.33,9.89,13.82c2.58,1.8,3.26,1.69,5.28-0.9
		C364.62,296.16,362.94,294.47,360.8,290.54z M364.96,310.2c-0.11,6.29-0.22,12.47-0.34,18.65c0,0.45-0.11,1.01-0.11,1.57
		c0,0.67,0.34,1.12,1.12,1.12c0.45-0.11,0.9-0.11,1.35,0c1.12,0.11,1.8-0.22,1.57-1.69c-0.45-2.25-0.11-4.49-0.11-6.74
		c0-5.62,0-11.12,0-16.85C364.62,307.17,365.07,306.49,364.96,310.2z"/>
	<path d="M401.47,302.56c-1.46-1.12-2.92-2.36-4.16-3.82c-3.82-4.49-5.5-9.66-4.38-15.61c1.12-5.84,3.71-10.78,8.99-14.15
		c5.5-3.37,14.04-2.92,19.21,1.12c1.57,1.24,2.7,2.81,2.81,4.83c0,1.01-0.11,1.91-1.12,2.47c-1.01,0.56-1.68,0.11-2.47-0.45
		c-2.36-1.8-5.05-3.03-7.98-3.59c-3.03-0.56-5.5,0.45-7.64,2.47c-1.01,0.9-1.12,1.8-0.56,3.03c0.67,1.24,1.68,2.13,2.92,2.92
		c3.26,2.36,6.96,3.93,10.56,5.73c2.36,1.24,4.83,2.47,7.19,3.71c8.31,4.49,11.79,11.8,12.02,20.89c0.11,4.94-0.67,9.89-3.03,14.49
		c-2.81,5.73-7.41,9.1-13.37,10.78c-4.94,1.35-10.11,0.56-15.28,0c-1.35-0.11-2.58-0.9-3.71-1.69c-2.25-1.69-3.93-3.82-5.28-6.07
		c-1.46-2.36-1.35-4.94-0.9-7.41c0.56-3.15,2.02-5.95,4.27-8.31c1.91-2.02,4.04-3.71,6.51-5.17c0.79-0.45,1.8-0.67,2.47-1.8
		C406.07,305.48,403.6,304.25,401.47,302.56z M414.5,310.2c-0.9-0.67-1.57-0.79-2.47,0c-0.79,0.67-1.68,1.01-2.47,1.46
		c-3.26,1.69-5.95,3.93-8.09,6.85c-1.8,2.47-2.47,5.17-1.46,8.2c1.57,4.72,8.65,7.19,13.37,4.49c4.27-2.47,6.29-6.18,6.4-9.89
		C419.66,315.71,418.09,312.67,414.5,310.2z M402.36,293.8c1.46,1.91,3.48,3.37,5.5,4.72c2.7,1.57,5.5,3.03,8.09,4.83
		c6.96,4.61,11.12,10.67,10,19.43c0,0.22,0.11,0.56,0.11,0.9c1.24-0.67,1.57-1.8,1.91-2.92c1.12-3.93,1.35-7.98,0.9-12.02
		c-0.34-4.16-2.36-7.3-5.95-9.55c-2.81-1.8-5.73-3.37-8.65-4.83c-4.83-2.58-9.66-5.17-14.04-9.1
		C399.56,288.63,400.57,291.33,402.36,293.8z"/>
</g>
<g>
	<path d="M497.99,303.41c1.1-4.51,1.71-9.05,2.15-13.67c0.21-2.26,0.63-4.51,1.33-6.68c0.24-0.76,1.3-4.57,2.57-3.11
		c0.36,0.42,0.34,1.37,0.37,1.9c0.1,1.35,0.11,2.71,0.09,4.06c-0.03,2.84-0.24,5.7-0.71,8.51c-0.98,5.91-2.81,11.64-5.48,17
		c1.39-0.36,2.77-0.73,4.16-1.09c-10.29-6.25-24.84-9.06-30.47-20.87c-0.88,1.53-1.75,3.05-2.63,4.58c2.11,0.08,3.69,2.02,5.04,3.43
		c1.69,1.77,3.4,3.44,5.48,4.75c4.31,2.71,9.71,4.1,14.7,4.87c6.12,0.94,7.73-6.5,9.71-10.84c1.13-2.49,2.64-4.99,1.7-7.79
		c-0.47-1.4-1.45-2.48-1.71-3.96c-0.24-1.4,0.06-2.66,0.57-3.95c-1.99-0.27-3.98-0.54-5.98-0.81c-0.27,7.19-0.53,14.38-0.8,21.57
		c-0.04,1.14,0.36,3.66-0.28,4.65c0.61-0.94,0.27,0.02-0.14-0.58c-0.27-0.4-0.71-0.73-1.01-1.12c-1.82-2.37-3.45-4.8-5.55-6.95
		c-4.07-4.15-8.97-7.45-14.33-9.69c-4-1.68-10.3-3.15-12.15,2.32c-1.53,4.52,0.65,9.99,3.39,13.59c3,3.95,7.33,7.11,11.62,9.54
		c5.09,2.88,10.96,3.74,16.71,4.11c1.42,0.09,2.91,0.27,4.33,0.21c0.58-0.03,1.13-0.16,1.69-0.3c2.1-0.52-0.93,0.5,1.02-0.43
		c1.63-0.79,2.63-1.62,3.21-3.32c1.16-3.46,1.4-7.39,1.85-10.98c0.86-6.75,1.5-13.53,2.05-20.31c0.32-3.9-5.77-3.88-6.08,0
		c-0.75,9.16-1.36,18.51-3.17,27.54c-0.1,0.49-0.22,0.98-0.33,1.47c-0.13,0.55-0.59,0.99-0.04,0.35c-0.38,0.44,0.67-0.09,0.33-0.43
		c-0.09,0.05-0.17,0.09-0.26,0.14c-0.33,0.16-0.35,0.18-0.05,0.05c-0.24,0.1-0.48,0.2-0.73,0.31c0.75-0.17,0.68-0.23-0.21-0.18
		c-0.8-0.15-1.71-0.07-2.53-0.12c-5.32-0.29-10.68-0.95-15.34-3.7c-3.33-1.96-6.84-4.38-9.2-7.49c-1.15-1.51-2.04-3.3-2.42-5.16
		c-0.2-0.99-0.2-1.92-0.1-2.91c0-0.02,0.09,0.22-0.23,0.22c0.5-0.01,0.83-0.05,1.36,0.06c4.57,0.94,9.3,4.09,12.78,7.09
		c1.91,1.64,3.7,3.47,5.25,5.45c1.47,1.89,2.6,4.12,4.57,5.56c2.26,1.64,5.5,2,7.74,0.11c2.41-2.03,2.18-5.34,2.29-8.21
		c0.28-7.48,0.55-14.95,0.83-22.43c0.14-3.67-4.8-3.81-5.98-0.81c-0.89,2.28-1.09,4.79-0.57,7.19c0.26,1.19,0.75,2.29,1.29,3.38
		c0.63,1.26,0.26,1.64-0.34,2.95c-1.11,2.44-2.21,4.87-3.32,7.31c-0.21,0.46-0.38,1.1-0.71,1.48c-0.2,0.31-0.18,0.33,0.05,0.06
		c0.37-0.27,0.21-0.37-0.49-0.32c-1.02-0.41-2.32-0.49-3.4-0.75c-4.29-1.04-8.33-2.49-11.49-5.69c-3.09-3.13-5.94-6.4-10.65-6.58
		c-2.47-0.1-3.56,2.61-2.63,4.58c6.23,13.04,21.32,16.17,32.66,23.06c1.34,0.81,3.44,0.36,4.16-1.09
		c3.39-6.81,5.61-14.03,6.54-21.58c0.46-3.71,0.65-7.5,0.38-11.23c-0.2-2.71-0.91-5.56-3.36-7.12c-2.72-1.72-6.31-1.29-8.55,1.01
		c-2.24,2.3-3.23,6.17-3.82,9.21c-1.11,5.66-1.25,11.36-2.62,16.99C491.2,305.59,497.07,307.21,497.99,303.41L497.99,303.41z"/>
	<path d="M476.4,305.21c2.03,1.42,4.07,2.86,6.24,4.07c2.11,1.18,4.53,1.8,6.58,3.02c3.37,2,6.44-3.25,3.07-5.25
		c-2.08-1.23-4.47-1.84-6.58-3.02c-2.17-1.21-4.2-2.64-6.24-4.07C476.26,297.7,473.21,302.98,476.4,305.21L476.4,305.21z"/>
</g>
<g>
	<g>
		<path d="M492.89,245.95c13.36-24.94,10.27-56.63-8.82-77.74c-17.27-19.09-43.84-26.72-68.75-20.62
			c-9.95,2.43-20.12,6.77-28.37,12.92c2.55,1.96,5.09,3.91,7.64,5.87c3.5-12.69,3.67-26.77,0.17-39.45
			c-5.32-19.31-19.6-34.06-38.22-40.99c-29.49-10.98-64.99-6.73-91,10.83c-13.61,9.19-24.3,21.67-32.14,36.02
			c-10.29,18.86-17.51,40.83-15.23,62.54c2.01,19.15,11.32,34.95,27.91,44.99c14.2,8.59,32.4,12.31,48.24,6.21
			c8.49-3.27,17.32-8.62,21.81-16.84c4.52-8.27,3.13-17.99-2.2-25.53c-5.53-7.84-14.59-12.61-24.26-11.19
			c-10.6,1.56-18.3,9.7-21.62,19.54c-2.14,6.36,7.9,9.08,10.03,2.76c2.31-6.85,8.57-12.92,16.27-12.18
			c6.67,0.64,12.15,6.46,13.77,12.76c3.42,13.35-15.4,21.87-25.95,23.09c-13.65,1.57-28.23-4.1-38.37-13.1
			c-12.67-11.24-16.55-27.33-15.44-43.82c1.96-29.12,18.79-60.8,43.43-76.94c22.22-14.55,49.83-18.03,75.37-11.22
			c17.54,4.68,31.82,16.71,37.18,34.41c3.43,11.34,3.39,23.92,0.24,35.34c-1.11,4.02,3.85,8.7,7.64,5.87
			c16.71-12.45,39.75-17.37,59.62-10.56c20.05,6.87,36.86,26.08,38.8,48.54c0.97,11.27-1.33,23.22-6.69,33.23
			C480.75,246.6,489.72,251.86,492.89,245.95L492.89,245.95z"/>
	</g>
</g>
<g>
	<g>
		<path d="M227.74,157.02c-30.99-14.23-68.44-19.82-100.9-7.26c-31.1,12.04-61.89,40.99-60.88,76.8
			c0.48,17.11,8.54,33.38,20.73,45.21c4.8,4.67,12.17-2.68,7.35-7.35c-8.82-8.57-15.34-19.84-17.19-32.09
			c-2.59-17.1,4.94-33.48,15.61-46.45c21.94-26.69,58.52-36.35,91.78-31.24c13.13,2.02,26.19,5.82,38.26,11.37
			C228.53,168.77,233.82,159.81,227.74,157.02L227.74,157.02z"/>
	</g>
</g>
<g>
	<g>
		<path d="M93.62,539.18c32.24,54.65,63.24,110.02,92.96,166.09c3.92,7.39,15.14,0.83,11.23-6.56
			c-29.72-56.06-60.72-111.44-92.96-166.09C100.6,525.42,89.35,531.95,93.62,539.18L93.62,539.18z"/>
	</g>
</g>
<g>
	<g>
		<path d="M510.98,537.04c-26.92,55.56-52.71,111.67-77.34,168.29c-3.3,7.6,7.89,14.22,11.23,6.56
			c24.63-56.62,50.42-112.72,77.34-168.29C525.83,536.11,514.63,529.51,510.98,537.04L510.98,537.04z"/>
	</g>
</g>
<g>
	<g>
		<path d="M193.35,711.84c82.91-4.08,166.03-2.72,248.77,4.06c8.34,0.68,8.29-12.32,0-13c-82.73-6.79-165.86-8.14-248.77-4.06
			C185.02,699.25,184.97,712.26,193.35,711.84L193.35,711.84z"/>
	</g>
</g>
<g>
	<g>
		<path d="M445.91,540.74c-17.09,53.65-31.39,108.16-42.76,163.3c-1.3,6.28,8.34,8.97,9.64,2.66
			c11.38-55.15,25.67-109.65,42.76-163.3C457.52,537.25,447.86,534.62,445.91,540.74L445.91,540.74z"/>
	</g>
</g>
<g>
	<g>
		<path d="M380.21,537.96c-7.3,55.85-11.67,112.06-13.07,168.37c-0.16,6.44,9.84,6.43,10,0c1.4-56.31,5.77-112.52,13.07-168.37
			C391.04,531.6,381.03,531.66,380.21,537.96L380.21,537.96z"/>
	</g>
</g>
<g>
	<g>
		<path d="M325.51,545.71c2.72,51.86,3.6,103.81,2.62,155.73c-0.12,6.44,9.88,6.44,10,0c0.98-51.92,0.11-103.87-2.62-155.73
			C335.17,539.31,325.17,539.27,325.51,545.71L325.51,545.71z"/>
	</g>
</g>
<g>
	<g>
		<path d="M265.75,545.38c8.75,52.13,17.25,104.29,25.48,156.5c1,6.34,10.64,3.65,9.64-2.66c-8.24-52.21-16.73-104.38-25.48-156.5
			C274.33,536.39,264.7,539.07,265.75,545.38L265.75,545.38z"/>
	</g>
</g>
<g>
	<g>
		<path d="M213.41,539.51c18.73,52.01,32.53,105.68,41.04,160.3c0.99,6.34,10.63,3.65,9.64-2.66
			c-8.51-54.62-22.32-108.3-41.04-160.3C220.89,530.84,211.23,533.43,213.41,539.51L213.41,539.51z"/>
	</g>
</g>
<g>
	<g>
		<path d="M156.49,544.86c8.71,27.99,17.43,55.97,26.14,83.96c4.23,13.58,8.34,27.2,12.71,40.73c3.91,12.09,8.46,23.99,15.22,34.8
			c3.41,5.44,12.06,0.43,8.63-5.05c-6.79-10.86-11.15-22.74-15.01-34.9c-4.24-13.36-8.35-26.77-12.51-40.15
			c-8.51-27.35-17.03-54.7-25.54-82.05C164.23,536.08,154.57,538.69,156.49,544.86L156.49,544.86z"/>
	</g>
</g>
</svg>
