<?xml version="1.0" encoding="utf-8"?>
<!-- Generator: Adobe Illustrator 25.4.1, SVG Export Plug-In . SVG Version: 6.00 Build 0)  -->
<svg version="1.0" id="Layer_1" xmlns="http://www.w3.org/2000/svg" xmlns:xlink="http://www.w3.org/1999/xlink" x="0px" y="0px"
	 viewBox="0 0 612 792" style="enable-background:new 0 0 612 792;" xml:space="preserve">
<g>
	<g>
		<path d="M331.2,385.98c0.1,3.11-0.02,6.26-0.25,9.37c-0.13,1.77-0.17,3.57-0.41,5.32c-0.29,2.06-0.57,4.11-0.85,6.17
			c-0.25,1.78-0.64,3.54-0.99,5.3c-0.29,1.5-0.53,3.02-0.9,4.5c-1.51,5.99-3.04,11.93-5.33,17.69c-3.63,9.17-8.5,17.91-14.73,25.58
			c-2.64,3.25-5.46,6.33-8.4,9.32c-2.14,2.18-4.43,4.22-6.76,6.2c0.97,0.37,1.95,0.72,2.92,1.07c2.08,0.77,4.15,1.54,6.21,2.37
			c4.97,2,9.84,4.11,14.37,7.01c1.16,0.75,2.09,2.06,2.09,3.48c0,1.47-0.94,2.67-2.09,3.48c-1.44,1.02-3.31,1.44-5.05,1.44
			c-1.89,0-3.43-0.53-5.04-1.44c-1.28-0.72-2.56-1.42-3.84-2.13c-2.75-1.4-5.52-2.74-8.39-3.88c-1.88-0.75-3.78-1.44-5.69-2.1
			c0.68,2.39,1.39,4.78,2.11,7.16c1.06,3.49-2.16,5.76-5.22,6.35c-3.08,0.6-7.93-0.21-9.2-3.61c-1.4-3.75-2.73-7.52-3.63-11.44
			c-0.8-3.49-1.52-6.97-2.17-10.49c-1.45-7.77-2.37-15.63-3.15-23.49c-0.74-7.47-1.22-15.02-1.3-22.53
			c-0.07-8.24-0.05-16.47,0.3-24.7c0.18-4.23,0.42-8.45,0.68-12.67c0.12-1.86,0.29-3.72,0.46-5.58c0.08-0.91,0.13-1.85,0.26-2.76
			c0.39-2.67,0.47-5.67,2.6-7.6c1.12-1.24,2.45-2.16,4.02-2.77c1.78-0.7,3.63-1.06,5.55-1.06c0.03,0,0.06,0,0.09,0
			c2.73,0,5.65,0.66,7.91,2.26c1.23,0.87,2.31,2.03,2.87,3.41c0,0,0,0,0.01,0c0.01,0.02,0.01,0.04,0.02,0.06
			c0.18,0.47,0.31,0.96,0.36,1.48c0.07,0.36,0.13,0.72,0.18,1.08c-0.14,0.71-0.28,1.41-0.42,2.12c-0.19,0.68-0.35,1.37-0.48,2.08
			c-0.16,0.82-0.33,1.63-0.52,2.44c-0.35,1.57-0.71,3.14-1.06,4.7c-0.48,2.44-0.95,4.88-1.43,7.31c-0.59,3.13-0.98,6.31-1.48,9.46
			c-0.52,3.27-0.81,6.59-1.21,9.88c-0.72,5.98-1.07,12.01-1.4,18.02c-0.33,6.28-0.32,12.55-0.13,18.83c0.1,3.2,0.43,6.38,0.71,9.57
			c0.1,1.14,0.25,2.28,0.42,3.42c2.07-1.62,4.13-3.25,6.16-4.92c1.46-1.35,2.94-2.68,4.3-4.12c3.73-3.95,7.03-8.18,9.92-12.77
			c2.02-3.44,3.85-7.02,5.27-10.75c1.45-3.84,2.6-7.73,3.56-11.71c0.37-2.01,0.75-4.02,1.12-6.03c0.41-2.2,0.58-4.46,0.86-6.67
			c0.54-4.22,0.67-8.5,0.78-12.75c0.11-4.5-0.08-9-0.33-13.49c-0.12-2.06-0.39-4.14-0.43-6.2c-0.02-1.38-0.11-2.61,0.22-3.96
			c0.11-0.45,0.22-0.9,0.33-1.35c0.26-1.09,1.4-1.85,2.25-2.47c1.24-0.9,2.92-1.26,4.42-1.26c0.01,0,0.03,0,0.05,0
			c1.08,0,2.11,0.2,3.11,0.59c1.08,0.57,2.19,1.01,2.99,1.98c0.4,0.49,0.75,1.24,1.06,1.83c0.45,0.87,0.58,1.75,0.78,2.7
			C331.05,378.15,331.08,382.08,331.2,385.98z"/>
		<path d="M360.16,394.83c0,0.36-0.04,0.7-0.12,1.01c-0.25,1.56-0.78,3.08-1.15,4.63c-0.1,0.42-0.2,0.85-0.3,1.27
			c-0.31,1.29-0.61,2.57-0.91,3.85c-0.62,3.14-1.24,6.29-1.75,9.45c-0.65,3.98-1.24,7.94-1.78,11.93
			c-0.52,3.81-0.91,7.64-1.32,11.47c-0.33,3.12-0.61,6.3-0.74,9.43c-0.17,3.98-0.34,7.95-0.37,11.93c-0.02,3.73,0.08,7.44,0.2,11.17
			c0.24,8.14,1.28,16.28,2.23,24.37c0.15,1.24-1,2.44-1.98,3.09c-1.36,0.9-3.13,1.28-4.78,1.28c-1.65,0-3.41-0.38-4.78-1.28
			c-1.23-0.82-1.76-1.73-1.98-3.09c-0.56-3.54-1.04-7.06-1.48-10.6c-1.88-14.98-2.35-30.11-2.7-45.18
			c-0.16-6.89-0.22-13.84,0.13-20.73c0.21-4.12,0.48-8.21,0.89-12.32c0.17-1.79,0.42-3.54,0.68-5.33c0.13-0.83,0.21-1.68,0.37-2.5
			c0.25-1.3,0.47-2.62,0.8-3.91c0.15-1,0.59-1.89,1.33-2.66c0.16-0.21,0.31-0.42,0.47-0.63c1.02-1.07,2.24-1.85,3.66-2.37
			c1.64-0.6,3.35-0.91,5.11-0.91c0.01,0,0.03,0,0.05,0c2.49,0,5.16,0.57,7.22,1.94C358.82,391.25,360.17,392.85,360.16,394.83z
			 M341.06,376.07c-0.19-1.36-0.4-2.35,0.12-3.75c0.14-0.39,0.28-0.77,0.43-1.16c0.87-2.38,3.03-3.46,5.16-4.44
			c1.2-0.55,2.61-0.79,4-0.79c0.79,0,1.57,0.08,2.3,0.22c1.3,0.24,2.5,0.72,3.6,1.45c0.66,0.59,1.32,1.17,1.98,1.76
			c1.01,0.91,1.3,2.38,1.3,3.67c0,0.38,0.01,0.75,0.01,1.12c0,1.31-0.63,2.43-1.15,3.57c-1.81,4.02-7.17,5.12-11.11,4.35
			c-1.98-0.38-4.08-1.27-5.4-2.87C341.51,378.31,341.1,377.27,341.06,376.07z"/>
		<path d="M431.55,401.95c-0.63,6.56-0.83,13.19-0.89,19.78c-0.07,7.3,0.05,14.59,0.21,21.88c0.15,6.58,0.51,13.22,1.17,19.76
			c0.38,3.79,0.75,7.57,1.27,11.35c0.45,3.28,0.99,6.53,1.56,9.79c0.4,1.85,0.8,3.7,1.1,5.57c0.21,1.26-1.02,2.57-1.92,3.2
			c-1.33,0.94-3.05,1.33-4.65,1.33c-2.29,0-5.44-0.92-6.34-3.32c-2.35-6.3-4.4-12.71-7.15-18.85
			c-5.77-12.89-12.31-25.43-19.15-37.79c-5.61-10.15-11.28-20.28-17.18-30.28c-0.2,3.34-0.31,6.68-0.25,10.02
			c0.06,3.69,0.14,7.37,0.34,11.05c0.19,3.7,0.49,7.38,0.79,11.07c0.58,6.91,1.54,13.78,2.47,20.65c0.86,6.39,2.11,12.74,3.33,19.08
			c0.69,3.16,1.36,6.33,2.09,9.48c0.48,2.09,1.05,4.17,1.4,6.28c0.16,0.91,0.3,1.81,0.46,2.72c0.11,0.66-0.04,1.23-0.14,1.89
			c-0.22,1.39-0.69,2.29-1.88,3.12c-0.86,0.57-1.8,0.95-2.82,1.13c-1.62,0.32-3.4,0.18-4.93-0.44c-0.89-0.34-1.66-0.87-2.3-1.59
			c-0.41-0.37-0.82-0.74-1.22-1.11c-0.46-0.42-0.91-1.56-1.21-2.17c-0.45-0.9-0.95-1.78-1.25-2.74c-0.62-2-1.34-3.99-1.81-6.03
			c-0.59-2.55-1.17-5.1-1.75-7.66c-0.59-2.57-0.94-5.21-1.39-7.81c-1.47-8.45-2.54-17.02-3.05-25.58
			c-0.22-3.63-0.45-7.27-0.55-10.91c-0.1-3.73-0.16-7.44-0.17-11.18c-0.02-6.75,0.13-13.5,0.18-20.25c0.01-1.77,0.02-3.54,0.07-5.3
			c0.06-2.68,0.04-5.36,0.57-8c0.55-2.7,1.91-4.93,4.57-6.03c2.67-1.1,5.72-0.79,8.34,0.23c2.05,0.8,3.67,2.42,4.79,4.25
			c1.19,1.93,2.39,3.83,3.48,5.82c3.59,6.51,7.04,13.1,10.51,19.66c6.43,12.16,12.89,24.3,19,36.63
			c-0.92-12.63-0.82-25.32-0.41-37.97c0.22-6.72,0.58-13.44,1.01-20.15c0.21-3.28,0.43-6.57,0.79-9.84c0.2-1.85,0.38-3.7,0.67-5.54
			c0.46-2.91,1.02-5.76,1.66-8.64c0.33-1.49,2.27-2.64,3.52-3.16c1.2-0.49,2.52-0.73,3.83-0.73c0.7,0,1.4,0.07,2.07,0.2
			c1.68,0.32,3.46,1.07,4.58,2.43c0.67,0.76,1.02,1.65,1.05,2.67c-0.78,5.67-1.77,11.31-2.64,16.97
			C432.61,391.89,432.04,396.91,431.55,401.95z"/>
		<path d="M513.31,394.23c1.38,4.14,2.24,8.58,2.34,12.95c0.21,9.18-1.81,18.53-4.99,27.11c-3.68,9.94-8.65,19.27-14.38,28.16
			c-3.56,5.53-7.45,10.83-11.98,15.62c-3.01,3.18-6.23,6.27-9.73,8.9c-1.81,1.36-3.65,2.59-5.63,3.69c-0.6,0.33-1.21,0.64-1.83,0.93
			c0.17,1.08,0.33,2.17,0.49,3.26c0.22,1.48-1.17,2.98-2.24,3.73c-1.55,1.09-3.55,1.55-5.41,1.55c-1.87,0-3.87-0.45-5.41-1.55
			c-0.89-0.59-1.54-1.36-1.97-2.33c-2.02-9.23-3.43-18.53-4.82-27.86c-2.34-15.61-3.89-31.33-4.55-47.1
			c-0.33-7.88-0.56-15.78-0.37-23.67c0.1-4.23,0.19-8.46,0.42-12.69c0.1-1.9,0.15-3.82,0.34-5.72c0.13-1.28,0.25-2.56,0.37-3.84
			c0.17-1.68,0.65-3.28,1-4.93c0.54-1.24,1.38-2.23,2.51-2.97c0.66-0.35,1.31-0.7,1.97-1.05c1.52-0.63,3.21-0.93,4.88-0.93
			c0.89,0,1.77,0.08,2.62,0.25c2.13,0.41,4.41,1.37,5.83,3.09c0.58,0.67,0.96,1.41,1.16,2.22c1.86-0.33,3.73-0.55,5.62-0.68
			c1.32-0.09,2.64-0.15,3.96-0.15c1.02,0,2.03,0.04,3.04,0.11c2.42,0.2,4.89,0.33,7.28,0.77c4.38,0.79,8.66,1.92,12.66,3.89
			c3.95,1.95,7.72,4.71,10.52,8.14C509.67,386.44,511.97,390.19,513.31,394.23z M500.44,404.11c-0.88-4.05-2.28-7.86-4.33-11.47
			c-1.38-2.08-2.94-3.93-4.72-5.68c-1.25-1.03-2.56-1.95-3.95-2.78c-1.18-0.56-2.37-1.05-3.61-1.48c-1.63-0.41-3.26-0.71-4.93-0.94
			c-2.06-0.14-4.1-0.16-6.17-0.05c-1.87,0.24-3.7,0.61-5.53,1.08c-1.21,0.39-2.42,0.79-3.64,1.12c-0.03,0.35-0.06,0.69-0.09,1.04
			c-0.31,3.78-0.57,7.55-0.82,11.34c-1.06,15.9-1.08,31.88-0.44,47.8c0.17,4.23,0.4,8.45,0.66,12.67c0.24,3.78,0.48,7.58,0.92,11.34
			c0.45,3.87,0.91,7.72,1.48,11.56c2.28-1.5,4.47-3.12,6.57-4.92c2.47-2.27,4.83-4.66,6.93-7.27c1.65-2.04,3.35-4.12,4.76-6.34
			c1.28-2.02,2.57-4.05,3.85-6.07c1.43-2.65,2.98-5.27,4.29-7.98c3.68-7.63,6.65-15.46,8.38-23.75
			C501.18,416.95,501.45,410.52,500.44,404.11z"/>
	</g>
	<g>
		<path d="M162.1,331.77c0,1.12-0.11,2.25-0.56,3.37c-0.67,1.35-1.57,1.91-3.15,1.8c-2.7-0.11-5.5-0.34-8.31-0.56
			c-0.79,0-1.57-0.11-2.36-0.23c-2.7-0.56-3.71-1.69-3.93-4.38c-0.11-2.7,0-5.28,0-7.86c-0.11-0.67-0.11-1.24-0.11-1.91
			c-0.11-2.25-0.11-2.36-2.36-2.25c-4.04,0.11-7.98,0.34-12.02,0.67c-5.05,0.45-10.11,0.56-15.17,0.56c-2.58,0-2.58,0-2.58,2.81
			c0,2.47,0,5.05,0,7.53c0,1.01-0.11,2.02-0.34,2.92c-0.45,1.35-1.57,2.25-3.03,2.36c-1.57,0.22-2.7-0.56-3.48-1.8
			c-0.67-1.24-0.67-2.58-0.79-3.82c-0.79-9.32,0.34-18.54,2.36-27.52c1.12-4.94,2.36-9.89,4.04-14.72
			c2.47-6.96,5.95-13.48,11.12-18.98c2.92-3.26,6.63-5.17,10.78-6.07c6.07-1.35,11.12,0.67,15.5,4.83
			c5.62,5.5,8.76,12.36,10.67,19.77c2.02,8.31,3.03,16.74,3.37,25.16c0.11,2.47,0,4.83,0,7.3c0.11,0,0.22,0,0.34,0
			C162.1,324.47,162.1,328.06,162.1,331.77z M143.12,312c-0.11-1.57-0.22-3.48-0.34-5.28c-0.67-7.3-1.57-14.49-3.71-21.57
			c-1.12-3.71-3.03-6.85-5.5-9.77c-0.79-1.01-1.68-1.69-2.81-2.25c-1.35-0.56-2.36-0.45-3.59,0.56c-2.81,2.58-4.94,5.73-6.63,9.32
			c-4.61,9.89-7.08,20.56-8.54,31.34c-0.22,1.57,0,1.57,1.57,1.57c0.45,0,0.9,0,1.35,0c8.65-0.67,17.3-1.24,26.06-1.35
			C143.34,314.47,143.34,314.47,143.12,312z M153.67,329.86c0.34-13.82-0.45-27.52-3.15-41.11c-1.12-5.84-3.37-11.01-8.42-14.49
			c0.11,1.12,0.67,2.02,1.24,3.03c1.8,2.47,2.92,5.28,3.48,8.31c0.9,4.27,1.8,8.54,2.36,12.92c1.35,10.33,2.47,20.67,2.7,31.23
			c0,0.67-0.22,1.46,0.9,1.46C153.9,331.32,153.67,330.53,153.67,329.86z"/>
		<path d="M185.46,324.35c0.11,1.24,0.34,2.47,0.56,3.59c0.45,2.36,0.45,2.36,2.92,1.91c2.58-0.45,5.28-1.01,7.98-1.57
			c1.01-0.22,2.02-0.34,3.03-0.11c1.24,0.22,2.25,0.79,2.47,2.02c0.22,1.35-0.34,2.25-1.35,2.92c-0.67,0.34-1.35,0.56-2.02,0.79
			c-5.95,1.46-12.02,2.58-18.2,3.26c-2.13,0.22-4.16-0.22-6.18-1.01c-2.47-1.01-4.16-2.81-4.94-5.39c-0.79-2.7-1.35-5.5-1.46-8.2
			c-0.67-10-1.24-19.88-1.35-29.88c0-7.19-0.22-14.38-0.22-21.68c0-0.9-0.11-1.91,0.11-2.81c0.45-2.02,1.8-3.03,3.82-2.92
			c3.93,0,7.86,0,11.68,0.45c1.91,0.11,2.81,0.9,3.03,2.92c0.11,1.57,0,3.15,0,4.72c-0.22,7.75-0.45,15.5-0.67,26.29
			C184.45,305.93,185.12,315.14,185.46,324.35z M177.37,276.61c0.11-1.69,0.22-3.37,0.45-4.94c0.11-0.9-0.22-1.24-1.12-1.35
			c-2.47,0-2.7,0.22-2.7,2.58c-0.11,0.34-0.11,0.67,0,1.12c0.22,12.81,0.34,25.61,0.67,38.42c0.11,4.94,0.45,10,1.46,15.05
			c0.34,2.13,0.79,2.7,2.58,2.92c1.46,0.34,1.69,0.11,1.46-1.24c-1.24-5.5-1.69-11.12-2.25-16.85c-0.67-8.54-0.9-17.19-0.9-27.07
			C177.15,283.24,177.26,279.87,177.37,276.61z"/>
		<path d="M238.37,314.36c-1.12,4.61-3.03,9.1-5.06,13.37c-1.01,2.02-2.25,3.93-3.82,5.62c-5.28,5.28-12.47,5.39-18.09,0.22
			c-2.36-2.13-3.93-4.83-5.05-7.75c-1.8-4.94-3.15-10.11-3.37-15.28c-0.79-13.26-0.45-26.4,1.91-39.43
			c0.22-0.79,0.34-1.69,0.67-2.47c0.9-2.36,2.81-3.59,5.17-3.71c3.37,0,6.63,0.11,9.89,0.79c2.58,0.56,3.48,1.8,2.92,4.38
			c-1.69,7.98-2.02,16.06-2.58,24.15c-0.34,4.94-0.45,9.89-0.45,14.83c-0.11,2.02,0.11,4.04,0.34,6.07
			c0.34,4.38,2.7,7.75,6.07,10.67c1.12-0.79,1.46-2.02,2.02-3.03c3.48-6.74,5.06-14.04,6.29-21.46c1.24-6.85,2.47-13.71,3.26-20.67
			c0.22-2.36,1.35-3.48,3.59-3.71c3.37-0.34,6.63-0.67,9.89-0.9c2.36-0.22,3.48,0.79,3.82,3.03c0.22,1.46,0.34,2.92,0.34,4.38
			c-0.11,5.95,0,11.91,0.67,17.75c0.56,4.94,1.68,9.77,3.59,14.38c0.9,2.13,2.02,4.16,3.71,5.73c1.12,1.12,1.68,1.01,2.81-0.22
			c1.8-2.02,2.81-4.61,3.82-7.08c2.25-5.06,2.92-10.33,3.15-15.84c0.22-8.87,0.11-17.75-2.13-26.51c-0.34-1.12-0.45-2.25-0.22-3.37
			c0.34-2.25,2.47-3.03,4.27-1.69c1.01,0.79,1.57,1.91,1.91,3.03c1.35,3.71,1.68,7.53,2.02,11.35c0.9,10.67,0.45,21.46-1.01,32.13
			c-0.56,4.49-1.8,8.99-3.71,13.26c-0.9,2.25-2.13,4.16-3.71,6.07c-3.93,4.72-9.32,6.07-14.94,3.71c-4.27-1.8-7.75-4.61-10.33-8.54
			c-2.7-4.27-4.38-8.87-5.5-13.82c-0.22-1.01-0.45-2.02-0.67-3.26C238.82,311.77,238.71,313.12,238.37,314.36z M215.9,318.51
			c-0.56-2.13-1.12-4.38-1.35-6.63c-0.9-9.89-1.12-19.66-0.56-29.54c0.11-3.26,0.67-6.52,1.12-9.77c0.11-0.56,0.45-1.12-0.22-1.35
			c-0.45-0.22-1.01-0.22-1.57-0.11s-0.67,0.79-0.67,1.24c-0.34,1.91-0.67,3.82-0.9,5.73c-0.9,8.2-1.24,16.29-1.12,24.49
			c0,7.08,0.9,14.15,3.26,20.89c0.45,1.46,1.12,2.92,2.02,4.16c1.91,2.47,4.38,3.37,7.19,2.25
			C218.15,325.37,217.36,324.02,215.9,318.51z M263.42,329.63c-4.38-1.46-7.08-4.72-9.32-8.65c-1.91-3.48-2.92-7.3-3.82-11.12
			c-1.8-8.43-2.7-16.85-1.91-25.39c0-0.34,0.11-0.79,0-1.12c-0.22-0.67-0.79-0.56-1.24-0.22c-0.45,0.22-0.34,0.9-0.45,1.35
			c0,2.13-0.11,4.27-0.22,6.29c-0.22,7.41-0.22,14.83,1.35,22.13c0.79,3.82,1.91,7.41,3.93,10.78c1.8,3.03,4.38,5.39,7.75,6.52
			c1.46,0.45,2.81,0.79,4.27,0.11C263.64,329.97,263.53,329.63,263.42,329.63z"/>
		<path d="M343.28,331.77c0,1.12-0.11,2.25-0.56,3.37c-0.67,1.35-1.57,1.91-3.15,1.8c-2.7-0.11-5.5-0.34-8.31-0.56
			c-0.79,0-1.57-0.11-2.36-0.23c-2.7-0.56-3.71-1.69-3.93-4.38c-0.11-2.7,0-5.28,0-7.86c-0.11-0.67-0.11-1.24-0.11-1.91
			c-0.11-2.25-0.11-2.36-2.36-2.25c-4.04,0.11-7.98,0.34-12.02,0.67c-5.05,0.45-10.11,0.56-15.17,0.56c-2.58,0-2.58,0-2.58,2.81
			c0,2.47,0,5.05,0,7.53c0,1.01-0.11,2.02-0.34,2.92c-0.45,1.35-1.57,2.25-3.03,2.36c-1.57,0.22-2.7-0.56-3.48-1.8
			c-0.67-1.24-0.67-2.58-0.79-3.82c-0.79-9.32,0.34-18.54,2.36-27.52c1.12-4.94,2.36-9.89,4.04-14.72
			c2.47-6.96,5.95-13.48,11.12-18.98c2.92-3.26,6.63-5.17,10.78-6.07c6.07-1.35,11.12,0.67,15.5,4.83
			c5.62,5.5,8.76,12.36,10.67,19.77c2.02,8.31,3.03,16.74,3.37,25.16c0.11,2.47,0,4.83,0,7.3c0.11,0,0.22,0,0.34,0
			C343.28,324.47,343.28,328.06,343.28,331.77z M324.3,312c-0.11-1.57-0.22-3.48-0.34-5.28c-0.67-7.3-1.57-14.49-3.71-21.57
			c-1.12-3.71-3.03-6.85-5.5-9.77c-0.79-1.01-1.68-1.69-2.81-2.25c-1.35-0.56-2.36-0.45-3.59,0.56c-2.81,2.58-4.94,5.73-6.63,9.32
			c-4.61,9.89-7.08,20.56-8.54,31.34c-0.22,1.57,0,1.57,1.57,1.57c0.45,0,0.9,0,1.35,0c8.65-0.67,17.3-1.24,26.06-1.35
			C324.52,314.47,324.52,314.47,324.3,312z M334.86,329.86c0.34-13.82-0.45-27.52-3.15-41.11c-1.12-5.84-3.37-11.01-8.42-14.49
			c0.11,1.12,0.67,2.02,1.24,3.03c1.8,2.47,2.92,5.28,3.48,8.31c0.9,4.27,1.8,8.54,2.36,12.92c1.35,10.33,2.47,20.67,2.7,31.23
			c0,0.67-0.23,1.46,0.9,1.46C335.08,331.32,334.86,330.53,334.86,329.86z"/>
		<path d="M358.11,306.27c0.11-1.01-0.11-1.8-1.01-2.47c-7.98-5.62-11.57-13.82-13.14-23.14c-0.45-3.03-0.56-6.07-0.67-9.21
			c0-0.67,0-1.35,0.11-2.02c0.45-3.03,1.68-4.27,4.72-4.61c1.91-0.22,3.82,0,5.73,0.11c1.91,0.11,3.82,0.11,5.73,0.11
			c2.7,0.11,3.71,0.9,3.93,3.59c0.11,1.35,0.11,2.7,0.11,4.16c0.22,4.04,0.79,8.09,1.8,12.13c0.56,1.91,1.35,3.82,2.7,5.28
			c1.46,1.8,2.36,1.8,3.71,0c3.71-4.94,6.85-10.22,8.42-16.18c0.56-2.02,1.35-4.04,1.57-6.29c0.11-1.8,1.57-2.58,3.71-2.25
			c1.8,0.22,2.7,1.01,2.36,3.03s-1.01,4.04-1.46,6.07c-1.69,7.19-4.04,14.27-7.86,20.67c-0.11,0.22-0.22,0.45-0.45,0.67
			c-2.7,2.81-2.92,6.4-2.81,10.11c0.22,8.31-0.11,16.51,0.56,24.83c0.11,0.79,0.11,1.57,0.11,2.36c-0.11,1.57-0.9,2.7-2.36,3.03
			c-3.26,1.01-6.4,1.8-9.77,1.46c-3.93-0.45-5.28-1.69-5.62-5.5c-0.34-4.61-0.22-9.1-0.11-13.59
			C358.11,314.47,358.11,310.43,358.11,306.27z M360.8,290.54c-3.15-5.62-5.28-11.46-5.95-17.97c-0.11-1.91-0.34-1.91-2.47-1.8
			c-1.57,0.11-1.68,0.11-1.57,1.91c0.22,4.38,0.9,8.76,2.25,12.81c1.91,5.62,5.06,10.33,9.89,13.82c2.58,1.8,3.26,1.69,5.28-0.9
			C364.62,296.16,362.94,294.47,360.8,290.54z M364.96,310.2c-0.11,6.29-0.22,12.47-0.34,18.65c0,0.45-0.11,1.01-0.11,1.57
			c0,0.67,0.34,1.12,1.12,1.12c0.45-0.11,0.9-0.11,1.35,0c1.12,0.11,1.8-0.22,1.57-1.69c-0.45-2.25-0.11-4.49-0.11-6.74
			c0-5.62,0-11.12,0-16.85C364.62,307.17,365.07,306.49,364.96,310.2z"/>
		<path d="M401.47,302.56c-1.46-1.12-2.92-2.36-4.16-3.82c-3.82-4.49-5.5-9.66-4.38-15.61c1.12-5.84,3.71-10.78,8.99-14.15
			c5.5-3.37,14.04-2.92,19.21,1.12c1.57,1.24,2.7,2.81,2.81,4.83c0,1.01-0.11,1.91-1.12,2.47c-1.01,0.56-1.68,0.11-2.47-0.45
			c-2.36-1.8-5.05-3.03-7.98-3.59c-3.03-0.56-5.5,0.45-7.64,2.47c-1.01,0.9-1.12,1.8-0.56,3.03c0.67,1.24,1.68,2.13,2.92,2.92
			c3.26,2.36,6.96,3.93,10.56,5.73c2.36,1.24,4.83,2.47,7.19,3.71c8.31,4.49,11.79,11.8,12.02,20.89c0.11,4.94-0.67,9.89-3.03,14.49
			c-2.81,5.73-7.41,9.1-13.37,10.78c-4.94,1.35-10.11,0.56-15.28,0c-1.35-0.11-2.58-0.9-3.71-1.69c-2.25-1.69-3.93-3.82-5.28-6.07
			c-1.46-2.36-1.35-4.94-0.9-7.41c0.56-3.15,2.02-5.95,4.27-8.31c1.91-2.02,4.04-3.71,6.51-5.17c0.79-0.45,1.8-0.67,2.47-1.8
			C406.07,305.48,403.6,304.25,401.47,302.56z M414.5,310.2c-0.9-0.67-1.57-0.79-2.47,0c-0.79,0.67-1.68,1.01-2.47,1.46
			c-3.26,1.69-5.95,3.93-8.09,6.85c-1.8,2.47-2.47,5.17-1.46,8.2c1.57,4.72,8.65,7.19,13.37,4.49c4.27-2.47,6.29-6.18,6.4-9.89
			C419.66,315.71,418.09,312.67,414.5,310.2z M402.36,293.8c1.46,1.91,3.48,3.37,5.5,4.72c2.7,1.57,5.5,3.03,8.09,4.83
			c6.96,4.61,11.12,10.67,10,19.43c0,0.22,0.11,0.56,0.11,0.9c1.24-0.67,1.57-1.8,1.91-2.92c1.12-3.93,1.35-7.98,0.9-12.02
			c-0.34-4.16-2.36-7.3-5.95-9.55c-2.81-1.8-5.73-3.37-8.65-4.83c-4.83-2.58-9.66-5.17-14.04-9.1
			C399.56,288.63,400.57,291.33,402.36,293.8z"/>
	</g>
	<g>
		<path d="M497.99,303.41c1.1-4.51,1.71-9.05,2.15-13.67c0.21-2.26,0.63-4.51,1.33-6.68c0.24-0.76,1.3-4.57,2.57-3.11
			c0.36,0.42,0.34,1.37,0.37,1.9c0.1,1.35,0.11,2.71,0.09,4.06c-0.03,2.84-0.24,5.7-0.71,8.51c-0.98,5.91-2.81,11.64-5.48,17
			c1.39-0.36,2.77-0.73,4.16-1.09c-10.29-6.25-24.84-9.06-30.47-20.87c-0.88,1.53-1.75,3.05-2.63,4.58
			c2.11,0.08,3.69,2.02,5.04,3.43c1.69,1.77,3.4,3.44,5.48,4.75c4.31,2.71,9.71,4.1,14.7,4.87c6.12,0.94,7.73-6.5,9.71-10.84
			c1.13-2.49,2.64-4.99,1.7-7.79c-0.47-1.4-1.45-2.48-1.71-3.96c-0.24-1.4,0.06-2.66,0.57-3.95c-1.99-0.27-3.98-0.54-5.98-0.81
			c-0.27,7.19-0.53,14.38-0.8,21.57c-0.04,1.14,0.36,3.66-0.28,4.65c0.61-0.94,0.27,0.02-0.14-0.58c-0.27-0.4-0.71-0.73-1.01-1.12
			c-1.82-2.37-3.45-4.8-5.55-6.95c-4.07-4.15-8.97-7.45-14.33-9.69c-4-1.68-10.3-3.15-12.15,2.32c-1.53,4.52,0.65,9.99,3.39,13.59
			c3,3.95,7.33,7.11,11.62,9.54c5.09,2.88,10.96,3.74,16.71,4.11c1.42,0.09,2.91,0.27,4.33,0.21c0.58-0.03,1.13-0.16,1.69-0.3
			c2.1-0.52-0.93,0.5,1.02-0.43c1.63-0.79,2.63-1.62,3.21-3.32c1.16-3.46,1.4-7.39,1.85-10.98c0.86-6.75,1.5-13.53,2.05-20.31
			c0.32-3.9-5.77-3.88-6.08,0c-0.75,9.16-1.36,18.51-3.17,27.54c-0.1,0.49-0.22,0.98-0.33,1.47c-0.13,0.55-0.59,0.99-0.04,0.35
			c-0.38,0.44,0.67-0.09,0.33-0.43c-0.09,0.05-0.17,0.09-0.26,0.14c-0.33,0.16-0.35,0.18-0.05,0.05c-0.24,0.1-0.48,0.2-0.73,0.31
			c0.75-0.17,0.68-0.23-0.21-0.18c-0.8-0.15-1.71-0.07-2.53-0.12c-5.32-0.29-10.68-0.95-15.34-3.7c-3.33-1.96-6.84-4.38-9.2-7.49
			c-1.15-1.51-2.04-3.3-2.42-5.16c-0.2-0.99-0.2-1.92-0.1-2.91c0-0.02,0.09,0.22-0.23,0.22c0.5-0.01,0.83-0.05,1.36,0.06
			c4.57,0.94,9.3,4.09,12.78,7.09c1.91,1.64,3.7,3.47,5.25,5.45c1.47,1.89,2.6,4.12,4.57,5.56c2.26,1.64,5.5,2,7.74,0.11
			c2.41-2.03,2.18-5.34,2.29-8.21c0.28-7.48,0.55-14.95,0.83-22.43c0.14-3.67-4.8-3.81-5.98-0.81c-0.89,2.28-1.09,4.79-0.57,7.19
			c0.26,1.19,0.75,2.29,1.29,3.38c0.63,1.26,0.26,1.64-0.34,2.95c-1.11,2.44-2.21,4.87-3.32,7.31c-0.21,0.46-0.38,1.1-0.71,1.48
			c-0.2,0.31-0.18,0.33,0.05,0.06c0.37-0.27,0.21-0.37-0.49-0.32c-1.02-0.41-2.32-0.49-3.4-0.75c-4.29-1.04-8.33-2.49-11.49-5.69
			c-3.09-3.13-5.94-6.4-10.65-6.58c-2.47-0.1-3.56,2.61-2.63,4.58c6.23,13.04,21.32,16.17,32.66,23.06
			c1.34,0.81,3.44,0.36,4.16-1.09c3.39-6.81,5.61-14.03,6.54-21.58c0.46-3.71,0.65-7.5,0.38-11.23c-0.2-2.71-0.91-5.56-3.36-7.12
			c-2.72-1.72-6.31-1.29-8.55,1.01c-2.24,2.3-3.23,6.17-3.82,9.21c-1.11,5.66-1.25,11.36-2.62,16.99
			C491.2,305.59,497.07,307.21,497.99,303.41L497.99,303.41z"/>
		<path d="M476.4,305.21c2.03,1.42,4.07,2.86,6.24,4.07c2.11,1.18,4.53,1.8,6.58,3.02c3.37,2,6.44-3.25,3.07-5.25
			c-2.08-1.23-4.47-1.84-6.58-3.02c-2.17-1.21-4.2-2.64-6.24-4.07C476.26,297.7,473.21,302.98,476.4,305.21L476.4,305.21z"/>
	</g>
	<g>
		<g>
			<path d="M492.89,245.95c13.36-24.94,10.27-56.63-8.82-77.74c-17.27-19.09-43.84-26.72-68.75-20.62
				c-9.95,2.43-20.12,6.77-28.37,12.92c2.55,1.96,5.09,3.91,7.64,5.87c3.5-12.69,3.67-26.77,0.17-39.45
				c-5.32-19.31-19.6-34.06-38.22-40.99c-29.49-10.98-64.99-6.73-91,10.83c-13.61,9.19-24.3,21.67-32.14,36.02
				c-10.29,18.86-17.51,40.83-15.23,62.54c2.01,19.15,11.32,34.95,27.91,44.99c14.2,8.59,32.4,12.31,48.24,6.21
				c8.49-3.27,17.32-8.62,21.81-16.84c4.52-8.27,3.13-17.99-2.2-25.53c-5.53-7.84-14.59-12.61-24.26-11.19
				c-10.6,1.56-18.3,9.7-21.62,19.54c-2.14,6.36,7.9,9.08,10.03,2.76c2.31-6.85,8.57-12.92,16.27-12.18
				c6.67,0.64,12.15,6.46,13.77,12.76c3.42,13.35-15.4,21.87-25.95,23.09c-13.65,1.57-28.23-4.1-38.37-13.1
				c-12.67-11.24-16.55-27.33-15.44-43.82c1.96-29.12,18.79-60.8,43.43-76.94c22.22-14.55,49.83-18.03,75.37-11.22
				c17.54,4.68,31.82,16.71,37.18,34.41c3.43,11.34,3.39,23.92,0.24,35.34c-1.11,4.02,3.85,8.7,7.64,5.87
				c16.71-12.45,39.75-17.37,59.62-10.56c20.05,6.87,36.86,26.08,38.8,48.54c0.97,11.27-1.33,23.22-6.69,33.23
				C480.75,246.6,489.72,251.86,492.89,245.95L492.89,245.95z"/>
		</g>
	</g>
	<g>
		<g>
			<path d="M227.74,157.02c-30.99-14.23-68.44-19.82-100.9-7.26c-31.1,12.04-61.89,40.99-60.88,76.8
				c0.48,17.11,8.54,33.38,20.73,45.21c4.8,4.67,12.17-2.68,7.35-7.35c-8.82-8.57-15.34-19.84-17.19-32.09
				c-2.59-17.1,4.94-33.48,15.61-46.45c21.94-26.69,58.52-36.35,91.78-31.24c13.13,2.02,26.19,5.82,38.26,11.37
				C228.53,168.77,233.82,159.81,227.74,157.02L227.74,157.02z"/>
		</g>
	</g>
	<g>
		<g>
			<path d="M103.84,520.26c32.24,54.65,63.24,110.02,92.96,166.09c3.92,7.39,15.14,0.83,11.23-6.56
				c-29.72-56.06-60.72-111.44-92.96-166.09C110.82,506.5,99.57,513.03,103.84,520.26L103.84,520.26z"/>
		</g>
	</g>
	<g>
		<g>
			<path d="M521.2,518.12c-26.92,55.56-52.71,111.67-77.34,168.29c-3.3,7.6,7.89,14.22,11.23,6.56
				c24.63-56.62,50.42-112.72,77.34-168.29C536.05,517.18,524.85,510.58,521.2,518.12L521.2,518.12z"/>
		</g>
	</g>
	<g>
		<g>
			<path d="M203.57,692.92c82.91-4.08,166.03-2.72,248.77,4.06c8.34,0.68,8.29-12.32,0-13c-82.73-6.79-165.86-8.14-248.77-4.06
				C195.24,680.33,195.19,693.33,203.57,692.92L203.57,692.92z"/>
		</g>
	</g>
	<g>
		<g>
			<path d="M456.13,521.81c-17.09,53.65-31.39,108.16-42.76,163.3c-1.3,6.28,8.34,8.97,9.64,2.66
				c11.38-55.15,25.67-109.65,42.76-163.3C467.73,518.33,458.08,515.7,456.13,521.81L456.13,521.81z"/>
		</g>
	</g>
	<g>
		<g>
			<path d="M390.43,519.04c-7.3,55.85-11.67,112.06-13.07,168.37c-0.16,6.44,9.84,6.43,10,0c1.4-56.31,5.77-112.52,13.07-168.37
				C401.26,512.68,391.25,512.74,390.43,519.04L390.43,519.04z"/>
		</g>
	</g>
	<g>
		<g>
			<path d="M335.73,526.79c2.72,51.86,3.6,103.81,2.62,155.73c-0.12,6.44,9.88,6.44,10,0c0.98-51.92,0.11-103.87-2.62-155.73
				C345.39,520.39,335.39,520.35,335.73,526.79L335.73,526.79z"/>
		</g>
	</g>
	<g>
		<g>
			<path d="M275.97,526.45c8.75,52.13,17.25,104.29,25.48,156.5c1,6.34,10.64,3.65,9.64-2.66c-8.24-52.21-16.73-104.38-25.48-156.5
				C284.55,517.46,274.91,520.15,275.97,526.45L275.97,526.45z"/>
		</g>
	</g>
	<g>
		<g>
			<path d="M223.63,520.59c18.73,52.01,32.53,105.68,41.04,160.3c0.99,6.34,10.63,3.65,9.64-2.66
				c-8.51-54.62-22.32-108.3-41.04-160.3C231.11,511.92,221.45,514.51,223.63,520.59L223.63,520.59z"/>
		</g>
	</g>
	<g>
		<g>
			<path d="M166.71,525.94c8.71,27.99,17.43,55.97,26.14,83.96c4.23,13.58,8.34,27.2,12.71,40.73c3.91,12.09,8.46,23.99,15.22,34.8
				c3.41,5.44,12.06,0.43,8.63-5.05c-6.79-10.86-11.15-22.74-15.01-34.9c-4.24-13.36-8.35-26.77-12.51-40.15
				c-8.51-27.35-17.03-54.7-25.54-82.05C174.44,517.16,164.79,519.77,166.71,525.94L166.71,525.94z"/>
		</g>
	</g>
	<g>
		<path d="M151.51,429.15c-1.64-6.74-2.55-13.5-3.2-20.39c-0.32-3.38-0.94-6.73-1.98-9.97c-0.37-1.14-1.94-6.82-3.83-4.63
			c-0.54,0.63-0.5,2.04-0.56,2.83c-0.15,2.01-0.16,4.05-0.14,6.06c0.05,4.24,0.36,8.5,1.06,12.69c1.46,8.82,4.19,17.37,8.17,25.36
			c-2.07-0.54-4.14-1.09-6.21-1.63c15.35-9.33,37.06-13.52,45.47-31.14c1.31,2.28,2.61,4.55,3.92,6.83
			c-3.15,0.12-5.5,3.01-7.52,5.12c-2.52,2.63-5.07,5.13-8.18,7.09c-6.43,4.04-14.49,6.12-21.93,7.27
			c-9.13,1.4-11.54-9.7-14.49-16.18c-1.69-3.72-3.94-7.45-2.54-11.63c0.7-2.09,2.16-3.7,2.55-5.91c0.36-2.09-0.1-3.97-0.85-5.9
			c2.97-0.4,5.94-0.8,8.92-1.21c0.4,10.73,0.8,21.46,1.19,32.18c0.06,1.71-0.53,5.46,0.42,6.93c-0.91-1.41-0.41,0.03,0.21-0.86
			c0.41-0.59,1.06-1.09,1.51-1.68c2.71-3.54,5.15-7.16,8.29-10.37c6.07-6.2,13.39-11.11,21.38-14.46c5.97-2.5,15.37-4.7,18.14,3.46
			c2.29,6.74-0.98,14.9-5.06,20.28c-4.47,5.9-10.93,10.6-17.34,14.23c-7.6,4.3-16.35,5.58-24.94,6.13c-2.12,0.14-4.34,0.4-6.46,0.31
			c-0.87-0.04-1.69-0.24-2.52-0.44c-3.13-0.77,1.39,0.75-1.52-0.65c-2.44-1.17-3.93-2.42-4.78-4.95
			c-1.73-5.16-2.08-11.02-2.77-16.38c-1.29-10.07-2.23-20.19-3.06-30.31c-0.48-5.82,8.61-5.79,9.08,0
			c1.12,13.67,2.03,27.61,4.73,41.09c0.15,0.73,0.32,1.46,0.49,2.19c0.19,0.83,0.88,1.48,0.05,0.52c0.57,0.66-1-0.13-0.49-0.64
			c0.13,0.07,0.26,0.14,0.39,0.2c0.49,0.24,0.52,0.27,0.08,0.08c0.36,0.15,0.72,0.31,1.08,0.46c-1.11-0.25-1.01-0.34,0.31-0.27
			c1.2-0.22,2.55-0.11,3.77-0.17c7.94-0.43,15.93-1.41,22.9-5.52c4.97-2.93,10.21-6.54,13.72-11.17c1.71-2.25,3.04-4.92,3.61-7.7
			c0.3-1.47,0.3-2.87,0.15-4.34c0-0.04-0.14,0.32,0.34,0.33c-0.75-0.01-1.24-0.08-2.03,0.08c-6.83,1.4-13.87,6.1-19.07,10.57
			c-2.85,2.45-5.52,5.17-7.83,8.13c-2.2,2.82-3.87,6.15-6.82,8.3c-3.37,2.45-8.21,2.99-11.56,0.17c-3.6-3.03-3.26-7.96-3.42-12.25
			c-0.41-11.16-0.83-22.31-1.24-33.47c-0.2-5.47,7.16-5.68,8.92-1.21c1.33,3.4,1.63,7.15,0.85,10.73c-0.39,1.78-1.12,3.42-1.93,5.04
			c-0.93,1.88-0.38,2.45,0.51,4.41c1.65,3.63,3.29,7.27,4.96,10.9c0.31,0.69,0.56,1.64,1.06,2.21c0.3,0.46,0.28,0.49-0.07,0.09
			c-0.56-0.4-0.31-0.56,0.73-0.48c1.52-0.61,3.46-0.73,5.07-1.12c6.41-1.55,12.42-3.72,17.14-8.49c4.61-4.67,8.87-9.54,15.9-9.82
			c3.69-0.14,5.32,3.9,3.92,6.83c-9.29,19.46-31.81,24.12-48.73,34.4c-1.99,1.21-5.13,0.54-6.21-1.63
			c-5.06-10.15-8.36-20.93-9.75-32.19c-0.68-5.53-0.97-11.19-0.57-16.75c0.3-4.05,1.35-8.3,5.02-10.62
			c4.06-2.56,9.41-1.93,12.75,1.51c3.34,3.44,4.81,9.2,5.71,13.75c1.65,8.44,1.86,16.94,3.91,25.35
			C161.64,432.41,152.89,434.83,151.51,429.15L151.51,429.15z"/>
		<path d="M183.73,431.84c-3.03,2.13-6.07,4.26-9.3,6.07c-3.15,1.76-6.75,2.69-9.82,4.51c-5.03,2.99-9.61-4.85-4.58-7.84
			c3.1-1.84,6.66-2.74,9.82-4.51c3.23-1.81,6.27-3.95,9.3-6.07C183.94,420.64,188.48,428.51,183.73,431.84L183.73,431.84z"/>
	</g>
</g>
</svg>
