<?xml version="1.0" encoding="utf-8"?>
<!-- Generator: Adobe Illustrator 25.4.1, SVG Export Plug-In . SVG Version: 6.00 Build 0)  -->
<svg version="1.0" id="Layer_1" xmlns="http://www.w3.org/2000/svg" xmlns:xlink="http://www.w3.org/1999/xlink" x="0px" y="0px"
	 viewBox="0 0 612 792" style="enable-background:new 0 0 612 792;" xml:space="preserve">
<g>
	<path d="M121.7,363.56c0.39,0.5,0.61,1.03,0.51,1.67c-0.12,0.77-0.39,1.27-1.04,1.73c-0.48,0.32-1,0.53-1.57,0.63
		c-0.99,0.2-1.89,0.14-2.88,0.01c0.23,0.02,0.47,0.05,0.71,0.07c-0.57-0.06-1.14-0.14-1.71-0.22c-0.14-0.02-0.28-0.04-0.42-0.06
		c0.03,0.23,0.05,0.46,0.07,0.69c0.26,2.87,0.08,5.84-0.77,8.62c-0.45,1.45-1.03,2.8-1.82,4.1c-0.63,1.04-1.32,2.1-2.23,2.92
		c-1.06,0.94-2.12,1.87-3.45,2.41c-1.33,0.54-2.62,0.78-4.05,0.84c-0.5-0.04-1-0.09-1.5-0.15c-0.47-0.11-0.94-0.23-1.4-0.38
		c-0.56-0.22-1.19-0.47-1.65-0.85c-0.96-0.8-1.83-1.65-2.32-2.82c-1.01-2.41-1.01-4.99-0.48-7.51c0.33-1.55,0.79-3.09,1.56-4.48
		c0.69-1.27,1.43-2.56,2.4-3.65c1.63-1.84,3.58-3.46,5.79-4.57c-0.21-0.42-0.42-0.83-0.66-1.25c-0.8-1.22-1.69-2.35-2.74-3.37
		c-0.46-0.38-0.93-0.73-1.44-1.06c-0.27-0.12-0.54-0.23-0.81-0.33c0,0-0.01,0-0.01,0c-0.06,0-0.12,0-0.18,0
		c-0.16,0.03-0.33,0.06-0.49,0.09c-0.3,0.12-0.6,0.24-0.89,0.37c-0.62,0.38-1.21,0.8-1.78,1.26c-1.27,1.23-2.36,2.59-3.33,4.07
		c-2.29,3.93-3.69,8.2-4.62,12.64c-1.5,8.33-1.3,17,0.23,25.31c1.09,5.21,2.8,10.23,5.49,14.85c1.05,1.62,2.2,3.14,3.56,4.52
		c0.1,0.08,0.2,0.16,0.3,0.24c0.24-0.28,0.46-0.58,0.68-0.89c0.83-1.51,1.33-3.14,1.75-4.81c0.16-0.84,0.33-1.68,0.43-2.53
		c0.14-1.24,0.26-2.48,0.34-3.73c0.17-2.71,0.2-5.43,0.34-8.14c0.11-2.03,2.45-2.89,4.19-2.89c1.02,0,2.12,0.25,2.96,0.85
		c0.63,0.45,1.28,1.2,1.23,2.04c-0.21,3.5-0.65,6.98-1.33,10.42c0.05-0.23,0.09-0.47,0.14-0.7c-0.28,1.5-0.55,2.99-0.88,4.48
		c-0.55,2.45-1.09,5.03-2.32,7.25c-0.38,0.69-0.77,1.43-1.28,2.03c-0.52,0.63-1.17,1.35-1.89,1.75c-0.92,0.5-1.81,1-2.86,1.19
		c-0.96,0.17-1.91,0.26-2.88,0.18c-1.25-0.11-2.52-0.31-3.66-0.86c-0.93-0.45-1.88-0.9-2.68-1.55c-1.41-1.15-2.74-2.39-3.79-3.88
		c-4.39-6.27-6.84-13.69-8.04-21.21c-1.2-7.57-1.05-15.35,0.37-22.88c1.1-5.87,2.97-11.58,6.23-16.62c0.85-1.32,1.78-2.61,2.89-3.72
		c0.99-0.98,2.02-2.01,3.21-2.75c1.18-0.73,2.41-1.39,3.72-1.85c0.68-0.24,1.54-0.51,2.28-0.59c0.72-0.08,1.46-0.21,2.19-0.21
		c0.08,0,0.17,0,0.25,0c1.84,0.07,3.78,0.31,5.44,1.17c0.7,0.37,1.45,0.68,2.08,1.16c0.61,0.47,1.2,0.95,1.76,1.48
		c1.78,1.66,3.22,3.73,4.25,5.94c0.08,0.18,0.16,0.36,0.24,0.53c0.12,0,0.24,0,0.36,0.01c0.62,0.02,1.25,0.07,1.87,0.15
		c0.2,0.02,0.39,0.04,0.59,0.06c0.62,0.12,1.24,0.28,1.84,0.49c0.23,0.07,0.45,0.13,0.68,0.2c0.63,0.31,1.25,0.64,1.86,1
		C121.02,362.71,121.39,363.17,121.7,363.56z M103.17,381.6c-0.02-0.01-0.04-0.01-0.06-0.02
		C103.12,381.59,103.14,381.59,103.17,381.6C103.17,381.6,103.17,381.6,103.17,381.6z M107.53,370c-0.98,0.99-1.85,2.04-2.62,3.2
		c-0.75,1.37-1.32,2.76-1.68,4.27c-0.12,0.99-0.14,1.93-0.01,2.91c0.1,0.34,0.22,0.64,0.36,0.95c0.21-0.15,0.41-0.3,0.61-0.46
		c0.56-0.58,1.05-1.18,1.5-1.85c0.74-1.33,1.25-2.71,1.62-4.19C107.58,373.22,107.64,371.61,107.53,370z M103.78,381.29
		c-0.06,0.03-0.12,0.06-0.17,0.09c0,0,0,0,0,0C103.66,381.36,103.72,381.33,103.78,381.29z M104.07,381.75
		c-0.08-0.01-0.17-0.01-0.25-0.02c0,0,0,0,0,0C103.91,381.74,103.99,381.75,104.07,381.75z"/>
	<path d="M163.32,380.54c0.19,1.93,0.38,3.9,0.33,5.84c-0.03,1.32-0.06,2.63-0.09,3.95c-0.02,0.92-0.13,1.82-0.23,2.73
		c-0.13,1.16-0.2,2.34-0.39,3.49c-0.53,3.27-1.2,6.53-2.18,9.7c-0.42,1.36-0.9,2.68-1.39,4.01c-0.56,1.54-1.11,3.07-1.75,4.57
		c-0.56,1.34-1.17,2.64-1.84,3.93c-0.64,1.25-1.3,2.54-2.15,3.67c-1.89,2.51-4.41,4.6-7.52,5.36c-2.91,0.71-5.9,0.31-8.59-0.98
		c-2.78-1.34-5.2-3.64-6.99-6.14c-1.77-2.48-3.31-5.16-4.42-8c-2.35-6-3.53-12.5-3.85-18.93c-0.33-6.42,0.05-12.97,1.62-19.23
		c0.44-1.74,0.89-3.5,1.59-5.15c0.59-1.4,1.23-2.9,2.15-4.13c0.41-0.55,0.82-1.03,1.3-1.51c0.09-0.1,0.17-0.19,0.27-0.27
		c-0.64-0.71-1.34-1.57-1.68-2.47c-0.47-1.28-0.71-2.52-0.53-3.87c0.14-1.05,0.49-1.98,1.02-2.89c1.38-2.37,3.62-3.92,6.17-4.85
		c0.78-0.28,1.7-0.54,2.53-0.62c0.76-0.07,1.53-0.2,2.29-0.2c0.07,0,0.13,0,0.2,0c1.22,0.04,2.49,0.1,3.68,0.39
		c2.48,0.62,4.9,1.55,6.97,3.09c4.25,3.17,7.37,7.65,9.43,12.51C161.41,369.62,162.76,375.06,163.32,380.54z M155.67,384.31
		c-0.03-3.86-0.34-7.69-1.03-11.49c-0.29-1.41-0.64-2.81-1.06-4.18c-2.14,0.25-4.28,0.35-6.44,0.36c-0.81,0-1.63-0.01-2.44-0.08
		c-1.71-0.15-3.43-0.24-5.12-0.57c-0.65-0.12-1.3-0.26-1.94-0.43c-1.88,3.4-2.94,7.21-3.72,11c-0.84,4.63-1.28,9.35-1.32,14.05
		c-0.04,4.5,0.2,8.98,0.97,13.42c0.86,4.12,2.18,8.1,4.28,11.76c0.86,1.32,1.81,2.54,2.94,3.63c0.47,0.38,0.95,0.72,1.46,1.03
		c0.24,0.11,0.49,0.21,0.74,0.3c0.1,0.02,0.21,0.04,0.31,0.06c0.12,0,0.23,0,0.35,0c0.07-0.01,0.14-0.02,0.22-0.04
		c0.32-0.12,0.62-0.25,0.93-0.39c0.42-0.27,0.81-0.56,1.2-0.87c0.71-0.71,1.32-1.45,1.88-2.29c1.74-3.01,3-6.27,4.04-9.58
		c0.35-1.13,0.71-2.26,1.07-3.39c0.53-1.68,0.9-3.41,1.25-5.14c0.47-2.54,0.77-5.07,1-7.64c0.12-1.29,0.24-2.56,0.28-3.85
		C155.58,388.11,155.69,386.21,155.67,384.31z M135.37,358.94c0.13,0.41,0.28,0.77,0.46,1.15c0.26,0.35,0.53,0.67,0.84,0.99
		c0.4,0.31,0.81,0.59,1.24,0.84c0.57,0.26,1.15,0.49,1.75,0.7c1.12,0.28,2.24,0.48,3.38,0.62c1.84,0.09,3.64,0.08,5.47-0.01
		c0.93-0.1,1.86-0.21,2.78-0.32c-0.26-0.52-0.54-1.04-0.83-1.55c-1.04-1.64-2.23-3.14-3.63-4.5c-0.84-0.7-1.71-1.32-2.64-1.87
		c-0.58-0.28-1.17-0.52-1.78-0.74c-0.56-0.14-1.12-0.25-1.7-0.34c-0.36-0.01-0.72-0.01-1.08,0c-0.37,0.06-0.73,0.12-1.09,0.2
		c-0.34,0.13-0.68,0.27-1.01,0.42c-0.31,0.2-0.6,0.41-0.89,0.64c-0.27,0.3-0.52,0.6-0.76,0.92c-0.22,0.45-0.4,0.9-0.54,1.38
		C135.31,357.96,135.32,358.44,135.37,358.94z"/>
	<path d="M218.27,424.38c0.16,0.79-0.67,1.65-1.23,2.05c-0.85,0.6-1.94,0.85-2.97,0.85s-2.12-0.25-2.97-0.84
		c-0.49-0.32-0.84-0.75-1.08-1.28c-0.61-2.59-1.18-5.17-1.7-7.78c-0.74-3.72-1.34-7.48-1.89-11.23c-0.13,0.51-0.26,1.03-0.4,1.54
		c-0.78,2.86-1.7,5.71-3.02,8.38c-1.38,2.79-3.04,5.41-5.32,7.55c-1.02,0.95-2.1,1.73-3.33,2.39c-1.29,0.69-2.74,1.3-4.21,1.47
		c-1.76,0.21-3.63,0.34-5.36-0.16c-1.56-0.45-3.04-0.95-4.42-1.83c-2.54-1.61-4.72-3.81-6.37-6.34c-1.88-2.88-3.43-5.95-4.49-9.23
		c-1.08-3.34-1.84-6.76-2.35-10.23c-0.24-1.62-0.34-3.23-0.47-4.86c-0.07-0.98-0.21-1.98-0.2-2.96c0.03-4.81,0.06-9.62,0.61-14.41
		c0.3-2.58,0.56-5.14,1-7.7c0.29-1.72,0.56-3.46,0.91-5.16c0.33-1.61,0.69-3.21,1.19-4.78c0.43-1.37,1.05-2.63,2.08-3.65
		c0.76-0.85,1.68-1.48,2.75-1.89c0.61-0.18,1.22-0.36,1.83-0.53c1.36-0.25,2.71-0.25,4.07,0c1.22,0.22,2.35,0.67,3.38,1.36
		c0.88,0.58,1.54,1.36,1.97,2.33c0.13,0.57,0.25,1.15,0.35,1.73c-0.07,0.6-0.19,1.18-0.38,1.75c-0.25,0.52-0.51,1.02-0.8,1.52
		c-0.26,0.43-0.51,0.87-0.77,1.3c-0.11,0.18-0.21,0.36-0.32,0.54c-0.23,0.75-0.44,1.5-0.64,2.25c-0.18,0.69-0.35,1.39-0.5,2.09
		c-0.29,1.3-0.58,2.61-0.87,3.91c-0.78,4.71-1.56,9.42-1.95,14.19c-0.66,8.02-1.21,16.12,0.16,24.1c0.61,2.85,1.5,5.58,2.92,8.12
		c0.61,0.9,1.27,1.73,2.04,2.49c0.4,0.31,0.81,0.6,1.24,0.87c0.31,0.14,0.62,0.26,0.94,0.37c0.16,0.03,0.31,0.06,0.47,0.09
		c0.17,0.01,0.34,0,0.51,0c0.23-0.03,0.46-0.07,0.68-0.12c0.44-0.15,0.87-0.32,1.3-0.52c0.73-0.43,1.4-0.91,2.05-1.45
		c1.24-1.2,2.27-2.55,3.19-4c2.48-4.36,3.9-9.16,4.89-14.06c0.45-2.46,0.74-4.93,1.06-7.4c0.22-1.72,0.28-3.47,0.41-5.2
		c0.27-3.51,0.2-7.04,0.16-10.56c-0.08-6.71-1.15-13.37-2.41-19.94c-0.25-1.23-0.49-2.46-0.72-3.69c-0.32-1.69-0.93-3.75,0.41-5.15
		c1.04-1.08,2.51-1.59,3.99-1.59c0.42,0,0.84,0.04,1.25,0.12c1.02,0.19,2.1,0.65,2.77,1.47c0.21,0.24,0.36,0.49,0.47,0.77
		c0,0,0,0,0,0c0,0,0,0.01,0,0.01c0.03,0.08,0.06,0.17,0.08,0.25c0.38,1.29,0.32,2.79,0.39,4.12c0.05,1.07,0.09,2.14,0.13,3.21
		c0.04,1.67,0.09,3.34,0.12,5.02c0.66,7.6,1.68,15.19,2.79,22.73c0.71,4.83,1.43,9.67,2.24,14.49c0.81,4.8,1.7,9.58,2.6,14.36
		c0.47,2.39,0.93,4.78,1.4,7.17c-0.01-0.03-0.01-0.07-0.02-0.11C218.05,423.23,218.16,423.8,218.27,424.38z"/>
	<path d="M270.21,357.79c0.18,1.22,0.25,2.44,0.06,3.67c-0.16,1.04-0.34,2.12-0.71,3.11c-0.76,2-1.86,3.99-3.37,5.52
		c-1.8,1.83-3.88,3.4-6.27,4.37c-2.36,0.96-4.82,1.53-7.36,1.69c-5.9,0.38-11.48-1.36-16.71-3.89c0.01,0.04,0.02,0.09,0.02,0.14
		c0.55,2.51,1.1,5.02,1.77,7.5c0.71,2.61,1.38,5.24,2.25,7.8c0.47,1.39,0.88,2.81,1.42,4.18c0.5,1.3,0.94,2.64,1.51,3.91
		c0.55,1.23,1.04,2.52,1.68,3.72c0.71,1.33,1.4,2.68,2.16,3.98c0.75,1.18,1.56,2.32,2.49,3.37c0.09-0.3,0.18-0.61,0.26-0.92
		c0.34-2.04,0.43-4.09,0.49-6.16c0.05-2.07,0.07-4.14,0.11-6.21c0.03-1.77,2.19-2.51,3.64-2.51c1.46,0,3.61,0.74,3.65,2.51
		c0.04,2.78,0.09,5.57-0.1,8.34c-0.13,1.95-0.25,3.88-0.61,5.8c-0.23,1.25-0.54,2.4-1.24,3.48c-0.2,0.38-0.46,0.71-0.79,0.98
		c-0.21,0.19-0.42,0.38-0.64,0.57c-0.44,0.24-0.89,0.48-1.33,0.71c-0.33,0.09-0.65,0.19-0.98,0.29c-3.26,0.84-6.65-0.58-8.87-3
		c-0.86-0.93-1.58-1.95-2.25-3.02c-0.7-1.12-1.4-2.28-1.94-3.49c-0.47-1.06-0.95-2.12-1.43-3.18c-0.4-0.89-0.72-1.82-1.07-2.73
		c-0.69-1.78-1.34-3.58-1.91-5.4c-1.28-3.99-2.49-8-3.67-12.02c0.02,1.1,0.05,2.2,0.12,3.29c0.21,2.93,0.42,5.86,0.63,8.79
		c0.18,2.49,0.54,4.98,0.82,7.46c0.48,4.3,1.23,8.56,2,12.81c0.51,2.28,1.01,4.55,1.6,6.8c0.8,3.08,1.6,6.16,2.37,9.25
		c0.25,0.65,0.25,1.3,0,1.95c-0.18,0.29-0.36,0.58-0.54,0.88c-0.77,0.94-2.01,1.46-3.17,1.68c-2.28,0.44-5.5-0.18-6.52-2.56
		c-0.61-1.41-1.23-2.8-1.7-4.26c-0.29-0.88-0.65-1.77-0.87-2.67c-0.38-1.51-0.81-3.01-1.13-4.53c-0.8-3.83-1.53-7.67-2.22-11.53
		c-0.2-1.14-0.34-2.3-0.52-3.44c-0.17-1.13-0.37-2.26-0.5-3.4c-0.32-2.65-0.64-5.29-0.96-7.94c-0.3-2.45-0.43-4.92-0.63-7.38
		c-0.17-2.04-0.26-4.07-0.34-6.12c-0.06-1.77-0.13-3.54-0.19-5.32c-0.02-0.58-0.05-1.17-0.04-1.75c0.07-2.98,0.14-5.95,0.21-8.92
		c0.05-2.32,0.38-4.66,0.58-6.97c0.15-1.73,0.36-3.43,0.68-5.15c0.3-1.61,0.53-3.29,1.13-4.83c0.29-0.74,0.63-1.58,1.15-2.2
		c0.68-0.83,1.65-1.27,2.64-1.6c0.86-0.29,1.83-0.47,2.81-0.47c1.62,0,3.23,0.48,4.27,1.75c0.44,0.53,0.69,1.16,0.7,1.81
		c0,0,0.01,0,0.01,0c0.03,0.28,0.01,0.55-0.02,0.82c4.67-1.85,9.72-2.85,14.74-2.93c0.22,0,0.45,0,0.67,0c4.92,0,9.9,0.83,14.25,3.2
		c1.03,0.56,1.95,1.17,2.84,1.93c0.88,0.74,1.77,1.55,2.41,2.52c0.61,0.9,1.25,1.85,1.64,2.87
		C269.77,355.71,270.06,356.73,270.21,357.79z M262.74,358.87c-0.27-1.03-0.65-1.98-1.16-2.91c-0.58-0.84-1.22-1.59-1.95-2.3
		c-0.74-0.59-1.5-1.12-2.31-1.61c-0.97-0.47-1.96-0.88-2.98-1.22c-1.26-0.33-2.53-0.56-3.83-0.71c-1.53-0.09-3.05-0.07-4.57,0.03
		c-1.89,0.22-3.75,0.57-5.59,1.06c-1.67,0.53-3.29,1.17-4.86,1.95c-0.79,0.44-1.58,0.91-2.31,1.46c-0.61,0.45-1.18,0.92-1.76,1.41
		c-0.21,2.18-0.42,4.35-0.63,6.52c1.73-0.14,3.48,0.28,4.95,1.26c0.8,0.53,1.53,1.13,2.3,1.7c1.39,1.04,2.78,2.05,4.3,2.9
		c1.34,0.67,2.7,1.23,4.12,1.7c1.08,0.28,2.16,0.49,3.26,0.64c0.99,0.07,1.96,0.08,2.95,0.02c0.82-0.11,1.63-0.26,2.43-0.47
		c0.71-0.24,1.39-0.51,2.07-0.83c0.84-0.49,1.64-1.03,2.39-1.66c0.75-0.75,1.41-1.54,2-2.43c0.53-0.99,0.91-1.98,1.19-3.06
		C262.91,361.16,262.9,360.03,262.74,358.87z"/>
	<path d="M313.84,363.26c1.71,5.59,1.98,11.56,1.68,17.37c-0.13,2.58-0.25,5.17-0.46,7.75c-0.42,5.02-0.98,10.02-1.57,15.02
		c-0.28,2.36-0.57,4.71-0.92,7.07c-0.2,1.4-0.44,2.78-0.77,4.16c-0.17,0.71-0.34,1.43-0.51,2.14c-0.25,1.06-0.68,2.09-1.03,3.12
		c-0.36,1.08-1.51,1.84-2.5,2.25c-1.3,0.54-2.83,0.64-4.2,0.38c-1.67-0.32-4.13-1.55-4-3.62c0.07-1.15,0.09-2.31,0.24-3.45
		c0.1-0.76,0.2-1.52,0.29-2.28c0.13-1.05,0.34-2.07,0.54-3.11c0.08-0.43,0.17-0.87,0.25-1.3c-4.41,2.12-8.84,4.22-13.34,6.16
		c-3.03,1.31-6.12,2.57-9.32,3.37c-3.22,0.81-6.59,1.25-9.86,0.52c-1.42-0.32-2.75-0.95-3.83-1.92c-0.95-0.86-1.57-1.88-1.82-3.14
		c-0.6-2.92,0.68-5.92,2.31-8.3c0.89-1.3,1.87-2.51,3.02-3.59c1.03-0.97,2.09-1.95,3.25-2.77c5.19-3.69,11.38-5.6,17.7-6
		c0.9-0.06,1.81-0.09,2.71-0.09c0.87,0,1.74,0.03,2.61,0.11c1.67,0.15,3.34,0.28,4.99,0.62c1.38,0.28,2.73,0.67,4.07,1.07
		c0.29-1.84,0.58-3.69,0.84-5.54c0.37-2.63,0.65-5.26,0.93-7.9c0.52-4.96,0.7-10.01-0.17-14.94c-0.39-1.66-0.92-3.21-1.73-4.7
		c-0.28-0.38-0.57-0.72-0.89-1.05c-0.07-0.05-0.14-0.11-0.22-0.16c-0.44,0.17-0.86,0.35-1.28,0.55c-1.16,0.72-2.25,1.52-3.29,2.4
		c-2.11,1.98-3.9,4.2-5.47,6.63c-0.79,1.34-1.54,2.72-2.15,4.14c-0.39,0.89-0.8,1.78-1.16,2.69c-0.19,0.47-0.37,0.95-0.53,1.43
		c-0.23,0.51-0.43,1.03-0.61,1.55c-0.4,0.74-0.71,1.46-1.33,2.05c-0.96,0.92-2.1,1.37-3.44,1.37c-1.28,0-2.56-0.41-3.44-1.37
		c-0.34-0.31-0.61-0.69-0.8-1.11c-0.05-0.27-0.11-0.54-0.16-0.81c-0.06-0.33-0.1-0.67-0.12-1c0.2-1.08,0.37-2.16,0.76-3.2
		c0.4-1.05,0.86-2.03,1.36-3.04c0.86-1.74,1.87-3.44,2.95-5.05c1.77-2.62,3.73-5.14,6.04-7.3c1.23-1.16,2.49-2.32,3.88-3.29
		c1.29-0.89,2.73-1.81,4.23-2.29c0.6-0.2,1.2-0.38,1.8-0.55c0.63-0.16,1.28-0.24,1.93-0.26c0.34-0.03,0.67-0.04,0.99-0.04
		c0.54,0,1.07,0.04,1.64,0.11c1.66,0.19,3.45,0.76,4.8,1.79c1.23,0.94,2.28,1.94,3.13,3.24
		C312.67,360.43,313.4,361.82,313.84,363.26z M301.88,403.61c0.02-0.11,0.04-0.22,0.06-0.33c0.03-0.17,0.06-0.33,0.08-0.5
		c-0.51-0.17-1.01-0.36-1.51-0.56c-1.92-0.75-3.81-1.54-5.77-2.16c-1.4-0.36-2.79-0.62-4.22-0.8c-1.27-0.07-2.52-0.08-3.79,0
		c-1.38,0.17-2.73,0.42-4.07,0.77c-1.31,0.42-2.57,0.93-3.8,1.54c-1.47,0.84-2.83,1.79-4.12,2.89c-1.46,1.36-2.78,2.82-3.88,4.49
		c-0.54,0.97-0.95,1.94-1.23,3.02c-0.04,0.51-0.04,0.97,0.01,1.47c0.05,0.14,0.1,0.28,0.17,0.41c0.08,0.1,0.16,0.2,0.24,0.29
		c0.08,0.05,0.16,0.11,0.24,0.16c0.11,0.05,0.22,0.09,0.33,0.13c0.17,0.04,0.33,0.07,0.5,0.1c0.64,0.03,1.27,0.03,1.9-0.01
		c1.3-0.17,2.57-0.45,3.84-0.79c7.54-2.37,14.42-6.43,21.41-10.04c0.82-0.43,2.02-0.43,2.91-0.26
		C301.42,403.46,301.65,403.53,301.88,403.61z M270,414.15c-0.02-0.03-0.04-0.07-0.06-0.1C269.96,414.08,269.98,414.12,270,414.15
		C270,414.15,270,414.15,270,414.15z"/>
	<path d="M359.12,362.34c0.39,2.68,0.31,5.38-0.29,8.02c-0.29,1.25-0.6,2.45-1.12,3.63c-0.66,1.51-1.96,2.64-3.59,2.95
		c-1.11,0.21-2.15-0.02-3.11-0.59c-0.59-0.36-0.86-0.9-1.13-1.49c-0.18-0.4-0.22-1.16-0.19-1.61c0.03-0.45,0.06-0.9,0.11-1.35
		c0.3-3.01,0.32-6-0.17-8.99c-0.4-1.69-0.95-3.31-1.77-4.85c-0.4-0.6-0.83-1.15-1.33-1.68c-0.28-0.22-0.57-0.43-0.87-0.62
		c-0.1-0.04-0.21-0.08-0.31-0.12c-0.06-0.01-0.11-0.02-0.17-0.04c-0.21,0-0.41,0-0.61,0.01c-0.17,0.03-0.33,0.06-0.5,0.09
		c-0.58,0.2-1.14,0.44-1.7,0.7c-0.91,0.55-1.75,1.17-2.55,1.85c-1.72,1.66-3.16,3.51-4.46,5.52c-2.54,4.35-4.22,9.12-5.25,14.05
		c-1.47,8.14-1.47,16.61,0,24.75c1.04,4.97,2.58,9.82,5.13,14.22c0.87,1.33,1.82,2.58,2.95,3.7c0.45,0.37,0.92,0.72,1.41,1.04
		c0.24,0.11,0.49,0.22,0.74,0.31c0.04,0.01,0.09,0.02,0.13,0.03c0.05,0,0.1,0,0.15,0c0.06-0.01,0.11-0.02,0.16-0.03
		c0.17-0.07,0.34-0.14,0.51-0.21c0.33-0.22,0.64-0.45,0.94-0.7c0.56-0.58,1.04-1.2,1.49-1.87c0.78-1.46,1.3-2.96,1.67-4.57
		c0.34-2.3,0.33-4.55-0.06-6.85c-0.45-1.94-1.18-3.75-2.17-5.47c-0.21-0.32-0.43-0.62-0.64-0.94c-0.47,0.18-0.95,0.36-1.42,0.56
		c-0.77,0.33-1.53,0.7-2.29,1.06c-1.16,0.55-2.38,0.93-3.67,0.94c-0.8,0.01-1.67-0.2-2.33-0.67c-0.59-0.42-0.88-0.9-0.97-1.61
		c-0.17-1.27,1.04-2.19,1.91-2.87c0.3-0.23,0.66-0.4,0.99-0.58c0.47-0.27,0.94-0.5,1.43-0.73c1.34-0.61,2.74-1.13,4.15-1.55
		c0.31-0.09,0.63-0.18,0.94-0.27c0.03-0.01,0.06-0.02,0.09-0.03c0.28-0.08,0.56-0.16,0.85-0.25c-0.09,0.03-0.19,0.05-0.28,0.08
		c0.12-0.04,0.25-0.07,0.37-0.11c0.19-0.06,0.38-0.11,0.57-0.17c-0.18,0.05-0.35,0.1-0.53,0.15c2.31-0.65,4.62-1.12,6.99-1.47
		c0.31-0.05,0.64-0.07,0.99-0.07c1.48,0,3.17,0.47,3.72,1.91c0.67,1.75-1.21,2.98-2.68,3.25c-0.51,0.09-1.01,0.21-1.51,0.31
		c0.21,0.4,0.4,0.8,0.57,1.22c0.59,1.52,1.03,3.08,1.3,4.69c0.54,3.2,0.55,6.47-0.06,9.65c-0.56,2.93-1.4,5.95-3.33,8.32
		c-1.97,2.42-4.75,3.94-7.9,4.08c-6.23,0.27-11.37-4.27-14.52-9.25c-1.77-2.8-3.33-5.72-4.39-8.87c-0.99-2.93-1.71-5.93-2.19-8.99
		c-0.97-6.19-0.99-12.66-0.03-18.86c0.96-6.21,2.65-12.39,5.91-17.81c1.65-2.74,3.46-5.46,5.86-7.61c1.12-1,2.23-2.03,3.5-2.83
		c1.22-0.78,2.53-1.55,3.89-2.07c1.56-0.58,3.15-1.04,4.81-1.19c0.67-0.06,1.3-0.11,1.95-0.11c0.16,0,0.32,0,0.48,0.01
		c0.77,0.03,1.73,0.09,2.49,0.3c1.55,0.42,3.02,0.88,4.38,1.74c1.14,0.72,2.25,1.59,3.12,2.62
		C357.65,356.53,358.69,359.36,359.12,362.34z"/>
	<path d="M400.29,355.84c1.15,2.81,1.41,5.88,0.62,8.82c-0.74,2.73-2.24,5.38-4.29,7.35c-2.31,2.21-4.95,4.14-7.97,5.27
		c-2.94,1.1-6.01,1.71-9.17,1.52c-2.54-0.15-5.1-0.83-7.27-2.17c-0.42,4.7-0.31,9.46,0.22,14.15c0.35,3.07,0.93,6.08,1.45,9.12
		c0.49,2.11,0.96,4.23,1.56,6.31c0.49,1.69,0.95,3.39,1.54,5.05c1.02,2.82,2.19,5.57,3.68,8.18c0.77,1.21,1.6,2.37,2.57,3.43
		c0.67-1.34,1.08-2.73,1.41-4.19c0.82-5.12,0.44-10.29-0.04-15.43c-0.21-2.17-0.49-4.33-0.75-6.49c-0.32-2.63-0.55-5.24-0.68-7.88
		c-0.04-0.84,0.58-1.58,1.22-2.03c0.84-0.59,1.93-0.84,2.94-0.84c1.71,0,4.08,0.85,4.16,2.87c0.2,4.64,0.24,9.28,0.3,13.92
		c0.05,4.31,0.05,8.62-0.18,12.93c-0.13,2.38-0.45,4.82-1.09,7.11c-0.67,2.35-1.84,4.61-4.15,5.68c-2.84,1.32-6.33,0.64-8.85-1.1
		c-2.26-1.56-4.17-3.64-5.71-5.89c-1.81-2.65-3.45-5.44-4.78-8.37c-0.63-1.38-1.16-2.75-1.67-4.17c-0.32-0.88-0.7-1.75-0.95-2.65
		c-0.34-1.29-0.69-2.58-1.03-3.88c-0.65-2.42-1-4.92-1.46-7.38c-0.31-1.68-0.46-3.43-0.59-5.13c-0.12-1.58-0.21-3.17-0.22-4.76
		c-0.03-3.17,0.11-6.36,0.56-9.5c0.91-6.38,2.56-12.84,6.32-18.19c0.98-1.38,2.04-2.66,3.26-3.84c1.12-1.08,2.37-2.14,3.72-2.92
		c1.46-0.85,2.93-1.58,4.54-2.13c1.7-0.57,3.42-0.9,5.2-1.03c0.48-0.04,0.97-0.06,1.46-0.06c2.92,0,5.85,0.67,8.4,2.13
		c1.26,0.72,2.49,1.62,3.45,2.73C398.92,353.38,399.77,354.57,400.29,355.84z M393.02,359.46c-0.25-1.02-0.61-1.96-1.11-2.88
		c-0.39-0.56-0.82-1.07-1.29-1.57c-0.36-0.29-0.72-0.55-1.11-0.8c-0.37-0.17-0.74-0.33-1.13-0.48c-0.32-0.08-0.63-0.14-0.96-0.19
		c-0.42-0.02-0.84-0.02-1.26,0c-0.46,0.07-0.92,0.16-1.37,0.26c-0.72,0.25-1.42,0.53-2.11,0.86c-0.85,0.52-1.65,1.08-2.42,1.72
		c-1.3,1.26-2.41,2.63-3.4,4.15c-1.31,2.29-2.27,4.71-3.02,7.21c0.55,0.13,1.05,0.35,1.46,0.67c0.5,0.39,0.91,0.78,1.28,1.28
		c0.08,0.13,0.17,0.27,0.25,0.41c0.47,0.63,0.93,1.23,1.47,1.78c0.27,0.2,0.53,0.38,0.81,0.56c0.25,0.12,0.5,0.22,0.76,0.32
		c0.31,0.07,0.62,0.13,0.93,0.18c0.45,0.01,0.9,0.01,1.35-0.01c0.58-0.08,1.16-0.19,1.73-0.33c0.79-0.26,1.56-0.57,2.33-0.93
		c1-0.57,1.93-1.21,2.82-1.94c0.95-0.91,1.78-1.89,2.52-2.99c0.66-1.21,1.14-2.43,1.45-3.77
		C393.17,361.79,393.17,360.65,393.02,359.46z"/>
	<path d="M442.57,380.54c0.19,1.93,0.38,3.9,0.33,5.84c-0.03,1.32-0.06,2.63-0.09,3.95c-0.02,0.92-0.13,1.82-0.23,2.73
		c-0.13,1.16-0.2,2.34-0.39,3.49c-0.53,3.27-1.2,6.53-2.18,9.7c-0.42,1.36-0.9,2.68-1.39,4.01c-0.56,1.54-1.11,3.07-1.75,4.57
		c-0.56,1.34-1.17,2.64-1.84,3.93c-0.64,1.25-1.3,2.54-2.15,3.67c-1.89,2.51-4.41,4.6-7.52,5.36c-2.91,0.71-5.9,0.31-8.59-0.98
		c-2.78-1.34-5.2-3.64-6.99-6.14c-1.77-2.48-3.31-5.16-4.42-8c-2.35-6-3.53-12.5-3.85-18.93c-0.33-6.42,0.05-12.97,1.62-19.23
		c0.44-1.74,0.89-3.5,1.59-5.15c0.59-1.4,1.23-2.9,2.15-4.13c0.41-0.55,0.82-1.03,1.3-1.51c0.09-0.1,0.17-0.19,0.27-0.27
		c-0.64-0.71-1.34-1.57-1.68-2.47c-0.47-1.28-0.71-2.52-0.53-3.87c0.14-1.05,0.49-1.98,1.02-2.89c1.38-2.37,3.62-3.92,6.17-4.85
		c0.78-0.28,1.7-0.54,2.53-0.62c0.76-0.07,1.53-0.2,2.29-0.2c0.07,0,0.13,0,0.2,0c1.22,0.04,2.49,0.1,3.68,0.39
		c2.48,0.62,4.9,1.55,6.97,3.09c4.25,3.17,7.37,7.65,9.43,12.51C440.66,369.62,442.02,375.06,442.57,380.54z M434.93,384.31
		c-0.03-3.86-0.34-7.69-1.03-11.49c-0.29-1.41-0.64-2.81-1.06-4.18c-2.14,0.25-4.28,0.35-6.44,0.36c-0.81,0-1.63-0.01-2.44-0.08
		c-1.71-0.15-3.43-0.24-5.12-0.57c-0.65-0.12-1.3-0.26-1.94-0.43c-1.88,3.4-2.94,7.21-3.72,11c-0.84,4.63-1.28,9.35-1.32,14.05
		c-0.04,4.5,0.2,8.98,0.97,13.42c0.86,4.12,2.18,8.1,4.28,11.76c0.86,1.32,1.81,2.54,2.94,3.63c0.47,0.38,0.95,0.72,1.46,1.03
		c0.24,0.11,0.49,0.21,0.74,0.3c0.1,0.02,0.21,0.04,0.31,0.06c0.12,0,0.23,0,0.35,0c0.07-0.01,0.14-0.02,0.22-0.04
		c0.32-0.12,0.62-0.25,0.93-0.39c0.42-0.27,0.81-0.56,1.2-0.87c0.71-0.71,1.32-1.45,1.88-2.29c1.74-3.01,3-6.27,4.04-9.58
		c0.35-1.13,0.71-2.26,1.07-3.39c0.53-1.68,0.9-3.41,1.25-5.14c0.47-2.54,0.77-5.07,1-7.64c0.12-1.29,0.24-2.56,0.28-3.85
		C434.83,388.11,434.95,386.21,434.93,384.31z M414.63,358.94c0.13,0.41,0.28,0.77,0.46,1.15c0.26,0.35,0.53,0.67,0.84,0.99
		c0.4,0.31,0.81,0.59,1.24,0.84c0.57,0.26,1.15,0.49,1.75,0.7c1.12,0.28,2.24,0.48,3.38,0.62c1.84,0.09,3.64,0.08,5.47-0.01
		c0.93-0.1,1.86-0.21,2.78-0.32c-0.26-0.52-0.54-1.04-0.83-1.55c-1.04-1.64-2.23-3.14-3.63-4.5c-0.84-0.7-1.71-1.32-2.64-1.87
		c-0.58-0.28-1.17-0.52-1.78-0.74c-0.56-0.14-1.12-0.25-1.7-0.34c-0.36-0.01-0.72-0.01-1.08,0c-0.37,0.06-0.73,0.12-1.09,0.2
		c-0.34,0.13-0.68,0.27-1.01,0.42c-0.31,0.2-0.6,0.41-0.89,0.64c-0.27,0.3-0.52,0.6-0.76,0.92c-0.22,0.45-0.4,0.9-0.54,1.38
		C414.56,357.96,414.57,358.44,414.63,358.94z"/>
	<path d="M497.52,424.38c0.16,0.79-0.67,1.65-1.23,2.05c-0.85,0.6-1.94,0.85-2.97,0.85s-2.12-0.25-2.97-0.84
		c-0.49-0.32-0.84-0.75-1.08-1.28c-0.61-2.59-1.18-5.17-1.7-7.78c-0.74-3.72-1.34-7.48-1.89-11.23c-0.13,0.51-0.26,1.03-0.4,1.54
		c-0.78,2.86-1.7,5.71-3.02,8.38c-1.38,2.79-3.04,5.41-5.32,7.55c-1.02,0.95-2.1,1.73-3.33,2.39c-1.29,0.69-2.74,1.3-4.21,1.47
		c-1.76,0.21-3.63,0.34-5.36-0.16c-1.56-0.45-3.04-0.95-4.42-1.83c-2.54-1.61-4.72-3.81-6.37-6.34c-1.88-2.88-3.43-5.95-4.49-9.23
		c-1.08-3.34-1.84-6.76-2.35-10.23c-0.24-1.62-0.34-3.23-0.47-4.86c-0.07-0.98-0.21-1.98-0.2-2.96c0.03-4.81,0.06-9.62,0.61-14.41
		c0.3-2.58,0.56-5.14,1-7.7c0.29-1.72,0.56-3.46,0.91-5.16c0.33-1.61,0.69-3.21,1.19-4.78c0.43-1.37,1.05-2.63,2.08-3.65
		c0.76-0.85,1.68-1.48,2.75-1.89c0.61-0.18,1.22-0.36,1.83-0.53c1.36-0.25,2.71-0.25,4.07,0c1.22,0.22,2.35,0.67,3.38,1.36
		c0.88,0.58,1.54,1.36,1.97,2.33c0.13,0.57,0.25,1.15,0.35,1.73c-0.07,0.6-0.19,1.18-0.38,1.75c-0.25,0.52-0.51,1.02-0.8,1.52
		c-0.26,0.43-0.51,0.87-0.77,1.3c-0.11,0.18-0.21,0.36-0.32,0.54c-0.23,0.75-0.44,1.5-0.64,2.25c-0.18,0.69-0.35,1.39-0.5,2.09
		c-0.29,1.3-0.58,2.61-0.87,3.91c-0.78,4.71-1.56,9.42-1.95,14.19c-0.66,8.02-1.21,16.12,0.16,24.1c0.61,2.85,1.5,5.58,2.92,8.12
		c0.61,0.9,1.27,1.73,2.04,2.49c0.4,0.31,0.81,0.6,1.24,0.87c0.31,0.14,0.62,0.26,0.94,0.37c0.16,0.03,0.31,0.06,0.47,0.09
		c0.17,0.01,0.34,0,0.51,0c0.23-0.03,0.46-0.07,0.68-0.12c0.44-0.15,0.87-0.32,1.3-0.52c0.73-0.43,1.4-0.91,2.05-1.45
		c1.24-1.2,2.27-2.55,3.19-4c2.48-4.36,3.9-9.16,4.89-14.06c0.45-2.46,0.74-4.93,1.06-7.4c0.22-1.72,0.28-3.47,0.41-5.2
		c0.27-3.51,0.2-7.04,0.16-10.56c-0.08-6.71-1.15-13.37-2.41-19.94c-0.25-1.23-0.49-2.46-0.72-3.69c-0.32-1.69-0.93-3.75,0.41-5.15
		c1.04-1.08,2.51-1.59,3.99-1.59c0.42,0,0.84,0.04,1.25,0.12c1.02,0.19,2.1,0.65,2.77,1.47c0.21,0.24,0.36,0.49,0.47,0.77
		c0,0,0,0,0,0c0,0,0,0.01,0,0.01c0.03,0.08,0.06,0.17,0.08,0.25c0.38,1.29,0.32,2.79,0.39,4.12c0.05,1.07,0.09,2.14,0.13,3.21
		c0.04,1.67,0.09,3.34,0.12,5.02c0.66,7.6,1.68,15.19,2.79,22.73c0.71,4.83,1.43,9.67,2.24,14.49c0.81,4.8,1.7,9.58,2.6,14.36
		c0.47,2.39,0.93,4.78,1.4,7.17c-0.01-0.03-0.01-0.07-0.02-0.11C497.3,423.23,497.41,423.8,497.52,424.38z"/>
	<path d="M535.03,355.4c0.26,2.99-0.58,6.15-1.98,8.79c-1.53,2.89-3.38,5.71-5.5,8.23c-2.11,2.51-4.8,5.15-8.42,4.39
		c-0.9-0.19-1.75-0.57-2.35-1.3c-0.52-0.64-0.73-1.44-0.42-2.23c0.62-1.59,1.9-2.88,2.99-4.17c0.93-1.11,1.75-2.29,2.55-3.49
		c1.16-2.09,2.04-4.24,2.57-6.57c0.18-1.31,0.22-2.56,0.07-3.87c-0.11-0.38-0.25-0.73-0.42-1.08c-0.03-0.04-0.07-0.08-0.1-0.12
		c-0.02-0.01-0.04-0.02-0.05-0.04c-0.01,0-0.02-0.01-0.02-0.01c-0.3-0.01-0.6,0-0.9,0.01c-0.45,0.08-0.89,0.17-1.33,0.28
		c-0.96,0.33-1.89,0.71-2.81,1.16c-1.81,1.03-3.47,2.22-5.07,3.57c-2.14,1.98-4.05,4.17-5.63,6.63c-1.37,2.39-2.4,4.88-3,7.56
		c-0.27,1.85-0.31,3.65-0.04,5.49c0.28,1.06,0.65,2.05,1.15,3.02c0.49,0.71,1.03,1.36,1.64,1.98c0.85,0.67,1.73,1.26,2.67,1.8
		c1.71,0.83,3.47,1.53,5.23,2.22c2.96,1.16,5.99,2.31,8.62,4.12c1.84,1.27,3.49,2.77,4.73,4.63c1.1,1.64,1.77,3.38,2.12,5.32
		c0.75,4.14-0.21,8.54-1.92,12.34c-1.86,4.13-4.4,8.03-7.65,11.2c-1.56,1.52-3.4,2.83-5.48,3.53c-2.38,0.8-4.85,0.72-7.16-0.25
		c-4.12-1.73-4.68-6.97-4.49-10.85c0.16-3.24,0.7-6.33,1.47-9.47c0.19-0.78,1.16-1.37,1.83-1.64c0.96-0.39,2.06-0.47,3.07-0.28
		c0.87,0.17,1.8,0.56,2.38,1.26c0.35,0.4,0.53,0.86,0.54,1.39c-0.04,0.24-0.09,0.49-0.14,0.73c-0.07,0.35-0.14,0.71-0.21,1.06
		c-0.62,3.46-1.14,6.92-0.62,10.41c0.18,0.71,0.41,1.37,0.72,2.02c0.08-0.03,0.15-0.07,0.22-0.1c0.75-0.46,1.44-0.96,2.13-1.52
		c1.46-1.37,2.69-2.89,3.8-4.57c1.39-2.39,2.43-4.89,3.04-7.6c0.27-1.77,0.32-3.5,0.09-5.27c-0.27-1.08-0.64-2.09-1.17-3.07
		c-0.49-0.7-1.02-1.33-1.62-1.93c-0.88-0.71-1.8-1.31-2.77-1.88c-2.86-1.4-5.87-2.41-8.82-3.6c-4.75-1.9-9.65-4.34-12.15-9.05
		c-1.52-2.87-2.02-6.31-1.48-9.52c0.53-3.16,1.46-6.17,2.99-9c1.44-2.64,3.11-5.18,5.13-7.42c1.97-2.18,4.16-4.28,6.57-5.98
		c2.64-1.86,5.48-3.42,8.57-4.39c1.77-0.56,3.68-0.97,5.54-0.97c0.02,0,0.03,0,0.05,0c1.79,0.01,3.68,0.18,5.36,0.86
		c0.56,0.2,1.1,0.47,1.62,0.78c0.19,0.11,0.38,0.21,0.56,0.31c0.64,0.5,1.39,1.02,1.88,1.69
		C534.18,352.32,534.89,353.73,535.03,355.4z"/>
</g>
<g>
	<path d="M162.1,331.77c0,1.12-0.11,2.25-0.56,3.37c-0.67,1.35-1.57,1.91-3.15,1.8c-2.7-0.11-5.5-0.34-8.31-0.56
		c-0.79,0-1.57-0.11-2.36-0.23c-2.7-0.56-3.71-1.69-3.93-4.38c-0.11-2.7,0-5.28,0-7.86c-0.11-0.67-0.11-1.24-0.11-1.91
		c-0.11-2.25-0.11-2.36-2.36-2.25c-4.04,0.11-7.98,0.34-12.02,0.67c-5.06,0.45-10.11,0.56-15.17,0.56c-2.58,0-2.58,0-2.58,2.81
		c0,2.47,0,5.05,0,7.53c0,1.01-0.11,2.02-0.34,2.92c-0.45,1.35-1.57,2.25-3.03,2.36c-1.57,0.22-2.7-0.56-3.48-1.8
		c-0.67-1.24-0.67-2.58-0.79-3.82c-0.79-9.32,0.34-18.54,2.36-27.52c1.12-4.94,2.36-9.89,4.04-14.72
		c2.47-6.96,5.95-13.48,11.12-18.98c2.92-3.26,6.63-5.17,10.79-6.07c6.07-1.35,11.12,0.67,15.5,4.83
		c5.62,5.5,8.76,12.36,10.67,19.77c2.02,8.31,3.03,16.74,3.37,25.16c0.11,2.47,0,4.83,0,7.3c0.11,0,0.22,0,0.34,0
		C162.1,324.47,162.1,328.06,162.1,331.77z M143.12,312c-0.11-1.57-0.22-3.48-0.34-5.28c-0.67-7.3-1.57-14.49-3.71-21.57
		c-1.12-3.71-3.03-6.85-5.5-9.77c-0.79-1.01-1.69-1.69-2.81-2.25c-1.35-0.56-2.36-0.45-3.59,0.56c-2.81,2.58-4.94,5.73-6.63,9.32
		c-4.61,9.89-7.08,20.56-8.54,31.34c-0.22,1.57,0,1.57,1.57,1.57c0.45,0,0.9,0,1.35,0c8.65-0.67,17.3-1.24,26.06-1.35
		C143.34,314.47,143.34,314.47,143.12,312z M153.67,329.86c0.34-13.82-0.45-27.52-3.14-41.11c-1.12-5.84-3.37-11.01-8.43-14.49
		c0.11,1.12,0.67,2.02,1.24,3.03c1.8,2.47,2.92,5.28,3.48,8.31c0.9,4.27,1.8,8.54,2.36,12.92c1.35,10.33,2.47,20.67,2.7,31.23
		c0,0.67-0.22,1.46,0.9,1.46C153.9,331.32,153.67,330.53,153.67,329.86z"/>
	<path d="M185.46,324.35c0.11,1.24,0.34,2.47,0.56,3.59c0.45,2.36,0.45,2.36,2.92,1.91c2.58-0.45,5.28-1.01,7.98-1.57
		c1.01-0.22,2.02-0.34,3.03-0.11c1.24,0.22,2.25,0.79,2.47,2.02c0.22,1.35-0.34,2.25-1.35,2.92c-0.67,0.34-1.35,0.56-2.02,0.79
		c-5.95,1.46-12.02,2.58-18.2,3.26c-2.13,0.22-4.16-0.22-6.18-1.01c-2.47-1.01-4.16-2.81-4.94-5.39c-0.79-2.7-1.35-5.5-1.46-8.2
		c-0.67-10-1.24-19.88-1.35-29.88c0-7.19-0.22-14.38-0.22-21.68c0-0.9-0.11-1.91,0.11-2.81c0.45-2.02,1.8-3.03,3.82-2.92
		c3.93,0,7.86,0,11.68,0.45c1.91,0.11,2.81,0.9,3.03,2.92c0.11,1.57,0,3.15,0,4.72c-0.22,7.75-0.45,15.5-0.67,26.29
		C184.45,305.93,185.12,315.14,185.46,324.35z M177.37,276.61c0.11-1.69,0.22-3.37,0.45-4.94c0.11-0.9-0.22-1.24-1.12-1.35
		c-2.47,0-2.7,0.22-2.7,2.58c-0.11,0.34-0.11,0.67,0,1.12c0.23,12.81,0.34,25.61,0.67,38.42c0.11,4.94,0.45,10,1.46,15.05
		c0.34,2.13,0.79,2.7,2.58,2.92c1.46,0.34,1.69,0.11,1.46-1.24c-1.24-5.5-1.69-11.12-2.25-16.85c-0.67-8.54-0.9-17.19-0.9-27.07
		C177.15,283.24,177.26,279.87,177.37,276.61z"/>
	<path d="M238.37,314.36c-1.12,4.61-3.03,9.1-5.05,13.37c-1.01,2.02-2.25,3.93-3.82,5.62c-5.28,5.28-12.47,5.39-18.09,0.22
		c-2.36-2.13-3.93-4.83-5.06-7.75c-1.8-4.94-3.14-10.11-3.37-15.28c-0.79-13.26-0.45-26.4,1.91-39.43c0.22-0.79,0.34-1.69,0.67-2.47
		c0.9-2.36,2.81-3.59,5.17-3.71c3.37,0,6.63,0.11,9.89,0.79c2.58,0.56,3.48,1.8,2.92,4.38c-1.68,7.98-2.02,16.06-2.58,24.15
		c-0.34,4.94-0.45,9.89-0.45,14.83c-0.11,2.02,0.11,4.04,0.34,6.07c0.34,4.38,2.7,7.75,6.07,10.67c1.12-0.79,1.46-2.02,2.02-3.03
		c3.48-6.74,5.05-14.04,6.29-21.46c1.24-6.85,2.47-13.71,3.26-20.67c0.22-2.36,1.35-3.48,3.59-3.71c3.37-0.34,6.63-0.67,9.89-0.9
		c2.36-0.22,3.48,0.79,3.82,3.03c0.22,1.46,0.34,2.92,0.34,4.38c-0.11,5.95,0,11.91,0.67,17.75c0.56,4.94,1.68,9.77,3.59,14.38
		c0.9,2.13,2.02,4.16,3.71,5.73c1.12,1.12,1.68,1.01,2.81-0.22c1.8-2.02,2.81-4.61,3.82-7.08c2.25-5.06,2.92-10.33,3.14-15.84
		c0.22-8.87,0.11-17.75-2.13-26.51c-0.34-1.12-0.45-2.25-0.22-3.37c0.34-2.25,2.47-3.03,4.27-1.69c1.01,0.79,1.57,1.91,1.91,3.03
		c1.35,3.71,1.68,7.53,2.02,11.35c0.9,10.67,0.45,21.46-1.01,32.13c-0.56,4.49-1.8,8.99-3.71,13.26c-0.9,2.25-2.13,4.16-3.71,6.07
		c-3.93,4.72-9.32,6.07-14.94,3.71c-4.27-1.8-7.75-4.61-10.34-8.54c-2.7-4.27-4.38-8.87-5.5-13.82c-0.22-1.01-0.45-2.02-0.67-3.26
		C238.82,311.77,238.71,313.12,238.37,314.36z M215.9,318.51c-0.56-2.13-1.12-4.38-1.35-6.63c-0.9-9.89-1.12-19.66-0.56-29.54
		c0.11-3.26,0.67-6.52,1.12-9.77c0.11-0.56,0.45-1.12-0.22-1.35c-0.45-0.22-1.01-0.22-1.57-0.11c-0.56,0.11-0.67,0.79-0.67,1.24
		c-0.34,1.91-0.67,3.82-0.9,5.73c-0.9,8.2-1.24,16.29-1.12,24.49c0,7.08,0.9,14.15,3.26,20.89c0.45,1.46,1.12,2.92,2.02,4.16
		c1.91,2.47,4.38,3.37,7.19,2.25C218.15,325.37,217.36,324.02,215.9,318.51z M263.42,329.63c-4.38-1.46-7.08-4.72-9.32-8.65
		c-1.91-3.48-2.92-7.3-3.82-11.12c-1.8-8.43-2.7-16.85-1.91-25.39c0-0.34,0.11-0.79,0-1.12c-0.22-0.67-0.79-0.56-1.24-0.22
		c-0.45,0.22-0.34,0.9-0.45,1.35c0,2.13-0.11,4.27-0.22,6.29c-0.22,7.41-0.22,14.83,1.35,22.13c0.79,3.82,1.91,7.41,3.93,10.78
		c1.8,3.03,4.38,5.39,7.75,6.52c1.46,0.45,2.81,0.79,4.27,0.11C263.64,329.97,263.53,329.63,263.42,329.63z"/>
	<path d="M343.28,331.77c0,1.12-0.11,2.25-0.56,3.37c-0.67,1.35-1.57,1.91-3.15,1.8c-2.7-0.11-5.5-0.34-8.31-0.56
		c-0.79,0-1.57-0.11-2.36-0.23c-2.7-0.56-3.71-1.69-3.93-4.38c-0.11-2.7,0-5.28,0-7.86c-0.11-0.67-0.11-1.24-0.11-1.91
		c-0.11-2.25-0.11-2.36-2.36-2.25c-4.04,0.11-7.98,0.34-12.02,0.67c-5.05,0.45-10.11,0.56-15.17,0.56c-2.58,0-2.58,0-2.58,2.81
		c0,2.47,0,5.05,0,7.53c0,1.01-0.11,2.02-0.34,2.92c-0.45,1.35-1.57,2.25-3.03,2.36c-1.57,0.22-2.7-0.56-3.48-1.8
		c-0.67-1.24-0.67-2.58-0.79-3.82c-0.79-9.32,0.34-18.54,2.36-27.52c1.12-4.94,2.36-9.89,4.04-14.72
		c2.47-6.96,5.95-13.48,11.12-18.98c2.92-3.26,6.63-5.17,10.78-6.07c6.07-1.35,11.12,0.67,15.5,4.83
		c5.62,5.5,8.76,12.36,10.67,19.77c2.02,8.31,3.03,16.74,3.37,25.16c0.11,2.47,0,4.83,0,7.3c0.11,0,0.22,0,0.34,0
		C343.28,324.47,343.28,328.06,343.28,331.77z M324.3,312c-0.11-1.57-0.22-3.48-0.34-5.28c-0.67-7.3-1.57-14.49-3.71-21.57
		c-1.12-3.71-3.03-6.85-5.5-9.77c-0.79-1.01-1.68-1.69-2.81-2.25c-1.35-0.56-2.36-0.45-3.59,0.56c-2.81,2.58-4.94,5.73-6.63,9.32
		c-4.61,9.89-7.08,20.56-8.54,31.34c-0.22,1.57,0,1.57,1.57,1.57c0.45,0,0.9,0,1.35,0c8.65-0.67,17.3-1.24,26.06-1.35
		C324.52,314.47,324.52,314.47,324.3,312z M334.86,329.86c0.34-13.82-0.45-27.52-3.15-41.11c-1.12-5.84-3.37-11.01-8.42-14.49
		c0.11,1.12,0.67,2.02,1.24,3.03c1.8,2.47,2.92,5.28,3.48,8.31c0.9,4.27,1.8,8.54,2.36,12.92c1.35,10.33,2.47,20.67,2.7,31.23
		c0,0.67-0.23,1.46,0.9,1.46C335.08,331.32,334.86,330.53,334.86,329.86z"/>
	<path d="M358.11,306.27c0.11-1.01-0.11-1.8-1.01-2.47c-7.98-5.62-11.57-13.82-13.14-23.14c-0.45-3.03-0.56-6.07-0.67-9.21
		c0-0.67,0-1.35,0.11-2.02c0.45-3.03,1.68-4.27,4.72-4.61c1.91-0.22,3.82,0,5.73,0.11c1.91,0.11,3.82,0.11,5.73,0.11
		c2.7,0.11,3.71,0.9,3.93,3.59c0.11,1.35,0.11,2.7,0.11,4.16c0.22,4.04,0.79,8.09,1.8,12.13c0.56,1.91,1.35,3.82,2.7,5.28
		c1.46,1.8,2.36,1.8,3.71,0c3.71-4.94,6.85-10.22,8.42-16.18c0.56-2.02,1.35-4.04,1.57-6.29c0.11-1.8,1.57-2.58,3.71-2.25
		c1.8,0.22,2.7,1.01,2.36,3.03s-1.01,4.04-1.46,6.07c-1.69,7.19-4.04,14.27-7.86,20.67c-0.11,0.22-0.22,0.45-0.45,0.67
		c-2.7,2.81-2.92,6.4-2.81,10.11c0.22,8.31-0.11,16.51,0.56,24.83c0.11,0.79,0.11,1.57,0.11,2.36c-0.11,1.57-0.9,2.7-2.36,3.03
		c-3.26,1.01-6.4,1.8-9.77,1.46c-3.93-0.45-5.28-1.69-5.62-5.5c-0.34-4.61-0.22-9.1-0.11-13.59
		C358.11,314.47,358.11,310.43,358.11,306.27z M360.8,290.54c-3.15-5.62-5.28-11.46-5.95-17.97c-0.11-1.91-0.34-1.91-2.47-1.8
		c-1.57,0.11-1.68,0.11-1.57,1.91c0.22,4.38,0.9,8.76,2.25,12.81c1.91,5.62,5.06,10.33,9.89,13.82c2.58,1.8,3.26,1.69,5.28-0.9
		C364.62,296.16,362.94,294.47,360.8,290.54z M364.96,310.2c-0.11,6.29-0.22,12.47-0.34,18.65c0,0.45-0.11,1.01-0.11,1.57
		c0,0.67,0.34,1.12,1.12,1.12c0.45-0.11,0.9-0.11,1.35,0c1.12,0.11,1.8-0.22,1.57-1.69c-0.45-2.25-0.11-4.49-0.11-6.74
		c0-5.62,0-11.12,0-16.85C364.62,307.17,365.07,306.49,364.96,310.2z"/>
	<path d="M401.47,302.56c-1.46-1.12-2.92-2.36-4.16-3.82c-3.82-4.49-5.5-9.66-4.38-15.61c1.12-5.84,3.71-10.78,8.99-14.15
		c5.5-3.37,14.04-2.92,19.21,1.12c1.57,1.24,2.7,2.81,2.81,4.83c0,1.01-0.11,1.91-1.12,2.47c-1.01,0.56-1.68,0.11-2.47-0.45
		c-2.36-1.8-5.05-3.03-7.98-3.59c-3.03-0.56-5.5,0.45-7.64,2.47c-1.01,0.9-1.12,1.8-0.56,3.03c0.67,1.24,1.68,2.13,2.92,2.92
		c3.26,2.36,6.96,3.93,10.56,5.73c2.36,1.24,4.83,2.47,7.19,3.71c8.31,4.49,11.79,11.8,12.02,20.89c0.11,4.94-0.67,9.89-3.03,14.49
		c-2.81,5.73-7.41,9.1-13.37,10.78c-4.94,1.35-10.11,0.56-15.28,0c-1.35-0.11-2.58-0.9-3.71-1.69c-2.25-1.69-3.93-3.82-5.28-6.07
		c-1.46-2.36-1.35-4.94-0.9-7.41c0.56-3.15,2.02-5.95,4.27-8.31c1.91-2.02,4.04-3.71,6.51-5.17c0.79-0.45,1.8-0.67,2.47-1.8
		C406.07,305.48,403.6,304.25,401.47,302.56z M414.5,310.2c-0.9-0.67-1.57-0.79-2.47,0c-0.79,0.67-1.68,1.01-2.47,1.46
		c-3.26,1.69-5.95,3.93-8.09,6.85c-1.8,2.47-2.47,5.17-1.46,8.2c1.57,4.72,8.65,7.19,13.37,4.49c4.27-2.47,6.29-6.18,6.4-9.89
		C419.66,315.71,418.09,312.67,414.5,310.2z M402.36,293.8c1.46,1.91,3.48,3.37,5.5,4.72c2.7,1.57,5.5,3.03,8.09,4.83
		c6.96,4.61,11.12,10.67,10,19.43c0,0.22,0.11,0.56,0.11,0.9c1.24-0.67,1.57-1.8,1.91-2.92c1.12-3.93,1.35-7.98,0.9-12.02
		c-0.34-4.16-2.36-7.3-5.95-9.55c-2.81-1.8-5.73-3.37-8.65-4.83c-4.83-2.58-9.66-5.17-14.04-9.1
		C399.56,288.63,400.57,291.33,402.36,293.8z"/>
</g>
<g>
	<path d="M497.99,303.41c1.1-4.51,1.71-9.05,2.15-13.67c0.21-2.26,0.63-4.51,1.33-6.68c0.24-0.76,1.3-4.57,2.57-3.11
		c0.36,0.42,0.34,1.37,0.37,1.9c0.1,1.35,0.11,2.71,0.09,4.06c-0.03,2.84-0.24,5.7-0.71,8.51c-0.98,5.91-2.81,11.64-5.48,17
		c1.39-0.36,2.77-0.73,4.16-1.09c-10.29-6.25-24.84-9.06-30.47-20.87c-0.88,1.53-1.75,3.05-2.63,4.58c2.11,0.08,3.69,2.02,5.04,3.43
		c1.69,1.77,3.4,3.44,5.48,4.75c4.31,2.71,9.71,4.1,14.7,4.87c6.12,0.94,7.73-6.5,9.71-10.84c1.13-2.49,2.64-4.99,1.7-7.79
		c-0.47-1.4-1.45-2.48-1.71-3.96c-0.24-1.4,0.06-2.66,0.57-3.95c-1.99-0.27-3.98-0.54-5.98-0.81c-0.27,7.19-0.53,14.38-0.8,21.57
		c-0.04,1.14,0.36,3.66-0.28,4.65c0.61-0.94,0.27,0.02-0.14-0.58c-0.27-0.4-0.71-0.73-1.01-1.12c-1.82-2.37-3.45-4.8-5.55-6.95
		c-4.07-4.15-8.97-7.45-14.33-9.69c-4-1.68-10.3-3.15-12.15,2.32c-1.53,4.52,0.65,9.99,3.39,13.59c3,3.95,7.33,7.11,11.62,9.54
		c5.09,2.88,10.96,3.74,16.71,4.11c1.42,0.09,2.91,0.27,4.33,0.21c0.58-0.03,1.13-0.16,1.69-0.3c2.1-0.52-0.93,0.5,1.02-0.43
		c1.63-0.79,2.63-1.62,3.21-3.32c1.16-3.46,1.4-7.39,1.85-10.98c0.86-6.75,1.5-13.53,2.05-20.31c0.32-3.9-5.77-3.88-6.08,0
		c-0.75,9.16-1.36,18.51-3.17,27.54c-0.1,0.49-0.22,0.98-0.33,1.47c-0.13,0.55-0.59,0.99-0.04,0.35c-0.38,0.44,0.67-0.09,0.33-0.43
		c-0.09,0.05-0.17,0.09-0.26,0.14c-0.33,0.16-0.35,0.18-0.05,0.05c-0.24,0.1-0.48,0.2-0.73,0.31c0.75-0.17,0.68-0.23-0.21-0.18
		c-0.8-0.15-1.71-0.07-2.53-0.12c-5.32-0.29-10.68-0.95-15.34-3.7c-3.33-1.96-6.84-4.38-9.2-7.49c-1.15-1.51-2.04-3.3-2.42-5.16
		c-0.2-0.99-0.2-1.92-0.1-2.91c0-0.02,0.09,0.22-0.23,0.22c0.5-0.01,0.83-0.05,1.36,0.06c4.57,0.94,9.3,4.09,12.78,7.09
		c1.91,1.64,3.7,3.47,5.25,5.45c1.47,1.89,2.6,4.12,4.57,5.56c2.26,1.64,5.5,2,7.74,0.11c2.41-2.03,2.18-5.34,2.29-8.21
		c0.28-7.48,0.55-14.95,0.83-22.43c0.14-3.67-4.8-3.81-5.98-0.81c-0.89,2.28-1.09,4.79-0.57,7.19c0.26,1.19,0.75,2.29,1.29,3.38
		c0.63,1.26,0.26,1.64-0.34,2.95c-1.11,2.44-2.21,4.87-3.32,7.31c-0.21,0.46-0.38,1.1-0.71,1.48c-0.2,0.31-0.18,0.33,0.05,0.06
		c0.37-0.27,0.21-0.37-0.49-0.32c-1.02-0.41-2.32-0.49-3.4-0.75c-4.29-1.04-8.33-2.49-11.49-5.69c-3.09-3.13-5.94-6.4-10.65-6.58
		c-2.47-0.1-3.56,2.61-2.63,4.58c6.23,13.04,21.32,16.17,32.66,23.06c1.34,0.81,3.44,0.36,4.16-1.09
		c3.39-6.81,5.61-14.03,6.54-21.58c0.46-3.71,0.65-7.5,0.38-11.23c-0.2-2.71-0.91-5.56-3.36-7.12c-2.72-1.72-6.31-1.29-8.55,1.01
		c-2.24,2.3-3.23,6.17-3.82,9.21c-1.11,5.66-1.25,11.36-2.62,16.99C491.2,305.59,497.07,307.21,497.99,303.41L497.99,303.41z"/>
	<path d="M476.4,305.21c2.03,1.42,4.07,2.86,6.24,4.07c2.11,1.18,4.53,1.8,6.58,3.02c3.37,2,6.44-3.25,3.07-5.25
		c-2.08-1.23-4.47-1.84-6.58-3.02c-2.17-1.21-4.2-2.64-6.24-4.07C476.26,297.7,473.21,302.98,476.4,305.21L476.4,305.21z"/>
</g>
<g>
	<g>
		<path d="M492.89,245.95c13.36-24.94,10.27-56.63-8.82-77.74c-17.27-19.09-43.84-26.72-68.75-20.62
			c-9.95,2.43-20.12,6.77-28.37,12.92c2.55,1.96,5.09,3.91,7.64,5.87c3.5-12.69,3.67-26.77,0.17-39.45
			c-5.32-19.31-19.6-34.06-38.22-40.99c-29.49-10.98-64.99-6.73-91,10.83c-13.61,9.19-24.3,21.67-32.14,36.02
			c-10.29,18.86-17.51,40.83-15.23,62.54c2.01,19.15,11.32,34.95,27.91,44.99c14.2,8.59,32.4,12.31,48.24,6.21
			c8.49-3.27,17.32-8.62,21.81-16.84c4.52-8.27,3.13-17.99-2.2-25.53c-5.53-7.84-14.59-12.61-24.26-11.19
			c-10.6,1.56-18.3,9.7-21.62,19.54c-2.14,6.36,7.9,9.08,10.03,2.76c2.31-6.85,8.57-12.92,16.27-12.18
			c6.67,0.64,12.15,6.46,13.77,12.76c3.42,13.35-15.4,21.87-25.95,23.09c-13.65,1.57-28.23-4.1-38.37-13.1
			c-12.67-11.24-16.55-27.33-15.44-43.82c1.96-29.12,18.79-60.8,43.43-76.94c22.22-14.55,49.83-18.03,75.37-11.22
			c17.54,4.68,31.82,16.71,37.18,34.41c3.43,11.34,3.39,23.92,0.24,35.34c-1.11,4.02,3.85,8.7,7.64,5.87
			c16.71-12.45,39.75-17.37,59.62-10.56c20.05,6.87,36.86,26.08,38.8,48.54c0.97,11.27-1.33,23.22-6.69,33.23
			C480.75,246.6,489.72,251.86,492.89,245.95L492.89,245.95z"/>
	</g>
</g>
<g>
	<g>
		<path d="M227.74,157.02c-30.99-14.23-68.44-19.82-100.9-7.26c-31.1,12.04-61.89,40.99-60.88,76.8
			c0.48,17.11,8.54,33.38,20.73,45.21c4.8,4.67,12.17-2.68,7.35-7.35c-8.82-8.57-15.34-19.84-17.19-32.09
			c-2.59-17.1,4.94-33.48,15.61-46.45c21.94-26.69,58.52-36.35,91.78-31.24c13.13,2.02,26.19,5.82,38.26,11.37
			C228.53,168.77,233.82,159.81,227.74,157.02L227.74,157.02z"/>
	</g>
</g>
<g>
	<g>
		<path d="M91.71,453.41c32.24,54.65,63.24,110.02,92.96,166.09c3.92,7.39,15.14,0.83,11.23-6.56
			c-29.72-56.06-60.72-111.44-92.96-166.09C98.69,439.65,87.44,446.18,91.71,453.41L91.71,453.41z"/>
	</g>
</g>
<g>
	<g>
		<path d="M509.07,451.27c-26.92,55.56-52.71,111.67-77.34,168.29c-3.3,7.6,7.89,14.22,11.23,6.56
			c24.63-56.62,50.42-112.72,77.34-168.29C523.92,450.33,512.72,443.73,509.07,451.27L509.07,451.27z"/>
	</g>
</g>
<g>
	<g>
		<path d="M191.44,626.07c82.91-4.08,166.03-2.72,248.77,4.06c8.34,0.68,8.29-12.32,0-13c-82.73-6.79-165.86-8.14-248.77-4.06
			C183.11,613.48,183.06,626.48,191.44,626.07L191.44,626.07z"/>
	</g>
</g>
<g>
	<g>
		<path d="M444,454.96c-17.09,53.65-31.39,108.16-42.76,163.3c-1.3,6.28,8.34,8.97,9.64,2.66c11.38-55.15,25.67-109.65,42.76-163.3
			C455.6,451.47,445.95,448.84,444,454.96L444,454.96z"/>
	</g>
</g>
<g>
	<g>
		<path d="M378.3,452.19c-7.3,55.85-11.67,112.06-13.07,168.37c-0.16,6.44,9.84,6.43,10,0c1.4-56.31,5.77-112.52,13.07-168.37
			C389.13,445.82,379.12,445.88,378.3,452.19L378.3,452.19z"/>
	</g>
</g>
<g>
	<g>
		<path d="M323.6,459.94c2.72,51.86,3.6,103.81,2.62,155.73c-0.12,6.44,9.88,6.44,10,0c0.98-51.92,0.11-103.87-2.62-155.73
			C333.26,453.54,323.26,453.5,323.6,459.94L323.6,459.94z"/>
	</g>
</g>
<g>
	<g>
		<path d="M263.84,459.6c8.75,52.13,17.25,104.29,25.48,156.5c1,6.34,10.64,3.65,9.64-2.66c-8.24-52.21-16.73-104.38-25.48-156.5
			C272.42,450.61,262.78,453.3,263.84,459.6L263.84,459.6z"/>
	</g>
</g>
<g>
	<g>
		<path d="M211.5,453.74c18.73,52.01,32.53,105.68,41.04,160.3c0.99,6.34,10.63,3.65,9.64-2.66c-8.51-54.62-22.32-108.3-41.04-160.3
			C218.98,445.07,209.32,447.66,211.5,453.74L211.5,453.74z"/>
	</g>
</g>
<g>
	<g>
		<path d="M154.58,459.09c8.71,27.99,17.43,55.97,26.14,83.96c4.23,13.58,8.34,27.2,12.71,40.73c3.91,12.09,8.46,23.99,15.22,34.8
			c3.41,5.44,12.06,0.43,8.63-5.05c-6.79-10.86-11.15-22.74-15.01-34.9c-4.24-13.36-8.35-26.77-12.51-40.15
			c-8.51-27.35-17.03-54.7-25.54-82.05C162.31,450.31,152.66,452.92,154.58,459.09L154.58,459.09z"/>
	</g>
</g>
</svg>
