<?xml version="1.0" encoding="utf-8"?>
<!-- Generator: Adobe Illustrator 25.4.1, SVG Export Plug-In . SVG Version: 6.00 Build 0)  -->
<svg version="1.0" id="Layer_1" xmlns="http://www.w3.org/2000/svg" xmlns:xlink="http://www.w3.org/1999/xlink" x="0px" y="0px"
	 viewBox="0 0 612 792" style="enable-background:new 0 0 612 792;" xml:space="preserve">
<g>
	<path d="M140.2,374.25c0.38,6.1-1.48,12.47-5.2,17.35c-1.93,2.53-4.32,4.6-7.14,6.06c-2.71,1.4-5.75,2.19-8.8,2.36
		c-6.09,0.33-12.04-1.52-17.24-4.62c-2.61-1.55-5.03-3.42-7.26-5.48c-0.11-0.1-0.22-0.21-0.33-0.31c-0.05,1.84-0.05,3.68-0.09,5.52
		c-0.05,2.52,0.02,5.04,0.07,7.56c0.11,5.24,0.43,10.46,0.94,15.67c0.28,2.87,0.59,5.72,0.94,8.58c0.31,2.54,0.71,5.06,1.11,7.59
		c1.05,5.19,2.22,10.36,3.2,15.57c0.2,1.09-0.92,2.27-1.69,2.81c-1.17,0.82-2.67,1.16-4.08,1.16c-2.15,0-4.6-0.83-5.56-2.92
		c-0.57-1.24-1.16-2.47-1.62-3.76c-0.3-0.85-0.68-1.71-0.92-2.57c-0.38-1.4-0.81-2.79-1.13-4.21c-0.75-3.4-1.45-6.8-2.12-10.21
		c-0.53-2.7-1.02-5.44-1.39-8.17c-0.36-2.65-0.77-5.3-1.04-7.96c-0.27-2.68-0.62-5.37-0.77-8.06c-0.18-2.98-0.47-5.98-0.53-8.97
		c-0.07-3.01-0.14-6.02-0.21-9.03c-0.06-2.67,0.04-5.35,0.06-8.01c0.03-2.57,0.17-5.13,0.29-7.69c0.08-1.79,0.18-3.57,0.35-5.36
		c0.19-1.97,0.47-3.9,0.85-5.85c0.17-0.89,0.37-1.73,0.65-2.59c0.29-0.91,1-1.54,1.67-2.15c0.74-0.83,1.63-1.44,2.67-1.84
		c1.2-0.47,2.44-0.7,3.73-0.7c0.01,0,0.02,0,0.03,0c1.82,0,3.76,0.44,5.26,1.51c0.09,0.06,0.17,0.13,0.26,0.2
		c0.21-0.08,0.43-0.16,0.64-0.23c1.45-0.53,3.03-0.92,4.54-1.26c1.48-0.33,2.97-0.63,4.47-0.81c2.41-0.3,4.85-0.52,7.28-0.52
		c0.86,0,1.73,0.03,2.59,0.09c3.54,0.27,7.04,0.74,10.42,1.89c2.72,0.92,5.33,2.29,7.5,4.17
		C137.03,362.84,139.83,368.4,140.2,374.25z M132.23,372.53c-0.5-2.11-1.27-4.06-2.33-5.93c-0.87-1.31-1.85-2.5-2.98-3.6
		c-0.92-0.77-1.88-1.43-2.91-2.02c-0.89-0.43-1.79-0.8-2.73-1.12c-1.61-0.43-3.22-0.72-4.88-0.92c-2.05-0.15-4.09-0.14-6.13,0
		c-2.76,0.3-5.48,0.83-8.16,1.56c-1.85,0.57-3.68,1.24-5.49,1.93c-0.19,1.27-0.37,2.54-0.54,3.82c-0.15,1.18-0.31,2.37-0.42,3.56
		c-0.26,2.73-0.63,5.46-0.79,8.2c-0.04,0.7-0.08,1.39-0.13,2.09c1.82,2.73,3.96,5.18,6.37,7.4c2.11,1.82,4.36,3.44,6.79,4.8
		c1.47,0.74,2.96,1.37,4.53,1.88c1.18,0.32,2.37,0.56,3.59,0.71c0.91,0.05,1.81,0.06,2.71,0.02c0.81-0.11,1.61-0.26,2.4-0.46
		c0.83-0.28,1.63-0.61,2.42-0.99c0.88-0.53,1.69-1.11,2.49-1.75c1.31-1.24,2.41-2.63,3.39-4.16c1.31-2.33,2.23-4.79,2.8-7.4
		C132.64,377.59,132.66,375.08,132.23,372.53z"/>
	<path d="M186.58,376.09c1.86,6.1,2.16,12.62,1.83,18.97c-0.15,2.82-0.27,5.64-0.51,8.46c-0.46,5.48-1.07,10.94-1.71,16.4
		c-0.3,2.58-0.63,5.15-1,7.71c-0.22,1.53-0.48,3.03-0.84,4.54c-0.19,0.78-0.37,1.56-0.55,2.34c-0.27,1.16-0.74,2.28-1.12,3.41
		c-0.4,1.18-1.65,2.01-2.73,2.46c-1.42,0.59-3.08,0.71-4.59,0.41c-1.82-0.35-4.51-1.7-4.37-3.96c0.08-1.25,0.1-2.52,0.26-3.77
		c0.1-0.83,0.21-1.66,0.32-2.49c0.15-1.14,0.38-2.26,0.59-3.39c0.09-0.47,0.18-0.95,0.28-1.42c-4.82,2.31-9.65,4.61-14.56,6.72
		c-3.31,1.43-6.68,2.81-10.18,3.68c-3.51,0.88-7.19,1.36-10.76,0.57c-1.55-0.35-3.01-1.04-4.18-2.1c-1.04-0.94-1.71-2.05-1.99-3.43
		c-0.65-3.19,0.75-6.46,2.53-9.06c0.97-1.42,2.04-2.74,3.29-3.92c1.13-1.06,2.28-2.13,3.54-3.03c5.67-4.03,12.42-6.12,19.32-6.56
		c0.99-0.06,1.97-0.1,2.96-0.1c0.95,0,1.9,0.04,2.85,0.12c1.82,0.16,3.65,0.3,5.44,0.68c1.51,0.31,2.98,0.73,4.44,1.17
		c0.32-2.01,0.63-4.03,0.91-6.05c0.4-2.87,0.71-5.74,1.01-8.63c0.57-5.42,0.76-10.92-0.18-16.31c-0.42-1.81-1.01-3.51-1.89-5.12
		c-0.31-0.41-0.62-0.78-0.97-1.14c-0.08-0.06-0.16-0.12-0.24-0.17c-0.48,0.18-0.94,0.38-1.4,0.6c-1.27,0.78-2.45,1.66-3.6,2.62
		c-2.3,2.16-4.26,4.59-5.97,7.24c-0.87,1.46-1.68,2.97-2.35,4.52c-0.43,0.97-0.88,1.94-1.26,2.94c-0.21,0.52-0.4,1.04-0.58,1.57
		c-0.25,0.55-0.47,1.12-0.66,1.7c-0.44,0.81-0.78,1.6-1.46,2.24c-1.05,1-2.29,1.49-3.76,1.49c-1.39,0-2.79-0.45-3.76-1.49
		c-0.37-0.34-0.66-0.75-0.87-1.21c-0.06-0.3-0.12-0.59-0.17-0.89c-0.07-0.36-0.11-0.73-0.13-1.09c0.22-1.18,0.4-2.36,0.83-3.49
		c0.44-1.15,0.94-2.22,1.49-3.32c0.93-1.9,2.04-3.76,3.22-5.51c1.93-2.86,4.08-5.61,6.59-7.97c1.35-1.27,2.71-2.54,4.24-3.59
		c1.41-0.97,2.98-1.97,4.62-2.51c0.65-0.22,1.31-0.42,1.96-0.6c0.69-0.17,1.39-0.27,2.11-0.28c0.37-0.03,0.73-0.05,1.08-0.05
		c0.59,0,1.17,0.04,1.8,0.12c1.81,0.21,3.76,0.83,5.24,1.95c1.34,1.02,2.49,2.12,3.41,3.53
		C185.29,372.99,186.09,374.51,186.58,376.09z M173.52,420.13c0.02-0.12,0.05-0.24,0.07-0.37c0.03-0.18,0.06-0.37,0.09-0.55
		c-0.56-0.19-1.11-0.39-1.65-0.61c-2.09-0.82-4.16-1.68-6.3-2.36c-1.52-0.39-3.05-0.68-4.6-0.88c-1.38-0.08-2.75-0.08-4.14,0
		c-1.5,0.18-2.98,0.46-4.45,0.84c-1.43,0.46-2.8,1.02-4.14,1.68c-1.61,0.92-3.09,1.96-4.5,3.16c-1.59,1.49-3.03,3.08-4.23,4.9
		c-0.59,1.06-1.04,2.12-1.34,3.29c-0.05,0.56-0.04,1.06,0.01,1.61c0.05,0.15,0.11,0.3,0.18,0.45c0.08,0.11,0.17,0.22,0.26,0.32
		c0.09,0.06,0.17,0.12,0.26,0.18c0.12,0.05,0.24,0.1,0.36,0.15c0.18,0.04,0.37,0.08,0.55,0.11c0.7,0.03,1.38,0.03,2.08-0.01
		c1.42-0.19,2.8-0.49,4.19-0.86c8.23-2.59,15.74-7.02,23.37-10.96c0.9-0.47,2.2-0.47,3.17-0.29
		C173.02,419.97,173.27,420.04,173.52,420.13z M138.72,431.64c-0.02-0.04-0.05-0.08-0.07-0.11
		C138.67,431.56,138.7,431.6,138.72,431.64C138.72,431.64,138.72,431.64,138.72,431.64z"/>
	<path d="M234.51,367.51c0.29,3.27-0.63,6.71-2.16,9.6c-1.67,3.16-3.69,6.24-6,8.98c-2.31,2.75-5.24,5.62-9.19,4.79
		c-0.98-0.21-1.92-0.62-2.57-1.42c-0.57-0.7-0.8-1.57-0.46-2.43c0.68-1.74,2.08-3.14,3.26-4.56c1.02-1.21,1.91-2.49,2.78-3.81
		c1.26-2.28,2.22-4.63,2.81-7.17c0.19-1.43,0.24-2.8,0.08-4.22c-0.12-0.42-0.27-0.79-0.46-1.18c-0.04-0.05-0.07-0.09-0.11-0.13
		c-0.02-0.01-0.04-0.03-0.06-0.04c-0.01,0-0.02-0.01-0.03-0.01c-0.33-0.01-0.66,0-0.98,0.01c-0.49,0.09-0.97,0.19-1.45,0.31
		c-1.05,0.36-2.07,0.78-3.07,1.26c-1.97,1.13-3.79,2.43-5.53,3.89c-2.34,2.17-4.42,4.55-6.15,7.23c-1.5,2.61-2.62,5.32-3.27,8.26
		c-0.3,2.02-0.34,3.99-0.04,6c0.31,1.16,0.71,2.24,1.26,3.3c0.54,0.78,1.12,1.48,1.79,2.16c0.92,0.74,1.89,1.38,2.91,1.97
		c1.86,0.9,3.79,1.67,5.71,2.43c3.23,1.27,6.54,2.52,9.41,4.5c2.01,1.38,3.81,3.02,5.17,5.06c1.2,1.79,1.93,3.7,2.31,5.81
		c0.82,4.52-0.23,9.33-2.1,13.47c-2.03,4.5-4.8,8.77-8.35,12.23c-1.71,1.66-3.71,3.08-5.98,3.85c-2.59,0.88-5.29,0.79-7.81-0.27
		c-4.5-1.89-5.11-7.61-4.9-11.84c0.17-3.54,0.76-6.9,1.61-10.34c0.21-0.85,1.27-1.49,1.99-1.79c1.04-0.43,2.25-0.52,3.35-0.3
		c0.95,0.18,1.97,0.61,2.6,1.38c0.38,0.44,0.58,0.94,0.59,1.52c-0.05,0.27-0.1,0.53-0.15,0.8c-0.08,0.39-0.15,0.77-0.23,1.16
		c-0.67,3.77-1.25,7.55-0.67,11.37c0.2,0.77,0.45,1.5,0.79,2.21c0.08-0.04,0.16-0.07,0.24-0.11c0.82-0.5,1.58-1.05,2.32-1.66
		c1.59-1.5,2.93-3.16,4.15-4.98c1.52-2.61,2.65-5.34,3.32-8.3c0.29-1.93,0.35-3.81,0.1-5.75c-0.3-1.18-0.7-2.28-1.27-3.36
		c-0.53-0.77-1.11-1.45-1.77-2.11c-0.96-0.77-1.96-1.43-3.03-2.05c-3.12-1.53-6.41-2.63-9.63-3.93c-5.18-2.08-10.53-4.73-13.26-9.88
		c-1.66-3.14-2.21-6.88-1.62-10.39c0.58-3.45,1.59-6.74,3.27-9.82c1.57-2.89,3.39-5.66,5.6-8.1c2.15-2.38,4.55-4.67,7.17-6.53
		c2.88-2.03,5.98-3.73,9.35-4.79c1.94-0.61,4.01-1.06,6.05-1.06c0.02,0,0.03,0,0.05,0c1.95,0.01,4.02,0.2,5.85,0.94
		c0.62,0.22,1.21,0.51,1.76,0.85c0.2,0.12,0.41,0.23,0.62,0.34c0.7,0.55,1.52,1.12,2.05,1.85
		C233.58,364.14,234.36,365.69,234.51,367.51z"/>
	<path d="M279.09,367.51c0.29,3.27-0.63,6.71-2.16,9.6c-1.67,3.16-3.69,6.24-6,8.98c-2.31,2.75-5.24,5.62-9.19,4.79
		c-0.98-0.21-1.92-0.62-2.57-1.42c-0.57-0.7-0.8-1.57-0.46-2.43c0.68-1.74,2.08-3.14,3.26-4.56c1.02-1.21,1.91-2.49,2.78-3.81
		c1.26-2.28,2.22-4.63,2.81-7.17c0.19-1.43,0.24-2.8,0.08-4.22c-0.12-0.42-0.27-0.79-0.46-1.18c-0.04-0.05-0.07-0.09-0.11-0.13
		c-0.02-0.01-0.04-0.03-0.06-0.04c-0.01,0-0.02-0.01-0.03-0.01c-0.33-0.01-0.66,0-0.98,0.01c-0.49,0.09-0.97,0.19-1.45,0.31
		c-1.05,0.36-2.07,0.78-3.07,1.26c-1.97,1.13-3.79,2.43-5.53,3.89c-2.34,2.17-4.42,4.55-6.15,7.23c-1.5,2.61-2.62,5.32-3.27,8.26
		c-0.3,2.02-0.34,3.99-0.04,6c0.31,1.16,0.71,2.24,1.26,3.3c0.54,0.78,1.12,1.48,1.79,2.16c0.92,0.74,1.89,1.38,2.91,1.97
		c1.86,0.9,3.79,1.67,5.71,2.43c3.23,1.27,6.54,2.52,9.41,4.5c2.01,1.38,3.81,3.02,5.17,5.06c1.2,1.79,1.93,3.7,2.31,5.81
		c0.82,4.52-0.23,9.33-2.1,13.47c-2.03,4.5-4.8,8.77-8.35,12.23c-1.71,1.66-3.71,3.08-5.98,3.85c-2.59,0.88-5.29,0.79-7.81-0.27
		c-4.5-1.89-5.11-7.61-4.9-11.84c0.17-3.54,0.76-6.9,1.61-10.34c0.21-0.85,1.27-1.49,1.99-1.79c1.04-0.43,2.25-0.52,3.35-0.3
		c0.95,0.18,1.97,0.61,2.6,1.38c0.38,0.44,0.58,0.94,0.59,1.52c-0.05,0.27-0.1,0.53-0.15,0.8c-0.08,0.39-0.15,0.77-0.23,1.16
		c-0.67,3.77-1.25,7.55-0.67,11.37c0.2,0.77,0.45,1.5,0.79,2.21c0.08-0.04,0.16-0.07,0.24-0.11c0.82-0.5,1.58-1.05,2.32-1.66
		c1.59-1.5,2.93-3.16,4.15-4.98c1.52-2.61,2.65-5.34,3.32-8.3c0.29-1.93,0.35-3.81,0.1-5.75c-0.3-1.18-0.7-2.28-1.27-3.36
		c-0.53-0.77-1.11-1.45-1.77-2.11c-0.96-0.77-1.96-1.43-3.03-2.05c-3.12-1.53-6.41-2.63-9.63-3.93c-5.18-2.08-10.53-4.73-13.26-9.88
		c-1.66-3.14-2.21-6.88-1.62-10.39c0.58-3.45,1.59-6.74,3.27-9.82c1.57-2.89,3.39-5.66,5.6-8.1c2.15-2.38,4.55-4.67,7.17-6.53
		c2.88-2.03,5.98-3.73,9.35-4.79c1.94-0.61,4.01-1.06,6.05-1.06c0.02,0,0.03,0,0.05,0c1.95,0.01,4.02,0.2,5.85,0.94
		c0.62,0.22,1.21,0.51,1.76,0.85c0.2,0.12,0.41,0.23,0.62,0.34c0.7,0.55,1.52,1.12,2.05,1.85
		C278.16,364.14,278.93,365.69,279.09,367.51z"/>
	<path d="M295.12,374.93c1.1,0.72,2,1.8,2,3.12c0,0.24-0.03,0.47-0.08,0.68c-0.17,1.05-0.53,2.06-0.77,3.1
		c-0.07,0.28-0.13,0.57-0.2,0.85c-0.21,0.86-0.41,1.72-0.61,2.57c-0.41,2.1-0.83,4.21-1.17,6.32c-0.43,2.66-0.83,5.31-1.19,7.98
		c-0.35,2.55-0.61,5.11-0.89,7.68c-0.22,2.09-0.4,4.21-0.49,6.31c-0.12,2.66-0.23,5.32-0.25,7.98c-0.02,2.49,0.05,4.98,0.13,7.47
		c0.16,5.45,0.85,10.89,1.49,16.31c0.1,0.83-0.67,1.63-1.32,2.07c-0.91,0.6-2.09,0.85-3.2,0.85c-1.1,0-2.28-0.25-3.2-0.85
		c-0.82-0.55-1.18-1.16-1.32-2.07c-0.37-2.37-0.69-4.72-0.99-7.09c-1.25-10.02-1.57-20.14-1.81-30.22
		c-0.11-4.61-0.15-9.26,0.08-13.87c0.14-2.76,0.32-5.49,0.59-8.24c0.12-1.2,0.28-2.37,0.45-3.56c0.08-0.55,0.14-1.12,0.25-1.67
		c0.17-0.87,0.31-1.75,0.54-2.61c0.1-0.67,0.39-1.26,0.89-1.78c0.1-0.14,0.21-0.28,0.32-0.42c0.68-0.71,1.5-1.24,2.45-1.59
		c1.1-0.4,2.24-0.61,3.42-0.61c0.01,0,0.02,0,0.03,0C291.95,373.63,293.74,374.01,295.12,374.93L295.12,374.93z M284.34,365.5
		c-0.13-0.91-0.27-1.57,0.08-2.51c0.09-0.26,0.19-0.52,0.29-0.77c0.58-1.59,2.03-2.31,3.45-2.97c0.8-0.37,1.75-0.53,2.68-0.53
		c0.53,0,1.05,0.05,1.54,0.15c0.87,0.16,1.67,0.48,2.41,0.97c0.44,0.39,0.88,0.79,1.32,1.18c0.68,0.61,0.87,1.59,0.87,2.45
		c0,0.25,0,0.5,0,0.75c0,0.87-0.42,1.62-0.77,2.39c-1.21,2.69-4.8,3.42-7.43,2.91c-1.33-0.26-2.73-0.85-3.61-1.92
		C284.64,367,284.36,366.3,284.34,365.5z"/>
	<path d="M344.94,394.95c0.21,2.11,0.42,4.25,0.37,6.37c-0.04,1.44-0.07,2.88-0.1,4.32c-0.02,1-0.14,1.98-0.25,2.98
		c-0.14,1.26-0.22,2.55-0.42,3.81c-0.58,3.57-1.31,7.13-2.38,10.59c-0.45,1.48-0.99,2.92-1.52,4.37c-0.61,1.68-1.22,3.35-1.91,4.99
		c-0.62,1.46-1.28,2.89-2.01,4.29c-0.7,1.36-1.42,2.78-2.35,4c-2.06,2.74-4.82,5.03-8.21,5.85c-3.17,0.77-6.44,0.34-9.37-1.07
		c-3.04-1.47-5.68-3.98-7.63-6.7c-1.94-2.71-3.61-5.63-4.83-8.73c-2.56-6.55-3.85-13.64-4.21-20.66
		c-0.36-7.01,0.05-14.16,1.77-20.99c0.48-1.89,0.98-3.82,1.74-5.62c0.65-1.53,1.35-3.16,2.35-4.51c0.44-0.6,0.89-1.13,1.42-1.65
		c0.09-0.1,0.19-0.2,0.29-0.3c-0.69-0.77-1.46-1.71-1.83-2.7c-0.51-1.39-0.77-2.75-0.57-4.22c0.16-1.15,0.54-2.16,1.11-3.16
		c1.51-2.59,3.95-4.28,6.73-5.29c0.85-0.31,1.86-0.58,2.76-0.68c0.83-0.08,1.67-0.21,2.5-0.21c0.07,0,0.15,0,0.22,0
		c1.33,0.04,2.72,0.1,4.01,0.43c2.71,0.67,5.35,1.7,7.61,3.38c4.64,3.46,8.05,8.36,10.29,13.66
		C342.86,383.03,344.34,388.97,344.94,394.95z M336.6,399.07c-0.03-4.21-0.37-8.4-1.12-12.54c-0.32-1.54-0.7-3.06-1.16-4.56
		c-2.34,0.27-4.67,0.38-7.03,0.39c-0.88,0-1.78-0.01-2.66-0.09c-1.87-0.16-3.75-0.26-5.59-0.62c-0.71-0.14-1.41-0.29-2.11-0.47
		c-2.05,3.71-3.21,7.87-4.06,12.01c-0.91,5.05-1.4,10.2-1.45,15.34c-0.04,4.91,0.21,9.8,1.07,14.65c0.94,4.5,2.38,8.84,4.67,12.84
		c0.94,1.44,1.97,2.77,3.21,3.96c0.51,0.41,1.03,0.79,1.59,1.13c0.26,0.12,0.53,0.23,0.8,0.32c0.11,0.02,0.23,0.05,0.34,0.07
		c0.13,0,0.25,0,0.38,0c0.08-0.01,0.16-0.03,0.24-0.04c0.35-0.13,0.68-0.27,1.01-0.42c0.46-0.3,0.89-0.61,1.31-0.95
		c0.77-0.77,1.44-1.59,2.05-2.5c1.9-3.29,3.27-6.84,4.41-10.46c0.38-1.23,0.77-2.47,1.16-3.7c0.58-1.83,0.98-3.73,1.36-5.61
		c0.51-2.77,0.84-5.54,1.09-8.34c0.13-1.4,0.26-2.79,0.31-4.2C336.5,403.21,336.62,401.14,336.6,399.07z M314.44,371.37
		c0.15,0.45,0.3,0.84,0.5,1.25c0.28,0.38,0.58,0.74,0.92,1.08c0.44,0.34,0.88,0.64,1.35,0.92c0.63,0.29,1.25,0.54,1.9,0.76
		c1.22,0.31,2.45,0.52,3.7,0.68c2,0.1,3.97,0.09,5.97-0.02c1.01-0.11,2.03-0.23,3.04-0.35c-0.29-0.57-0.59-1.13-0.91-1.69
		c-1.14-1.79-2.43-3.42-3.96-4.91c-0.91-0.76-1.86-1.44-2.89-2.04c-0.63-0.3-1.28-0.57-1.94-0.81c-0.62-0.15-1.23-0.28-1.86-0.37
		c-0.4-0.01-0.79-0.01-1.18,0c-0.4,0.06-0.79,0.14-1.19,0.22c-0.38,0.14-0.74,0.29-1.1,0.46c-0.34,0.22-0.66,0.45-0.97,0.69
		c-0.3,0.33-0.57,0.66-0.83,1.01c-0.25,0.49-0.44,0.98-0.59,1.51C314.37,370.31,314.38,370.82,314.44,371.37z"/>
	<path d="M393.05,382.81c-0.42,4.39-0.56,8.83-0.6,13.24c-0.05,4.88,0.03,9.76,0.14,14.64c0.1,4.4,0.34,8.85,0.78,13.22
		c0.25,2.54,0.5,5.07,0.85,7.59c0.3,2.2,0.66,4.37,1.04,6.55c0.26,1.24,0.54,2.47,0.74,3.72c0.14,0.84-0.68,1.72-1.29,2.14
		c-0.89,0.63-2.04,0.89-3.11,0.89c-1.54,0-3.64-0.62-4.24-2.22c-1.57-4.21-2.94-8.5-4.78-12.61c-3.86-8.62-8.24-17.01-12.81-25.28
		c-3.75-6.79-7.55-13.57-11.49-20.26c-0.14,2.23-0.21,4.47-0.17,6.7c0.04,2.47,0.09,4.93,0.23,7.39c0.13,2.48,0.33,4.94,0.53,7.41
		c0.39,4.62,1.03,9.22,1.65,13.81c0.58,4.28,1.41,8.52,2.23,12.76c0.46,2.11,0.91,4.23,1.4,6.34c0.32,1.4,0.7,2.79,0.94,4.2
		c0.1,0.61,0.2,1.21,0.31,1.82c0.07,0.44-0.02,0.82-0.1,1.26c-0.15,0.93-0.46,1.53-1.25,2.09c-0.58,0.38-1.21,0.63-1.89,0.76
		c-1.08,0.21-2.28,0.12-3.3-0.3c-0.6-0.23-1.11-0.58-1.54-1.06c-0.27-0.25-0.55-0.5-0.82-0.74c-0.31-0.28-0.61-1.04-0.81-1.46
		c-0.3-0.6-0.63-1.19-0.83-1.83c-0.42-1.34-0.9-2.67-1.21-4.03c-0.39-1.71-0.78-3.41-1.17-5.12c-0.39-1.72-0.63-3.49-0.93-5.22
		c-0.98-5.65-1.7-11.39-2.04-17.12c-0.15-2.43-0.3-4.86-0.37-7.3c-0.07-2.5-0.1-4.98-0.11-7.48c-0.01-4.51,0.08-9.03,0.12-13.54
		c0.01-1.18,0.02-2.37,0.04-3.55c0.04-1.79,0.02-3.59,0.38-5.35c0.37-1.81,1.28-3.3,3.06-4.04c1.79-0.74,3.83-0.53,5.58,0.15
		c1.37,0.54,2.45,1.62,3.21,2.84c0.8,1.29,1.6,2.56,2.33,3.89c2.4,4.35,4.71,8.76,7.03,13.16c4.3,8.14,8.62,16.26,12.71,24.51
		c-0.61-8.45-0.55-16.94-0.28-25.4c0.15-4.5,0.39-8.99,0.68-13.48c0.14-2.19,0.29-4.39,0.53-6.58c0.14-1.24,0.25-2.48,0.45-3.71
		c0.3-1.94,0.68-3.86,1.11-5.78c0.22-1,1.52-1.77,2.36-2.11c0.8-0.33,1.69-0.49,2.56-0.49c0.47,0,0.94,0.05,1.39,0.13
		c1.12,0.22,2.32,0.72,3.06,1.62c0.45,0.51,0.68,1.1,0.7,1.79c-0.52,3.8-1.18,7.57-1.77,11.35
		C393.76,376.09,393.38,379.44,393.05,382.81z"/>
	<path d="M453.31,376.09c1.86,6.1,2.16,12.62,1.83,18.97c-0.15,2.82-0.27,5.64-0.51,8.46c-0.46,5.48-1.07,10.94-1.71,16.4
		c-0.3,2.58-0.63,5.15-1,7.71c-0.22,1.53-0.48,3.03-0.84,4.54c-0.19,0.78-0.37,1.56-0.55,2.34c-0.27,1.16-0.74,2.28-1.12,3.41
		c-0.4,1.18-1.65,2.01-2.73,2.46c-1.42,0.59-3.08,0.71-4.59,0.41c-1.82-0.35-4.51-1.7-4.37-3.96c0.08-1.25,0.1-2.52,0.26-3.77
		c0.1-0.83,0.21-1.66,0.32-2.49c0.15-1.14,0.38-2.26,0.59-3.39c0.09-0.47,0.18-0.95,0.28-1.42c-4.82,2.31-9.65,4.61-14.56,6.72
		c-3.31,1.43-6.68,2.81-10.18,3.68c-3.51,0.88-7.19,1.36-10.76,0.57c-1.55-0.35-3.01-1.04-4.18-2.1c-1.04-0.94-1.71-2.05-1.99-3.43
		c-0.65-3.19,0.75-6.46,2.53-9.06c0.97-1.42,2.04-2.74,3.29-3.92c1.13-1.06,2.28-2.13,3.54-3.03c5.67-4.03,12.42-6.12,19.32-6.56
		c0.99-0.06,1.97-0.1,2.96-0.1c0.95,0,1.9,0.04,2.85,0.12c1.82,0.16,3.65,0.3,5.44,0.68c1.51,0.31,2.98,0.73,4.44,1.17
		c0.32-2.01,0.63-4.03,0.91-6.05c0.4-2.87,0.71-5.74,1.01-8.63c0.57-5.42,0.76-10.92-0.18-16.31c-0.42-1.81-1.01-3.51-1.89-5.12
		c-0.31-0.41-0.62-0.78-0.97-1.14c-0.08-0.06-0.16-0.12-0.24-0.17c-0.48,0.18-0.94,0.38-1.4,0.6c-1.27,0.78-2.45,1.66-3.6,2.62
		c-2.3,2.16-4.26,4.59-5.97,7.24c-0.87,1.46-1.68,2.97-2.35,4.52c-0.43,0.97-0.88,1.94-1.26,2.94c-0.21,0.52-0.4,1.04-0.58,1.57
		c-0.25,0.55-0.47,1.12-0.66,1.7c-0.44,0.81-0.78,1.6-1.46,2.24c-1.05,1-2.29,1.49-3.76,1.49c-1.39,0-2.79-0.45-3.76-1.49
		c-0.37-0.34-0.66-0.75-0.87-1.21c-0.06-0.3-0.12-0.59-0.17-0.89c-0.07-0.36-0.11-0.73-0.13-1.09c0.22-1.18,0.4-2.36,0.83-3.49
		c0.44-1.15,0.94-2.22,1.49-3.32c0.93-1.9,2.04-3.76,3.22-5.51c1.93-2.86,4.08-5.61,6.59-7.97c1.35-1.27,2.71-2.54,4.24-3.59
		c1.41-0.97,2.98-1.97,4.62-2.51c0.65-0.22,1.31-0.42,1.96-0.6c0.69-0.17,1.39-0.27,2.11-0.28c0.37-0.03,0.73-0.05,1.08-0.05
		c0.59,0,1.17,0.04,1.8,0.12c1.81,0.21,3.76,0.83,5.24,1.95c1.34,1.02,2.49,2.12,3.41,3.53
		C452.02,372.99,452.82,374.51,453.31,376.09z M440.25,420.13c0.02-0.12,0.05-0.24,0.07-0.37c0.03-0.18,0.06-0.37,0.09-0.55
		c-0.56-0.19-1.11-0.39-1.65-0.61c-2.09-0.82-4.16-1.68-6.3-2.36c-1.52-0.39-3.05-0.68-4.6-0.88c-1.38-0.08-2.75-0.08-4.14,0
		c-1.5,0.18-2.98,0.46-4.45,0.84c-1.43,0.46-2.8,1.02-4.14,1.68c-1.61,0.92-3.09,1.96-4.5,3.16c-1.59,1.49-3.03,3.08-4.23,4.9
		c-0.59,1.06-1.04,2.12-1.34,3.29c-0.05,0.56-0.04,1.06,0.01,1.61c0.05,0.15,0.11,0.3,0.18,0.45c0.08,0.11,0.17,0.22,0.26,0.32
		c0.09,0.06,0.17,0.12,0.26,0.18c0.12,0.05,0.24,0.1,0.36,0.15c0.18,0.04,0.37,0.08,0.55,0.11c0.7,0.03,1.38,0.03,2.08-0.01
		c1.42-0.19,2.8-0.49,4.19-0.86c8.23-2.59,15.74-7.02,23.37-10.96c0.9-0.47,2.2-0.47,3.17-0.29
		C439.75,419.97,440,420.04,440.25,420.13z M405.45,431.64c-0.02-0.04-0.05-0.08-0.07-0.11C405.4,431.56,405.42,431.6,405.45,431.64
		C405.45,431.64,405.45,431.64,405.45,431.64z"/>
	<path d="M495.41,363.95c0,2.06-2.58,2.94-4.25,2.93c-2.82-0.02-5.65-0.02-8.47,0.01c-0.16,0.75-0.35,1.49-0.52,2.24
		c-0.19,0.87-0.39,1.74-0.58,2.62c-0.41,2.18-0.8,4.35-1.14,6.54c-1.66,10.75-2.39,21.56-2.29,32.43c0.05,5.23,0.5,10.42,1.17,15.6
		c0.31,2.36,0.69,4.72,1.12,7.07c0.25,1.39,0.52,2.77,0.73,4.16c0.31,1.97,0.55,3.91,0.74,5.89c0.11,1.16-0.85,2.23-1.7,2.84
		c-1.18,0.83-2.69,1.17-4.11,1.17c-1.42,0-2.94-0.35-4.11-1.17c-0.67-0.44-1.17-1.04-1.49-1.77c-0.68-3.08-1.27-6.14-1.6-9.27
		c-0.25-2.38-0.46-4.75-0.68-7.12c-0.94-10.45-1.46-20.93-1.61-31.42c-0.07-5.13-0.03-10.26-0.01-15.39c0.01-2.8,0.02-5.6,0-8.41
		c-0.01-1.36-0.03-2.72-0.07-4.08c-0.01-0.34-0.03-0.68-0.06-1.03c-0.54,0.08-1.08,0.15-1.61,0.24c-0.95,0.16-1.89,0.36-2.84,0.48
		c-1.6,0.21-3.24,0.45-4.83,0.02c-1.28-0.35-2.71-0.87-3.24-2.23c-0.3-0.78-0.18-1.87,0.47-2.46c0.64-0.58,1.18-1.13,2.01-1.44
		c0.62-0.23,1.25-0.48,1.9-0.6c0.62-0.12,1.24-0.23,1.86-0.31c1.56-0.2,3.13-0.33,4.69-0.45c1.58-0.12,3.17-0.21,4.76-0.29
		c0.3-0.16,0.6-0.31,0.93-0.43c1.29-0.53,2.73-0.8,4.17-0.8c1.44,0,2.88,0.27,4.17,0.8c0.18,0.08,0.37,0.17,0.55,0.26
		c0.46,0,0.92,0,1.38,0.01c3.45,0.07,6.88,0.24,10.33,0.46c1.07,0.07,2.11,0.22,3,0.86C494.84,362.36,495.41,363.08,495.41,363.95z"
		/>
	<path d="M534.06,367.99c1.25,3.07,1.54,6.42,0.67,9.62c-0.81,2.98-2.45,5.87-4.68,8.02c-2.52,2.42-5.41,4.52-8.7,5.75
		c-3.21,1.21-6.57,1.87-10.01,1.66c-2.77-0.17-5.57-0.91-7.94-2.37c-0.46,5.14-0.34,10.32,0.24,15.44c0.38,3.35,1.01,6.64,1.58,9.95
		c0.53,2.31,1.05,4.61,1.7,6.89c0.53,1.84,1.04,3.7,1.69,5.51c1.11,3.08,2.39,6.08,4.02,8.93c0.84,1.32,1.75,2.58,2.81,3.74
		c0.73-1.46,1.18-2.98,1.54-4.58c0.9-5.59,0.48-11.24-0.05-16.84c-0.22-2.37-0.53-4.72-0.82-7.08c-0.35-2.87-0.6-5.72-0.74-8.61
		c-0.05-0.92,0.63-1.72,1.33-2.22c0.92-0.65,2.1-0.92,3.21-0.92c1.87,0,4.45,0.93,4.55,3.14c0.22,5.06,0.26,10.13,0.33,15.19
		c0.06,4.71,0.06,9.41-0.19,14.11c-0.14,2.59-0.49,5.26-1.19,7.76c-0.73,2.56-2,5.03-4.53,6.2c-3.11,1.44-6.91,0.7-9.66-1.2
		c-2.46-1.7-4.55-3.97-6.23-6.43c-1.98-2.9-3.77-5.94-5.22-9.14c-0.68-1.5-1.27-3-1.82-4.55c-0.34-0.96-0.77-1.92-1.03-2.9
		c-0.37-1.41-0.75-2.82-1.12-4.23c-0.7-2.64-1.09-5.37-1.59-8.06c-0.34-1.84-0.5-3.75-0.64-5.6c-0.13-1.73-0.23-3.46-0.24-5.2
		c-0.03-3.46,0.12-6.94,0.61-10.37c1-6.97,2.79-14.02,6.9-19.86c1.07-1.51,2.23-2.9,3.56-4.19c1.22-1.18,2.58-2.33,4.06-3.19
		c1.59-0.93,3.2-1.73,4.95-2.32c1.85-0.63,3.73-0.98,5.68-1.12c0.53-0.04,1.06-0.06,1.59-0.06c3.19,0,6.38,0.73,9.17,2.32
		c1.38,0.79,2.72,1.77,3.77,2.98C532.57,365.31,533.5,366.6,534.06,367.99z M526.12,371.94c-0.28-1.11-0.67-2.14-1.21-3.14
		c-0.43-0.61-0.89-1.17-1.41-1.71c-0.39-0.31-0.79-0.6-1.21-0.88c-0.4-0.19-0.81-0.36-1.23-0.52c-0.35-0.08-0.69-0.15-1.05-0.21
		c-0.46-0.02-0.92-0.02-1.38,0c-0.5,0.08-1,0.17-1.5,0.28c-0.79,0.27-1.55,0.58-2.3,0.94c-0.93,0.57-1.8,1.18-2.64,1.87
		c-1.42,1.37-2.63,2.88-3.71,4.53c-1.43,2.5-2.48,5.14-3.29,7.87c0.6,0.14,1.15,0.39,1.59,0.73c0.54,0.43,0.99,0.85,1.4,1.4
		c0.09,0.15,0.18,0.3,0.27,0.45c0.51,0.69,1.02,1.34,1.61,1.94c0.29,0.22,0.58,0.42,0.89,0.61c0.27,0.12,0.54,0.24,0.82,0.35
		c0.34,0.08,0.67,0.14,1.01,0.2c0.49,0.01,0.98,0.01,1.47-0.01c0.64-0.09,1.26-0.21,1.89-0.36c0.87-0.29,1.71-0.62,2.54-1.01
		c1.09-0.62,2.1-1.32,3.08-2.11c1.04-1,1.94-2.07,2.75-3.26c0.72-1.32,1.24-2.66,1.58-4.11
		C526.29,374.49,526.29,373.24,526.12,371.94z"/>
</g>
<g>
	<path d="M162.1,331.77c0,1.12-0.11,2.25-0.56,3.37c-0.67,1.35-1.57,1.91-3.15,1.8c-2.7-0.11-5.5-0.34-8.31-0.56
		c-0.79,0-1.57-0.11-2.36-0.23c-2.7-0.56-3.71-1.69-3.93-4.38c-0.11-2.7,0-5.28,0-7.86c-0.11-0.67-0.11-1.24-0.11-1.91
		c-0.11-2.25-0.11-2.36-2.36-2.25c-4.04,0.11-7.98,0.34-12.02,0.67c-5.06,0.45-10.11,0.56-15.17,0.56c-2.58,0-2.58,0-2.58,2.81
		c0,2.47,0,5.05,0,7.53c0,1.01-0.11,2.02-0.34,2.92c-0.45,1.35-1.57,2.25-3.03,2.36c-1.57,0.22-2.7-0.56-3.48-1.8
		c-0.67-1.24-0.67-2.58-0.79-3.82c-0.79-9.32,0.34-18.54,2.36-27.52c1.12-4.94,2.36-9.89,4.04-14.72
		c2.47-6.96,5.95-13.48,11.12-18.98c2.92-3.26,6.63-5.17,10.79-6.07c6.07-1.35,11.12,0.67,15.5,4.83
		c5.62,5.5,8.76,12.36,10.67,19.77c2.02,8.31,3.03,16.74,3.37,25.16c0.11,2.47,0,4.83,0,7.3c0.11,0,0.22,0,0.34,0
		C162.1,324.47,162.1,328.06,162.1,331.77z M143.12,312c-0.11-1.57-0.22-3.48-0.34-5.28c-0.67-7.3-1.57-14.49-3.71-21.57
		c-1.12-3.71-3.03-6.85-5.5-9.77c-0.79-1.01-1.69-1.69-2.81-2.25c-1.35-0.56-2.36-0.45-3.59,0.56c-2.81,2.58-4.94,5.73-6.63,9.32
		c-4.61,9.89-7.08,20.56-8.54,31.34c-0.22,1.57,0,1.57,1.57,1.57c0.45,0,0.9,0,1.35,0c8.65-0.67,17.3-1.24,26.06-1.35
		C143.34,314.47,143.34,314.47,143.12,312z M153.67,329.86c0.34-13.82-0.45-27.52-3.14-41.11c-1.12-5.84-3.37-11.01-8.43-14.49
		c0.11,1.12,0.67,2.02,1.24,3.03c1.8,2.47,2.92,5.28,3.48,8.31c0.9,4.27,1.8,8.54,2.36,12.92c1.35,10.33,2.47,20.67,2.7,31.23
		c0,0.67-0.22,1.46,0.9,1.46C153.9,331.32,153.67,330.53,153.67,329.86z"/>
	<path d="M185.46,324.35c0.11,1.24,0.34,2.47,0.56,3.59c0.45,2.36,0.45,2.36,2.92,1.91c2.58-0.45,5.28-1.01,7.98-1.57
		c1.01-0.22,2.02-0.34,3.03-0.11c1.24,0.22,2.25,0.79,2.47,2.02c0.22,1.35-0.34,2.25-1.35,2.92c-0.67,0.34-1.35,0.56-2.02,0.79
		c-5.95,1.46-12.02,2.58-18.2,3.26c-2.13,0.22-4.16-0.22-6.18-1.01c-2.47-1.01-4.16-2.81-4.94-5.39c-0.79-2.7-1.35-5.5-1.46-8.2
		c-0.67-10-1.24-19.88-1.35-29.88c0-7.19-0.22-14.38-0.22-21.68c0-0.9-0.11-1.91,0.11-2.81c0.45-2.02,1.8-3.03,3.82-2.92
		c3.93,0,7.86,0,11.68,0.45c1.91,0.11,2.81,0.9,3.03,2.92c0.11,1.57,0,3.15,0,4.72c-0.22,7.75-0.45,15.5-0.67,26.29
		C184.45,305.93,185.12,315.14,185.46,324.35z M177.37,276.61c0.11-1.69,0.22-3.37,0.45-4.94c0.11-0.9-0.22-1.24-1.12-1.35
		c-2.47,0-2.7,0.22-2.7,2.58c-0.11,0.34-0.11,0.67,0,1.12c0.23,12.81,0.34,25.61,0.67,38.42c0.11,4.94,0.45,10,1.46,15.05
		c0.34,2.13,0.79,2.7,2.58,2.92c1.46,0.34,1.69,0.11,1.46-1.24c-1.24-5.5-1.69-11.12-2.25-16.85c-0.67-8.54-0.9-17.19-0.9-27.07
		C177.15,283.24,177.26,279.87,177.37,276.61z"/>
	<path d="M238.37,314.36c-1.12,4.61-3.03,9.1-5.05,13.37c-1.01,2.02-2.25,3.93-3.82,5.62c-5.28,5.28-12.47,5.39-18.09,0.22
		c-2.36-2.13-3.93-4.83-5.06-7.75c-1.8-4.94-3.14-10.11-3.37-15.28c-0.79-13.26-0.45-26.4,1.91-39.43c0.22-0.79,0.34-1.69,0.67-2.47
		c0.9-2.36,2.81-3.59,5.17-3.71c3.37,0,6.63,0.11,9.89,0.79c2.58,0.56,3.48,1.8,2.92,4.38c-1.68,7.98-2.02,16.06-2.58,24.15
		c-0.34,4.94-0.45,9.89-0.45,14.83c-0.11,2.02,0.11,4.04,0.34,6.07c0.34,4.38,2.7,7.75,6.07,10.67c1.12-0.79,1.46-2.02,2.02-3.03
		c3.48-6.74,5.05-14.04,6.29-21.46c1.24-6.85,2.47-13.71,3.26-20.67c0.22-2.36,1.35-3.48,3.59-3.71c3.37-0.34,6.63-0.67,9.89-0.9
		c2.36-0.22,3.48,0.79,3.82,3.03c0.22,1.46,0.34,2.92,0.34,4.38c-0.11,5.95,0,11.91,0.67,17.75c0.56,4.94,1.68,9.77,3.59,14.38
		c0.9,2.13,2.02,4.16,3.71,5.73c1.12,1.12,1.68,1.01,2.81-0.22c1.8-2.02,2.81-4.61,3.82-7.08c2.25-5.06,2.92-10.33,3.14-15.84
		c0.22-8.87,0.11-17.75-2.13-26.51c-0.34-1.12-0.45-2.25-0.22-3.37c0.34-2.25,2.47-3.03,4.27-1.69c1.01,0.79,1.57,1.91,1.91,3.03
		c1.35,3.71,1.68,7.53,2.02,11.35c0.9,10.67,0.45,21.46-1.01,32.13c-0.56,4.49-1.8,8.99-3.71,13.26c-0.9,2.25-2.13,4.16-3.71,6.07
		c-3.93,4.72-9.32,6.07-14.94,3.71c-4.27-1.8-7.75-4.61-10.34-8.54c-2.7-4.27-4.38-8.87-5.5-13.82c-0.22-1.01-0.45-2.02-0.67-3.26
		C238.82,311.77,238.71,313.12,238.37,314.36z M215.9,318.51c-0.56-2.13-1.12-4.38-1.35-6.63c-0.9-9.89-1.12-19.66-0.56-29.54
		c0.11-3.26,0.67-6.52,1.12-9.77c0.11-0.56,0.45-1.12-0.22-1.35c-0.45-0.22-1.01-0.22-1.57-0.11c-0.56,0.11-0.67,0.79-0.67,1.24
		c-0.34,1.91-0.67,3.82-0.9,5.73c-0.9,8.2-1.24,16.29-1.12,24.49c0,7.08,0.9,14.15,3.26,20.89c0.45,1.46,1.12,2.92,2.02,4.16
		c1.91,2.47,4.38,3.37,7.19,2.25C218.15,325.37,217.36,324.02,215.9,318.51z M263.42,329.63c-4.38-1.46-7.08-4.72-9.32-8.65
		c-1.91-3.48-2.92-7.3-3.82-11.12c-1.8-8.43-2.7-16.85-1.91-25.39c0-0.34,0.11-0.79,0-1.12c-0.22-0.67-0.79-0.56-1.24-0.22
		c-0.45,0.22-0.34,0.9-0.45,1.35c0,2.13-0.11,4.27-0.22,6.29c-0.22,7.41-0.22,14.83,1.35,22.13c0.79,3.82,1.91,7.41,3.93,10.78
		c1.8,3.03,4.38,5.39,7.75,6.52c1.46,0.45,2.81,0.79,4.27,0.11C263.64,329.97,263.53,329.63,263.42,329.63z"/>
	<path d="M343.28,331.77c0,1.12-0.11,2.25-0.56,3.37c-0.67,1.35-1.57,1.91-3.15,1.8c-2.7-0.11-5.5-0.34-8.31-0.56
		c-0.79,0-1.57-0.11-2.36-0.23c-2.7-0.56-3.71-1.69-3.93-4.38c-0.11-2.7,0-5.28,0-7.86c-0.11-0.67-0.11-1.24-0.11-1.91
		c-0.11-2.25-0.11-2.36-2.36-2.25c-4.04,0.11-7.98,0.34-12.02,0.67c-5.05,0.45-10.11,0.56-15.17,0.56c-2.58,0-2.58,0-2.58,2.81
		c0,2.47,0,5.05,0,7.53c0,1.01-0.11,2.02-0.34,2.92c-0.45,1.35-1.57,2.25-3.03,2.36c-1.57,0.22-2.7-0.56-3.48-1.8
		c-0.67-1.24-0.67-2.58-0.79-3.82c-0.79-9.32,0.34-18.54,2.36-27.52c1.12-4.94,2.36-9.89,4.04-14.72
		c2.47-6.96,5.95-13.48,11.12-18.98c2.92-3.26,6.63-5.17,10.78-6.07c6.07-1.35,11.12,0.67,15.5,4.83
		c5.62,5.5,8.76,12.36,10.67,19.77c2.02,8.31,3.03,16.74,3.37,25.16c0.11,2.47,0,4.83,0,7.3c0.11,0,0.22,0,0.34,0
		C343.28,324.47,343.28,328.06,343.28,331.77z M324.3,312c-0.11-1.57-0.22-3.48-0.34-5.28c-0.67-7.3-1.57-14.49-3.71-21.57
		c-1.12-3.71-3.03-6.85-5.5-9.77c-0.79-1.01-1.68-1.69-2.81-2.25c-1.35-0.56-2.36-0.45-3.59,0.56c-2.81,2.58-4.94,5.73-6.63,9.32
		c-4.61,9.89-7.08,20.56-8.54,31.34c-0.22,1.57,0,1.57,1.57,1.57c0.45,0,0.9,0,1.35,0c8.65-0.67,17.3-1.24,26.06-1.35
		C324.52,314.47,324.52,314.47,324.3,312z M334.86,329.86c0.34-13.82-0.45-27.52-3.15-41.11c-1.12-5.84-3.37-11.01-8.42-14.49
		c0.11,1.12,0.67,2.02,1.24,3.03c1.8,2.47,2.92,5.28,3.48,8.31c0.9,4.27,1.8,8.54,2.36,12.92c1.35,10.33,2.47,20.67,2.7,31.23
		c0,0.67-0.23,1.46,0.9,1.46C335.08,331.32,334.86,330.53,334.86,329.86z"/>
	<path d="M358.11,306.27c0.11-1.01-0.11-1.8-1.01-2.47c-7.98-5.62-11.57-13.82-13.14-23.14c-0.45-3.03-0.56-6.07-0.67-9.21
		c0-0.67,0-1.35,0.11-2.02c0.45-3.03,1.68-4.27,4.72-4.61c1.91-0.22,3.82,0,5.73,0.11c1.91,0.11,3.82,0.11,5.73,0.11
		c2.7,0.11,3.71,0.9,3.93,3.59c0.11,1.35,0.11,2.7,0.11,4.16c0.22,4.04,0.79,8.09,1.8,12.13c0.56,1.91,1.35,3.82,2.7,5.28
		c1.46,1.8,2.36,1.8,3.71,0c3.71-4.94,6.85-10.22,8.42-16.18c0.56-2.02,1.35-4.04,1.57-6.29c0.11-1.8,1.57-2.58,3.71-2.25
		c1.8,0.22,2.7,1.01,2.36,3.03s-1.01,4.04-1.46,6.07c-1.69,7.19-4.04,14.27-7.86,20.67c-0.11,0.22-0.22,0.45-0.45,0.67
		c-2.7,2.81-2.92,6.4-2.81,10.11c0.22,8.31-0.11,16.51,0.56,24.83c0.11,0.79,0.11,1.57,0.11,2.36c-0.11,1.57-0.9,2.7-2.36,3.03
		c-3.26,1.01-6.4,1.8-9.77,1.46c-3.93-0.45-5.28-1.69-5.62-5.5c-0.34-4.61-0.22-9.1-0.11-13.59
		C358.11,314.47,358.11,310.43,358.11,306.27z M360.8,290.54c-3.15-5.62-5.28-11.46-5.95-17.97c-0.11-1.91-0.34-1.91-2.47-1.8
		c-1.57,0.11-1.68,0.11-1.57,1.91c0.22,4.38,0.9,8.76,2.25,12.81c1.91,5.62,5.06,10.33,9.89,13.82c2.58,1.8,3.26,1.69,5.28-0.9
		C364.62,296.16,362.94,294.47,360.8,290.54z M364.96,310.2c-0.11,6.29-0.22,12.47-0.34,18.65c0,0.45-0.11,1.01-0.11,1.57
		c0,0.67,0.34,1.12,1.12,1.12c0.45-0.11,0.9-0.11,1.35,0c1.12,0.11,1.8-0.22,1.57-1.69c-0.45-2.25-0.11-4.49-0.11-6.74
		c0-5.62,0-11.12,0-16.85C364.62,307.17,365.07,306.49,364.96,310.2z"/>
	<path d="M401.47,302.56c-1.46-1.12-2.92-2.36-4.16-3.82c-3.82-4.49-5.5-9.66-4.38-15.61c1.12-5.84,3.71-10.78,8.99-14.15
		c5.5-3.37,14.04-2.92,19.21,1.12c1.57,1.24,2.7,2.81,2.81,4.83c0,1.01-0.11,1.91-1.12,2.47c-1.01,0.56-1.68,0.11-2.47-0.45
		c-2.36-1.8-5.05-3.03-7.98-3.59c-3.03-0.56-5.5,0.45-7.64,2.47c-1.01,0.9-1.12,1.8-0.56,3.03c0.67,1.24,1.68,2.13,2.92,2.92
		c3.26,2.36,6.96,3.93,10.56,5.73c2.36,1.24,4.83,2.47,7.19,3.71c8.31,4.49,11.79,11.8,12.02,20.89c0.11,4.94-0.67,9.89-3.03,14.49
		c-2.81,5.73-7.41,9.1-13.37,10.78c-4.94,1.35-10.11,0.56-15.28,0c-1.35-0.11-2.58-0.9-3.71-1.69c-2.25-1.69-3.93-3.82-5.28-6.07
		c-1.46-2.36-1.35-4.94-0.9-7.41c0.56-3.15,2.02-5.95,4.27-8.31c1.91-2.02,4.04-3.71,6.51-5.17c0.79-0.45,1.8-0.67,2.47-1.8
		C406.07,305.48,403.6,304.25,401.47,302.56z M414.5,310.2c-0.9-0.67-1.57-0.79-2.47,0c-0.79,0.67-1.68,1.01-2.47,1.46
		c-3.26,1.69-5.95,3.93-8.09,6.85c-1.8,2.47-2.47,5.17-1.46,8.2c1.57,4.72,8.65,7.19,13.37,4.49c4.27-2.47,6.29-6.18,6.4-9.89
		C419.66,315.71,418.09,312.67,414.5,310.2z M402.36,293.8c1.46,1.91,3.48,3.37,5.5,4.72c2.7,1.57,5.5,3.03,8.09,4.83
		c6.96,4.61,11.12,10.67,10,19.43c0,0.22,0.11,0.56,0.11,0.9c1.24-0.67,1.57-1.8,1.91-2.92c1.12-3.93,1.35-7.98,0.9-12.02
		c-0.34-4.16-2.36-7.3-5.95-9.55c-2.81-1.8-5.73-3.37-8.65-4.83c-4.83-2.58-9.66-5.17-14.04-9.1
		C399.56,288.63,400.57,291.33,402.36,293.8z"/>
</g>
<g>
	<path d="M497.99,303.41c1.1-4.51,1.71-9.05,2.15-13.67c0.21-2.26,0.63-4.51,1.33-6.68c0.24-0.76,1.3-4.57,2.57-3.11
		c0.36,0.42,0.34,1.37,0.37,1.9c0.1,1.35,0.11,2.71,0.09,4.06c-0.03,2.84-0.24,5.7-0.71,8.51c-0.98,5.91-2.81,11.64-5.48,17
		c1.39-0.36,2.77-0.73,4.16-1.09c-10.29-6.25-24.84-9.06-30.47-20.87c-0.88,1.53-1.75,3.05-2.63,4.58c2.11,0.08,3.69,2.02,5.04,3.43
		c1.69,1.77,3.4,3.44,5.48,4.75c4.31,2.71,9.71,4.1,14.7,4.87c6.12,0.94,7.73-6.5,9.71-10.84c1.13-2.49,2.64-4.99,1.7-7.79
		c-0.47-1.4-1.45-2.48-1.71-3.96c-0.24-1.4,0.06-2.66,0.57-3.95c-1.99-0.27-3.98-0.54-5.98-0.81c-0.27,7.19-0.53,14.38-0.8,21.57
		c-0.04,1.14,0.36,3.66-0.28,4.65c0.61-0.94,0.27,0.02-0.14-0.58c-0.27-0.4-0.71-0.73-1.01-1.12c-1.82-2.37-3.45-4.8-5.55-6.95
		c-4.07-4.15-8.97-7.45-14.33-9.69c-4-1.68-10.3-3.15-12.15,2.32c-1.53,4.52,0.65,9.99,3.39,13.59c3,3.95,7.33,7.11,11.62,9.54
		c5.09,2.88,10.96,3.74,16.71,4.11c1.42,0.09,2.91,0.27,4.33,0.21c0.58-0.03,1.13-0.16,1.69-0.3c2.1-0.52-0.93,0.5,1.02-0.43
		c1.63-0.79,2.63-1.62,3.21-3.32c1.16-3.46,1.4-7.39,1.85-10.98c0.86-6.75,1.5-13.53,2.05-20.31c0.32-3.9-5.77-3.88-6.08,0
		c-0.75,9.16-1.36,18.51-3.17,27.54c-0.1,0.49-0.22,0.98-0.33,1.47c-0.13,0.55-0.59,0.99-0.04,0.35c-0.38,0.44,0.67-0.09,0.33-0.43
		c-0.09,0.05-0.17,0.09-0.26,0.14c-0.33,0.16-0.35,0.18-0.05,0.05c-0.24,0.1-0.48,0.2-0.73,0.31c0.75-0.17,0.68-0.23-0.21-0.18
		c-0.8-0.15-1.71-0.07-2.53-0.12c-5.32-0.29-10.68-0.95-15.34-3.7c-3.33-1.96-6.84-4.38-9.2-7.49c-1.15-1.51-2.04-3.3-2.42-5.16
		c-0.2-0.99-0.2-1.92-0.1-2.91c0-0.02,0.09,0.22-0.23,0.22c0.5-0.01,0.83-0.05,1.36,0.06c4.57,0.94,9.3,4.09,12.78,7.09
		c1.91,1.64,3.7,3.47,5.25,5.45c1.47,1.89,2.6,4.12,4.57,5.56c2.26,1.64,5.5,2,7.74,0.11c2.41-2.03,2.18-5.34,2.29-8.21
		c0.28-7.48,0.55-14.95,0.83-22.43c0.14-3.67-4.8-3.81-5.98-0.81c-0.89,2.28-1.09,4.79-0.57,7.19c0.26,1.19,0.75,2.29,1.29,3.38
		c0.63,1.26,0.26,1.64-0.34,2.95c-1.11,2.44-2.21,4.87-3.32,7.31c-0.21,0.46-0.38,1.1-0.71,1.48c-0.2,0.31-0.18,0.33,0.05,0.06
		c0.37-0.27,0.21-0.37-0.49-0.32c-1.02-0.41-2.32-0.49-3.4-0.75c-4.29-1.04-8.33-2.49-11.49-5.69c-3.09-3.13-5.94-6.4-10.65-6.58
		c-2.47-0.1-3.56,2.61-2.63,4.58c6.23,13.04,21.32,16.17,32.66,23.06c1.34,0.81,3.44,0.36,4.16-1.09
		c3.39-6.81,5.61-14.03,6.54-21.58c0.46-3.71,0.65-7.5,0.38-11.23c-0.2-2.71-0.91-5.56-3.36-7.12c-2.72-1.72-6.31-1.29-8.55,1.01
		c-2.24,2.3-3.23,6.17-3.82,9.21c-1.11,5.66-1.25,11.36-2.62,16.99C491.2,305.59,497.07,307.21,497.99,303.41L497.99,303.41z"/>
	<path d="M476.4,305.21c2.03,1.42,4.07,2.86,6.24,4.07c2.11,1.18,4.53,1.8,6.58,3.02c3.37,2,6.44-3.25,3.07-5.25
		c-2.08-1.23-4.47-1.84-6.58-3.02c-2.17-1.21-4.2-2.64-6.24-4.07C476.26,297.7,473.21,302.98,476.4,305.21L476.4,305.21z"/>
</g>
<g>
	<g>
		<path d="M492.89,245.95c13.36-24.94,10.27-56.63-8.82-77.74c-17.27-19.09-43.84-26.72-68.75-20.62
			c-9.95,2.43-20.12,6.77-28.37,12.92c2.55,1.96,5.09,3.91,7.64,5.87c3.5-12.69,3.67-26.77,0.17-39.45
			c-5.32-19.31-19.6-34.06-38.22-40.99c-29.49-10.98-64.99-6.73-91,10.83c-13.61,9.19-24.3,21.67-32.14,36.02
			c-10.29,18.86-17.51,40.83-15.23,62.54c2.01,19.15,11.32,34.95,27.91,44.99c14.2,8.59,32.4,12.31,48.24,6.21
			c8.49-3.27,17.32-8.62,21.81-16.84c4.52-8.27,3.13-17.99-2.2-25.53c-5.53-7.84-14.59-12.61-24.26-11.19
			c-10.6,1.56-18.3,9.7-21.62,19.54c-2.14,6.36,7.9,9.08,10.03,2.76c2.31-6.85,8.57-12.92,16.27-12.18
			c6.67,0.64,12.15,6.46,13.77,12.76c3.42,13.35-15.4,21.87-25.95,23.09c-13.65,1.57-28.23-4.1-38.37-13.1
			c-12.67-11.24-16.55-27.33-15.44-43.82c1.96-29.12,18.79-60.8,43.43-76.94c22.22-14.55,49.83-18.03,75.37-11.22
			c17.54,4.68,31.82,16.71,37.18,34.41c3.43,11.34,3.39,23.92,0.24,35.34c-1.11,4.02,3.85,8.7,7.64,5.87
			c16.71-12.45,39.75-17.37,59.62-10.56c20.05,6.87,36.86,26.08,38.8,48.54c0.97,11.27-1.33,23.22-6.69,33.23
			C480.75,246.6,489.72,251.86,492.89,245.95L492.89,245.95z"/>
	</g>
</g>
<g>
	<g>
		<path d="M227.74,157.02c-30.99-14.23-68.44-19.82-100.9-7.26c-31.1,12.04-61.89,40.99-60.88,76.8
			c0.48,17.11,8.54,33.38,20.73,45.21c4.8,4.67,12.17-2.68,7.35-7.35c-8.82-8.57-15.34-19.84-17.19-32.09
			c-2.59-17.1,4.94-33.48,15.61-46.45c21.94-26.69,58.52-36.35,91.78-31.24c13.13,2.02,26.19,5.82,38.26,11.37
			C228.53,168.77,233.82,159.81,227.74,157.02L227.74,157.02z"/>
	</g>
</g>
<g>
	<g>
		<path d="M91.71,477.5c32.24,54.65,63.24,110.02,92.96,166.09c3.92,7.39,15.14,0.83,11.23-6.56
			c-29.72-56.06-60.72-111.44-92.96-166.09C98.69,463.74,87.44,470.27,91.71,477.5L91.71,477.5z"/>
	</g>
</g>
<g>
	<g>
		<path d="M509.07,475.36c-26.92,55.56-52.71,111.67-77.34,168.29c-3.3,7.6,7.89,14.22,11.23,6.56
			c24.63-56.62,50.42-112.72,77.34-168.29C523.92,474.43,512.72,467.83,509.07,475.36L509.07,475.36z"/>
	</g>
</g>
<g>
	<g>
		<path d="M191.44,650.17c82.91-4.08,166.03-2.72,248.77,4.06c8.34,0.68,8.29-12.32,0-13c-82.73-6.79-165.86-8.14-248.77-4.06
			C183.11,637.58,183.06,650.58,191.44,650.17L191.44,650.17z"/>
	</g>
</g>
<g>
	<g>
		<path d="M444,479.06c-17.09,53.65-31.39,108.16-42.76,163.3c-1.3,6.28,8.34,8.97,9.64,2.66c11.38-55.15,25.67-109.65,42.76-163.3
			C455.6,475.57,445.95,472.94,444,479.06L444,479.06z"/>
	</g>
</g>
<g>
	<g>
		<path d="M378.3,476.28c-7.3,55.85-11.67,112.06-13.07,168.37c-0.16,6.44,9.84,6.43,10,0c1.4-56.31,5.77-112.52,13.07-168.37
			C389.13,469.92,379.12,469.98,378.3,476.28L378.3,476.28z"/>
	</g>
</g>
<g>
	<g>
		<path d="M323.6,484.04c2.72,51.86,3.6,103.81,2.62,155.73c-0.12,6.44,9.88,6.44,10,0c0.98-51.92,0.11-103.87-2.62-155.73
			C333.26,477.63,323.26,477.59,323.6,484.04L323.6,484.04z"/>
	</g>
</g>
<g>
	<g>
		<path d="M263.84,483.7c8.75,52.13,17.25,104.29,25.48,156.5c1,6.34,10.64,3.65,9.64-2.66c-8.24-52.21-16.73-104.38-25.48-156.5
			C272.42,474.71,262.78,477.39,263.84,483.7L263.84,483.7z"/>
	</g>
</g>
<g>
	<g>
		<path d="M211.5,477.83c18.73,52.01,32.53,105.68,41.04,160.3c0.99,6.34,10.63,3.65,9.64-2.66c-8.51-54.62-22.32-108.3-41.04-160.3
			C218.98,469.16,209.32,471.76,211.5,477.83L211.5,477.83z"/>
	</g>
</g>
<g>
	<g>
		<path d="M154.58,483.18c8.71,27.99,17.43,55.97,26.14,83.96c4.23,13.58,8.34,27.2,12.71,40.73c3.91,12.09,8.46,23.99,15.22,34.8
			c3.41,5.44,12.06,0.43,8.63-5.05c-6.79-10.86-11.15-22.74-15.01-34.9c-4.24-13.36-8.35-26.77-12.51-40.15
			c-8.51-27.35-17.03-54.7-25.54-82.05C162.31,474.4,152.66,477.02,154.58,483.18L154.58,483.18z"/>
	</g>
</g>
</svg>
