<?xml version="1.0" encoding="utf-8"?>
<!-- Generator: Adobe Illustrator 25.4.1, SVG Export Plug-In . SVG Version: 6.00 Build 0)  -->
<svg version="1.0" id="Layer_1" xmlns="http://www.w3.org/2000/svg" xmlns:xlink="http://www.w3.org/1999/xlink" x="0px" y="0px"
	 viewBox="0 0 612 792" style="enable-background:new 0 0 612 792;" xml:space="preserve">
<g>
	<g>
		<path d="M123.13,370.98c0,2.59-3.24,3.7-5.34,3.68c-3.55-0.02-7.1-0.02-10.65,0.01c-0.21,0.94-0.44,1.87-0.65,2.81
			c-0.24,1.09-0.49,2.19-0.73,3.29c-0.51,2.74-1.01,5.47-1.43,8.22c-2.08,13.5-3.01,27.1-2.88,40.75c0.06,6.57,0.63,13.1,1.47,19.6
			c0.39,2.97,0.87,5.93,1.4,8.88c0.32,1.74,0.65,3.48,0.92,5.22c0.39,2.47,0.69,4.91,0.92,7.4c0.14,1.45-1.06,2.8-2.14,3.56
			c-1.48,1.04-3.38,1.47-5.16,1.47s-3.69-0.44-5.16-1.47c-0.85-0.56-1.47-1.3-1.88-2.22c-0.86-3.86-1.6-7.71-2.01-11.65
			c-0.31-2.98-0.58-5.97-0.86-8.95c-1.18-13.13-1.84-26.3-2.03-39.48c-0.09-6.45-0.04-12.89-0.01-19.34c0.01-3.52,0.03-7.04,0-10.56
			c-0.01-1.71-0.04-3.41-0.09-5.13c-0.01-0.42-0.04-0.86-0.07-1.3c-0.68,0.1-1.35,0.19-2.03,0.3c-1.19,0.2-2.37,0.45-3.57,0.61
			c-2.01,0.27-4.07,0.57-6.06,0.03c-1.61-0.43-3.41-1.1-4.07-2.81c-0.38-0.98-0.23-2.36,0.58-3.09c0.8-0.73,1.48-1.42,2.53-1.81
			c0.78-0.29,1.57-0.6,2.38-0.76c0.78-0.15,1.55-0.29,2.34-0.39c1.96-0.25,3.93-0.42,5.9-0.56c1.99-0.15,3.98-0.27,5.98-0.36
			c0.37-0.2,0.76-0.39,1.16-0.55c1.62-0.67,3.43-1,5.23-1c1.8,0,3.61,0.33,5.24,1c0.23,0.1,0.46,0.21,0.69,0.32
			c0.58,0,1.16,0,1.74,0.02c4.34,0.09,8.65,0.3,12.98,0.57c1.34,0.09,2.65,0.28,3.77,1.08
			C122.42,368.98,123.13,369.88,123.13,370.98z"/>
		<path d="M181.28,368.53c0.82,0.99,1.42,2.64,0.74,3.88c-1.73,3.19-2.75,6.72-3.9,10.15c-0.71,2.09-1.32,4.17-1.92,6.29
			c-0.59,2.06-1.21,4.1-1.69,6.18c-0.59,2.55-1.18,5.09-1.78,7.64c-0.51,2.79-1.03,5.58-1.54,8.38c-0.53,2.86-0.83,5.76-1.24,8.64
			c-0.4,2.78-0.59,5.59-0.88,8.38c-0.27,2.61-0.34,5.24-0.5,7.85c-0.09,1.41-0.05,2.83-0.07,4.25c-0.02,1.11-0.08,2.23-0.04,3.34
			c0.11,2.81,0.15,5.63,0.42,8.43c0.14,1.53,0.22,3.08,0.44,4.59c0.23,1.59,0.46,3.19,0.69,4.78c0.5,3.48,1.2,6.93,1.85,10.39
			c0.19,1-0.84,2.07-1.54,2.57c-1.06,0.75-2.44,1.06-3.72,1.06c-1.29,0-2.65-0.31-3.72-1.06c-0.61-0.4-1.06-0.94-1.35-1.61
			c-0.06-0.32-0.13-0.64-0.19-0.96c-1.45-7.9-2.56-15.87-3.18-23.88c-0.04-0.43-0.05-0.86-0.08-1.29c-2,0.13-4,0.27-6,0.41
			c-3.16,0.33-6.28,0.75-9.36,1.52c-0.3,0.1-0.6,0.21-0.9,0.31c0.4,1.82,0.83,3.62,1.32,5.42c1.39,5.03,2.79,10.06,4.1,15.11
			c0.34,1.32,0.24,2.38-0.65,3.46c-0.95,1.15-2.47,1.79-3.89,2.06c-2.71,0.53-6.87-0.19-8.01-3.13c-0.71-1.84-1.45-3.66-2.04-5.54
			c-0.39-1.22-0.77-2.43-1.16-3.65c-0.36-1.14-0.6-2.32-0.9-3.47c-0.22-0.85-0.46-1.69-0.65-2.55c-0.49-2.19-1.03-4.37-1.46-6.58
			c-0.5-2.54-1.08-5.09-1.49-7.65c-0.46-2.88-0.98-5.75-1.32-8.65c-0.37-3.15-0.72-6.28-0.96-9.44c-0.46-6.23-0.62-12.45-0.64-18.69
			c-0.02-6.14,0.29-12.27,0.67-18.39c0.08-1.28,0.23-2.54,0.37-3.81c0.15-1.37,0.23-2.77,0.46-4.13c0.18-1.06,0.37-2.11,0.56-3.17
			c0.15-0.86,0.23-1.9,0.5-2.71c0.23-0.72,0.46-1.45,0.7-2.17c0.38-1.19,1.08-2.12,1.88-3.08c1.21-1.47,3.27-2.08,5.19-2.08
			c0.57,0,1.13,0.05,1.66,0.16c1.33,0.26,2.74,0.85,3.63,1.92c0.53,0.6,0.81,1.31,0.83,2.11c0.01,0.07,0.02,0.14,0.03,0.21
			c0.12,0.53,0.24,1.06,0.2,1.61c-0.03,0.46-0.07,0.91-0.1,1.37c-0.04,0.5-0.06,1.01-0.13,1.51c-0.19,1.53-0.38,3.06-0.56,4.58
			c-0.33,2.84-0.68,5.68-0.93,8.53c-0.55,6.19-0.98,12.37-1.08,18.59c-0.05,3.11-0.04,6.2,0.03,9.3c0.07,3.14,0.24,6.24,0.44,9.36
			c0.34,5.26,1.07,10.46,1.86,15.67c0.61-0.12,1.22-0.22,1.83-0.3c1.71-0.2,3.41-0.38,5.13-0.55c3.48-0.33,6.96-0.56,10.44-0.77
			c-0.02-0.57-0.05-1.14-0.08-1.71c-0.11-3.03,0.01-6.06,0.04-9.1c0.02-1.43,0.18-2.87,0.27-4.29c0.09-1.38,0.13-2.77,0.27-4.14
			c0.3-2.99,0.51-6,0.92-8.98c0.43-3.12,0.75-6.28,1.3-9.39c0.61-3.47,1.11-6.97,1.85-10.42c0.63-2.95,1.17-5.94,1.91-8.86
			c0.51-1.98,1.02-3.97,1.52-5.96c0.58-2.28,1.14-4.61,2.28-6.69c0.41-0.92,1.03-1.67,1.88-2.23c0.49-0.27,0.99-0.53,1.48-0.79
			c1.14-0.47,2.4-0.7,3.66-0.7c0.67,0,1.33,0.06,1.97,0.19C178.51,366.52,180.22,367.23,181.28,368.53z"/>
		<path d="M245.44,386.23c2.34,7.67,2.72,15.86,2.31,23.83c-0.18,3.55-0.34,7.09-0.64,10.63c-0.58,6.89-1.34,13.75-2.15,20.61
			c-0.38,3.24-0.79,6.47-1.26,9.69c-0.28,1.92-0.61,3.81-1.05,5.71c-0.23,0.98-0.47,1.96-0.7,2.94c-0.34,1.45-0.94,2.87-1.41,4.28
			c-0.5,1.48-2.08,2.53-3.43,3.08c-1.79,0.74-3.88,0.89-5.77,0.52c-2.29-0.45-5.66-2.13-5.48-4.97c0.1-1.58,0.13-3.17,0.32-4.73
			c0.13-1.05,0.27-2.09,0.4-3.13c0.18-1.44,0.47-2.84,0.74-4.26c0.11-0.6,0.23-1.19,0.35-1.78c-6.05,2.91-12.13,5.79-18.3,8.45
			c-4.16,1.79-8.39,3.53-12.79,4.63c-4.41,1.11-9.04,1.71-13.52,0.72c-1.95-0.44-3.78-1.31-5.26-2.64c-1.31-1.18-2.15-2.58-2.5-4.31
			c-0.82-4.01,0.94-8.11,3.17-11.38c1.21-1.78,2.57-3.45,4.14-4.92c1.42-1.33,2.86-2.68,4.45-3.81c7.12-5.06,15.61-7.69,24.28-8.24
			c1.24-0.08,2.48-0.13,3.72-0.13c1.19,0,2.39,0.04,3.58,0.15c2.29,0.2,4.58,0.38,6.84,0.85c1.89,0.39,3.74,0.92,5.58,1.47
			c0.4-2.53,0.79-5.06,1.15-7.6c0.5-3.61,0.9-7.21,1.27-10.84c0.72-6.81,0.95-13.73-0.23-20.49c-0.53-2.27-1.26-4.4-2.38-6.44
			c-0.38-0.52-0.78-0.98-1.22-1.44c-0.1-0.07-0.2-0.15-0.3-0.21c-0.6,0.23-1.18,0.48-1.76,0.76c-1.6,0.98-3.08,2.08-4.52,3.29
			c-2.89,2.71-5.35,5.76-7.5,9.1c-1.09,1.84-2.11,3.73-2.95,5.68c-0.54,1.22-1.1,2.44-1.59,3.69c-0.26,0.65-0.51,1.31-0.73,1.97
			c-0.31,0.7-0.58,1.41-0.83,2.13c-0.55,1.02-0.98,2.01-1.83,2.82c-1.32,1.26-2.88,1.87-4.72,1.87c-1.75,0-3.51-0.56-4.72-1.87
			c-0.46-0.43-0.83-0.94-1.1-1.52c-0.07-0.37-0.15-0.75-0.22-1.11c-0.08-0.45-0.14-0.91-0.17-1.37c0.28-1.48,0.5-2.97,1.04-4.39
			c0.55-1.44,1.19-2.79,1.87-4.17c1.17-2.38,2.56-4.72,4.04-6.93c2.42-3.59,5.12-7.05,8.28-10.02c1.69-1.59,3.41-3.19,5.32-4.51
			c1.78-1.22,3.75-2.48,5.8-3.15c0.82-0.28,1.64-0.52,2.47-0.75c0.87-0.21,1.75-0.33,2.65-0.35c0.47-0.04,0.92-0.06,1.36-0.06
			c0.74,0,1.47,0.05,2.26,0.15c2.28,0.27,4.73,1.04,6.58,2.46c1.69,1.29,3.13,2.66,4.29,4.44
			C243.82,382.34,244.82,384.25,245.44,386.23z M229.03,441.57c0.03-0.15,0.06-0.3,0.09-0.46c0.04-0.23,0.08-0.46,0.12-0.69
			c-0.7-0.24-1.39-0.5-2.07-0.77c-2.63-1.03-5.23-2.11-7.92-2.97c-1.91-0.49-3.83-0.86-5.79-1.1c-1.74-0.1-3.46-0.1-5.2,0
			c-1.89,0.23-3.74,0.58-5.59,1.05c-1.79,0.58-3.52,1.28-5.21,2.11c-2.02,1.15-3.88,2.46-5.66,3.97c-2,1.87-3.81,3.87-5.32,6.16
			c-0.74,1.33-1.31,2.67-1.68,4.14c-0.06,0.7-0.05,1.33,0.02,2.02c0.06,0.19,0.14,0.38,0.23,0.57c0.1,0.14,0.21,0.28,0.33,0.4
			c0.11,0.07,0.22,0.15,0.33,0.22c0.15,0.07,0.3,0.13,0.46,0.18c0.23,0.05,0.46,0.1,0.69,0.13c0.88,0.04,1.74,0.03,2.61-0.02
			c1.79-0.24,3.52-0.61,5.26-1.08c10.34-3.25,19.78-8.82,29.36-13.77c1.13-0.58,2.77-0.59,3.99-0.36
			C228.39,441.37,228.71,441.46,229.03,441.57z M185.29,456.03c-0.03-0.05-0.06-0.09-0.08-0.14
			C185.24,455.94,185.26,455.98,185.29,456.03C185.29,456.03,185.3,456.03,185.29,456.03z"/>
		<path d="M308.67,394.68c-0.53,5.52-0.7,11.09-0.75,16.63c-0.06,6.14,0.04,12.26,0.18,18.4c0.13,5.53,0.42,11.11,0.98,16.61
			c0.32,3.19,0.63,6.37,1.07,9.54c0.38,2.76,0.83,5.49,1.31,8.23c0.33,1.56,0.67,3.11,0.93,4.68c0.18,1.06-0.85,2.16-1.61,2.69
			c-1.12,0.79-2.56,1.12-3.91,1.12c-1.93,0-4.57-0.77-5.33-2.79c-1.97-5.3-3.7-10.68-6.01-15.85
			c-4.85-10.84-10.35-21.38-16.09-31.77c-4.72-8.53-9.48-17.05-14.44-25.45c-0.17,2.8-0.26,5.62-0.21,8.42
			c0.05,3.11,0.12,6.19,0.29,9.29c0.16,3.11,0.41,6.21,0.67,9.31c0.48,5.81,1.3,11.58,2.08,17.36c0.73,5.37,1.78,10.71,2.8,16.04
			c0.58,2.66,1.15,5.32,1.76,7.97c0.41,1.75,0.88,3.5,1.17,5.28c0.13,0.76,0.26,1.52,0.39,2.29c0.09,0.55-0.03,1.03-0.12,1.58
			c-0.19,1.17-0.58,1.92-1.58,2.63c-0.73,0.48-1.51,0.8-2.38,0.95c-1.36,0.26-2.86,0.15-4.14-0.37c-0.75-0.29-1.39-0.73-1.93-1.33
			c-0.34-0.31-0.69-0.63-1.02-0.93c-0.39-0.35-0.76-1.31-1.02-1.83c-0.38-0.76-0.8-1.49-1.05-2.31c-0.52-1.68-1.13-3.35-1.52-5.07
			c-0.49-2.14-0.98-4.29-1.47-6.44c-0.49-2.16-0.79-4.38-1.17-6.56c-1.23-7.1-2.13-14.31-2.56-21.51c-0.18-3.06-0.38-6.11-0.46-9.17
			c-0.09-3.14-0.13-6.26-0.14-9.4c-0.01-5.67,0.11-11.35,0.15-17.02c0.01-1.48,0.02-2.97,0.05-4.46c0.05-2.25,0.03-4.51,0.48-6.72
			c0.46-2.27,1.61-4.15,3.84-5.07c2.25-0.92,4.81-0.67,7.01,0.19c1.72,0.67,3.08,2.04,4.03,3.57c1,1.62,2.01,3.22,2.93,4.89
			c3.02,5.47,5.92,11.01,8.84,16.53c5.41,10.23,10.83,20.43,15.97,30.79c-0.77-10.62-0.69-21.28-0.35-31.92
			c0.18-5.65,0.48-11.3,0.85-16.94c0.18-2.76,0.36-5.52,0.66-8.27c0.17-1.55,0.32-3.11,0.56-4.66c0.38-2.44,0.86-4.85,1.4-7.26
			c0.28-1.25,1.91-2.22,2.96-2.65c1.01-0.41,2.12-0.61,3.22-0.61c0.59,0,1.18,0.06,1.74,0.17c1.41,0.27,2.91,0.9,3.85,2.04
			c0.57,0.64,0.86,1.39,0.88,2.24c-0.65,4.77-1.48,9.51-2.22,14.27C309.56,386.23,309.08,390.44,308.67,394.68z"/>
		<path d="M373.52,381.26c0.08,2.62-0.01,5.26-0.21,7.87c-0.11,1.49-0.14,3-0.34,4.47c-0.24,1.73-0.48,3.46-0.72,5.18
			c-0.21,1.5-0.54,2.98-0.83,4.46c-0.25,1.26-0.45,2.54-0.76,3.79c-1.27,5.04-2.56,10.03-4.48,14.88
			c-3.06,7.71-7.15,15.05-12.39,21.5c-2.22,2.73-4.59,5.33-7.06,7.83c-1.8,1.83-3.72,3.55-5.69,5.22c0.82,0.31,1.64,0.6,2.45,0.9
			c1.75,0.64,3.49,1.3,5.22,1.99c4.18,1.68,8.27,3.45,12.08,5.9c0.98,0.63,1.75,1.73,1.75,2.92c0,1.24-0.79,2.25-1.75,2.93
			c-1.21,0.86-2.78,1.21-4.24,1.21c-1.59,0-2.88-0.44-4.24-1.21c-1.07-0.6-2.15-1.2-3.23-1.79c-2.31-1.18-4.64-2.3-7.05-3.26
			c-1.58-0.63-3.18-1.21-4.78-1.77c0.57,2.01,1.17,4.02,1.77,6.02c0.89,2.94-1.81,4.84-4.39,5.34c-2.59,0.5-6.66-0.17-7.74-3.03
			c-1.18-3.15-2.29-6.33-3.05-9.62c-0.68-2.93-1.28-5.86-1.83-8.82c-1.22-6.53-1.99-13.14-2.65-19.75
			c-0.62-6.28-1.03-12.63-1.09-18.94c-0.06-6.93-0.04-13.84,0.25-20.77c0.15-3.56,0.35-7.1,0.58-10.65c0.1-1.57,0.24-3.12,0.39-4.69
			c0.07-0.77,0.11-1.56,0.22-2.32c0.33-2.25,0.4-4.76,2.19-6.39c0.94-1.05,2.06-1.82,3.38-2.33c1.5-0.59,3.05-0.89,4.67-0.89
			c0.03,0,0.05,0,0.08,0c2.29,0,4.75,0.56,6.65,1.9c1.04,0.73,1.94,1.7,2.41,2.87c0,0,0,0,0,0c0,0.02,0.01,0.03,0.01,0.05
			c0.15,0.39,0.26,0.81,0.3,1.24c0.06,0.3,0.11,0.6,0.15,0.91c-0.12,0.59-0.23,1.18-0.35,1.78c-0.16,0.57-0.3,1.15-0.41,1.75
			c-0.13,0.69-0.28,1.37-0.43,2.05c-0.29,1.32-0.59,2.64-0.89,3.96c-0.4,2.05-0.8,4.1-1.2,6.15c-0.49,2.63-0.83,5.31-1.25,7.95
			c-0.44,2.75-0.68,5.54-1.02,8.31c-0.6,5.03-0.9,10.1-1.17,15.15c-0.28,5.28-0.27,10.55-0.11,15.83c0.08,2.69,0.36,5.36,0.59,8.05
			c0.08,0.96,0.21,1.92,0.36,2.87c1.74-1.36,3.47-2.73,5.17-4.14c1.22-1.13,2.47-2.25,3.61-3.47c3.14-3.32,5.91-6.88,8.34-10.74
			c1.7-2.89,3.23-5.9,4.43-9.04c1.22-3.23,2.19-6.5,2.99-9.85c0.31-1.69,0.63-3.38,0.94-5.07c0.34-1.85,0.49-3.75,0.73-5.61
			c0.45-3.55,0.57-7.14,0.66-10.72c0.09-3.79-0.06-7.56-0.28-11.34c-0.1-1.73-0.33-3.48-0.36-5.21c-0.02-1.16-0.09-2.2,0.19-3.33
			c0.09-0.38,0.18-0.75,0.28-1.13c0.22-0.92,1.18-1.55,1.89-2.07c1.04-0.76,2.45-1.06,3.72-1.06c0.01,0,0.03,0,0.04,0
			c0.91,0,1.78,0.16,2.62,0.49c0.91,0.48,1.84,0.85,2.52,1.67c0.34,0.41,0.63,1.04,0.89,1.54c0.38,0.73,0.48,1.47,0.66,2.27
			C373.39,374.67,373.41,377.98,373.52,381.26z"/>
		<path d="M408.58,391.89c0,1.89-2.11,3.24-3.8,3.44c-3.27,0.37-6.59,0.66-9.84,1.23c-0.56,0.1-1.12,0.22-1.69,0.33
			c-0.42,4.94-0.56,9.9-0.74,14.87c-0.07,2.02-0.06,4.04-0.06,6.07c0,2.12-0.07,4.25,0.02,6.37c0.11,2.69,0.09,5.41,0.31,8.09
			c0.2,2.5,0.41,5.01,0.62,7.53c0.19,2.29,0.59,4.58,0.89,6.87c0.23,1.69,0.58,3.36,0.92,5.04c0,0,0-0.01,0-0.01
			c1.45,6.09,3.13,12.11,4.72,18.17c0.37,1.41,0.26,2.53-0.7,3.69c-1.01,1.23-2.62,1.9-4.15,2.2c-2.99,0.58-7.18-0.24-8.53-3.34
			c-0.61-1.38-1.25-2.75-1.75-4.17c-0.34-0.96-0.67-1.92-1.01-2.87c-0.56-1.58-0.95-3.22-1.4-4.84c-0.87-3.09-1.47-6.28-2.04-9.44
			c-0.64-3.52-1.17-7.03-1.67-10.58c-0.2-1.45-0.3-2.92-0.44-4.38c-0.13-1.35-0.31-2.7-0.38-4.06c-0.14-3.08-0.4-6.17-0.42-9.25
			c-0.01-3.27-0.13-6.56-0.03-9.83c0.12-3.81,0.24-7.62,0.36-11.43c0.05-1.59,0.19-3.18,0.33-4.76c0.18-2.21,0.38-4.44,0.75-6.63
			c0.71-4.2,1.38-8.6,3.16-12.51c0.95-2.08,2.06-4.18,3.7-5.8c1.6-1.6,3.59-2.83,5.64-3.78c2.09-0.97,4.33-1.72,6.6-2.12
			c2.17-0.39,4.42-0.65,6.62-0.66c0.09,0,0.18,0,0.27,0c2.65,0,5.4,0.15,7.97,0.86c0.72,0.2,1.69,0.42,2.28,0.66
			c0.66,0.27,1.46,0.78,2.14,1.15c1.12,0.6,1.62,1.57,2.23,2.6c0.63,1.05,0.05,2.56-0.64,3.39c-0.94,1.14-2.41,1.74-3.81,2.03
			c-2.79,0.56-5.61,0.07-8.4-0.31c-0.97-0.05-1.93-0.06-2.9-0.03c-0.69,0.1-1.38,0.23-2.07,0.38c-0.64,0.22-1.25,0.47-1.87,0.75
			c-0.49,0.3-0.96,0.61-1.42,0.94c-0.28,0.33-0.54,0.66-0.8,1.01c-1.54,2.88-2.43,5.99-3.11,9.18c-0.06,0.34-0.11,0.68-0.17,1.02
			c3.05-0.3,6.11-0.48,9.17-0.62c0.07,0,0.14,0,0.22,0C405.66,388.31,408.59,389.53,408.58,391.89z"/>
		<path d="M488.53,470.06c0.21,1.08-0.92,2.26-1.69,2.81c-1.17,0.82-2.67,1.16-4.07,1.16c-1.41,0-2.91-0.34-4.07-1.16
			c-0.67-0.44-1.16-1.03-1.48-1.75c-0.84-3.55-1.62-7.1-2.33-10.67c-1.02-5.11-1.84-10.25-2.6-15.41c-0.18,0.71-0.36,1.41-0.55,2.11
			c-1.07,3.92-2.33,7.84-4.14,11.49c-1.89,3.82-4.17,7.42-7.3,10.35c-1.39,1.31-2.89,2.37-4.56,3.27c-1.77,0.94-3.76,1.78-5.77,2.02
			c-2.41,0.29-4.99,0.47-7.36-0.22c-2.14-0.62-4.17-1.31-6.07-2.5c-3.49-2.21-6.48-5.23-8.73-8.69c-2.57-3.95-4.71-8.16-6.16-12.65
			c-1.47-4.58-2.52-9.28-3.22-14.03c-0.32-2.22-0.47-4.43-0.64-6.66c-0.09-1.34-0.29-2.71-0.28-4.06c0.04-6.6,0.08-13.2,0.84-19.77
			c0.41-3.54,0.77-7.06,1.37-10.56c0.4-2.36,0.76-4.74,1.25-7.08c0.46-2.21,0.95-4.4,1.63-6.56c0.59-1.88,1.44-3.6,2.86-5
			c1.04-1.17,2.3-2.03,3.77-2.6c0.84-0.25,1.67-0.49,2.51-0.73c1.86-0.35,3.72-0.35,5.59,0c1.68,0.3,3.22,0.92,4.64,1.86
			c1.21,0.8,2.12,1.87,2.7,3.2c0.18,0.79,0.34,1.58,0.48,2.38c-0.09,0.82-0.27,1.62-0.52,2.4c-0.35,0.71-0.7,1.4-1.1,2.08
			c-0.35,0.6-0.7,1.19-1.05,1.78c-0.15,0.25-0.29,0.49-0.43,0.74c-0.32,1.03-0.6,2.06-0.87,3.08c-0.25,0.95-0.47,1.9-0.69,2.87
			c-0.4,1.79-0.8,3.58-1.19,5.37c-1.07,6.46-2.13,12.92-2.67,19.46c-0.9,11.01-1.67,22.11,0.23,33.05c0.84,3.91,2.05,7.65,4,11.14
			c0.84,1.24,1.75,2.37,2.8,3.42c0.55,0.43,1.11,0.82,1.7,1.19c0.43,0.19,0.86,0.36,1.29,0.51c0.21,0.05,0.43,0.09,0.65,0.12
			c0.23,0.01,0.47,0.01,0.7,0c0.31-0.04,0.63-0.1,0.94-0.17c0.61-0.21,1.19-0.44,1.79-0.71c1-0.59,1.92-1.25,2.81-1.99
			c1.7-1.65,3.12-3.5,4.38-5.49c3.4-5.98,5.35-12.56,6.71-19.28c0.62-3.37,1.02-6.76,1.46-10.16c0.3-2.35,0.38-4.75,0.56-7.13
			c0.37-4.81,0.28-9.66,0.22-14.48c-0.11-9.2-1.58-18.34-3.3-27.35c-0.34-1.69-0.68-3.38-1-5.07c-0.44-2.32-1.28-5.15,0.56-7.07
			c1.42-1.49,3.44-2.18,5.47-2.18c0.58,0,1.15,0.06,1.72,0.17c1.4,0.27,2.88,0.89,3.81,2.02c0.28,0.32,0.5,0.67,0.64,1.05
			c0,0,0,0,0,0c0,0.01,0,0.01,0.01,0.02c0.04,0.11,0.08,0.23,0.11,0.35c0.52,1.77,0.44,3.82,0.53,5.65c0.07,1.47,0.13,2.93,0.17,4.4
			c0.06,2.29,0.12,4.59,0.17,6.88c0.91,10.43,2.31,20.84,3.83,31.17c0.97,6.63,1.96,13.26,3.08,19.87
			c1.11,6.59,2.32,13.15,3.56,19.7c0.64,3.28,1.28,6.55,1.91,9.83c-0.01-0.05-0.02-0.09-0.03-0.14
			C488.23,468.48,488.38,469.27,488.53,470.06z"/>
		<path d="M524.41,465.85c0.7,0.85,0.96,1.91,0.56,2.95c-0.45,1.15-1.5,1.81-2.56,2.3c-2.6,1.2-5.19,2.42-7.8,3.59
			c-2.14,0.95-4.29,1.82-6.59,2.29c-3.07,0.61-6.76-0.02-9.17-2.07c-2.35-1.98-3.44-4.94-4.03-7.9c-0.28-1.4-0.59-2.8-0.83-4.22
			c-0.41-2.51-0.79-5.01-1.16-7.53c-0.92-6.34-1.72-12.71-2.3-19.1c-0.32-3.53-0.56-7.05-0.8-10.59c-0.19-2.84-0.32-5.73-0.33-8.58
			c-0.03-6.77-0.02-13.53,0.5-20.29c0.27-3.53,0.56-7.04,0.95-10.56c0.24-2.17,0.46-4.35,0.76-6.52c0.32-2.29,0.74-4.55,1.18-6.82
			c0.17-0.88,0.37-1.71,0.65-2.56c0.25-0.76,1.17-1.95,1.72-2.7c1.36-1.84,3.99-2.84,6.13-3.25c0.91-0.17,1.82-0.25,2.73-0.25
			c0.91,0,1.82,0.09,2.73,0.25c1.64,0.29,3.14,0.9,4.53,1.82c1.18,0.78,2.06,1.82,2.63,3.12c0.42,1.43,0.67,2.52,0.1,3.97
			c-0.18,0.56-0.44,1.09-0.76,1.59c-0.29,0.53-0.77,1.36-1.21,1.98c-0.31,0.86-0.59,1.73-0.86,2.58c-0.48,1.5-0.97,3-1.36,4.53
			c-0.58,2.33-1.16,4.65-1.74,6.97c-0.82,3.28-1.34,6.65-2,9.97c0.1-0.51,0.2-1.02,0.3-1.53c-1.38,9.08-2.67,18.18-3.17,27.36
			c-0.25,4.72-0.49,9.44-0.33,14.17c0.09,2.56,0.25,5.07,0.48,7.63c0.19,2.1,0.53,4.18,0.84,6.27c0.88,4.4,1.8,8.94,3.68,13.03
			c2.97-1.08,5.91-2.27,8.89-3.3C519.23,463.63,522.62,463.67,524.41,465.85z"/>
	</g>
	<g>
		<path d="M162.1,331.77c0,1.12-0.11,2.25-0.56,3.37c-0.67,1.35-1.57,1.91-3.15,1.8c-2.7-0.11-5.5-0.34-8.31-0.56
			c-0.79,0-1.57-0.11-2.36-0.23c-2.7-0.56-3.71-1.69-3.93-4.38c-0.11-2.7,0-5.28,0-7.86c-0.11-0.67-0.11-1.24-0.11-1.91
			c-0.11-2.25-0.11-2.36-2.36-2.25c-4.04,0.11-7.98,0.34-12.02,0.67c-5.06,0.45-10.11,0.56-15.17,0.56c-2.58,0-2.58,0-2.58,2.81
			c0,2.47,0,5.05,0,7.53c0,1.01-0.11,2.02-0.34,2.92c-0.45,1.35-1.57,2.25-3.03,2.36c-1.57,0.22-2.7-0.56-3.48-1.8
			c-0.67-1.24-0.67-2.58-0.79-3.82c-0.79-9.32,0.34-18.54,2.36-27.52c1.12-4.94,2.36-9.89,4.04-14.72
			c2.47-6.96,5.95-13.48,11.12-18.98c2.92-3.26,6.63-5.17,10.78-6.07c6.07-1.35,11.12,0.67,15.5,4.83
			c5.62,5.5,8.76,12.36,10.67,19.77c2.02,8.31,3.03,16.74,3.37,25.16c0.11,2.47,0,4.83,0,7.3c0.11,0,0.22,0,0.34,0
			C162.1,324.47,162.1,328.06,162.1,331.77z M143.11,312c-0.11-1.57-0.22-3.48-0.34-5.28c-0.67-7.3-1.57-14.49-3.71-21.57
			c-1.12-3.71-3.03-6.85-5.5-9.77c-0.79-1.01-1.69-1.69-2.81-2.25c-1.35-0.56-2.36-0.45-3.59,0.56c-2.81,2.58-4.94,5.73-6.63,9.32
			c-4.61,9.89-7.08,20.56-8.54,31.34c-0.22,1.57,0,1.57,1.57,1.57c0.45,0,0.9,0,1.35,0c8.65-0.67,17.3-1.24,26.06-1.35
			C143.34,314.47,143.34,314.47,143.11,312z M153.67,329.86c0.34-13.82-0.45-27.52-3.15-41.11c-1.12-5.84-3.37-11.01-8.42-14.49
			c0.11,1.12,0.67,2.02,1.24,3.03c1.8,2.47,2.92,5.28,3.48,8.31c0.9,4.27,1.8,8.54,2.36,12.92c1.35,10.33,2.47,20.67,2.7,31.23
			c0,0.67-0.22,1.46,0.9,1.46C153.9,331.32,153.67,330.53,153.67,329.86z"/>
		<path d="M185.46,324.35c0.11,1.24,0.34,2.47,0.56,3.59c0.45,2.36,0.45,2.36,2.92,1.91c2.58-0.45,5.28-1.01,7.98-1.57
			c1.01-0.22,2.02-0.34,3.03-0.11c1.24,0.22,2.25,0.79,2.47,2.02c0.22,1.35-0.34,2.25-1.35,2.92c-0.67,0.34-1.35,0.56-2.02,0.79
			c-5.95,1.46-12.02,2.58-18.2,3.26c-2.13,0.22-4.16-0.22-6.18-1.01c-2.47-1.01-4.16-2.81-4.94-5.39c-0.79-2.7-1.35-5.5-1.46-8.2
			c-0.67-10-1.24-19.88-1.35-29.88c0-7.19-0.22-14.38-0.22-21.68c0-0.9-0.11-1.91,0.11-2.81c0.45-2.02,1.8-3.03,3.82-2.92
			c3.93,0,7.86,0,11.68,0.45c1.91,0.11,2.81,0.9,3.03,2.92c0.11,1.57,0,3.15,0,4.72c-0.22,7.75-0.45,15.5-0.67,26.29
			C184.45,305.93,185.12,315.14,185.46,324.35z M177.37,276.61c0.11-1.69,0.22-3.37,0.45-4.94c0.11-0.9-0.23-1.24-1.12-1.35
			c-2.47,0-2.7,0.22-2.7,2.58c-0.11,0.34-0.11,0.67,0,1.12c0.23,12.81,0.34,25.61,0.67,38.42c0.11,4.94,0.45,10,1.46,15.05
			c0.34,2.13,0.79,2.7,2.58,2.92c1.46,0.34,1.69,0.11,1.46-1.24c-1.24-5.5-1.69-11.12-2.25-16.85c-0.67-8.54-0.9-17.19-0.9-27.07
			C177.15,283.24,177.26,279.87,177.37,276.61z"/>
		<path d="M238.37,314.36c-1.12,4.61-3.03,9.1-5.06,13.37c-1.01,2.02-2.25,3.93-3.82,5.62c-5.28,5.28-12.47,5.39-18.09,0.22
			c-2.36-2.13-3.93-4.83-5.06-7.75c-1.8-4.94-3.15-10.11-3.37-15.28c-0.79-13.26-0.45-26.4,1.91-39.43
			c0.22-0.79,0.34-1.69,0.67-2.47c0.9-2.36,2.81-3.59,5.17-3.71c3.37,0,6.63,0.11,9.89,0.79c2.58,0.56,3.48,1.8,2.92,4.38
			c-1.69,7.98-2.02,16.06-2.58,24.15c-0.34,4.94-0.45,9.89-0.45,14.83c-0.11,2.02,0.11,4.04,0.34,6.07
			c0.34,4.38,2.7,7.75,6.07,10.67c1.12-0.79,1.46-2.02,2.02-3.03c3.48-6.74,5.06-14.04,6.29-21.46c1.24-6.85,2.47-13.71,3.26-20.67
			c0.22-2.36,1.35-3.48,3.59-3.71c3.37-0.34,6.63-0.67,9.89-0.9c2.36-0.22,3.48,0.79,3.82,3.03c0.22,1.46,0.34,2.92,0.34,4.38
			c-0.11,5.95,0,11.91,0.67,17.75c0.56,4.94,1.69,9.77,3.59,14.38c0.9,2.13,2.02,4.16,3.71,5.73c1.12,1.12,1.68,1.01,2.81-0.22
			c1.8-2.02,2.81-4.61,3.82-7.08c2.25-5.06,2.92-10.33,3.15-15.84c0.22-8.87,0.11-17.75-2.13-26.51c-0.34-1.12-0.45-2.25-0.22-3.37
			c0.34-2.25,2.47-3.03,4.27-1.69c1.01,0.79,1.57,1.91,1.91,3.03c1.35,3.71,1.69,7.53,2.02,11.35c0.9,10.67,0.45,21.46-1.01,32.13
			c-0.56,4.49-1.8,8.99-3.71,13.26c-0.9,2.25-2.13,4.16-3.71,6.07c-3.93,4.72-9.32,6.07-14.94,3.71c-4.27-1.8-7.75-4.61-10.33-8.54
			c-2.7-4.27-4.38-8.87-5.5-13.82c-0.22-1.01-0.45-2.02-0.67-3.26C238.82,311.77,238.7,313.12,238.37,314.36z M215.9,318.51
			c-0.56-2.13-1.12-4.38-1.35-6.63c-0.9-9.89-1.12-19.66-0.56-29.54c0.11-3.26,0.67-6.52,1.12-9.77c0.11-0.56,0.45-1.12-0.22-1.35
			c-0.45-0.22-1.01-0.22-1.57-0.11c-0.56,0.11-0.67,0.79-0.67,1.24c-0.34,1.91-0.67,3.82-0.9,5.73c-0.9,8.2-1.24,16.29-1.12,24.49
			c0,7.08,0.9,14.15,3.26,20.89c0.45,1.46,1.12,2.92,2.02,4.16c1.91,2.47,4.38,3.37,7.19,2.25
			C218.15,325.37,217.36,324.02,215.9,318.51z M263.42,329.63c-4.38-1.46-7.08-4.72-9.32-8.65c-1.91-3.48-2.92-7.3-3.82-11.12
			c-1.8-8.43-2.7-16.85-1.91-25.39c0-0.34,0.11-0.79,0-1.12c-0.22-0.67-0.79-0.56-1.24-0.22c-0.45,0.22-0.34,0.9-0.45,1.35
			c0,2.13-0.11,4.27-0.22,6.29c-0.22,7.41-0.22,14.83,1.35,22.13c0.79,3.82,1.91,7.41,3.93,10.78c1.8,3.03,4.38,5.39,7.75,6.52
			c1.46,0.45,2.81,0.79,4.27,0.11C263.64,329.97,263.53,329.63,263.42,329.63z"/>
		<path d="M343.28,331.77c0,1.12-0.11,2.25-0.56,3.37c-0.67,1.35-1.57,1.91-3.15,1.8c-2.7-0.11-5.5-0.34-8.31-0.56
			c-0.79,0-1.57-0.11-2.36-0.23c-2.7-0.56-3.71-1.69-3.93-4.38c-0.11-2.7,0-5.28,0-7.86c-0.11-0.67-0.11-1.24-0.11-1.91
			c-0.11-2.25-0.11-2.36-2.36-2.25c-4.04,0.11-7.98,0.34-12.02,0.67c-5.05,0.45-10.11,0.56-15.17,0.56c-2.58,0-2.58,0-2.58,2.81
			c0,2.47,0,5.05,0,7.53c0,1.01-0.11,2.02-0.34,2.92c-0.45,1.35-1.57,2.25-3.03,2.36c-1.57,0.22-2.7-0.56-3.48-1.8
			c-0.67-1.24-0.67-2.58-0.79-3.82c-0.79-9.32,0.34-18.54,2.36-27.52c1.12-4.94,2.36-9.89,4.04-14.72
			c2.47-6.96,5.95-13.48,11.12-18.98c2.92-3.26,6.63-5.17,10.78-6.07c6.07-1.35,11.12,0.67,15.5,4.83
			c5.62,5.5,8.76,12.36,10.67,19.77c2.02,8.31,3.03,16.74,3.37,25.16c0.11,2.47,0,4.83,0,7.3c0.11,0,0.22,0,0.34,0
			C343.28,324.47,343.28,328.06,343.28,331.77z M324.3,312c-0.11-1.57-0.22-3.48-0.34-5.28c-0.67-7.3-1.57-14.49-3.71-21.57
			c-1.12-3.71-3.03-6.85-5.5-9.77c-0.79-1.01-1.68-1.69-2.81-2.25c-1.35-0.56-2.36-0.45-3.59,0.56c-2.81,2.58-4.94,5.73-6.63,9.32
			c-4.61,9.89-7.08,20.56-8.54,31.34c-0.22,1.57,0,1.57,1.57,1.57c0.45,0,0.9,0,1.35,0c8.65-0.67,17.3-1.24,26.06-1.35
			C324.52,314.47,324.52,314.47,324.3,312z M334.86,329.86c0.34-13.82-0.45-27.52-3.15-41.11c-1.12-5.84-3.37-11.01-8.42-14.49
			c0.11,1.12,0.67,2.02,1.24,3.03c1.8,2.47,2.92,5.28,3.48,8.31c0.9,4.27,1.8,8.54,2.36,12.92c1.35,10.33,2.47,20.67,2.7,31.23
			c0,0.67-0.23,1.46,0.9,1.46C335.08,331.32,334.86,330.53,334.86,329.86z"/>
		<path d="M358.11,306.27c0.11-1.01-0.11-1.8-1.01-2.47c-7.98-5.62-11.57-13.82-13.14-23.14c-0.45-3.03-0.56-6.07-0.67-9.21
			c0-0.67,0-1.35,0.11-2.02c0.45-3.03,1.68-4.27,4.72-4.61c1.91-0.22,3.82,0,5.73,0.11c1.91,0.11,3.82,0.11,5.73,0.11
			c2.7,0.11,3.71,0.9,3.93,3.59c0.11,1.35,0.11,2.7,0.11,4.16c0.22,4.04,0.79,8.09,1.8,12.13c0.56,1.91,1.35,3.82,2.7,5.28
			c1.46,1.8,2.36,1.8,3.71,0c3.71-4.94,6.85-10.22,8.42-16.18c0.56-2.02,1.35-4.04,1.57-6.29c0.11-1.8,1.57-2.58,3.71-2.25
			c1.8,0.22,2.7,1.01,2.36,3.03s-1.01,4.04-1.46,6.07c-1.69,7.19-4.04,14.27-7.86,20.67c-0.11,0.22-0.22,0.45-0.45,0.67
			c-2.7,2.81-2.92,6.4-2.81,10.11c0.22,8.31-0.11,16.51,0.56,24.83c0.11,0.79,0.11,1.57,0.11,2.36c-0.11,1.57-0.9,2.7-2.36,3.03
			c-3.26,1.01-6.4,1.8-9.77,1.46c-3.93-0.45-5.28-1.69-5.62-5.5c-0.34-4.61-0.22-9.1-0.11-13.59
			C358.11,314.47,358.11,310.43,358.11,306.27z M360.8,290.54c-3.15-5.62-5.28-11.46-5.95-17.97c-0.11-1.91-0.34-1.91-2.47-1.8
			c-1.57,0.11-1.68,0.11-1.57,1.91c0.22,4.38,0.9,8.76,2.25,12.81c1.91,5.62,5.06,10.33,9.89,13.82c2.58,1.8,3.26,1.69,5.28-0.9
			C364.62,296.16,362.94,294.47,360.8,290.54z M364.96,310.2c-0.11,6.29-0.22,12.47-0.34,18.65c0,0.45-0.11,1.01-0.11,1.57
			c0,0.67,0.34,1.12,1.12,1.12c0.45-0.11,0.9-0.11,1.35,0c1.12,0.11,1.8-0.22,1.57-1.69c-0.45-2.25-0.11-4.49-0.11-6.74
			c0-5.62,0-11.12,0-16.85C364.62,307.17,365.07,306.49,364.96,310.2z"/>
		<path d="M401.47,302.56c-1.46-1.12-2.92-2.36-4.16-3.82c-3.82-4.49-5.5-9.66-4.38-15.61c1.12-5.84,3.71-10.78,8.99-14.15
			c5.5-3.37,14.04-2.92,19.21,1.12c1.57,1.24,2.7,2.81,2.81,4.83c0,1.01-0.11,1.91-1.12,2.47c-1.01,0.56-1.68,0.11-2.47-0.45
			c-2.36-1.8-5.05-3.03-7.98-3.59c-3.03-0.56-5.5,0.45-7.64,2.47c-1.01,0.9-1.12,1.8-0.56,3.03c0.67,1.24,1.68,2.13,2.92,2.92
			c3.26,2.36,6.96,3.93,10.56,5.73c2.36,1.24,4.83,2.47,7.19,3.71c8.31,4.49,11.79,11.8,12.02,20.89c0.11,4.94-0.67,9.89-3.03,14.49
			c-2.81,5.73-7.41,9.1-13.37,10.78c-4.94,1.35-10.11,0.56-15.28,0c-1.35-0.11-2.58-0.9-3.71-1.69c-2.25-1.69-3.93-3.82-5.28-6.07
			c-1.46-2.36-1.35-4.94-0.9-7.41c0.56-3.15,2.02-5.95,4.27-8.31c1.91-2.02,4.04-3.71,6.51-5.17c0.79-0.45,1.8-0.67,2.47-1.8
			C406.07,305.48,403.6,304.25,401.47,302.56z M414.5,310.2c-0.9-0.67-1.57-0.79-2.47,0c-0.79,0.67-1.68,1.01-2.47,1.46
			c-3.26,1.69-5.95,3.93-8.09,6.85c-1.8,2.47-2.47,5.17-1.46,8.2c1.57,4.72,8.65,7.19,13.37,4.49c4.27-2.47,6.29-6.18,6.4-9.89
			C419.66,315.71,418.09,312.67,414.5,310.2z M402.36,293.8c1.46,1.91,3.48,3.37,5.5,4.72c2.7,1.57,5.5,3.03,8.09,4.83
			c6.96,4.61,11.12,10.67,10,19.43c0,0.22,0.11,0.56,0.11,0.9c1.24-0.67,1.57-1.8,1.91-2.92c1.12-3.93,1.35-7.98,0.9-12.02
			c-0.34-4.16-2.36-7.3-5.95-9.55c-2.81-1.8-5.73-3.37-8.65-4.83c-4.83-2.58-9.66-5.17-14.04-9.1
			C399.56,288.63,400.57,291.33,402.36,293.8z"/>
	</g>
	<g>
		<path d="M497.99,303.41c1.1-4.51,1.71-9.05,2.15-13.67c0.21-2.26,0.63-4.51,1.33-6.68c0.24-0.76,1.3-4.57,2.57-3.11
			c0.36,0.42,0.34,1.37,0.37,1.9c0.1,1.35,0.11,2.71,0.09,4.06c-0.03,2.84-0.24,5.7-0.71,8.51c-0.98,5.91-2.81,11.64-5.48,17
			c1.39-0.36,2.77-0.73,4.16-1.09c-10.29-6.25-24.84-9.06-30.47-20.87c-0.88,1.53-1.75,3.05-2.63,4.58
			c2.11,0.08,3.69,2.02,5.04,3.43c1.69,1.77,3.4,3.44,5.48,4.75c4.31,2.71,9.71,4.1,14.7,4.87c6.12,0.94,7.73-6.5,9.71-10.84
			c1.13-2.49,2.64-4.99,1.7-7.79c-0.47-1.4-1.45-2.48-1.71-3.96c-0.24-1.4,0.06-2.66,0.57-3.95c-1.99-0.27-3.98-0.54-5.98-0.81
			c-0.27,7.19-0.53,14.38-0.8,21.57c-0.04,1.14,0.36,3.66-0.28,4.65c0.61-0.94,0.27,0.02-0.14-0.58c-0.27-0.4-0.71-0.73-1.01-1.12
			c-1.82-2.37-3.45-4.8-5.55-6.95c-4.07-4.15-8.97-7.45-14.33-9.69c-4-1.68-10.3-3.15-12.15,2.32c-1.53,4.52,0.65,9.99,3.39,13.59
			c3,3.95,7.33,7.11,11.62,9.54c5.09,2.88,10.96,3.74,16.71,4.11c1.42,0.09,2.91,0.27,4.33,0.21c0.58-0.03,1.13-0.16,1.69-0.3
			c2.1-0.52-0.93,0.5,1.02-0.43c1.63-0.79,2.63-1.62,3.21-3.32c1.16-3.46,1.4-7.39,1.85-10.98c0.86-6.75,1.5-13.53,2.05-20.31
			c0.32-3.9-5.77-3.88-6.08,0c-0.75,9.16-1.36,18.51-3.17,27.54c-0.1,0.49-0.22,0.98-0.33,1.47c-0.13,0.55-0.59,0.99-0.04,0.35
			c-0.38,0.44,0.67-0.09,0.33-0.43c-0.09,0.05-0.17,0.09-0.26,0.14c-0.33,0.16-0.35,0.18-0.05,0.05c-0.24,0.1-0.48,0.2-0.73,0.31
			c0.75-0.17,0.68-0.23-0.21-0.18c-0.8-0.15-1.71-0.07-2.53-0.12c-5.32-0.29-10.68-0.95-15.34-3.7c-3.33-1.96-6.84-4.38-9.2-7.49
			c-1.15-1.51-2.04-3.3-2.42-5.16c-0.2-0.99-0.2-1.92-0.1-2.91c0-0.02,0.09,0.22-0.23,0.22c0.5-0.01,0.83-0.05,1.36,0.06
			c4.57,0.94,9.3,4.09,12.78,7.09c1.91,1.64,3.7,3.47,5.25,5.45c1.47,1.89,2.6,4.12,4.57,5.56c2.26,1.64,5.5,2,7.74,0.11
			c2.41-2.03,2.18-5.34,2.29-8.21c0.28-7.48,0.55-14.95,0.83-22.43c0.14-3.67-4.8-3.81-5.98-0.81c-0.89,2.28-1.09,4.79-0.57,7.19
			c0.26,1.19,0.75,2.29,1.29,3.38c0.63,1.26,0.26,1.64-0.34,2.95c-1.11,2.44-2.21,4.87-3.32,7.31c-0.21,0.46-0.38,1.1-0.71,1.48
			c-0.2,0.31-0.18,0.33,0.05,0.06c0.37-0.27,0.21-0.37-0.49-0.32c-1.02-0.41-2.32-0.49-3.4-0.75c-4.29-1.04-8.33-2.49-11.49-5.69
			c-3.09-3.13-5.94-6.4-10.65-6.58c-2.47-0.1-3.56,2.61-2.63,4.58c6.23,13.04,21.32,16.17,32.66,23.06
			c1.34,0.81,3.44,0.36,4.16-1.09c3.39-6.81,5.61-14.03,6.54-21.58c0.46-3.71,0.65-7.5,0.38-11.23c-0.2-2.71-0.91-5.56-3.36-7.12
			c-2.72-1.72-6.31-1.29-8.55,1.01c-2.24,2.3-3.23,6.17-3.82,9.21c-1.11,5.66-1.25,11.36-2.62,16.99
			C491.2,305.59,497.07,307.21,497.99,303.41L497.99,303.41z"/>
		<path d="M476.4,305.21c2.03,1.42,4.07,2.86,6.24,4.07c2.11,1.18,4.53,1.8,6.58,3.02c3.37,2,6.44-3.25,3.07-5.25
			c-2.08-1.23-4.47-1.84-6.58-3.02c-2.17-1.21-4.2-2.64-6.24-4.07C476.26,297.7,473.21,302.98,476.4,305.21L476.4,305.21z"/>
	</g>
	<g>
		<g>
			<path d="M492.89,245.95c13.36-24.94,10.27-56.63-8.82-77.74c-17.27-19.09-43.84-26.72-68.75-20.62
				c-9.95,2.43-20.12,6.77-28.37,12.92c2.55,1.96,5.09,3.91,7.64,5.87c3.5-12.69,3.67-26.77,0.17-39.45
				c-5.32-19.31-19.6-34.06-38.22-40.99c-29.49-10.98-64.99-6.73-91,10.83c-13.61,9.19-24.3,21.67-32.14,36.02
				c-10.29,18.86-17.51,40.83-15.23,62.54c2.01,19.15,11.32,34.95,27.91,44.99c14.2,8.59,32.4,12.31,48.24,6.21
				c8.49-3.27,17.32-8.62,21.81-16.84c4.52-8.27,3.13-17.99-2.2-25.53c-5.53-7.84-14.59-12.61-24.26-11.19
				c-10.6,1.56-18.3,9.7-21.62,19.54c-2.14,6.36,7.9,9.08,10.03,2.76c2.31-6.85,8.57-12.92,16.27-12.18
				c6.67,0.64,12.15,6.46,13.77,12.76c3.42,13.35-15.4,21.87-25.95,23.09c-13.65,1.57-28.23-4.1-38.37-13.1
				c-12.67-11.24-16.55-27.33-15.44-43.82c1.96-29.12,18.79-60.8,43.43-76.94c22.22-14.55,49.83-18.03,75.37-11.22
				c17.54,4.68,31.82,16.71,37.18,34.41c3.43,11.34,3.39,23.92,0.24,35.34c-1.11,4.02,3.85,8.7,7.64,5.87
				c16.71-12.45,39.75-17.37,59.62-10.56c20.05,6.87,36.86,26.08,38.8,48.54c0.97,11.27-1.33,23.22-6.69,33.23
				C480.75,246.6,489.72,251.86,492.89,245.95L492.89,245.95z"/>
		</g>
	</g>
	<g>
		<g>
			<path d="M227.74,157.02c-30.99-14.23-68.44-19.82-100.9-7.26c-31.1,12.04-61.89,40.99-60.88,76.8
				c0.48,17.11,8.54,33.38,20.73,45.21c4.8,4.67,12.17-2.68,7.35-7.35c-8.82-8.57-15.34-19.84-17.19-32.09
				c-2.59-17.1,4.94-33.48,15.61-46.45c21.94-26.69,58.52-36.35,91.78-31.24c13.13,2.02,26.19,5.82,38.26,11.37
				C228.53,168.77,233.82,159.81,227.74,157.02L227.74,157.02z"/>
		</g>
	</g>
	<g>
		<g>
			<path d="M94.02,499.85c32.24,54.65,63.24,110.02,92.96,166.09c3.92,7.39,15.14,0.83,11.23-6.56
				c-29.72-56.06-60.72-111.44-92.96-166.09C101,486.09,89.76,492.62,94.02,499.85L94.02,499.85z"/>
		</g>
	</g>
	<g>
		<g>
			<path d="M511.38,497.71c-26.92,55.56-52.71,111.67-77.34,168.29c-3.3,7.6,7.89,14.22,11.23,6.56
				c24.63-56.62,50.42-112.72,77.34-168.29C526.23,496.77,515.03,490.17,511.38,497.71L511.38,497.71z"/>
		</g>
	</g>
	<g>
		<g>
			<path d="M193.75,672.51c82.91-4.08,166.03-2.72,248.77,4.06c8.34,0.68,8.29-12.32,0-13c-82.73-6.79-165.86-8.14-248.77-4.06
				C185.42,659.92,185.37,672.92,193.75,672.51L193.75,672.51z"/>
		</g>
	</g>
	<g>
		<g>
			<path d="M446.32,501.4c-17.09,53.65-31.39,108.16-42.76,163.3c-1.3,6.28,8.34,8.97,9.64,2.66
				c11.38-55.15,25.67-109.65,42.76-163.3C457.92,497.92,448.26,495.28,446.32,501.4L446.32,501.4z"/>
		</g>
	</g>
	<g>
		<g>
			<path d="M380.61,498.63c-7.3,55.85-11.67,112.06-13.07,168.37c-0.16,6.44,9.84,6.43,10,0c1.4-56.31,5.77-112.52,13.07-168.37
				C391.44,492.27,381.43,492.33,380.61,498.63L380.61,498.63z"/>
		</g>
	</g>
	<g>
		<g>
			<path d="M325.91,506.38c2.72,51.86,3.6,103.81,2.62,155.73c-0.12,6.44,9.88,6.44,10,0c0.98-51.92,0.11-103.87-2.62-155.73
				C335.58,499.98,325.57,499.94,325.91,506.38L325.91,506.38z"/>
		</g>
	</g>
	<g>
		<g>
			<path d="M266.16,506.04c8.75,52.13,17.25,104.29,25.48,156.5c1,6.34,10.64,3.65,9.64-2.66c-8.24-52.21-16.73-104.38-25.48-156.5
				C274.73,497.05,265.1,499.74,266.16,506.04L266.16,506.04z"/>
		</g>
	</g>
	<g>
		<g>
			<path d="M213.81,500.18c18.73,52.01,32.53,105.68,41.04,160.3c0.99,6.34,10.63,3.65,9.64-2.66
				c-8.51-54.62-22.32-108.3-41.04-160.3C221.29,491.51,211.63,494.1,213.81,500.18L213.81,500.18z"/>
		</g>
	</g>
	<g>
		<g>
			<path d="M156.89,505.53c8.71,27.99,17.43,55.97,26.14,83.96c4.23,13.58,8.34,27.2,12.71,40.73c3.91,12.09,8.46,23.99,15.22,34.8
				c3.41,5.44,12.06,0.43,8.63-5.05c-6.79-10.86-11.15-22.74-15.01-34.9c-4.24-13.36-8.35-26.77-12.51-40.15
				c-8.51-27.35-17.03-54.7-25.54-82.05C164.63,496.75,154.97,499.36,156.89,505.53L156.89,505.53z"/>
		</g>
	</g>
</g>
</svg>
