<?xml version="1.0" encoding="utf-8"?>
<!-- Generator: Adobe Illustrator 25.4.1, SVG Export Plug-In . SVG Version: 6.00 Build 0)  -->
<svg version="1.0" id="Layer_1" xmlns="http://www.w3.org/2000/svg" xmlns:xlink="http://www.w3.org/1999/xlink" x="0px" y="0px"
	 viewBox="0 0 612 792" style="enable-background:new 0 0 612 792;" xml:space="preserve">
<g>
	<path d="M105.74,377.58c0.33,0.42,0.51,0.87,0.43,1.4c-0.1,0.65-0.33,1.07-0.87,1.45c-0.4,0.27-0.84,0.45-1.32,0.53
		c-0.83,0.17-1.59,0.12-2.42,0.01c0.2,0.02,0.4,0.04,0.59,0.06c-0.48-0.05-0.96-0.12-1.44-0.19c-0.12-0.02-0.24-0.03-0.36-0.05
		c0.02,0.19,0.04,0.38,0.06,0.58c0.22,2.41,0.07,4.91-0.65,7.24c-0.37,1.22-0.86,2.35-1.53,3.44c-0.53,0.88-1.11,1.76-1.88,2.45
		c-0.89,0.79-1.78,1.57-2.9,2.03c-1.12,0.45-2.2,0.65-3.4,0.71c-0.42-0.04-0.84-0.08-1.26-0.12c-0.4-0.09-0.79-0.19-1.18-0.32
		c-0.47-0.19-1-0.39-1.39-0.71c-0.81-0.67-1.54-1.38-1.95-2.37c-0.85-2.02-0.85-4.19-0.4-6.31c0.28-1.3,0.67-2.59,1.31-3.77
		c0.58-1.07,1.21-2.15,2.01-3.06c1.37-1.55,3.01-2.91,4.86-3.84c-0.17-0.35-0.36-0.7-0.55-1.05c-0.67-1.03-1.42-1.97-2.3-2.83
		c-0.39-0.32-0.78-0.61-1.21-0.89c-0.22-0.1-0.45-0.19-0.68-0.28c0,0-0.01,0-0.01,0c-0.05,0-0.1,0-0.16,0
		c-0.14,0.02-0.27,0.05-0.41,0.08c-0.25,0.1-0.5,0.2-0.75,0.31c-0.53,0.32-1.02,0.67-1.5,1.06c-1.07,1.04-1.98,2.17-2.8,3.42
		c-1.92,3.3-3.1,6.89-3.88,10.62c-1.26,7-1.09,14.28,0.19,21.27c0.92,4.38,2.35,8.6,4.61,12.47c0.88,1.37,1.85,2.64,2.99,3.8
		c0.08,0.07,0.17,0.13,0.25,0.2c0.2-0.24,0.39-0.49,0.57-0.75c0.7-1.27,1.12-2.64,1.47-4.04c0.14-0.71,0.28-1.41,0.36-2.13
		c0.12-1.05,0.22-2.08,0.29-3.13c0.14-2.28,0.17-4.56,0.29-6.84c0.09-1.71,2.06-2.43,3.52-2.43c0.86,0,1.78,0.21,2.49,0.71
		c0.53,0.38,1.08,1.01,1.03,1.72c-0.18,2.94-0.55,5.87-1.12,8.75c0.04-0.19,0.08-0.39,0.12-0.59c-0.23,1.26-0.47,2.51-0.74,3.76
		c-0.46,2.06-0.92,4.23-1.95,6.09c-0.32,0.58-0.65,1.2-1.08,1.71c-0.44,0.53-0.98,1.13-1.59,1.47c-0.77,0.42-1.52,0.84-2.4,1
		c-0.81,0.15-1.6,0.22-2.42,0.15c-1.05-0.09-2.12-0.26-3.08-0.72c-0.78-0.38-1.58-0.75-2.25-1.3c-1.18-0.97-2.3-2.01-3.18-3.26
		c-3.69-5.27-5.75-11.5-6.75-17.82c-1.01-6.36-0.88-12.9,0.31-19.22c0.93-4.93,2.5-9.73,5.24-13.97c0.72-1.11,1.5-2.19,2.43-3.12
		c0.83-0.83,1.7-1.69,2.7-2.31c0.99-0.62,2.02-1.16,3.12-1.55c0.57-0.2,1.3-0.43,1.91-0.5c0.61-0.07,1.23-0.17,1.84-0.17
		c0.07,0,0.14,0,0.21,0c1.55,0.06,3.18,0.26,4.57,0.99c0.59,0.31,1.22,0.57,1.75,0.98c0.52,0.39,1.01,0.8,1.48,1.24
		c1.5,1.4,2.7,3.13,3.57,4.99c0.07,0.15,0.14,0.3,0.2,0.45c0.1,0,0.2,0,0.3,0.01c0.52,0.02,1.05,0.06,1.57,0.12
		c0.17,0.01,0.33,0.03,0.5,0.05c0.52,0.1,1.04,0.24,1.55,0.41c0.19,0.06,0.38,0.11,0.57,0.17c0.53,0.26,1.05,0.54,1.56,0.84
		C105.17,376.86,105.48,377.25,105.74,377.58z M90.17,392.74c-0.02,0-0.03-0.01-0.05-0.02C90.13,392.72,90.15,392.73,90.17,392.74
		C90.17,392.74,90.17,392.74,90.17,392.74z M93.83,382.99c-0.83,0.83-1.55,1.71-2.2,2.69c-0.63,1.15-1.11,2.32-1.41,3.58
		c-0.1,0.83-0.12,1.62-0.01,2.45c0.09,0.28,0.18,0.54,0.3,0.8c0.18-0.12,0.35-0.25,0.52-0.39c0.47-0.49,0.88-0.99,1.26-1.55
		c0.62-1.12,1.05-2.27,1.36-3.52C93.87,385.69,93.93,384.34,93.83,382.99z M90.68,392.48c-0.05,0.03-0.1,0.05-0.15,0.08c0,0,0,0,0,0
		C90.58,392.53,90.63,392.51,90.68,392.48z M90.92,392.86c-0.07-0.01-0.14-0.01-0.21-0.02c0,0,0,0,0,0
		C90.79,392.85,90.86,392.86,90.92,392.86z"/>
	<path d="M140.7,391.84c0.16,1.63,0.32,3.27,0.28,4.91c-0.03,1.11-0.05,2.21-0.08,3.32c-0.02,0.77-0.11,1.53-0.2,2.3
		c-0.11,0.97-0.17,1.96-0.33,2.93c-0.45,2.75-1.01,5.49-1.83,8.15c-0.35,1.14-0.76,2.25-1.17,3.37c-0.47,1.29-0.94,2.58-1.47,3.84
		c-0.47,1.12-0.98,2.22-1.55,3.3c-0.54,1.05-1.1,2.14-1.81,3.08c-1.58,2.11-3.71,3.87-6.32,4.5c-2.44,0.6-4.96,0.26-7.22-0.83
		c-2.34-1.13-4.37-3.06-5.87-5.16c-1.49-2.08-2.78-4.33-3.72-6.72c-1.97-5.04-2.97-10.5-3.24-15.9c-0.28-5.4,0.04-10.9,1.36-16.15
		c0.37-1.46,0.75-2.94,1.34-4.33c0.5-1.18,1.04-2.43,1.81-3.47c0.34-0.46,0.69-0.87,1.09-1.27c0.07-0.08,0.15-0.16,0.22-0.23
		c-0.54-0.59-1.13-1.32-1.41-2.08c-0.39-1.07-0.6-2.11-0.44-3.25c0.12-0.89,0.41-1.66,0.86-2.43c1.16-1.99,3.04-3.3,5.18-4.07
		c0.65-0.24,1.43-0.45,2.13-0.52c0.64-0.06,1.29-0.16,1.93-0.16c0.06,0,0.11,0,0.17,0c1.03,0.03,2.09,0.08,3.09,0.33
		c2.09,0.52,4.12,1.31,5.86,2.6c3.57,2.66,6.2,6.43,7.92,10.51C139.1,382.67,140.24,387.24,140.7,391.84z M134.28,395.01
		c-0.03-3.24-0.28-6.46-0.86-9.65c-0.25-1.19-0.54-2.36-0.89-3.51c-1.8,0.21-3.59,0.29-5.41,0.3c-0.68,0-1.37-0.01-2.05-0.07
		c-1.44-0.12-2.88-0.2-4.3-0.47c-0.55-0.11-1.09-0.22-1.63-0.36c-1.58,2.86-2.47,6.06-3.13,9.24c-0.7,3.89-1.08,7.85-1.11,11.81
		c-0.03,3.78,0.17,7.55,0.82,11.28c0.73,3.46,1.83,6.81,3.6,9.88c0.72,1.11,1.52,2.14,2.47,3.05c0.39,0.32,0.79,0.61,1.23,0.87
		c0.2,0.09,0.41,0.18,0.62,0.25c0.09,0.02,0.17,0.04,0.26,0.05c0.1,0,0.19,0,0.29,0c0.06-0.01,0.12-0.02,0.18-0.03
		c0.27-0.1,0.52-0.21,0.78-0.33c0.36-0.23,0.68-0.47,1.01-0.73c0.59-0.6,1.11-1.22,1.58-1.92c1.46-2.53,2.52-5.26,3.39-8.05
		c0.3-0.95,0.6-1.9,0.9-2.85c0.44-1.41,0.76-2.87,1.05-4.32c0.39-2.13,0.65-4.26,0.84-6.42c0.1-1.08,0.2-2.15,0.24-3.23
		C134.2,398.21,134.3,396.61,134.28,395.01z M117.23,373.69c0.11,0.34,0.23,0.65,0.39,0.96c0.22,0.3,0.45,0.57,0.71,0.83
		c0.33,0.26,0.68,0.49,1.04,0.71c0.48,0.22,0.97,0.41,1.47,0.59c0.94,0.24,1.88,0.4,2.84,0.52c1.54,0.07,3.06,0.07,4.6-0.01
		c0.78-0.08,1.56-0.18,2.34-0.27c-0.22-0.44-0.45-0.87-0.7-1.3c-0.88-1.38-1.87-2.63-3.05-3.78c-0.7-0.59-1.43-1.11-2.22-1.57
		c-0.49-0.23-0.98-0.44-1.49-0.62c-0.47-0.12-0.95-0.21-1.43-0.28c-0.31-0.01-0.61-0.01-0.91,0c-0.31,0.05-0.61,0.1-0.91,0.17
		c-0.29,0.11-0.57,0.22-0.85,0.35c-0.26,0.17-0.5,0.35-0.74,0.53c-0.23,0.25-0.44,0.5-0.64,0.78c-0.19,0.38-0.34,0.76-0.45,1.16
		C117.17,372.88,117.18,373.27,117.23,373.69z"/>
	<path d="M192.68,426.98c0.19,0.49,0.19,0.97,0,1.45c-0.13,0.22-0.27,0.44-0.4,0.65c-0.57,0.7-1.5,1.09-2.36,1.25
		c-1,0.2-2.1,0.12-3.05-0.28c-0.72-0.3-1.56-0.84-1.82-1.63c-0.52-1.57-1.03-3.14-1.4-4.75c-0.31-1.35-0.61-2.69-0.88-4.04
		c-0.55-2.78-0.99-5.57-1.4-8.37c-0.5-3.43-0.87-6.89-1.05-10.36c-0.19-3.76-0.25-7.51-0.27-11.27c-0.01-2.49-0.01-4.97-0.02-7.46
		c-0.44,1.51-0.86,3.02-1.28,4.54c-0.81,2.97-1.49,5.99-2.16,9c-0.73,3.27-1.42,6.55-2.1,9.83c-0.32,1.75-0.68,3.51-0.95,5.27
		c-0.27,1.82-0.6,3.65-0.81,5.48c-0.2,1.7-0.42,3.4-0.6,5.11c-0.12,1.17-0.24,2.34-0.36,3.51c-0.06,0.58-0.07,1.18-0.17,1.76
		c-0.09,0.51-0.11,1.13-0.34,1.6c-0.22,0.46-0.5,0.88-0.76,1.32c-0.37,0.41-0.8,0.71-1.32,0.91c-0.6,0.23-1.21,0.35-1.85,0.35
		c-1.07,0-2.49-0.33-3.17-1.26c-0.28-0.37-0.7-0.88-0.86-1.31c-0.15-0.36-0.26-0.73-0.34-1.11c-0.1-0.43-0.19-0.85-0.29-1.28
		c-0.13-0.6-0.26-1.21-0.38-1.81c-0.28-1.37-0.55-2.73-0.84-4.09c-0.56-2.64-1.15-5.27-1.76-7.9c-1.67-7.23-3.37-14.45-4.94-21.7
		c-0.58-2.66-1.09-5.33-1.59-8.01c-0.3,2.28-0.56,4.56-0.75,6.85c-0.58,7.15-1.07,14.31-1.08,21.49c0,1.85-0.05,3.71,0,5.56
		c0.06,2.07,0.12,4.14,0.17,6.21c0.05,1.68,0.17,3.37,0.26,5.05c0.05,1,0.1,2.01,0.15,3.01c0.02,0.38-0.03,0.77-0.05,1.14
		c-0.01,0.32-0.02,0.61-0.14,0.92c-0.11,0.29-0.38,0.63-0.57,0.9c-0.32,0.35-0.7,0.62-1.15,0.79c-0.52,0.2-1.05,0.3-1.61,0.3
		c-0.56,0-1.1-0.1-1.61-0.3c-0.45-0.17-0.83-0.44-1.15-0.79c-0.31-0.29-0.6-0.53-0.73-0.97c-0.07-0.25-0.14-0.49-0.21-0.73
		c-0.13-0.46-0.25-0.91-0.3-1.38c-0.12-0.96-0.3-1.93-0.35-2.89c-0.1-1.66-0.27-3.33-0.3-4.99c-0.03-2.05-0.06-4.09-0.1-6.14
		c-0.03-1.69,0.08-3.39,0.12-5.08c0.04-1.56,0.11-3.11,0.21-4.67c0.12-1.8,0.2-3.6,0.39-5.39c0.22-2.09,0.45-4.18,0.67-6.27
		c0.2-1.9,0.52-3.79,0.78-5.67c0.46-3.36,1.1-6.7,1.68-10.04c0.35-2.02,0.69-4.03,1.01-6.05c0.14-0.89,0.28-1.78,0.42-2.67
		c0.07-0.49,0.15-0.97,0.22-1.46c0.09-0.55,0.17-1.1,0.29-1.65c0.12-0.53,0.29-1.01,0.5-1.51c0.49-1.21,2-1.67,3.19-1.67
		c0.58,0,1.13,0.1,1.67,0.31c0.46,0.18,0.86,0.45,1.19,0.82c0.33,0.51,0.73,1.03,0.85,1.64c0.1,0.52,0.22,1.03,0.28,1.55
		c0.06,0.48,0.12,0.96,0.2,1.44c0.16,1.09,0.33,2.18,0.49,3.27c0.25,1.68,0.49,3.36,0.79,5.03c0.64,3.65,1.31,7.29,2.02,10.93
		c1.32,6.34,2.71,12.67,4.19,18.98c0.47,2,0.95,4.01,1.48,6c0.59-3.85,1.22-7.68,2-11.5c0.76-3.76,1.6-7.5,2.53-11.23
		c0.85-3.39,1.79-6.76,2.71-10.13c0.98-3.57,1.96-7.14,2.94-10.71c0.25-0.91,0.51-1.82,0.77-2.73c0.49-1.72,1-3.8,2.55-4.88
		c0.82-0.58,1.87-0.84,2.89-0.84c0.38,0,0.76,0.04,1.12,0.11c0.72,0.14,1.44,0.34,2.05,0.78c0.55,0.39,0.98,0.78,1.27,1.4
		c0.23,0.51,0.34,1.05,0.4,1.61c0.16,1.47,0.22,2.93,0.25,4.4c0.08,3.77,0.05,7.53,0.04,11.29c-0.02,3.65,0,7.3,0.04,10.95
		c0.03,3.36,0.15,6.76,0.42,10.12c0.16,2.01,0.33,4,0.57,6c0.2,1.69,0.48,3.37,0.75,5.05c0.41,1.96,0.84,3.92,1.3,5.87
		C191.46,422.2,192.11,424.59,192.68,426.98z"/>
	<path d="M240.35,375.91c0.3,4.7-1.14,9.6-4,13.35c-1.48,1.94-3.32,3.54-5.5,4.67c-2.09,1.08-4.42,1.69-6.77,1.82
		c-4.69,0.25-9.27-1.17-13.27-3.55c-2.01-1.2-3.87-2.64-5.59-4.22c-0.09-0.08-0.17-0.16-0.25-0.24c-0.04,1.42-0.04,2.83-0.07,4.25
		c-0.04,1.94,0.01,3.88,0.06,5.82c0.09,4.03,0.33,8.05,0.73,12.06c0.21,2.21,0.46,4.4,0.72,6.6c0.24,1.95,0.55,3.89,0.86,5.84
		c0.81,4,1.71,7.97,2.46,11.98c0.16,0.84-0.71,1.74-1.3,2.16c-0.9,0.63-2.06,0.9-3.14,0.9c-1.66,0-3.54-0.64-4.28-2.25
		c-0.44-0.96-0.89-1.9-1.24-2.89c-0.23-0.65-0.52-1.31-0.71-1.98c-0.29-1.08-0.63-2.15-0.87-3.24c-0.58-2.62-1.12-5.23-1.63-7.86
		c-0.41-2.08-0.79-4.19-1.07-6.29c-0.28-2.04-0.6-4.08-0.8-6.13c-0.2-2.07-0.47-4.13-0.6-6.2c-0.14-2.3-0.36-4.6-0.41-6.9
		c-0.05-2.32-0.11-4.63-0.16-6.95c-0.05-2.05,0.03-4.11,0.05-6.17c0.02-1.98,0.13-3.95,0.22-5.92c0.07-1.38,0.14-2.75,0.27-4.13
		c0.15-1.52,0.36-3,0.66-4.5c0.13-0.68,0.29-1.33,0.5-1.99c0.22-0.7,0.77-1.18,1.29-1.66c0.57-0.64,1.25-1.11,2.05-1.42
		c0.92-0.36,1.88-0.54,2.87-0.54c0.01,0,0.02,0,0.03,0c1.4,0,2.89,0.34,4.05,1.16c0.07,0.05,0.13,0.1,0.2,0.15
		c0.16-0.06,0.33-0.12,0.49-0.18c1.12-0.41,2.33-0.71,3.5-0.97c1.14-0.26,2.29-0.48,3.44-0.62c1.85-0.23,3.73-0.4,5.6-0.4
		c0.67,0,1.33,0.02,1.99,0.07c2.73,0.21,5.42,0.57,8.02,1.45c2.09,0.71,4.1,1.77,5.77,3.21
		C237.91,367.13,240.06,371.41,240.35,375.91z M234.21,374.59c-0.39-1.62-0.97-3.12-1.8-4.56c-0.67-1.01-1.43-1.92-2.29-2.77
		c-0.71-0.59-1.44-1.1-2.24-1.56c-0.69-0.33-1.38-0.62-2.1-0.86c-1.24-0.33-2.48-0.56-3.75-0.71c-1.58-0.11-3.15-0.11-4.72,0
		c-2.13,0.23-4.21,0.64-6.28,1.2c-1.43,0.44-2.83,0.95-4.23,1.49c-0.15,0.98-0.29,1.96-0.41,2.94c-0.12,0.91-0.24,1.82-0.32,2.74
		c-0.2,2.1-0.49,4.21-0.61,6.31c-0.03,0.54-0.06,1.07-0.1,1.61c1.4,2.1,3.04,3.98,4.91,5.69c1.63,1.4,3.35,2.64,5.23,3.69
		c1.13,0.57,2.28,1.05,3.48,1.45c0.91,0.25,1.82,0.43,2.76,0.55c0.7,0.04,1.39,0.05,2.09,0.02c0.62-0.08,1.24-0.2,1.85-0.35
		c0.64-0.22,1.26-0.47,1.86-0.76c0.67-0.41,1.3-0.85,1.91-1.35c1.01-0.96,1.85-2.03,2.61-3.2c1.01-1.8,1.72-3.69,2.16-5.7
		C234.53,378.49,234.54,376.55,234.21,374.59z"/>
	<path d="M276.04,377.33c1.43,4.7,1.66,9.72,1.41,14.6c-0.11,2.17-0.21,4.34-0.39,6.51c-0.36,4.22-0.82,8.42-1.32,12.62
		c-0.23,1.98-0.48,3.96-0.77,5.94c-0.17,1.18-0.37,2.33-0.65,3.5c-0.14,0.6-0.29,1.2-0.43,1.8c-0.21,0.89-0.57,1.76-0.86,2.62
		c-0.3,0.91-1.27,1.55-2.1,1.89c-1.1,0.45-2.37,0.54-3.53,0.32c-1.4-0.27-3.47-1.31-3.36-3.04c0.06-0.97,0.08-1.94,0.2-2.9
		c0.08-0.64,0.16-1.28,0.24-1.92c0.11-0.88,0.29-1.74,0.46-2.61c0.07-0.37,0.14-0.73,0.21-1.09c-3.71,1.78-7.43,3.55-11.21,5.17
		c-2.55,1.1-5.14,2.16-7.83,2.83c-2.7,0.68-5.53,1.05-8.28,0.44c-1.19-0.27-2.31-0.8-3.22-1.62c-0.8-0.72-1.32-1.58-1.53-2.64
		c-0.5-2.46,0.58-4.97,1.94-6.97c0.74-1.09,1.57-2.11,2.54-3.02c0.87-0.82,1.75-1.64,2.73-2.33c4.36-3.1,9.56-4.71,14.87-5.05
		c0.76-0.05,1.52-0.08,2.28-0.08c0.73,0,1.46,0.03,2.19,0.09c1.4,0.12,2.81,0.23,4.19,0.52c1.16,0.24,2.29,0.56,3.42,0.9
		c0.24-1.55,0.49-3.1,0.7-4.65c0.31-2.21,0.55-4.42,0.78-6.64c0.44-4.17,0.58-8.41-0.14-12.55c-0.33-1.39-0.77-2.7-1.46-3.94
		c-0.24-0.32-0.48-0.6-0.75-0.88c-0.06-0.04-0.12-0.09-0.18-0.13c-0.37,0.14-0.72,0.29-1.08,0.46c-0.98,0.6-1.89,1.28-2.77,2.02
		c-1.77,1.66-3.28,3.53-4.6,5.57c-0.67,1.12-1.29,2.29-1.81,3.48c-0.33,0.75-0.68,1.5-0.97,2.26c-0.16,0.4-0.31,0.8-0.45,1.21
		c-0.19,0.43-0.36,0.87-0.51,1.31c-0.34,0.62-0.6,1.23-1.12,1.73c-0.81,0.77-1.76,1.15-2.89,1.15c-1.07,0-2.15-0.34-2.89-1.15
		c-0.28-0.26-0.51-0.58-0.67-0.93c-0.04-0.23-0.09-0.46-0.13-0.68c-0.05-0.28-0.08-0.56-0.1-0.84c0.17-0.91,0.31-1.82,0.64-2.69
		c0.34-0.88,0.73-1.71,1.14-2.56c0.72-1.46,1.57-2.89,2.48-4.24c1.49-2.2,3.14-4.32,5.07-6.13c1.04-0.97,2.09-1.95,3.26-2.76
		c1.09-0.75,2.29-1.52,3.55-1.93c0.5-0.17,1-0.32,1.51-0.46c0.53-0.13,1.07-0.21,1.62-0.22c0.29-0.02,0.56-0.04,0.83-0.04
		c0.46,0,0.9,0.03,1.38,0.09c1.4,0.16,2.9,0.64,4.03,1.5c1.03,0.79,1.92,1.63,2.63,2.72C275.05,374.95,275.67,376.11,276.04,377.33z
		 M265.99,411.22c0.02-0.09,0.04-0.19,0.05-0.28c0.02-0.14,0.05-0.28,0.07-0.42c-0.43-0.15-0.85-0.3-1.27-0.47
		c-1.61-0.63-3.2-1.29-4.85-1.82c-1.17-0.3-2.35-0.52-3.54-0.67c-1.06-0.06-2.12-0.06-3.18,0c-1.16,0.14-2.29,0.35-3.42,0.64
		c-1.1,0.35-2.16,0.78-3.19,1.3c-1.23,0.71-2.38,1.51-3.47,2.43c-1.22,1.14-2.33,2.37-3.26,3.77c-0.45,0.82-0.8,1.63-1.03,2.53
		c-0.04,0.43-0.03,0.81,0.01,1.24c0.04,0.12,0.08,0.23,0.14,0.35c0.06,0.09,0.13,0.17,0.2,0.25c0.07,0.05,0.13,0.09,0.2,0.14
		c0.09,0.04,0.19,0.08,0.28,0.11c0.14,0.03,0.28,0.06,0.42,0.08c0.54,0.02,1.06,0.02,1.6-0.01c1.09-0.14,2.16-0.38,3.22-0.66
		c6.33-1.99,12.12-5.4,17.99-8.44c0.69-0.36,1.7-0.36,2.44-0.22C265.6,411.1,265.8,411.16,265.99,411.22z M239.21,420.08
		c-0.02-0.03-0.04-0.06-0.05-0.09C239.17,420.03,239.19,420.06,239.21,420.08C239.21,420.08,239.21,420.09,239.21,420.08z"/>
	<path d="M312.93,370.73c0.22,2.52-0.49,5.17-1.66,7.39c-1.28,2.43-2.84,4.8-4.62,6.91c-1.77,2.11-4.04,4.33-7.07,3.69
		c-0.76-0.16-1.47-0.48-1.98-1.09c-0.44-0.54-0.62-1.21-0.35-1.87c0.52-1.34,1.6-2.42,2.51-3.51c0.78-0.93,1.47-1.92,2.14-2.93
		c0.97-1.76,1.71-3.56,2.16-5.52c0.15-1.1,0.18-2.15,0.06-3.25c-0.1-0.32-0.21-0.61-0.35-0.91c-0.03-0.04-0.06-0.07-0.08-0.1
		c-0.02-0.01-0.03-0.02-0.04-0.03c-0.01,0-0.01,0-0.02-0.01c-0.25,0-0.51,0-0.76,0.01c-0.38,0.07-0.75,0.15-1.12,0.24
		c-0.81,0.28-1.59,0.6-2.36,0.97c-1.52,0.87-2.92,1.87-4.26,3c-1.8,1.67-3.4,3.5-4.73,5.57c-1.15,2.01-2.02,4.1-2.52,6.35
		c-0.23,1.55-0.26,3.07-0.03,4.62c0.24,0.89,0.55,1.72,0.97,2.54c0.41,0.6,0.87,1.14,1.38,1.66c0.71,0.57,1.46,1.06,2.24,1.52
		c1.43,0.69,2.91,1.28,4.39,1.87c2.48,0.98,5.03,1.94,7.24,3.46c1.54,1.06,2.93,2.33,3.98,3.89c0.92,1.38,1.48,2.84,1.78,4.47
		c0.63,3.48-0.17,7.18-1.61,10.37c-1.56,3.47-3.69,6.75-6.42,9.41c-1.31,1.28-2.85,2.37-4.6,2.96c-2,0.68-4.08,0.61-6.01-0.21
		c-3.46-1.46-3.93-5.86-3.77-9.12c0.13-2.72,0.59-5.31,1.24-7.96c0.16-0.66,0.98-1.15,1.53-1.38c0.8-0.33,1.73-0.4,2.58-0.23
		c0.73,0.14,1.51,0.47,2,1.06c0.29,0.33,0.44,0.72,0.46,1.17c-0.04,0.21-0.08,0.41-0.12,0.61c-0.06,0.3-0.12,0.59-0.18,0.89
		c-0.52,2.9-0.96,5.81-0.52,8.75c0.16,0.6,0.35,1.15,0.61,1.7c0.06-0.03,0.12-0.06,0.19-0.08c0.63-0.39,1.21-0.81,1.79-1.28
		c1.22-1.15,2.26-2.43,3.2-3.84c1.17-2.01,2.04-4.11,2.56-6.39c0.22-1.49,0.27-2.94,0.07-4.43c-0.23-0.91-0.54-1.75-0.98-2.58
		c-0.41-0.59-0.86-1.12-1.36-1.62c-0.74-0.59-1.51-1.1-2.33-1.58c-2.4-1.17-4.93-2.03-7.41-3.02c-3.99-1.6-8.1-3.64-10.21-7.61
		c-1.28-2.41-1.7-5.3-1.25-8c0.44-2.65,1.22-5.19,2.51-7.56c1.21-2.22,2.61-4.35,4.31-6.23c1.66-1.83,3.5-3.6,5.52-5.02
		c2.21-1.56,4.61-2.87,7.2-3.68c1.49-0.47,3.09-0.82,4.66-0.82c0.01,0,0.03,0,0.04,0c1.5,0.01,3.09,0.15,4.5,0.72
		c0.47,0.17,0.93,0.39,1.36,0.66c0.16,0.09,0.32,0.18,0.47,0.26c0.54,0.42,1.17,0.86,1.58,1.42
		C312.22,368.13,312.81,369.32,312.93,370.73z"/>
	<path d="M347.24,370.73c0.22,2.52-0.49,5.17-1.66,7.39c-1.28,2.43-2.84,4.8-4.62,6.91c-1.77,2.11-4.04,4.33-7.07,3.69
		c-0.76-0.16-1.47-0.48-1.98-1.09c-0.44-0.54-0.62-1.21-0.35-1.87c0.52-1.34,1.6-2.42,2.51-3.51c0.78-0.93,1.47-1.92,2.14-2.93
		c0.97-1.76,1.71-3.56,2.16-5.52c0.15-1.1,0.18-2.15,0.06-3.25c-0.1-0.32-0.21-0.61-0.35-0.91c-0.03-0.04-0.06-0.07-0.08-0.1
		c-0.02-0.01-0.03-0.02-0.04-0.03c-0.01,0-0.01,0-0.02-0.01c-0.25,0-0.51,0-0.76,0.01c-0.38,0.07-0.75,0.15-1.12,0.24
		c-0.81,0.28-1.59,0.6-2.36,0.97c-1.52,0.87-2.92,1.87-4.26,3c-1.8,1.67-3.4,3.5-4.73,5.57c-1.15,2.01-2.02,4.1-2.52,6.35
		c-0.23,1.55-0.26,3.07-0.03,4.62c0.24,0.89,0.55,1.72,0.97,2.54c0.41,0.6,0.87,1.14,1.38,1.66c0.71,0.57,1.46,1.06,2.24,1.52
		c1.43,0.69,2.91,1.28,4.39,1.87c2.48,0.98,5.03,1.94,7.24,3.46c1.54,1.06,2.93,2.33,3.98,3.89c0.92,1.38,1.48,2.84,1.78,4.47
		c0.63,3.48-0.17,7.18-1.61,10.37c-1.56,3.47-3.69,6.75-6.42,9.41c-1.31,1.28-2.85,2.37-4.6,2.96c-2,0.68-4.08,0.61-6.01-0.21
		c-3.46-1.46-3.93-5.86-3.77-9.12c0.13-2.72,0.59-5.31,1.24-7.96c0.16-0.66,0.98-1.15,1.53-1.38c0.8-0.33,1.73-0.4,2.58-0.23
		c0.73,0.14,1.51,0.47,2,1.06c0.29,0.33,0.44,0.72,0.46,1.17c-0.04,0.21-0.08,0.41-0.12,0.61c-0.06,0.3-0.12,0.59-0.18,0.89
		c-0.52,2.9-0.96,5.81-0.52,8.75c0.16,0.6,0.35,1.15,0.61,1.7c0.06-0.03,0.12-0.06,0.19-0.08c0.63-0.39,1.21-0.81,1.79-1.28
		c1.22-1.15,2.26-2.43,3.2-3.84c1.17-2.01,2.04-4.11,2.56-6.39c0.22-1.49,0.27-2.94,0.07-4.43c-0.23-0.91-0.54-1.75-0.98-2.58
		c-0.41-0.59-0.86-1.12-1.36-1.62c-0.74-0.59-1.51-1.1-2.33-1.58c-2.4-1.17-4.93-2.03-7.41-3.02c-3.99-1.6-8.1-3.64-10.21-7.61
		c-1.28-2.41-1.7-5.3-1.25-8c0.44-2.65,1.22-5.19,2.51-7.56c1.21-2.22,2.61-4.35,4.31-6.23c1.66-1.83,3.5-3.6,5.52-5.02
		c2.21-1.56,4.61-2.87,7.2-3.68c1.49-0.47,3.09-0.82,4.66-0.82c0.01,0,0.03,0,0.04,0c1.5,0.01,3.09,0.15,4.5,0.72
		c0.47,0.17,0.93,0.39,1.36,0.66c0.16,0.09,0.32,0.18,0.47,0.26c0.54,0.42,1.17,0.86,1.58,1.42
		C346.52,368.13,347.12,369.32,347.24,370.73z"/>
	<path d="M361.11,378.84c0,0.18-0.02,0.36-0.06,0.52c-0.13,0.8-0.4,1.59-0.59,2.38c-0.05,0.22-0.1,0.44-0.15,0.65
		c-0.16,0.66-0.31,1.32-0.47,1.98c-0.32,1.62-0.64,3.24-0.9,4.86c-0.33,2.05-0.64,4.09-0.92,6.14c-0.27,1.96-0.47,3.94-0.68,5.91
		c-0.17,1.61-0.31,3.24-0.38,4.86c-0.09,2.05-0.18,4.09-0.19,6.14c-0.01,1.92,0.04,3.83,0.1,5.75c0.12,4.19,0.66,8.38,1.15,12.55
		c0.08,0.64-0.51,1.25-1.02,1.59c-0.7,0.46-1.61,0.66-2.46,0.66c-0.85,0-1.76-0.19-2.46-0.66c-0.63-0.42-0.91-0.89-1.02-1.59
		c-0.29-1.82-0.53-3.63-0.76-5.46c-0.97-7.71-1.21-15.5-1.39-23.26c-0.08-3.55-0.12-7.13,0.06-10.67c0.11-2.12,0.25-4.23,0.46-6.34
		c0.09-0.92,0.21-1.83,0.35-2.74c0.06-0.43,0.11-0.86,0.19-1.29c0.13-0.67,0.24-1.35,0.41-2.01c0.08-0.52,0.3-0.97,0.68-1.37
		c0.08-0.11,0.16-0.22,0.24-0.32c0.52-0.55,1.15-0.96,1.89-1.22c0.85-0.31,1.72-0.47,2.63-0.47c0.01,0,0.02,0,0.02,0
		c1.28,0,2.66,0.29,3.72,1C360.42,376.99,361.11,377.82,361.11,378.84z M351.28,369.18c-0.1-0.7-0.21-1.21,0.06-1.93
		c0.07-0.2,0.15-0.4,0.22-0.6c0.45-1.22,1.56-1.78,2.66-2.29c0.62-0.28,1.34-0.41,2.06-0.41c0.41,0,0.81,0.04,1.18,0.11
		c0.67,0.12,1.29,0.37,1.86,0.75c0.34,0.3,0.68,0.6,1.02,0.91c0.52,0.47,0.67,1.23,0.67,1.89c0,0.19,0,0.38,0,0.58
		c0,0.67-0.33,1.25-0.59,1.84c-0.93,2.07-3.69,2.63-5.72,2.24c-1.02-0.2-2.1-0.65-2.78-1.48
		C351.51,370.34,351.29,369.8,351.28,369.18z"/>
	<path d="M397.92,391.84c0.16,1.63,0.32,3.27,0.28,4.91c-0.03,1.11-0.05,2.21-0.08,3.32c-0.02,0.77-0.11,1.53-0.2,2.3
		c-0.11,0.97-0.17,1.96-0.33,2.93c-0.45,2.75-1.01,5.49-1.83,8.15c-0.35,1.14-0.76,2.25-1.17,3.37c-0.47,1.29-0.94,2.58-1.47,3.84
		c-0.47,1.12-0.98,2.22-1.55,3.3c-0.54,1.05-1.1,2.14-1.81,3.08c-1.58,2.11-3.71,3.87-6.32,4.5c-2.44,0.6-4.96,0.26-7.22-0.83
		c-2.34-1.13-4.37-3.06-5.87-5.16c-1.49-2.08-2.78-4.33-3.72-6.72c-1.97-5.04-2.97-10.5-3.24-15.9c-0.28-5.4,0.04-10.9,1.36-16.15
		c0.37-1.46,0.75-2.94,1.34-4.33c0.5-1.18,1.04-2.43,1.81-3.47c0.34-0.46,0.69-0.87,1.09-1.27c0.07-0.08,0.15-0.16,0.22-0.23
		c-0.54-0.59-1.13-1.32-1.41-2.08c-0.39-1.07-0.6-2.11-0.44-3.25c0.12-0.89,0.41-1.66,0.86-2.43c1.16-1.99,3.04-3.3,5.18-4.07
		c0.65-0.24,1.43-0.45,2.13-0.52c0.64-0.06,1.29-0.16,1.93-0.16c0.06,0,0.11,0,0.17,0c1.03,0.03,2.09,0.08,3.09,0.33
		c2.09,0.52,4.12,1.31,5.86,2.6c3.57,2.66,6.2,6.43,7.92,10.51C396.32,382.67,397.46,387.24,397.92,391.84z M391.5,395.01
		c-0.03-3.24-0.28-6.46-0.86-9.65c-0.25-1.19-0.54-2.36-0.89-3.51c-1.8,0.21-3.59,0.29-5.41,0.3c-0.68,0-1.37-0.01-2.05-0.07
		c-1.44-0.12-2.88-0.2-4.3-0.47c-0.55-0.11-1.09-0.22-1.63-0.36c-1.58,2.86-2.47,6.06-3.13,9.24c-0.7,3.89-1.08,7.85-1.11,11.81
		c-0.03,3.78,0.17,7.55,0.82,11.28c0.73,3.46,1.83,6.81,3.6,9.88c0.72,1.11,1.52,2.14,2.47,3.05c0.39,0.32,0.79,0.61,1.23,0.87
		c0.2,0.09,0.41,0.18,0.62,0.25c0.09,0.02,0.17,0.04,0.26,0.05c0.1,0,0.19,0,0.29,0c0.06-0.01,0.12-0.02,0.18-0.03
		c0.27-0.1,0.52-0.21,0.78-0.33c0.36-0.23,0.68-0.47,1.01-0.73c0.59-0.6,1.11-1.22,1.58-1.92c1.46-2.53,2.52-5.26,3.39-8.05
		c0.3-0.95,0.6-1.9,0.9-2.85c0.44-1.41,0.76-2.87,1.05-4.32c0.39-2.13,0.65-4.26,0.84-6.42c0.1-1.08,0.2-2.15,0.24-3.23
		C391.42,398.21,391.52,396.61,391.5,395.01z M374.44,373.69c0.11,0.34,0.23,0.65,0.39,0.96c0.22,0.3,0.45,0.57,0.71,0.83
		c0.33,0.26,0.68,0.49,1.04,0.71c0.48,0.22,0.97,0.41,1.47,0.59c0.94,0.24,1.88,0.4,2.84,0.52c1.54,0.07,3.06,0.07,4.6-0.01
		c0.78-0.08,1.56-0.18,2.34-0.27c-0.22-0.44-0.45-0.87-0.7-1.3c-0.88-1.38-1.87-2.63-3.05-3.78c-0.7-0.59-1.43-1.11-2.22-1.57
		c-0.49-0.23-0.98-0.44-1.49-0.62c-0.47-0.12-0.95-0.21-1.43-0.28c-0.31-0.01-0.61-0.01-0.91,0c-0.31,0.05-0.61,0.1-0.91,0.17
		c-0.29,0.11-0.57,0.22-0.85,0.35c-0.26,0.17-0.5,0.35-0.74,0.53c-0.23,0.25-0.44,0.5-0.64,0.78c-0.19,0.38-0.34,0.76-0.45,1.16
		C374.39,372.88,374.4,373.27,374.44,373.69z"/>
	<path d="M434.95,382.5c-0.33,3.38-0.43,6.79-0.46,10.19c-0.04,3.76,0.03,7.51,0.11,11.27c0.08,3.39,0.26,6.81,0.6,10.18
		c0.2,1.95,0.39,3.9,0.65,5.84c0.23,1.69,0.51,3.36,0.8,5.04c0.2,0.95,0.41,1.91,0.57,2.87c0.11,0.65-0.52,1.32-0.99,1.65
		c-0.68,0.49-1.57,0.68-2.4,0.68c-1.18,0-2.8-0.47-3.26-1.71c-1.21-3.24-2.27-6.54-3.68-9.71c-2.97-6.64-6.34-13.09-9.86-19.46
		c-2.89-5.23-5.81-10.44-8.84-15.59c-0.1,1.72-0.16,3.44-0.13,5.16c0.03,1.9,0.07,3.79,0.17,5.69c0.1,1.91,0.25,3.8,0.41,5.7
		c0.3,3.56,0.79,7.1,1.27,10.63c0.44,3.29,1.09,6.56,1.71,9.82c0.36,1.63,0.7,3.26,1.08,4.88c0.25,1.08,0.54,2.15,0.72,3.23
		c0.08,0.47,0.16,0.93,0.24,1.4c0.06,0.34-0.02,0.63-0.07,0.97c-0.12,0.71-0.36,1.18-0.97,1.61c-0.45,0.29-0.93,0.49-1.45,0.58
		c-0.83,0.16-1.75,0.09-2.54-0.23c-0.46-0.18-0.85-0.45-1.18-0.82c-0.21-0.19-0.42-0.38-0.63-0.57c-0.24-0.22-0.47-0.8-0.63-1.12
		c-0.23-0.46-0.49-0.92-0.64-1.41c-0.32-1.03-0.69-2.05-0.93-3.11c-0.3-1.31-0.6-2.63-0.9-3.94c-0.3-1.32-0.49-2.68-0.72-4.02
		c-0.76-4.35-1.31-8.76-1.57-13.17c-0.11-1.87-0.23-3.74-0.28-5.62c-0.05-1.92-0.08-3.83-0.09-5.76c-0.01-3.47,0.06-6.95,0.09-10.42
		c0.01-0.91,0.01-1.82,0.03-2.73c0.03-1.38,0.02-2.76,0.29-4.12c0.28-1.39,0.98-2.54,2.36-3.11c1.38-0.57,2.94-0.41,4.29,0.12
		c1.05,0.41,1.89,1.25,2.47,2.19c0.61,0.99,1.23,1.97,1.79,2.99c1.85,3.35,3.62,6.74,5.41,10.12c3.31,6.26,6.64,12.51,9.78,18.86
		c-0.47-6.5-0.42-13.04-0.21-19.55c0.11-3.46,0.3-6.92,0.52-10.37c0.11-1.69,0.22-3.38,0.4-5.07c0.11-0.95,0.2-1.91,0.34-2.85
		c0.23-1.5,0.52-2.97,0.86-4.45c0.17-0.77,1.17-1.36,1.81-1.63c0.62-0.25,1.3-0.38,1.97-0.38c0.36,0,0.72,0.04,1.07,0.1
		c0.86,0.17,1.78,0.55,2.36,1.25c0.35,0.39,0.52,0.85,0.54,1.37c-0.4,2.92-0.91,5.82-1.36,8.74
		C435.49,377.33,435.2,379.91,434.95,382.5z"/>
	<path d="M481.32,377.33c1.43,4.7,1.66,9.72,1.41,14.6c-0.11,2.17-0.21,4.34-0.39,6.51c-0.36,4.22-0.82,8.42-1.32,12.62
		c-0.23,1.98-0.48,3.96-0.77,5.94c-0.17,1.18-0.37,2.33-0.65,3.5c-0.14,0.6-0.29,1.2-0.43,1.8c-0.21,0.89-0.57,1.76-0.86,2.62
		c-0.3,0.91-1.27,1.55-2.1,1.89c-1.1,0.45-2.37,0.54-3.53,0.32c-1.4-0.27-3.47-1.31-3.36-3.04c0.06-0.97,0.08-1.94,0.2-2.9
		c0.08-0.64,0.16-1.28,0.24-1.92c0.11-0.88,0.29-1.74,0.46-2.61c0.07-0.37,0.14-0.73,0.21-1.09c-3.71,1.78-7.43,3.55-11.21,5.17
		c-2.55,1.1-5.14,2.16-7.83,2.83c-2.7,0.68-5.53,1.05-8.28,0.44c-1.19-0.27-2.31-0.8-3.22-1.62c-0.8-0.72-1.32-1.58-1.53-2.64
		c-0.5-2.46,0.58-4.97,1.94-6.97c0.74-1.09,1.57-2.11,2.54-3.02c0.87-0.82,1.75-1.64,2.73-2.33c4.36-3.1,9.56-4.71,14.87-5.05
		c0.76-0.05,1.52-0.08,2.28-0.08c0.73,0,1.46,0.03,2.19,0.09c1.4,0.12,2.81,0.23,4.19,0.52c1.16,0.24,2.29,0.56,3.42,0.9
		c0.24-1.55,0.49-3.1,0.7-4.65c0.31-2.21,0.55-4.42,0.78-6.64c0.44-4.17,0.58-8.41-0.14-12.55c-0.33-1.39-0.77-2.7-1.46-3.94
		c-0.24-0.32-0.48-0.6-0.75-0.88c-0.06-0.04-0.12-0.09-0.18-0.13c-0.37,0.14-0.72,0.29-1.08,0.46c-0.98,0.6-1.89,1.28-2.77,2.02
		c-1.77,1.66-3.28,3.53-4.6,5.57c-0.67,1.12-1.29,2.29-1.81,3.48c-0.33,0.75-0.68,1.5-0.97,2.26c-0.16,0.4-0.31,0.8-0.45,1.21
		c-0.19,0.43-0.36,0.87-0.51,1.31c-0.34,0.62-0.6,1.23-1.12,1.73c-0.81,0.77-1.76,1.15-2.89,1.15c-1.07,0-2.15-0.34-2.89-1.15
		c-0.28-0.26-0.51-0.58-0.67-0.93c-0.04-0.23-0.09-0.46-0.13-0.68c-0.05-0.28-0.08-0.56-0.1-0.84c0.17-0.91,0.31-1.82,0.64-2.69
		c0.34-0.88,0.73-1.71,1.14-2.56c0.72-1.46,1.57-2.89,2.48-4.24c1.49-2.2,3.14-4.32,5.07-6.13c1.04-0.97,2.09-1.95,3.26-2.76
		c1.09-0.75,2.29-1.52,3.55-1.93c0.5-0.17,1-0.32,1.51-0.46c0.53-0.13,1.07-0.21,1.62-0.22c0.29-0.02,0.56-0.04,0.83-0.04
		c0.46,0,0.9,0.03,1.38,0.09c1.4,0.16,2.9,0.64,4.03,1.5c1.03,0.79,1.92,1.63,2.63,2.72C480.33,374.95,480.95,376.11,481.32,377.33z
		 M471.27,411.22c0.02-0.09,0.04-0.19,0.05-0.28c0.02-0.14,0.05-0.28,0.07-0.42c-0.43-0.15-0.85-0.3-1.27-0.47
		c-1.61-0.63-3.2-1.29-4.85-1.82c-1.17-0.3-2.35-0.52-3.54-0.67c-1.06-0.06-2.12-0.06-3.18,0c-1.16,0.14-2.29,0.35-3.42,0.64
		c-1.1,0.35-2.16,0.78-3.19,1.3c-1.23,0.71-2.38,1.51-3.47,2.43c-1.22,1.14-2.33,2.37-3.26,3.77c-0.45,0.82-0.8,1.63-1.03,2.53
		c-0.04,0.43-0.03,0.81,0.01,1.24c0.04,0.12,0.08,0.23,0.14,0.35c0.06,0.09,0.13,0.17,0.2,0.25c0.07,0.05,0.13,0.09,0.2,0.14
		c0.09,0.04,0.19,0.08,0.28,0.11c0.14,0.03,0.28,0.06,0.42,0.08c0.54,0.02,1.06,0.02,1.6-0.01c1.09-0.14,2.16-0.38,3.22-0.66
		c6.33-1.99,12.12-5.4,17.99-8.44c0.69-0.36,1.7-0.36,2.44-0.22C470.88,411.1,471.08,411.16,471.27,411.22z M444.48,420.08
		c-0.02-0.03-0.04-0.06-0.05-0.09C444.45,420.03,444.46,420.06,444.48,420.08C444.48,420.08,444.48,420.09,444.48,420.08z"/>
	<path d="M513.72,367.99c0,1.58-1.99,2.26-3.27,2.25c-2.17-0.01-4.35-0.01-6.52,0c-0.13,0.57-0.27,1.15-0.4,1.72
		c-0.15,0.67-0.3,1.34-0.45,2.01c-0.31,1.68-0.62,3.35-0.88,5.04c-1.27,8.27-1.84,16.6-1.76,24.96c0.04,4.02,0.38,8.02,0.9,12.01
		c0.24,1.82,0.53,3.63,0.86,5.44c0.2,1.07,0.4,2.13,0.57,3.2c0.24,1.51,0.42,3.01,0.57,4.53c0.08,0.89-0.65,1.72-1.31,2.18
		c-0.91,0.64-2.07,0.9-3.16,0.9c-1.09,0-2.26-0.27-3.16-0.9c-0.52-0.34-0.9-0.8-1.15-1.36c-0.53-2.37-0.98-4.72-1.23-7.14
		c-0.19-1.83-0.36-3.66-0.52-5.48c-0.73-8.04-1.13-16.11-1.24-24.18c-0.06-3.95-0.02-7.9-0.01-11.85c0.01-2.16,0.02-4.31,0-6.47
		c0-1.05-0.02-2.09-0.05-3.14c-0.01-0.26-0.02-0.53-0.04-0.8c-0.42,0.06-0.83,0.11-1.24,0.19c-0.73,0.12-1.45,0.28-2.19,0.37
		c-1.23,0.16-2.49,0.35-3.71,0.02c-0.98-0.27-2.09-0.67-2.49-1.72c-0.23-0.6-0.14-1.44,0.36-1.9c0.49-0.45,0.91-0.87,1.55-1.11
		c0.48-0.18,0.96-0.37,1.46-0.46c0.48-0.09,0.95-0.18,1.43-0.24c1.2-0.15,2.41-0.26,3.61-0.34c1.22-0.09,2.44-0.16,3.66-0.22
		c0.23-0.12,0.46-0.24,0.71-0.33c0.99-0.41,2.1-0.61,3.21-0.61c1.11,0,2.21,0.2,3.21,0.61c0.14,0.06,0.28,0.13,0.42,0.2
		c0.35,0,0.71,0,1.06,0.01c2.66,0.05,5.3,0.18,7.95,0.35c0.82,0.05,1.62,0.17,2.31,0.66C513.29,366.76,513.72,367.31,513.72,367.99z
		"/>
	<path d="M543.47,371.09c0.96,2.36,1.19,4.94,0.52,7.41c-0.62,2.3-1.88,4.52-3.61,6.18c-1.94,1.86-4.16,3.48-6.69,4.43
		c-2.47,0.93-5.05,1.44-7.7,1.28c-2.13-0.13-4.29-0.7-6.11-1.82c-0.36,3.95-0.26,7.94,0.19,11.89c0.29,2.58,0.78,5.11,1.22,7.66
		c0.41,1.77,0.81,3.55,1.31,5.3c0.41,1.42,0.8,2.85,1.3,4.24c0.85,2.37,1.84,4.68,3.09,6.87c0.65,1.02,1.34,1.99,2.16,2.88
		c0.56-1.12,0.91-2.3,1.18-3.52c0.69-4.3,0.37-8.65-0.04-12.96c-0.17-1.82-0.41-3.64-0.63-5.45c-0.27-2.21-0.46-4.4-0.57-6.62
		c-0.04-0.71,0.49-1.33,1.02-1.71c0.71-0.5,1.62-0.71,2.47-0.71c1.44,0,3.42,0.71,3.5,2.41c0.17,3.9,0.2,7.79,0.25,11.7
		c0.04,3.62,0.04,7.24-0.15,10.86c-0.11,2-0.37,4.05-0.92,5.97c-0.56,1.97-1.54,3.87-3.49,4.77c-2.39,1.11-5.32,0.54-7.44-0.92
		c-1.9-1.31-3.5-3.05-4.8-4.95c-1.52-2.23-2.9-4.57-4.02-7.04c-0.53-1.16-0.97-2.31-1.4-3.5c-0.27-0.74-0.59-1.47-0.79-2.23
		c-0.29-1.08-0.58-2.17-0.87-3.26c-0.54-2.03-0.84-4.14-1.23-6.2c-0.26-1.41-0.39-2.88-0.49-4.31c-0.1-1.33-0.17-2.67-0.19-4
		c-0.02-2.66,0.09-5.34,0.47-7.98c0.77-5.36,2.15-10.79,5.31-15.29c0.82-1.16,1.72-2.23,2.74-3.23c0.94-0.91,1.99-1.8,3.12-2.46
		c1.23-0.72,2.46-1.33,3.81-1.79c1.42-0.48,2.87-0.75,4.37-0.86c0.41-0.03,0.82-0.05,1.22-0.05c2.46,0,4.91,0.56,7.05,1.79
		c1.06,0.61,2.09,1.36,2.9,2.29C542.32,369.03,543.04,370.03,543.47,371.09z M537.36,374.13c-0.21-0.85-0.51-1.64-0.93-2.42
		c-0.33-0.47-0.69-0.9-1.09-1.31c-0.3-0.24-0.61-0.46-0.93-0.68c-0.31-0.15-0.62-0.28-0.95-0.4c-0.27-0.06-0.53-0.12-0.81-0.16
		c-0.35-0.01-0.71-0.01-1.06,0c-0.39,0.06-0.77,0.13-1.15,0.22c-0.61,0.21-1.19,0.45-1.77,0.72c-0.71,0.44-1.38,0.91-2.03,1.44
		c-1.09,1.06-2.02,2.21-2.86,3.48c-1.1,1.92-1.91,3.96-2.54,6.06c0.46,0.11,0.88,0.3,1.23,0.57c0.42,0.33,0.76,0.65,1.08,1.08
		c0.07,0.11,0.14,0.23,0.21,0.34c0.39,0.53,0.78,1.03,1.24,1.49c0.22,0.17,0.45,0.32,0.68,0.47c0.21,0.1,0.42,0.19,0.63,0.27
		c0.26,0.06,0.52,0.11,0.78,0.15c0.38,0.01,0.75,0.01,1.13-0.01c0.49-0.07,0.97-0.16,1.46-0.27c0.67-0.22,1.31-0.48,1.96-0.78
		c0.84-0.48,1.62-1.02,2.37-1.63c0.8-0.77,1.5-1.59,2.12-2.51c0.55-1.01,0.96-2.05,1.22-3.16
		C537.49,376.09,537.49,375.13,537.36,374.13z"/>
</g>
<g>
	<path d="M162.1,331.77c0,1.12-0.11,2.25-0.56,3.37c-0.67,1.35-1.57,1.91-3.15,1.8c-2.7-0.11-5.5-0.34-8.31-0.56
		c-0.79,0-1.57-0.11-2.36-0.23c-2.7-0.56-3.71-1.69-3.93-4.38c-0.11-2.7,0-5.28,0-7.86c-0.11-0.67-0.11-1.24-0.11-1.91
		c-0.11-2.25-0.11-2.36-2.36-2.25c-4.04,0.11-7.98,0.34-12.02,0.67c-5.06,0.45-10.11,0.56-15.17,0.56c-2.58,0-2.58,0-2.58,2.81
		c0,2.47,0,5.05,0,7.53c0,1.01-0.11,2.02-0.34,2.92c-0.45,1.35-1.57,2.25-3.03,2.36c-1.57,0.22-2.7-0.56-3.48-1.8
		c-0.67-1.24-0.67-2.58-0.79-3.82c-0.79-9.32,0.34-18.54,2.36-27.52c1.12-4.94,2.36-9.89,4.04-14.72
		c2.47-6.96,5.95-13.48,11.12-18.98c2.92-3.26,6.63-5.17,10.79-6.07c6.07-1.35,11.12,0.67,15.5,4.83
		c5.62,5.5,8.76,12.36,10.67,19.77c2.02,8.31,3.03,16.74,3.37,25.16c0.11,2.47,0,4.83,0,7.3c0.11,0,0.22,0,0.34,0
		C162.1,324.47,162.1,328.06,162.1,331.77z M143.12,312c-0.11-1.57-0.22-3.48-0.34-5.28c-0.67-7.3-1.57-14.49-3.71-21.57
		c-1.12-3.71-3.03-6.85-5.5-9.77c-0.79-1.01-1.69-1.69-2.81-2.25c-1.35-0.56-2.36-0.45-3.59,0.56c-2.81,2.58-4.94,5.73-6.63,9.32
		c-4.61,9.89-7.08,20.56-8.54,31.34c-0.22,1.57,0,1.57,1.57,1.57c0.45,0,0.9,0,1.35,0c8.65-0.67,17.3-1.24,26.06-1.35
		C143.34,314.47,143.34,314.47,143.12,312z M153.67,329.86c0.34-13.82-0.45-27.52-3.14-41.11c-1.12-5.84-3.37-11.01-8.43-14.49
		c0.11,1.12,0.67,2.02,1.24,3.03c1.8,2.47,2.92,5.28,3.48,8.31c0.9,4.27,1.8,8.54,2.36,12.92c1.35,10.33,2.47,20.67,2.7,31.23
		c0,0.67-0.22,1.46,0.9,1.46C153.9,331.32,153.67,330.53,153.67,329.86z"/>
	<path d="M185.46,324.35c0.11,1.24,0.34,2.47,0.56,3.59c0.45,2.36,0.45,2.36,2.92,1.91c2.58-0.45,5.28-1.01,7.98-1.57
		c1.01-0.22,2.02-0.34,3.03-0.11c1.24,0.22,2.25,0.79,2.47,2.02c0.22,1.35-0.34,2.25-1.35,2.92c-0.67,0.34-1.35,0.56-2.02,0.79
		c-5.95,1.46-12.02,2.58-18.2,3.26c-2.13,0.22-4.16-0.22-6.18-1.01c-2.47-1.01-4.16-2.81-4.94-5.39c-0.79-2.7-1.35-5.5-1.46-8.2
		c-0.67-10-1.24-19.88-1.35-29.88c0-7.19-0.22-14.38-0.22-21.68c0-0.9-0.11-1.91,0.11-2.81c0.45-2.02,1.8-3.03,3.82-2.92
		c3.93,0,7.86,0,11.68,0.45c1.91,0.11,2.81,0.9,3.03,2.92c0.11,1.57,0,3.15,0,4.72c-0.22,7.75-0.45,15.5-0.67,26.29
		C184.45,305.93,185.12,315.14,185.46,324.35z M177.37,276.61c0.11-1.69,0.22-3.37,0.45-4.94c0.11-0.9-0.22-1.24-1.12-1.35
		c-2.47,0-2.7,0.22-2.7,2.58c-0.11,0.34-0.11,0.67,0,1.12c0.23,12.81,0.34,25.61,0.67,38.42c0.11,4.94,0.45,10,1.46,15.05
		c0.34,2.13,0.79,2.7,2.58,2.92c1.46,0.34,1.69,0.11,1.46-1.24c-1.24-5.5-1.69-11.12-2.25-16.85c-0.67-8.54-0.9-17.19-0.9-27.07
		C177.15,283.24,177.26,279.87,177.37,276.61z"/>
	<path d="M238.37,314.36c-1.12,4.61-3.03,9.1-5.05,13.37c-1.01,2.02-2.25,3.93-3.82,5.62c-5.28,5.28-12.47,5.39-18.09,0.22
		c-2.36-2.13-3.93-4.83-5.06-7.75c-1.8-4.94-3.14-10.11-3.37-15.28c-0.79-13.26-0.45-26.4,1.91-39.43c0.22-0.79,0.34-1.69,0.67-2.47
		c0.9-2.36,2.81-3.59,5.17-3.71c3.37,0,6.63,0.11,9.89,0.79c2.58,0.56,3.48,1.8,2.92,4.38c-1.68,7.98-2.02,16.06-2.58,24.15
		c-0.34,4.94-0.45,9.89-0.45,14.83c-0.11,2.02,0.11,4.04,0.34,6.07c0.34,4.38,2.7,7.75,6.07,10.67c1.12-0.79,1.46-2.02,2.02-3.03
		c3.48-6.74,5.05-14.04,6.29-21.46c1.24-6.85,2.47-13.71,3.26-20.67c0.22-2.36,1.35-3.48,3.59-3.71c3.37-0.34,6.63-0.67,9.89-0.9
		c2.36-0.22,3.48,0.79,3.82,3.03c0.22,1.46,0.34,2.92,0.34,4.38c-0.11,5.95,0,11.91,0.67,17.75c0.56,4.94,1.68,9.77,3.59,14.38
		c0.9,2.13,2.02,4.16,3.71,5.73c1.12,1.12,1.68,1.01,2.81-0.22c1.8-2.02,2.81-4.61,3.82-7.08c2.25-5.06,2.92-10.33,3.14-15.84
		c0.22-8.87,0.11-17.75-2.13-26.51c-0.34-1.12-0.45-2.25-0.22-3.37c0.34-2.25,2.47-3.03,4.27-1.69c1.01,0.79,1.57,1.91,1.91,3.03
		c1.35,3.71,1.68,7.53,2.02,11.35c0.9,10.67,0.45,21.46-1.01,32.13c-0.56,4.49-1.8,8.99-3.71,13.26c-0.9,2.25-2.13,4.16-3.71,6.07
		c-3.93,4.72-9.32,6.07-14.94,3.71c-4.27-1.8-7.75-4.61-10.34-8.54c-2.7-4.27-4.38-8.87-5.5-13.82c-0.22-1.01-0.45-2.02-0.67-3.26
		C238.82,311.77,238.71,313.12,238.37,314.36z M215.9,318.51c-0.56-2.13-1.12-4.38-1.35-6.63c-0.9-9.89-1.12-19.66-0.56-29.54
		c0.11-3.26,0.67-6.52,1.12-9.77c0.11-0.56,0.45-1.12-0.22-1.35c-0.45-0.22-1.01-0.22-1.57-0.11c-0.56,0.11-0.67,0.79-0.67,1.24
		c-0.34,1.91-0.67,3.82-0.9,5.73c-0.9,8.2-1.24,16.29-1.12,24.49c0,7.08,0.9,14.15,3.26,20.89c0.45,1.46,1.12,2.92,2.02,4.16
		c1.91,2.47,4.38,3.37,7.19,2.25C218.15,325.37,217.36,324.02,215.9,318.51z M263.42,329.63c-4.38-1.46-7.08-4.72-9.32-8.65
		c-1.91-3.48-2.92-7.3-3.82-11.12c-1.8-8.43-2.7-16.85-1.91-25.39c0-0.34,0.11-0.79,0-1.12c-0.22-0.67-0.79-0.56-1.24-0.22
		c-0.45,0.22-0.34,0.9-0.45,1.35c0,2.13-0.11,4.27-0.22,6.29c-0.22,7.41-0.22,14.83,1.35,22.13c0.79,3.82,1.91,7.41,3.93,10.78
		c1.8,3.03,4.38,5.39,7.75,6.52c1.46,0.45,2.81,0.79,4.27,0.11C263.64,329.97,263.53,329.63,263.42,329.63z"/>
	<path d="M343.28,331.77c0,1.12-0.11,2.25-0.56,3.37c-0.67,1.35-1.57,1.91-3.15,1.8c-2.7-0.11-5.5-0.34-8.31-0.56
		c-0.79,0-1.57-0.11-2.36-0.23c-2.7-0.56-3.71-1.69-3.93-4.38c-0.11-2.7,0-5.28,0-7.86c-0.11-0.67-0.11-1.24-0.11-1.91
		c-0.11-2.25-0.11-2.36-2.36-2.25c-4.04,0.11-7.98,0.34-12.02,0.67c-5.05,0.45-10.11,0.56-15.17,0.56c-2.58,0-2.58,0-2.58,2.81
		c0,2.47,0,5.05,0,7.53c0,1.01-0.11,2.02-0.34,2.92c-0.45,1.35-1.57,2.25-3.03,2.36c-1.57,0.22-2.7-0.56-3.48-1.8
		c-0.67-1.24-0.67-2.58-0.79-3.82c-0.79-9.32,0.34-18.54,2.36-27.52c1.12-4.94,2.36-9.89,4.04-14.72
		c2.47-6.96,5.95-13.48,11.12-18.98c2.92-3.26,6.63-5.17,10.78-6.07c6.07-1.35,11.12,0.67,15.5,4.83
		c5.62,5.5,8.76,12.36,10.67,19.77c2.02,8.31,3.03,16.74,3.37,25.16c0.11,2.47,0,4.83,0,7.3c0.11,0,0.22,0,0.34,0
		C343.28,324.47,343.28,328.06,343.28,331.77z M324.3,312c-0.11-1.57-0.22-3.48-0.34-5.28c-0.67-7.3-1.57-14.49-3.71-21.57
		c-1.12-3.71-3.03-6.85-5.5-9.77c-0.79-1.01-1.68-1.69-2.81-2.25c-1.35-0.56-2.36-0.45-3.59,0.56c-2.81,2.58-4.94,5.73-6.63,9.32
		c-4.61,9.89-7.08,20.56-8.54,31.34c-0.22,1.57,0,1.57,1.57,1.57c0.45,0,0.9,0,1.35,0c8.65-0.67,17.3-1.24,26.06-1.35
		C324.52,314.47,324.52,314.47,324.3,312z M334.86,329.86c0.34-13.82-0.45-27.52-3.15-41.11c-1.12-5.84-3.37-11.01-8.42-14.49
		c0.11,1.12,0.67,2.02,1.24,3.03c1.8,2.47,2.92,5.28,3.48,8.31c0.9,4.27,1.8,8.54,2.36,12.92c1.35,10.33,2.47,20.67,2.7,31.23
		c0,0.67-0.23,1.46,0.9,1.46C335.08,331.32,334.86,330.53,334.86,329.86z"/>
	<path d="M358.11,306.27c0.11-1.01-0.11-1.8-1.01-2.47c-7.98-5.62-11.57-13.82-13.14-23.14c-0.45-3.03-0.56-6.07-0.67-9.21
		c0-0.67,0-1.35,0.11-2.02c0.45-3.03,1.68-4.27,4.72-4.61c1.91-0.22,3.82,0,5.73,0.11c1.91,0.11,3.82,0.11,5.73,0.11
		c2.7,0.11,3.71,0.9,3.93,3.59c0.11,1.35,0.11,2.7,0.11,4.16c0.22,4.04,0.79,8.09,1.8,12.13c0.56,1.91,1.35,3.82,2.7,5.28
		c1.46,1.8,2.36,1.8,3.71,0c3.71-4.94,6.85-10.22,8.42-16.18c0.56-2.02,1.35-4.04,1.57-6.29c0.11-1.8,1.57-2.58,3.71-2.25
		c1.8,0.22,2.7,1.01,2.36,3.03s-1.01,4.04-1.46,6.07c-1.69,7.19-4.04,14.27-7.86,20.67c-0.11,0.22-0.22,0.45-0.45,0.67
		c-2.7,2.81-2.92,6.4-2.81,10.11c0.22,8.31-0.11,16.51,0.56,24.83c0.11,0.79,0.11,1.57,0.11,2.36c-0.11,1.57-0.9,2.7-2.36,3.03
		c-3.26,1.01-6.4,1.8-9.77,1.46c-3.93-0.45-5.28-1.69-5.62-5.5c-0.34-4.61-0.22-9.1-0.11-13.59
		C358.11,314.47,358.11,310.43,358.11,306.27z M360.8,290.54c-3.15-5.62-5.28-11.46-5.95-17.97c-0.11-1.91-0.34-1.91-2.47-1.8
		c-1.57,0.11-1.68,0.11-1.57,1.91c0.22,4.38,0.9,8.76,2.25,12.81c1.91,5.62,5.06,10.33,9.89,13.82c2.58,1.8,3.26,1.69,5.28-0.9
		C364.62,296.16,362.94,294.47,360.8,290.54z M364.96,310.2c-0.11,6.29-0.22,12.47-0.34,18.65c0,0.45-0.11,1.01-0.11,1.57
		c0,0.67,0.34,1.12,1.12,1.12c0.45-0.11,0.9-0.11,1.35,0c1.12,0.11,1.8-0.22,1.57-1.69c-0.45-2.25-0.11-4.49-0.11-6.74
		c0-5.62,0-11.12,0-16.85C364.62,307.17,365.07,306.49,364.96,310.2z"/>
	<path d="M401.47,302.56c-1.46-1.12-2.92-2.36-4.16-3.82c-3.82-4.49-5.5-9.66-4.38-15.61c1.12-5.84,3.71-10.78,8.99-14.15
		c5.5-3.37,14.04-2.92,19.21,1.12c1.57,1.24,2.7,2.81,2.81,4.83c0,1.01-0.11,1.91-1.12,2.47c-1.01,0.56-1.68,0.11-2.47-0.45
		c-2.36-1.8-5.05-3.03-7.98-3.59c-3.03-0.56-5.5,0.45-7.64,2.47c-1.01,0.9-1.12,1.8-0.56,3.03c0.67,1.24,1.68,2.13,2.92,2.92
		c3.26,2.36,6.96,3.93,10.56,5.73c2.36,1.24,4.83,2.47,7.19,3.71c8.31,4.49,11.79,11.8,12.02,20.89c0.11,4.94-0.67,9.89-3.03,14.49
		c-2.81,5.73-7.41,9.1-13.37,10.78c-4.94,1.35-10.11,0.56-15.28,0c-1.35-0.11-2.58-0.9-3.71-1.69c-2.25-1.69-3.93-3.82-5.28-6.07
		c-1.46-2.36-1.35-4.94-0.9-7.41c0.56-3.15,2.02-5.95,4.27-8.31c1.91-2.02,4.04-3.71,6.51-5.17c0.79-0.45,1.8-0.67,2.47-1.8
		C406.07,305.48,403.6,304.25,401.47,302.56z M414.5,310.2c-0.9-0.67-1.57-0.79-2.47,0c-0.79,0.67-1.68,1.01-2.47,1.46
		c-3.26,1.69-5.95,3.93-8.09,6.85c-1.8,2.47-2.47,5.17-1.46,8.2c1.57,4.72,8.65,7.19,13.37,4.49c4.27-2.47,6.29-6.18,6.4-9.89
		C419.66,315.71,418.09,312.67,414.5,310.2z M402.36,293.8c1.46,1.91,3.48,3.37,5.5,4.72c2.7,1.57,5.5,3.03,8.09,4.83
		c6.96,4.61,11.12,10.67,10,19.43c0,0.22,0.11,0.56,0.11,0.9c1.24-0.67,1.57-1.8,1.91-2.92c1.12-3.93,1.35-7.98,0.9-12.02
		c-0.34-4.16-2.36-7.3-5.95-9.55c-2.81-1.8-5.73-3.37-8.65-4.83c-4.83-2.58-9.66-5.17-14.04-9.1
		C399.56,288.63,400.57,291.33,402.36,293.8z"/>
</g>
<g>
	<path d="M497.99,303.41c1.1-4.51,1.71-9.05,2.15-13.67c0.21-2.26,0.63-4.51,1.33-6.68c0.24-0.76,1.3-4.57,2.57-3.11
		c0.36,0.42,0.34,1.37,0.37,1.9c0.1,1.35,0.11,2.71,0.09,4.06c-0.03,2.84-0.24,5.7-0.71,8.51c-0.98,5.91-2.81,11.64-5.48,17
		c1.39-0.36,2.77-0.73,4.16-1.09c-10.29-6.25-24.84-9.06-30.47-20.87c-0.88,1.53-1.75,3.05-2.63,4.58c2.11,0.08,3.69,2.02,5.04,3.43
		c1.69,1.77,3.4,3.44,5.48,4.75c4.31,2.71,9.71,4.1,14.7,4.87c6.12,0.94,7.73-6.5,9.71-10.84c1.13-2.49,2.64-4.99,1.7-7.79
		c-0.47-1.4-1.45-2.48-1.71-3.96c-0.24-1.4,0.06-2.66,0.57-3.95c-1.99-0.27-3.98-0.54-5.98-0.81c-0.27,7.19-0.53,14.38-0.8,21.57
		c-0.04,1.14,0.36,3.66-0.28,4.65c0.61-0.94,0.27,0.02-0.14-0.58c-0.27-0.4-0.71-0.73-1.01-1.12c-1.82-2.37-3.45-4.8-5.55-6.95
		c-4.07-4.15-8.97-7.45-14.33-9.69c-4-1.68-10.3-3.15-12.15,2.32c-1.53,4.52,0.65,9.99,3.39,13.59c3,3.95,7.33,7.11,11.62,9.54
		c5.09,2.88,10.96,3.74,16.71,4.11c1.42,0.09,2.91,0.27,4.33,0.21c0.58-0.03,1.13-0.16,1.69-0.3c2.1-0.52-0.93,0.5,1.02-0.43
		c1.63-0.79,2.63-1.62,3.21-3.32c1.16-3.46,1.4-7.39,1.85-10.98c0.86-6.75,1.5-13.53,2.05-20.31c0.32-3.9-5.77-3.88-6.08,0
		c-0.75,9.16-1.36,18.51-3.17,27.54c-0.1,0.49-0.22,0.98-0.33,1.47c-0.13,0.55-0.59,0.99-0.04,0.35c-0.38,0.44,0.67-0.09,0.33-0.43
		c-0.09,0.05-0.17,0.09-0.26,0.14c-0.33,0.16-0.35,0.18-0.05,0.05c-0.24,0.1-0.48,0.2-0.73,0.31c0.75-0.17,0.68-0.23-0.21-0.18
		c-0.8-0.15-1.71-0.07-2.53-0.12c-5.32-0.29-10.68-0.95-15.34-3.7c-3.33-1.96-6.84-4.38-9.2-7.49c-1.15-1.51-2.04-3.3-2.42-5.16
		c-0.2-0.99-0.2-1.92-0.1-2.91c0-0.02,0.09,0.22-0.23,0.22c0.5-0.01,0.83-0.05,1.36,0.06c4.57,0.94,9.3,4.09,12.78,7.09
		c1.91,1.64,3.7,3.47,5.25,5.45c1.47,1.89,2.6,4.12,4.57,5.56c2.26,1.64,5.5,2,7.74,0.11c2.41-2.03,2.18-5.34,2.29-8.21
		c0.28-7.48,0.55-14.95,0.83-22.43c0.14-3.67-4.8-3.81-5.98-0.81c-0.89,2.28-1.09,4.79-0.57,7.19c0.26,1.19,0.75,2.29,1.29,3.38
		c0.63,1.26,0.26,1.64-0.34,2.95c-1.11,2.44-2.21,4.87-3.32,7.31c-0.21,0.46-0.38,1.1-0.71,1.48c-0.2,0.31-0.18,0.33,0.05,0.06
		c0.37-0.27,0.21-0.37-0.49-0.32c-1.02-0.41-2.32-0.49-3.4-0.75c-4.29-1.04-8.33-2.49-11.49-5.69c-3.09-3.13-5.94-6.4-10.65-6.58
		c-2.47-0.1-3.56,2.61-2.63,4.58c6.23,13.04,21.32,16.17,32.66,23.06c1.34,0.81,3.44,0.36,4.16-1.09
		c3.39-6.81,5.61-14.03,6.54-21.58c0.46-3.71,0.65-7.5,0.38-11.23c-0.2-2.71-0.91-5.56-3.36-7.12c-2.72-1.72-6.31-1.29-8.55,1.01
		c-2.24,2.3-3.23,6.17-3.82,9.21c-1.11,5.66-1.25,11.36-2.62,16.99C491.2,305.59,497.07,307.21,497.99,303.41L497.99,303.41z"/>
	<path d="M476.4,305.21c2.03,1.42,4.07,2.86,6.24,4.07c2.11,1.18,4.53,1.8,6.58,3.02c3.37,2,6.44-3.25,3.07-5.25
		c-2.08-1.23-4.47-1.84-6.58-3.02c-2.17-1.21-4.2-2.64-6.24-4.07C476.26,297.7,473.21,302.98,476.4,305.21L476.4,305.21z"/>
</g>
<g>
	<g>
		<path d="M492.89,245.95c13.36-24.94,10.27-56.63-8.82-77.74c-17.27-19.09-43.84-26.72-68.75-20.62
			c-9.95,2.43-20.12,6.77-28.37,12.92c2.55,1.96,5.09,3.91,7.64,5.87c3.5-12.69,3.67-26.77,0.17-39.45
			c-5.32-19.31-19.6-34.06-38.22-40.99c-29.49-10.98-64.99-6.73-91,10.83c-13.61,9.19-24.3,21.67-32.14,36.02
			c-10.29,18.86-17.51,40.83-15.23,62.54c2.01,19.15,11.32,34.95,27.91,44.99c14.2,8.59,32.4,12.31,48.24,6.21
			c8.49-3.27,17.32-8.62,21.81-16.84c4.52-8.27,3.13-17.99-2.2-25.53c-5.53-7.84-14.59-12.61-24.26-11.19
			c-10.6,1.56-18.3,9.7-21.62,19.54c-2.14,6.36,7.9,9.08,10.03,2.76c2.31-6.85,8.57-12.92,16.27-12.18
			c6.67,0.64,12.15,6.46,13.77,12.76c3.42,13.35-15.4,21.87-25.95,23.09c-13.65,1.57-28.23-4.1-38.37-13.1
			c-12.67-11.24-16.55-27.33-15.44-43.82c1.96-29.12,18.79-60.8,43.43-76.94c22.22-14.55,49.83-18.03,75.37-11.22
			c17.54,4.68,31.82,16.71,37.18,34.41c3.43,11.34,3.39,23.92,0.24,35.34c-1.11,4.02,3.85,8.7,7.64,5.87
			c16.71-12.45,39.75-17.37,59.62-10.56c20.05,6.87,36.86,26.08,38.8,48.54c0.97,11.27-1.33,23.22-6.69,33.23
			C480.75,246.6,489.72,251.86,492.89,245.95L492.89,245.95z"/>
	</g>
</g>
<g>
	<g>
		<path d="M227.74,157.02c-30.99-14.23-68.44-19.82-100.9-7.26c-31.1,12.04-61.89,40.99-60.88,76.8
			c0.48,17.11,8.54,33.38,20.73,45.21c4.8,4.67,12.17-2.68,7.35-7.35c-8.82-8.57-15.34-19.84-17.19-32.09
			c-2.59-17.1,4.94-33.48,15.61-46.45c21.94-26.69,58.52-36.35,91.78-31.24c13.13,2.02,26.19,5.82,38.26,11.37
			C228.53,168.77,233.82,159.81,227.74,157.02L227.74,157.02z"/>
	</g>
</g>
<g>
	<g>
		<path d="M91.71,466.58c32.24,54.65,63.24,110.02,92.96,166.09c3.92,7.39,15.14,0.83,11.23-6.56
			c-29.72-56.06-60.72-111.44-92.96-166.09C98.69,452.82,87.44,459.35,91.71,466.58L91.71,466.58z"/>
	</g>
</g>
<g>
	<g>
		<path d="M509.07,464.44c-26.92,55.56-52.71,111.67-77.34,168.29c-3.3,7.6,7.89,14.22,11.23,6.56
			c24.63-56.62,50.42-112.72,77.34-168.29C523.92,463.51,512.72,456.91,509.07,464.44L509.07,464.44z"/>
	</g>
</g>
<g>
	<g>
		<path d="M191.44,639.25c82.91-4.08,166.03-2.72,248.77,4.06c8.34,0.68,8.29-12.32,0-13c-82.73-6.79-165.86-8.14-248.77-4.06
			C183.11,626.65,183.06,639.66,191.44,639.25L191.44,639.25z"/>
	</g>
</g>
<g>
	<g>
		<path d="M444,468.14c-17.09,53.65-31.39,108.16-42.76,163.3c-1.3,6.28,8.34,8.97,9.64,2.66c11.38-55.15,25.67-109.65,42.76-163.3
			C455.6,464.65,445.95,462.02,444,468.14L444,468.14z"/>
	</g>
</g>
<g>
	<g>
		<path d="M378.3,465.36c-7.3,55.85-11.67,112.06-13.07,168.37c-0.16,6.44,9.84,6.43,10,0c1.4-56.31,5.77-112.52,13.07-168.37
			C389.13,459,379.12,459.06,378.3,465.36L378.3,465.36z"/>
	</g>
</g>
<g>
	<g>
		<path d="M323.6,473.12c2.72,51.86,3.6,103.81,2.62,155.73c-0.12,6.44,9.88,6.44,10,0c0.98-51.92,0.11-103.87-2.62-155.73
			C333.26,466.71,323.26,466.67,323.6,473.12L323.6,473.12z"/>
	</g>
</g>
<g>
	<g>
		<path d="M263.84,472.78c8.75,52.13,17.25,104.29,25.48,156.5c1,6.34,10.64,3.65,9.64-2.66c-8.24-52.21-16.73-104.38-25.48-156.5
			C272.42,463.79,262.78,466.47,263.84,472.78L263.84,472.78z"/>
	</g>
</g>
<g>
	<g>
		<path d="M211.5,466.91c18.73,52.01,32.53,105.68,41.04,160.3c0.99,6.34,10.63,3.65,9.64-2.66c-8.51-54.62-22.32-108.3-41.04-160.3
			C218.98,458.24,209.32,460.84,211.5,466.91L211.5,466.91z"/>
	</g>
</g>
<g>
	<g>
		<path d="M154.58,472.26c8.71,27.99,17.43,55.97,26.14,83.96c4.23,13.58,8.34,27.2,12.71,40.73c3.91,12.09,8.46,23.99,15.22,34.8
			c3.41,5.44,12.06,0.43,8.63-5.05c-6.79-10.86-11.15-22.74-15.01-34.9c-4.24-13.36-8.35-26.77-12.51-40.15
			c-8.51-27.35-17.03-54.7-25.54-82.05C162.31,463.48,152.66,466.09,154.58,472.26L154.58,472.26z"/>
	</g>
</g>
</svg>
