<?xml version="1.0" encoding="utf-8"?>
<!-- Generator: Adobe Illustrator 25.4.1, SVG Export Plug-In . SVG Version: 6.00 Build 0)  -->
<svg version="1.0" id="Layer_1" xmlns="http://www.w3.org/2000/svg" xmlns:xlink="http://www.w3.org/1999/xlink" x="0px" y="0px"
	 viewBox="0 0 612 792" style="enable-background:new 0 0 612 792;" xml:space="preserve">
<g>
	<path d="M247.8,368.53c0.82,0.99,1.42,2.64,0.74,3.88c-1.73,3.19-2.75,6.72-3.9,10.15c-0.71,2.09-1.32,4.17-1.92,6.29
		c-0.59,2.06-1.2,4.1-1.69,6.18c-0.59,2.55-1.18,5.09-1.78,7.64c-0.51,2.79-1.03,5.58-1.54,8.38c-0.53,2.86-0.83,5.76-1.24,8.64
		c-0.4,2.78-0.59,5.59-0.88,8.38c-0.27,2.61-0.34,5.24-0.5,7.85c-0.09,1.41-0.05,2.83-0.07,4.25c-0.02,1.11-0.08,2.23-0.04,3.34
		c0.11,2.82,0.15,5.63,0.42,8.43c0.14,1.53,0.22,3.08,0.44,4.59c0.23,1.59,0.46,3.19,0.69,4.78c0.5,3.48,1.2,6.93,1.85,10.39
		c0.19,1-0.84,2.07-1.54,2.57c-1.06,0.75-2.44,1.06-3.72,1.06c-1.29,0-2.65-0.31-3.72-1.06c-0.61-0.4-1.06-0.94-1.35-1.61
		c-0.06-0.32-0.13-0.64-0.19-0.96c-1.45-7.9-2.56-15.87-3.18-23.88c-0.03-0.43-0.05-0.86-0.08-1.29c-2,0.13-4,0.27-6,0.41
		c-3.16,0.33-6.28,0.75-9.36,1.52c-0.3,0.1-0.6,0.21-0.9,0.31c0.4,1.82,0.83,3.63,1.32,5.42c1.39,5.03,2.79,10.06,4.1,15.11
		c0.34,1.32,0.24,2.38-0.65,3.46c-0.95,1.15-2.47,1.79-3.89,2.06c-2.71,0.53-6.87-0.19-8.01-3.13c-0.71-1.84-1.45-3.66-2.04-5.54
		c-0.39-1.22-0.77-2.43-1.16-3.65c-0.36-1.14-0.6-2.32-0.9-3.47c-0.22-0.85-0.46-1.69-0.65-2.55c-0.49-2.19-1.03-4.37-1.46-6.58
		c-0.5-2.54-1.08-5.09-1.49-7.65c-0.46-2.88-0.98-5.75-1.32-8.65c-0.37-3.15-0.72-6.28-0.96-9.44c-0.45-6.23-0.61-12.45-0.64-18.69
		c-0.02-6.14,0.29-12.26,0.67-18.39c0.08-1.28,0.23-2.54,0.37-3.81c0.15-1.37,0.23-2.77,0.46-4.13c0.18-1.06,0.37-2.11,0.56-3.17
		c0.15-0.86,0.23-1.9,0.5-2.71c0.23-0.72,0.46-1.45,0.7-2.17c0.38-1.19,1.08-2.12,1.88-3.08c1.21-1.47,3.27-2.08,5.19-2.08
		c0.57,0,1.13,0.05,1.66,0.16c1.33,0.26,2.74,0.85,3.63,1.92c0.53,0.6,0.81,1.31,0.83,2.11c0.01,0.07,0.02,0.14,0.03,0.21
		c0.12,0.53,0.24,1.06,0.2,1.61c-0.03,0.46-0.07,0.91-0.1,1.37c-0.04,0.5-0.06,1.01-0.13,1.51c-0.19,1.53-0.38,3.06-0.56,4.58
		c-0.33,2.84-0.68,5.68-0.93,8.53c-0.55,6.19-0.98,12.37-1.08,18.59c-0.05,3.11-0.04,6.2,0.03,9.3c0.07,3.13,0.24,6.24,0.44,9.36
		c0.34,5.26,1.07,10.46,1.86,15.67c0.61-0.12,1.22-0.22,1.83-0.3c1.71-0.2,3.41-0.38,5.13-0.55c3.48-0.33,6.96-0.57,10.44-0.77
		c-0.02-0.57-0.05-1.14-0.08-1.71c-0.11-3.03,0.01-6.07,0.04-9.1c0.02-1.43,0.18-2.87,0.27-4.29c0.09-1.38,0.13-2.77,0.27-4.14
		c0.31-2.99,0.51-6,0.92-8.98c0.43-3.12,0.75-6.28,1.3-9.39c0.61-3.47,1.11-6.97,1.85-10.42c0.63-2.95,1.17-5.94,1.91-8.86
		c0.51-1.98,1.02-3.97,1.52-5.96c0.58-2.28,1.14-4.61,2.28-6.69c0.41-0.92,1.03-1.67,1.88-2.23c0.49-0.27,0.99-0.53,1.48-0.79
		c1.14-0.47,2.4-0.7,3.66-0.7c0.67,0,1.33,0.06,1.97,0.19C245.04,366.52,246.74,367.23,247.8,368.53z"/>
	<path d="M303.54,409.93c0.27,2.65,0.53,5.34,0.46,8.01c-0.04,1.81-0.09,3.62-0.13,5.42c-0.03,1.26-0.18,2.49-0.32,3.75
		c-0.17,1.59-0.28,3.21-0.53,4.78c-0.73,4.49-1.64,8.96-2.99,13.31c-0.57,1.86-1.24,3.67-1.91,5.49c-0.77,2.11-1.53,4.21-2.4,6.27
		c-0.77,1.83-1.6,3.63-2.52,5.39c-0.88,1.71-1.79,3.49-2.95,5.03c-2.59,3.44-6.05,6.32-10.32,7.35c-3.99,0.97-8.09,0.43-11.78-1.35
		c-3.82-1.84-7.14-5-9.58-8.42c-2.43-3.4-4.54-7.08-6.07-10.97c-3.22-8.23-4.84-17.15-5.29-25.96c-0.45-8.81,0.06-17.79,2.22-26.37
		c0.6-2.38,1.23-4.8,2.18-7.06c0.81-1.92,1.69-3.97,2.95-5.66c0.55-0.75,1.12-1.42,1.78-2.07c0.12-0.13,0.24-0.26,0.37-0.38
		c-0.87-0.97-1.84-2.15-2.3-3.39c-0.64-1.75-0.97-3.45-0.72-5.3c0.2-1.45,0.67-2.72,1.4-3.97c1.89-3.25,4.96-5.38,8.46-6.65
		c1.07-0.39,2.33-0.73,3.47-0.85c1.04-0.1,2.1-0.27,3.15-0.27c0.09,0,0.19,0,0.28,0c1.67,0.05,3.42,0.13,5.04,0.54
		c3.41,0.85,6.72,2.13,9.56,4.24c5.83,4.34,10.11,10.5,12.93,17.16C300.92,394.95,302.78,402.42,303.54,409.93z M293.06,415.1
		c-0.04-5.29-0.46-10.55-1.41-15.76c-0.4-1.94-0.88-3.85-1.46-5.73c-2.94,0.34-5.87,0.48-8.83,0.49c-1.11,0-2.24-0.01-3.35-0.11
		c-2.34-0.2-4.71-0.33-7.03-0.77c-0.89-0.17-1.78-0.36-2.65-0.58c-2.58,4.67-4.03,9.89-5.11,15.09c-1.15,6.35-1.75,12.82-1.82,19.28
		c-0.06,6.17,0.27,12.32,1.34,18.41c1.18,5.65,2.98,11.11,5.87,16.13c1.18,1.81,2.48,3.49,4.03,4.98c0.64,0.52,1.3,0.99,2,1.42
		c0.33,0.15,0.67,0.29,1.01,0.41c0.14,0.03,0.28,0.06,0.43,0.08c0.16,0,0.32,0,0.47,0c0.1-0.02,0.2-0.03,0.29-0.05
		c0.44-0.16,0.85-0.34,1.27-0.53c0.58-0.38,1.12-0.76,1.64-1.19c0.97-0.97,1.81-1.99,2.58-3.14c2.39-4.13,4.11-8.59,5.54-13.14
		c0.48-1.55,0.97-3.1,1.46-4.65c0.72-2.3,1.24-4.68,1.71-7.05c0.64-3.48,1.05-6.96,1.37-10.48c0.16-1.76,0.32-3.51,0.39-5.28
		C292.92,420.32,293.08,417.71,293.06,415.1z M265.21,380.3c0.18,0.56,0.38,1.06,0.63,1.57c0.35,0.48,0.73,0.92,1.15,1.35
		c0.55,0.42,1.11,0.8,1.7,1.16c0.79,0.36,1.58,0.67,2.39,0.96c1.53,0.39,3.08,0.66,4.64,0.85c2.52,0.12,4.99,0.12,7.51-0.02
		c1.27-0.14,2.55-0.29,3.82-0.44c-0.36-0.71-0.74-1.42-1.14-2.12c-1.43-2.25-3.06-4.3-4.97-6.18c-1.15-0.96-2.34-1.81-3.63-2.57
		c-0.8-0.38-1.6-0.72-2.44-1.02c-0.77-0.19-1.54-0.35-2.33-0.46c-0.5-0.02-0.99-0.02-1.49,0c-0.5,0.08-1,0.17-1.49,0.28
		c-0.47,0.18-0.93,0.36-1.39,0.57c-0.42,0.28-0.82,0.56-1.21,0.87c-0.38,0.41-0.72,0.82-1.04,1.27c-0.31,0.62-0.55,1.23-0.74,1.9
		C265.12,378.96,265.13,379.61,265.21,380.3z"/>
	<path d="M363.99,394.68c-0.53,5.52-0.7,11.09-0.75,16.63c-0.06,6.14,0.04,12.26,0.18,18.4c0.13,5.53,0.42,11.11,0.98,16.61
		c0.32,3.19,0.63,6.37,1.07,9.54c0.38,2.76,0.83,5.49,1.31,8.23c0.33,1.56,0.67,3.11,0.93,4.68c0.18,1.06-0.85,2.16-1.61,2.69
		c-1.12,0.79-2.56,1.12-3.91,1.12c-1.93,0-4.57-0.77-5.33-2.79c-1.97-5.3-3.7-10.68-6.01-15.85c-4.85-10.84-10.35-21.38-16.09-31.77
		c-4.72-8.54-9.48-17.05-14.44-25.45c-0.17,2.81-0.26,5.61-0.21,8.42c0.05,3.11,0.12,6.19,0.29,9.29c0.16,3.11,0.41,6.21,0.67,9.31
		c0.48,5.81,1.3,11.58,2.08,17.36c0.73,5.37,1.78,10.71,2.8,16.04c0.58,2.66,1.15,5.32,1.76,7.97c0.41,1.75,0.88,3.5,1.17,5.28
		c0.13,0.76,0.26,1.52,0.39,2.29c0.09,0.55-0.03,1.03-0.12,1.58c-0.19,1.17-0.58,1.92-1.58,2.63c-0.73,0.48-1.51,0.8-2.38,0.95
		c-1.36,0.26-2.86,0.15-4.14-0.37c-0.75-0.29-1.39-0.73-1.93-1.33c-0.34-0.31-0.69-0.63-1.02-0.93c-0.39-0.35-0.76-1.31-1.02-1.83
		c-0.38-0.76-0.8-1.49-1.05-2.31c-0.52-1.68-1.13-3.35-1.52-5.07c-0.49-2.14-0.98-4.29-1.47-6.44c-0.49-2.16-0.79-4.38-1.17-6.56
		c-1.23-7.1-2.13-14.31-2.56-21.51c-0.18-3.06-0.38-6.11-0.46-9.17c-0.09-3.13-0.13-6.26-0.14-9.4c-0.01-5.67,0.11-11.35,0.15-17.02
		c0.01-1.48,0.02-2.97,0.05-4.46c0.05-2.25,0.03-4.51,0.48-6.72c0.46-2.27,1.61-4.15,3.84-5.07c2.25-0.92,4.81-0.67,7.01,0.19
		c1.72,0.67,3.08,2.04,4.03,3.57c1,1.62,2.01,3.22,2.93,4.89c3.02,5.47,5.92,11.01,8.84,16.53c5.41,10.23,10.83,20.43,15.97,30.79
		c-0.77-10.62-0.69-21.28-0.35-31.92c0.18-5.65,0.48-11.3,0.85-16.94c0.18-2.76,0.36-5.52,0.66-8.27c0.17-1.55,0.32-3.11,0.56-4.66
		c0.38-2.44,0.86-4.85,1.4-7.26c0.28-1.25,1.91-2.22,2.96-2.65c1.01-0.41,2.12-0.61,3.22-0.61c0.59,0,1.18,0.06,1.74,0.17
		c1.41,0.27,2.91,0.9,3.85,2.04c0.57,0.64,0.86,1.39,0.88,2.24c-0.65,4.77-1.48,9.51-2.22,14.27
		C364.88,386.23,364.4,390.44,363.99,394.68z"/>
	<path d="M424.94,376.05c1.57,3.85,1.94,8.06,0.85,12.09c-1.02,3.75-3.07,7.38-5.89,10.08c-3.16,3.04-6.79,5.68-10.93,7.23
		c-4.04,1.51-8.25,2.35-12.57,2.08c-3.48-0.21-7-1.14-9.98-2.97c-0.58,6.45-0.43,12.97,0.3,19.4c0.48,4.21,1.27,8.34,1.99,12.5
		c0.67,2.9,1.32,5.8,2.14,8.66c0.67,2.32,1.3,4.65,2.12,6.92c1.39,3.87,3.01,7.64,5.05,11.22c1.06,1.66,2.19,3.25,3.53,4.7
		c0.91-1.83,1.49-3.75,1.93-5.75c1.13-7.02,0.6-14.12-0.06-21.16c-0.28-2.97-0.67-5.94-1.03-8.9c-0.44-3.6-0.76-7.19-0.93-10.81
		c-0.06-1.16,0.79-2.17,1.67-2.79c1.16-0.81,2.65-1.15,4.04-1.15c2.35,0,5.59,1.17,5.71,3.94c0.28,6.36,0.33,12.72,0.41,19.09
		c0.07,5.92,0.07,11.82-0.24,17.73c-0.17,3.26-0.61,6.61-1.5,9.75c-0.91,3.22-2.52,6.32-5.69,7.79c-3.9,1.81-8.68,0.88-12.14-1.5
		c-3.09-2.13-5.71-4.99-7.83-8.08c-2.49-3.64-4.73-7.47-6.56-11.49c-0.86-1.89-1.59-3.77-2.29-5.72c-0.43-1.2-0.97-2.41-1.3-3.64
		c-0.47-1.77-0.94-3.54-1.41-5.31c-0.88-3.32-1.37-6.75-2-10.13c-0.43-2.31-0.63-4.71-0.81-7.04c-0.17-2.17-0.29-4.35-0.3-6.53
		c-0.04-4.35,0.15-8.72,0.76-13.03c1.25-8.75,3.51-17.62,8.67-24.96c1.34-1.9,2.81-3.65,4.48-5.27c1.53-1.49,3.25-2.93,5.1-4.01
		c2-1.17,4.02-2.17,6.22-2.92c2.33-0.79,4.69-1.23,7.14-1.41c0.66-0.05,1.33-0.08,2-0.08c4.01,0,8.02,0.91,11.52,2.92
		c1.73,0.99,3.42,2.22,4.74,3.74C423.06,372.68,424.24,374.31,424.94,376.05z M414.97,381.01c-0.35-1.39-0.84-2.68-1.52-3.95
		c-0.54-0.77-1.12-1.47-1.77-2.15c-0.49-0.39-0.99-0.75-1.52-1.1c-0.51-0.24-1.02-0.45-1.54-0.66c-0.44-0.1-0.87-0.19-1.32-0.26
		c-0.58-0.02-1.15-0.02-1.73,0c-0.63,0.1-1.26,0.21-1.88,0.36c-0.99,0.34-1.95,0.73-2.89,1.18c-1.17,0.71-2.26,1.49-3.31,2.35
		c-1.78,1.72-3.3,3.61-4.66,5.69c-1.8,3.14-3.12,6.46-4.14,9.89c0.75,0.18,1.44,0.49,2,0.92c0.68,0.54,1.24,1.07,1.75,1.76
		c0.12,0.19,0.23,0.38,0.35,0.56c0.64,0.87,1.28,1.68,2.02,2.44c0.36,0.27,0.73,0.53,1.11,0.77c0.34,0.16,0.68,0.3,1.04,0.44
		c0.42,0.09,0.84,0.18,1.27,0.25c0.62,0.02,1.23,0.01,1.85-0.01c0.8-0.12,1.59-0.26,2.38-0.45c1.09-0.36,2.15-0.78,3.19-1.27
		c1.37-0.78,2.64-1.66,3.87-2.66c1.31-1.25,2.44-2.6,3.45-4.1c0.9-1.66,1.56-3.34,1.99-5.17
		C415.17,384.21,415.18,382.64,414.97,381.01z"/>
	<path d="M481.57,375.45c0.36,4.11-0.79,8.43-2.71,12.06c-2.09,3.97-4.64,7.84-7.54,11.29c-2.9,3.45-6.59,7.06-11.54,6.02
		c-1.24-0.26-2.41-0.78-3.23-1.78c-0.72-0.88-1-1.97-0.58-3.06c0.85-2.19,2.61-3.95,4.1-5.73c1.28-1.52,2.4-3.13,3.49-4.78
		c1.59-2.87,2.79-5.81,3.53-9.01c0.24-1.79,0.3-3.51,0.09-5.3c-0.16-0.52-0.34-1-0.58-1.49c-0.05-0.06-0.09-0.11-0.14-0.17
		c-0.03-0.02-0.05-0.03-0.07-0.05c-0.01,0-0.02-0.01-0.03-0.01c-0.41-0.01-0.82,0-1.24,0.01c-0.62,0.11-1.22,0.24-1.82,0.39
		c-1.32,0.45-2.6,0.98-3.86,1.59c-2.48,1.42-4.76,3.05-6.96,4.89c-2.93,2.72-5.55,5.72-7.73,9.09c-1.88,3.27-3.29,6.69-4.11,10.37
		c-0.38,2.53-0.43,5.01-0.05,7.53c0.39,1.46,0.9,2.81,1.58,4.15c0.67,0.98,1.41,1.86,2.25,2.72c1.16,0.93,2.38,1.73,3.66,2.48
		c2.34,1.13,4.76,2.09,7.17,3.05c4.05,1.59,8.22,3.17,11.83,5.65c2.52,1.74,4.79,3.8,6.49,6.35c1.5,2.25,2.42,4.64,2.91,7.3
		c1.03,5.68-0.29,11.72-2.64,16.93c-2.55,5.66-6.03,11.02-10.49,15.37c-2.14,2.09-4.66,3.87-7.51,4.84
		c-3.26,1.1-6.65,0.99-9.82-0.34c-5.65-2.37-6.42-9.57-6.15-14.88c0.22-4.45,0.96-8.68,2.02-13c0.26-1.07,1.6-1.88,2.5-2.25
		c1.31-0.54,2.83-0.65,4.21-0.38c1.2,0.23,2.47,0.77,3.26,1.73c0.48,0.55,0.72,1.18,0.74,1.91c-0.06,0.33-0.13,0.67-0.19,1
		c-0.09,0.49-0.19,0.97-0.29,1.45c-0.84,4.74-1.57,9.49-0.84,14.28c0.25,0.97,0.56,1.88,0.99,2.77c0.1-0.04,0.2-0.09,0.3-0.14
		c1.02-0.63,1.98-1.32,2.92-2.08c2-1.88,3.69-3.97,5.22-6.26c1.91-3.28,3.33-6.71,4.17-10.42c0.36-2.43,0.44-4.79,0.12-7.23
		c-0.38-1.49-0.88-2.86-1.6-4.22c-0.67-0.96-1.4-1.83-2.22-2.65c-1.2-0.97-2.47-1.8-3.8-2.58c-3.92-1.92-8.05-3.31-12.1-4.93
		c-6.51-2.61-13.23-5.95-16.66-12.42c-2.09-3.94-2.77-8.65-2.04-13.05c0.73-4.33,2-8.47,4.11-12.34c1.97-3.63,4.27-7.11,7.04-10.18
		c2.7-2.99,5.71-5.87,9.01-8.2c3.62-2.55,7.52-4.69,11.75-6.02c2.43-0.76,5.04-1.33,7.61-1.33c0.02,0,0.04,0,0.06,0
		c2.45,0.01,5.05,0.25,7.35,1.18c0.77,0.28,1.51,0.64,2.22,1.07c0.25,0.15,0.52,0.29,0.77,0.43c0.88,0.69,1.91,1.4,2.57,2.32
		C480.4,371.22,481.37,373.16,481.57,375.45z"/>
	<path d="M533.05,370.98c0,2.59-3.24,3.7-5.34,3.68c-3.55-0.02-7.1-0.02-10.65,0.01c-0.21,0.94-0.44,1.87-0.65,2.81
		c-0.24,1.09-0.49,2.19-0.73,3.29c-0.51,2.74-1.01,5.47-1.43,8.22c-2.08,13.5-3.01,27.1-2.88,40.75c0.06,6.57,0.63,13.1,1.47,19.6
		c0.39,2.97,0.87,5.93,1.4,8.88c0.32,1.74,0.65,3.48,0.92,5.22c0.39,2.47,0.69,4.91,0.92,7.4c0.14,1.45-1.06,2.8-2.14,3.56
		c-1.48,1.04-3.38,1.47-5.16,1.47s-3.69-0.44-5.16-1.47c-0.85-0.56-1.47-1.3-1.88-2.22c-0.86-3.86-1.6-7.71-2.01-11.65
		c-0.31-2.98-0.58-5.97-0.86-8.95c-1.18-13.13-1.84-26.3-2.03-39.48c-0.09-6.45-0.04-12.89-0.01-19.34c0.01-3.52,0.03-7.04,0-10.56
		c-0.01-1.71-0.04-3.41-0.09-5.13c-0.01-0.42-0.04-0.86-0.07-1.3c-0.68,0.1-1.35,0.19-2.03,0.3c-1.19,0.2-2.37,0.45-3.57,0.61
		c-2.01,0.27-4.07,0.57-6.06,0.03c-1.61-0.43-3.41-1.1-4.07-2.81c-0.38-0.98-0.23-2.36,0.58-3.09c0.8-0.73,1.48-1.42,2.53-1.81
		c0.78-0.29,1.57-0.6,2.38-0.76c0.78-0.15,1.55-0.29,2.34-0.39c1.96-0.25,3.93-0.42,5.9-0.56c1.99-0.15,3.98-0.27,5.98-0.36
		c0.37-0.2,0.76-0.39,1.16-0.55c1.62-0.67,3.43-1,5.23-1c1.8,0,3.61,0.33,5.24,1c0.23,0.1,0.46,0.21,0.69,0.32
		c0.58,0,1.16,0,1.74,0.02c4.34,0.09,8.65,0.3,12.98,0.57c1.34,0.09,2.65,0.28,3.77,1.08C532.35,368.98,533.05,369.88,533.05,370.98
		z"/>
</g>
<g>
	<path d="M162.1,331.77c0,1.12-0.11,2.25-0.56,3.37c-0.67,1.35-1.57,1.91-3.15,1.8c-2.7-0.11-5.5-0.34-8.31-0.56
		c-0.79,0-1.57-0.11-2.36-0.23c-2.7-0.56-3.71-1.69-3.93-4.38c-0.11-2.7,0-5.28,0-7.86c-0.11-0.67-0.11-1.24-0.11-1.91
		c-0.11-2.25-0.11-2.36-2.36-2.25c-4.04,0.11-7.98,0.34-12.02,0.67c-5.05,0.45-10.11,0.56-15.17,0.56c-2.58,0-2.58,0-2.58,2.81
		c0,2.47,0,5.05,0,7.53c0,1.01-0.11,2.02-0.34,2.92c-0.45,1.35-1.57,2.25-3.03,2.36c-1.57,0.22-2.7-0.56-3.48-1.8
		c-0.67-1.24-0.67-2.58-0.79-3.82c-0.79-9.32,0.34-18.54,2.36-27.52c1.12-4.94,2.36-9.89,4.04-14.72
		c2.47-6.96,5.95-13.48,11.12-18.98c2.92-3.26,6.63-5.17,10.78-6.07c6.07-1.35,11.12,0.67,15.5,4.83
		c5.62,5.5,8.76,12.36,10.67,19.77c2.02,8.31,3.03,16.74,3.37,25.16c0.11,2.47,0,4.83,0,7.3c0.11,0,0.22,0,0.34,0
		C162.1,324.47,162.1,328.06,162.1,331.77z M143.12,312c-0.11-1.57-0.22-3.48-0.34-5.28c-0.67-7.3-1.57-14.49-3.71-21.57
		c-1.12-3.71-3.03-6.85-5.5-9.77c-0.79-1.01-1.68-1.69-2.81-2.25c-1.35-0.56-2.36-0.45-3.59,0.56c-2.81,2.58-4.94,5.73-6.63,9.32
		c-4.61,9.89-7.08,20.56-8.54,31.34c-0.22,1.57,0,1.57,1.57,1.57c0.45,0,0.9,0,1.35,0c8.65-0.67,17.3-1.24,26.06-1.35
		C143.34,314.47,143.34,314.47,143.12,312z M153.67,329.86c0.34-13.82-0.45-27.52-3.15-41.11c-1.12-5.84-3.37-11.01-8.42-14.49
		c0.11,1.12,0.67,2.02,1.24,3.03c1.8,2.47,2.92,5.28,3.48,8.31c0.9,4.27,1.8,8.54,2.36,12.92c1.35,10.33,2.47,20.67,2.7,31.23
		c0,0.67-0.22,1.46,0.9,1.46C153.9,331.32,153.67,330.53,153.67,329.86z"/>
	<path d="M185.46,324.35c0.11,1.24,0.34,2.47,0.56,3.59c0.45,2.36,0.45,2.36,2.92,1.91c2.58-0.45,5.28-1.01,7.98-1.57
		c1.01-0.22,2.02-0.34,3.03-0.11c1.24,0.22,2.25,0.79,2.47,2.02c0.22,1.35-0.34,2.25-1.35,2.92c-0.67,0.34-1.35,0.56-2.02,0.79
		c-5.95,1.46-12.02,2.58-18.2,3.26c-2.13,0.22-4.16-0.22-6.18-1.01c-2.47-1.01-4.16-2.81-4.94-5.39c-0.79-2.7-1.35-5.5-1.46-8.2
		c-0.67-10-1.24-19.88-1.35-29.88c0-7.19-0.22-14.38-0.22-21.68c0-0.9-0.11-1.91,0.11-2.81c0.45-2.02,1.8-3.03,3.82-2.92
		c3.93,0,7.86,0,11.68,0.45c1.91,0.11,2.81,0.9,3.03,2.92c0.11,1.57,0,3.15,0,4.72c-0.22,7.75-0.45,15.5-0.67,26.29
		C184.45,305.93,185.12,315.14,185.46,324.35z M177.37,276.61c0.11-1.69,0.22-3.37,0.45-4.94c0.11-0.9-0.22-1.24-1.12-1.35
		c-2.47,0-2.7,0.22-2.7,2.58c-0.11,0.34-0.11,0.67,0,1.12c0.22,12.81,0.34,25.61,0.67,38.42c0.11,4.94,0.45,10,1.46,15.05
		c0.34,2.13,0.79,2.7,2.58,2.92c1.46,0.34,1.69,0.11,1.46-1.24c-1.24-5.5-1.69-11.12-2.25-16.85c-0.67-8.54-0.9-17.19-0.9-27.07
		C177.15,283.24,177.26,279.87,177.37,276.61z"/>
	<path d="M238.37,314.36c-1.12,4.61-3.03,9.1-5.06,13.37c-1.01,2.02-2.25,3.93-3.82,5.62c-5.28,5.28-12.47,5.39-18.09,0.22
		c-2.36-2.13-3.93-4.83-5.05-7.75c-1.8-4.94-3.15-10.11-3.37-15.28c-0.79-13.26-0.45-26.4,1.91-39.43c0.22-0.79,0.34-1.69,0.67-2.47
		c0.9-2.36,2.81-3.59,5.17-3.71c3.37,0,6.63,0.11,9.89,0.79c2.58,0.56,3.48,1.8,2.92,4.38c-1.69,7.98-2.02,16.06-2.58,24.15
		c-0.34,4.94-0.45,9.89-0.45,14.83c-0.11,2.02,0.11,4.04,0.34,6.07c0.34,4.38,2.7,7.75,6.07,10.67c1.12-0.79,1.46-2.02,2.02-3.03
		c3.48-6.74,5.06-14.04,6.29-21.46c1.24-6.85,2.47-13.71,3.26-20.67c0.22-2.36,1.35-3.48,3.59-3.71c3.37-0.34,6.63-0.67,9.89-0.9
		c2.36-0.22,3.48,0.79,3.82,3.03c0.22,1.46,0.34,2.92,0.34,4.38c-0.11,5.95,0,11.91,0.67,17.75c0.56,4.94,1.68,9.77,3.59,14.38
		c0.9,2.13,2.02,4.16,3.71,5.73c1.12,1.12,1.68,1.01,2.81-0.22c1.8-2.02,2.81-4.61,3.82-7.08c2.25-5.06,2.92-10.33,3.15-15.84
		c0.22-8.87,0.11-17.75-2.13-26.51c-0.34-1.12-0.45-2.25-0.22-3.37c0.34-2.25,2.47-3.03,4.27-1.69c1.01,0.79,1.57,1.91,1.91,3.03
		c1.35,3.71,1.68,7.53,2.02,11.35c0.9,10.67,0.45,21.46-1.01,32.13c-0.56,4.49-1.8,8.99-3.71,13.26c-0.9,2.25-2.13,4.16-3.71,6.07
		c-3.93,4.72-9.32,6.07-14.94,3.71c-4.27-1.8-7.75-4.61-10.33-8.54c-2.7-4.27-4.38-8.87-5.5-13.82c-0.22-1.01-0.45-2.02-0.67-3.26
		C238.82,311.77,238.71,313.12,238.37,314.36z M215.9,318.51c-0.56-2.13-1.12-4.38-1.35-6.63c-0.9-9.89-1.12-19.66-0.56-29.54
		c0.11-3.26,0.67-6.52,1.12-9.77c0.11-0.56,0.45-1.12-0.22-1.35c-0.45-0.22-1.01-0.22-1.57-0.11s-0.67,0.79-0.67,1.24
		c-0.34,1.91-0.67,3.82-0.9,5.73c-0.9,8.2-1.24,16.29-1.12,24.49c0,7.08,0.9,14.15,3.26,20.89c0.45,1.46,1.12,2.92,2.02,4.16
		c1.91,2.47,4.38,3.37,7.19,2.25C218.15,325.37,217.36,324.02,215.9,318.51z M263.42,329.63c-4.38-1.46-7.08-4.72-9.32-8.65
		c-1.91-3.48-2.92-7.3-3.82-11.12c-1.8-8.43-2.7-16.85-1.91-25.39c0-0.34,0.11-0.79,0-1.12c-0.22-0.67-0.79-0.56-1.24-0.22
		c-0.45,0.22-0.34,0.9-0.45,1.35c0,2.13-0.11,4.27-0.22,6.29c-0.22,7.41-0.22,14.83,1.35,22.13c0.79,3.82,1.91,7.41,3.93,10.78
		c1.8,3.03,4.38,5.39,7.75,6.52c1.46,0.45,2.81,0.79,4.27,0.11C263.64,329.97,263.53,329.63,263.42,329.63z"/>
	<path d="M343.28,331.77c0,1.12-0.11,2.25-0.56,3.37c-0.67,1.35-1.57,1.91-3.15,1.8c-2.7-0.11-5.5-0.34-8.31-0.56
		c-0.79,0-1.57-0.11-2.36-0.23c-2.7-0.56-3.71-1.69-3.93-4.38c-0.11-2.7,0-5.28,0-7.86c-0.11-0.67-0.11-1.24-0.11-1.91
		c-0.11-2.25-0.11-2.36-2.36-2.25c-4.04,0.11-7.98,0.34-12.02,0.67c-5.05,0.45-10.11,0.56-15.17,0.56c-2.58,0-2.58,0-2.58,2.81
		c0,2.47,0,5.05,0,7.53c0,1.01-0.11,2.02-0.34,2.92c-0.45,1.35-1.57,2.25-3.03,2.36c-1.57,0.22-2.7-0.56-3.48-1.8
		c-0.67-1.24-0.67-2.58-0.79-3.82c-0.79-9.32,0.34-18.54,2.36-27.52c1.12-4.94,2.36-9.89,4.04-14.72
		c2.47-6.96,5.95-13.48,11.12-18.98c2.92-3.26,6.63-5.17,10.78-6.07c6.07-1.35,11.12,0.67,15.5,4.83
		c5.62,5.5,8.76,12.36,10.67,19.77c2.02,8.31,3.03,16.74,3.37,25.16c0.11,2.47,0,4.83,0,7.3c0.11,0,0.22,0,0.34,0
		C343.28,324.47,343.28,328.06,343.28,331.77z M324.3,312c-0.11-1.57-0.22-3.48-0.34-5.28c-0.67-7.3-1.57-14.49-3.71-21.57
		c-1.12-3.71-3.03-6.85-5.5-9.77c-0.79-1.01-1.68-1.69-2.81-2.25c-1.35-0.56-2.36-0.45-3.59,0.56c-2.81,2.58-4.94,5.73-6.63,9.32
		c-4.61,9.89-7.08,20.56-8.54,31.34c-0.22,1.57,0,1.57,1.57,1.57c0.45,0,0.9,0,1.35,0c8.65-0.67,17.3-1.24,26.06-1.35
		C324.52,314.47,324.52,314.47,324.3,312z M334.86,329.86c0.34-13.82-0.45-27.52-3.15-41.11c-1.12-5.84-3.37-11.01-8.42-14.49
		c0.11,1.12,0.67,2.02,1.24,3.03c1.8,2.47,2.92,5.28,3.48,8.31c0.9,4.27,1.8,8.54,2.36,12.92c1.35,10.33,2.47,20.67,2.7,31.23
		c0,0.67-0.23,1.46,0.9,1.46C335.08,331.32,334.86,330.53,334.86,329.86z"/>
	<path d="M358.11,306.27c0.11-1.01-0.11-1.8-1.01-2.47c-7.98-5.62-11.57-13.82-13.14-23.14c-0.45-3.03-0.56-6.07-0.67-9.21
		c0-0.67,0-1.35,0.11-2.02c0.45-3.03,1.68-4.27,4.72-4.61c1.91-0.22,3.82,0,5.73,0.11c1.91,0.11,3.82,0.11,5.73,0.11
		c2.7,0.11,3.71,0.9,3.93,3.59c0.11,1.35,0.11,2.7,0.11,4.16c0.22,4.04,0.79,8.09,1.8,12.13c0.56,1.91,1.35,3.82,2.7,5.28
		c1.46,1.8,2.36,1.8,3.71,0c3.71-4.94,6.85-10.22,8.42-16.18c0.56-2.02,1.35-4.04,1.57-6.29c0.11-1.8,1.57-2.58,3.71-2.25
		c1.8,0.22,2.7,1.01,2.36,3.03s-1.01,4.04-1.46,6.07c-1.69,7.19-4.04,14.27-7.86,20.67c-0.11,0.22-0.22,0.45-0.45,0.67
		c-2.7,2.81-2.92,6.4-2.81,10.11c0.22,8.31-0.11,16.51,0.56,24.83c0.11,0.79,0.11,1.57,0.11,2.36c-0.11,1.57-0.9,2.7-2.36,3.03
		c-3.26,1.01-6.4,1.8-9.77,1.46c-3.93-0.45-5.28-1.69-5.62-5.5c-0.34-4.61-0.22-9.1-0.11-13.59
		C358.11,314.47,358.11,310.43,358.11,306.27z M360.8,290.54c-3.15-5.62-5.28-11.46-5.95-17.97c-0.11-1.91-0.34-1.91-2.47-1.8
		c-1.57,0.11-1.68,0.11-1.57,1.91c0.22,4.38,0.9,8.76,2.25,12.81c1.91,5.62,5.06,10.33,9.89,13.82c2.58,1.8,3.26,1.69,5.28-0.9
		C364.62,296.16,362.94,294.47,360.8,290.54z M364.96,310.2c-0.11,6.29-0.22,12.47-0.34,18.65c0,0.45-0.11,1.01-0.11,1.57
		c0,0.67,0.34,1.12,1.12,1.12c0.45-0.11,0.9-0.11,1.35,0c1.12,0.11,1.8-0.22,1.57-1.69c-0.45-2.25-0.11-4.49-0.11-6.74
		c0-5.62,0-11.12,0-16.85C364.62,307.17,365.07,306.49,364.96,310.2z"/>
	<path d="M401.47,302.56c-1.46-1.12-2.92-2.36-4.16-3.82c-3.82-4.49-5.5-9.66-4.38-15.61c1.12-5.84,3.71-10.78,8.99-14.15
		c5.5-3.37,14.04-2.92,19.21,1.12c1.57,1.24,2.7,2.81,2.81,4.83c0,1.01-0.11,1.91-1.12,2.47c-1.01,0.56-1.68,0.11-2.47-0.45
		c-2.36-1.8-5.05-3.03-7.98-3.59c-3.03-0.56-5.5,0.45-7.64,2.47c-1.01,0.9-1.12,1.8-0.56,3.03c0.67,1.24,1.68,2.13,2.92,2.92
		c3.26,2.36,6.96,3.93,10.56,5.73c2.36,1.24,4.83,2.47,7.19,3.71c8.31,4.49,11.79,11.8,12.02,20.89c0.11,4.94-0.67,9.89-3.03,14.49
		c-2.81,5.73-7.41,9.1-13.37,10.78c-4.94,1.35-10.11,0.56-15.28,0c-1.35-0.11-2.58-0.9-3.71-1.69c-2.25-1.69-3.93-3.82-5.28-6.07
		c-1.46-2.36-1.35-4.94-0.9-7.41c0.56-3.15,2.02-5.95,4.27-8.31c1.91-2.02,4.04-3.71,6.51-5.17c0.79-0.45,1.8-0.67,2.47-1.8
		C406.07,305.48,403.6,304.25,401.47,302.56z M414.5,310.2c-0.9-0.67-1.57-0.79-2.47,0c-0.79,0.67-1.68,1.01-2.47,1.46
		c-3.26,1.69-5.95,3.93-8.09,6.85c-1.8,2.47-2.47,5.17-1.46,8.2c1.57,4.72,8.65,7.19,13.37,4.49c4.27-2.47,6.29-6.18,6.4-9.89
		C419.66,315.71,418.09,312.67,414.5,310.2z M402.36,293.8c1.46,1.91,3.48,3.37,5.5,4.72c2.7,1.57,5.5,3.03,8.09,4.83
		c6.96,4.61,11.12,10.67,10,19.43c0,0.22,0.11,0.56,0.11,0.9c1.24-0.67,1.57-1.8,1.91-2.92c1.12-3.93,1.35-7.98,0.9-12.02
		c-0.34-4.16-2.36-7.3-5.95-9.55c-2.81-1.8-5.73-3.37-8.65-4.83c-4.83-2.58-9.66-5.17-14.04-9.1
		C399.56,288.63,400.57,291.33,402.36,293.8z"/>
</g>
<g>
	<path d="M497.99,303.41c1.1-4.51,1.71-9.05,2.15-13.67c0.21-2.26,0.63-4.51,1.33-6.68c0.24-0.76,1.3-4.57,2.57-3.11
		c0.36,0.42,0.34,1.37,0.37,1.9c0.1,1.35,0.11,2.71,0.09,4.06c-0.03,2.84-0.24,5.7-0.71,8.51c-0.98,5.91-2.81,11.64-5.48,17
		c1.39-0.36,2.77-0.73,4.16-1.09c-10.29-6.25-24.84-9.06-30.47-20.87c-0.88,1.53-1.75,3.05-2.63,4.58c2.11,0.08,3.69,2.02,5.04,3.43
		c1.69,1.77,3.4,3.44,5.48,4.75c4.31,2.71,9.71,4.1,14.7,4.87c6.12,0.94,7.73-6.5,9.71-10.84c1.13-2.49,2.64-4.99,1.7-7.79
		c-0.47-1.4-1.45-2.48-1.71-3.96c-0.24-1.4,0.06-2.66,0.57-3.95c-1.99-0.27-3.98-0.54-5.98-0.81c-0.27,7.19-0.53,14.38-0.8,21.57
		c-0.04,1.14,0.36,3.66-0.28,4.65c0.61-0.94,0.27,0.02-0.14-0.58c-0.27-0.4-0.71-0.73-1.01-1.12c-1.82-2.37-3.45-4.8-5.55-6.95
		c-4.07-4.15-8.97-7.45-14.33-9.69c-4-1.68-10.3-3.15-12.15,2.32c-1.53,4.52,0.65,9.99,3.39,13.59c3,3.95,7.33,7.11,11.62,9.54
		c5.09,2.88,10.96,3.74,16.71,4.11c1.42,0.09,2.91,0.27,4.33,0.21c0.58-0.03,1.13-0.16,1.69-0.3c2.1-0.52-0.93,0.5,1.02-0.43
		c1.63-0.79,2.63-1.62,3.21-3.32c1.16-3.46,1.4-7.39,1.85-10.98c0.86-6.75,1.5-13.53,2.05-20.31c0.32-3.9-5.77-3.88-6.08,0
		c-0.75,9.16-1.36,18.51-3.17,27.54c-0.1,0.49-0.22,0.98-0.33,1.47c-0.13,0.55-0.59,0.99-0.04,0.35c-0.38,0.44,0.67-0.09,0.33-0.43
		c-0.09,0.05-0.17,0.09-0.26,0.14c-0.33,0.16-0.35,0.18-0.05,0.05c-0.24,0.1-0.48,0.2-0.73,0.31c0.75-0.17,0.68-0.23-0.21-0.18
		c-0.8-0.15-1.71-0.07-2.53-0.12c-5.32-0.29-10.68-0.95-15.34-3.7c-3.33-1.96-6.84-4.38-9.2-7.49c-1.15-1.51-2.04-3.3-2.42-5.16
		c-0.2-0.99-0.2-1.92-0.1-2.91c0-0.02,0.09,0.22-0.23,0.22c0.5-0.01,0.83-0.05,1.36,0.06c4.57,0.94,9.3,4.09,12.78,7.09
		c1.91,1.64,3.7,3.47,5.25,5.45c1.47,1.89,2.6,4.12,4.57,5.56c2.26,1.64,5.5,2,7.74,0.11c2.41-2.03,2.18-5.34,2.29-8.21
		c0.28-7.48,0.55-14.95,0.83-22.43c0.14-3.67-4.8-3.81-5.98-0.81c-0.89,2.28-1.09,4.79-0.57,7.19c0.26,1.19,0.75,2.29,1.29,3.38
		c0.63,1.26,0.26,1.64-0.34,2.95c-1.11,2.44-2.21,4.87-3.32,7.31c-0.21,0.46-0.38,1.1-0.71,1.48c-0.2,0.31-0.18,0.33,0.05,0.06
		c0.37-0.27,0.21-0.37-0.49-0.32c-1.02-0.41-2.32-0.49-3.4-0.75c-4.29-1.04-8.33-2.49-11.49-5.69c-3.09-3.13-5.94-6.4-10.65-6.58
		c-2.47-0.1-3.56,2.61-2.63,4.58c6.23,13.04,21.32,16.17,32.66,23.06c1.34,0.81,3.44,0.36,4.16-1.09
		c3.39-6.81,5.61-14.03,6.54-21.58c0.46-3.71,0.65-7.5,0.38-11.23c-0.2-2.71-0.91-5.56-3.36-7.12c-2.72-1.72-6.31-1.29-8.55,1.01
		c-2.24,2.3-3.23,6.17-3.82,9.21c-1.11,5.66-1.25,11.36-2.62,16.99C491.2,305.59,497.07,307.21,497.99,303.41L497.99,303.41z"/>
	<path d="M476.4,305.21c2.03,1.42,4.07,2.86,6.24,4.07c2.11,1.18,4.53,1.8,6.58,3.02c3.37,2,6.44-3.25,3.07-5.25
		c-2.08-1.23-4.47-1.84-6.58-3.02c-2.17-1.21-4.2-2.64-6.24-4.07C476.26,297.7,473.21,302.98,476.4,305.21L476.4,305.21z"/>
</g>
<g>
	<g>
		<path d="M492.89,245.95c13.36-24.94,10.27-56.63-8.82-77.74c-17.27-19.09-43.84-26.72-68.75-20.62
			c-9.95,2.43-20.12,6.77-28.37,12.92c2.55,1.96,5.09,3.91,7.64,5.87c3.5-12.69,3.67-26.77,0.17-39.45
			c-5.32-19.31-19.6-34.06-38.22-40.99c-29.49-10.98-64.99-6.73-91,10.83c-13.61,9.19-24.3,21.67-32.14,36.02
			c-10.29,18.86-17.51,40.83-15.23,62.54c2.01,19.15,11.32,34.95,27.91,44.99c14.2,8.59,32.4,12.31,48.24,6.21
			c8.49-3.27,17.32-8.62,21.81-16.84c4.52-8.27,3.13-17.99-2.2-25.53c-5.53-7.84-14.59-12.61-24.26-11.19
			c-10.6,1.56-18.3,9.7-21.62,19.54c-2.14,6.36,7.9,9.08,10.03,2.76c2.31-6.85,8.57-12.92,16.27-12.18
			c6.67,0.64,12.15,6.46,13.77,12.76c3.42,13.35-15.4,21.87-25.95,23.09c-13.65,1.57-28.23-4.1-38.37-13.1
			c-12.67-11.24-16.55-27.33-15.44-43.82c1.96-29.12,18.79-60.8,43.43-76.94c22.22-14.55,49.83-18.03,75.37-11.22
			c17.54,4.68,31.82,16.71,37.18,34.41c3.43,11.34,3.39,23.92,0.24,35.34c-1.11,4.02,3.85,8.7,7.64,5.87
			c16.71-12.45,39.75-17.37,59.62-10.56c20.05,6.87,36.86,26.08,38.8,48.54c0.97,11.27-1.33,23.22-6.69,33.23
			C480.75,246.6,489.72,251.86,492.89,245.95L492.89,245.95z"/>
	</g>
</g>
<g>
	<g>
		<path d="M227.74,157.02c-30.99-14.23-68.44-19.82-100.9-7.26c-31.1,12.04-61.89,40.99-60.88,76.8
			c0.48,17.11,8.54,33.38,20.73,45.21c4.8,4.67,12.17-2.68,7.35-7.35c-8.82-8.57-15.34-19.84-17.19-32.09
			c-2.59-17.1,4.94-33.48,15.61-46.45c21.94-26.69,58.52-36.35,91.78-31.24c13.13,2.02,26.19,5.82,38.26,11.37
			C228.53,168.77,233.82,159.81,227.74,157.02L227.74,157.02z"/>
	</g>
</g>
<g>
	<g>
		<path d="M94.02,499.85c32.24,54.65,63.24,110.02,92.96,166.09c3.92,7.39,15.14,0.83,11.23-6.56
			c-29.72-56.06-60.72-111.44-92.96-166.09C101,486.09,89.76,492.62,94.02,499.85L94.02,499.85z"/>
	</g>
</g>
<g>
	<g>
		<path d="M511.38,497.71c-26.92,55.56-52.71,111.67-77.34,168.29c-3.3,7.6,7.89,14.22,11.23,6.56
			c24.63-56.62,50.42-112.72,77.34-168.29C526.23,496.77,515.03,490.17,511.38,497.71L511.38,497.71z"/>
	</g>
</g>
<g>
	<g>
		<path d="M193.75,672.51c82.91-4.08,166.03-2.72,248.77,4.06c8.34,0.68,8.29-12.32,0-13c-82.73-6.79-165.86-8.14-248.77-4.06
			C185.42,659.92,185.37,672.92,193.75,672.51L193.75,672.51z"/>
	</g>
</g>
<g>
	<g>
		<path d="M446.32,501.4c-17.09,53.65-31.39,108.16-42.76,163.3c-1.3,6.28,8.34,8.97,9.64,2.66
			c11.38-55.15,25.67-109.65,42.76-163.3C457.92,497.92,448.26,495.28,446.32,501.4L446.32,501.4z"/>
	</g>
</g>
<g>
	<g>
		<path d="M380.61,498.63c-7.3,55.85-11.67,112.06-13.07,168.37c-0.16,6.44,9.84,6.43,10,0c1.4-56.31,5.77-112.52,13.07-168.37
			C391.44,492.27,381.43,492.33,380.61,498.63L380.61,498.63z"/>
	</g>
</g>
<g>
	<g>
		<path d="M325.91,506.38c2.72,51.86,3.6,103.81,2.62,155.73c-0.12,6.44,9.88,6.44,10,0c0.98-51.92,0.11-103.87-2.62-155.73
			C335.58,499.98,325.57,499.94,325.91,506.38L325.91,506.38z"/>
	</g>
</g>
<g>
	<g>
		<path d="M266.16,506.04c8.75,52.13,17.25,104.29,25.48,156.5c1,6.34,10.64,3.65,9.64-2.66c-8.24-52.21-16.73-104.38-25.48-156.5
			C274.73,497.05,265.1,499.74,266.16,506.04L266.16,506.04z"/>
	</g>
</g>
<g>
	<g>
		<path d="M213.81,500.18c18.73,52.01,32.53,105.68,41.04,160.3c0.99,6.34,10.63,3.65,9.64-2.66
			c-8.51-54.62-22.32-108.3-41.04-160.3C221.29,491.51,211.63,494.1,213.81,500.18L213.81,500.18z"/>
	</g>
</g>
<g>
	<g>
		<path d="M156.89,505.53c8.71,27.99,17.43,55.97,26.14,83.96c4.23,13.58,8.34,27.2,12.71,40.73c3.91,12.09,8.46,23.99,15.22,34.8
			c3.41,5.44,12.06,0.43,8.63-5.05c-6.79-10.86-11.15-22.74-15.01-34.9c-4.24-13.36-8.35-26.77-12.51-40.15
			c-8.51-27.35-17.03-54.7-25.54-82.05C164.63,496.75,154.97,499.36,156.89,505.53L156.89,505.53z"/>
	</g>
</g>
<g>
	<path d="M122.49,428.13c-1.27-5.23-1.98-10.48-2.49-15.83c-0.25-2.62-0.73-5.22-1.53-7.73c-0.28-0.88-1.5-5.29-2.97-3.6
		c-0.42,0.49-0.39,1.58-0.43,2.2c-0.11,1.56-0.12,3.14-0.11,4.71c0.04,3.29,0.28,6.6,0.82,9.85c1.13,6.84,3.25,13.48,6.34,19.68
		c-1.61-0.42-3.21-0.84-4.82-1.26c11.91-7.24,28.76-10.49,35.29-24.17c1.01,1.77,2.03,3.53,3.04,5.3c-2.45,0.09-4.27,2.34-5.84,3.98
		c-1.96,2.04-3.94,3.98-6.35,5.5c-4.99,3.13-11.24,4.75-17.02,5.64c-7.09,1.09-8.95-7.53-11.24-12.56
		c-1.31-2.88-3.06-5.78-1.97-9.02c0.54-1.62,1.68-2.87,1.98-4.59c0.28-1.62-0.07-3.08-0.66-4.58c2.31-0.31,4.61-0.62,6.92-0.94
		c0.31,8.33,0.62,16.65,0.93,24.98c0.05,1.32-0.41,4.24,0.32,5.38c-0.71-1.09-0.32,0.03,0.16-0.67c0.32-0.46,0.82-0.85,1.17-1.3
		c2.1-2.75,3.99-5.56,6.43-8.05c4.71-4.81,10.39-8.62,16.59-11.22c4.63-1.94,11.93-3.64,14.07,2.68c1.78,5.23-0.76,11.56-3.92,15.74
		c-3.47,4.58-8.48,8.23-13.46,11.04c-5.9,3.34-12.69,4.33-19.35,4.75c-1.64,0.11-3.37,0.31-5.02,0.24
		c-0.67-0.03-1.31-0.19-1.96-0.34c-2.43-0.6,1.08,0.58-1.18-0.5c-1.89-0.91-3.05-1.88-3.71-3.84c-1.34-4-1.62-8.55-2.15-12.71
		c-1-7.82-1.73-15.67-2.37-23.52c-0.37-4.52,6.68-4.49,7.05,0c0.87,10.61,1.58,21.43,3.67,31.89c0.11,0.57,0.25,1.13,0.38,1.7
		c0.15,0.64,0.68,1.15,0.04,0.4c0.44,0.51-0.77-0.1-0.38-0.5c0.1,0.05,0.2,0.11,0.3,0.16c0.38,0.19,0.4,0.21,0.06,0.06
		c0.28,0.12,0.56,0.24,0.84,0.36c-0.86-0.19-0.78-0.26,0.24-0.21c0.93-0.17,1.98-0.08,2.93-0.13c6.16-0.33,12.37-1.1,17.77-4.29
		c3.85-2.27,7.92-5.08,10.65-8.67c1.33-1.75,2.36-3.82,2.8-5.98c0.23-1.14,0.24-2.23,0.11-3.37c0-0.03-0.11,0.25,0.26,0.26
		c-0.58-0.01-0.96-0.06-1.58,0.07c-5.3,1.08-10.76,4.73-14.8,8.21c-2.21,1.9-4.28,4.01-6.08,6.31c-1.71,2.19-3.01,4.78-5.29,6.44
		c-2.61,1.9-6.37,2.32-8.97,0.13c-2.79-2.35-2.53-6.18-2.65-9.5c-0.32-8.66-0.64-17.32-0.96-25.97c-0.16-4.24,5.56-4.41,6.92-0.94
		c1.03,2.64,1.26,5.55,0.66,8.32c-0.3,1.38-0.87,2.66-1.5,3.92c-0.73,1.46-0.3,1.9,0.4,3.42c1.28,2.82,2.56,5.64,3.85,8.46
		c0.24,0.53,0.44,1.27,0.82,1.71c0.23,0.35,0.21,0.38-0.06,0.07c-0.43-0.31-0.24-0.43,0.57-0.37c1.18-0.47,2.69-0.57,3.93-0.87
		c4.97-1.2,9.64-2.89,13.3-6.59c3.58-3.62,6.88-7.41,12.34-7.62c2.86-0.11,4.13,3.03,3.04,5.3c-7.21,15.11-24.69,18.72-37.81,26.7
		c-1.55,0.94-3.98,0.42-4.82-1.26c-3.93-7.88-6.49-16.24-7.57-24.98c-0.53-4.29-0.75-8.68-0.44-13c0.23-3.14,1.05-6.44,3.89-8.24
		c3.15-1.99,7.31-1.49,9.9,1.17c2.59,2.67,3.74,7.14,4.43,10.67c1.28,6.55,1.45,13.15,3.03,19.68
		C130.36,430.66,123.57,432.54,122.49,428.13L122.49,428.13z"/>
	<path d="M147.49,430.22c-2.35,1.65-4.71,3.31-7.22,4.71c-2.44,1.37-5.24,2.09-7.62,3.5c-3.91,2.32-7.45-3.77-3.56-6.08
		c2.4-1.43,5.17-2.13,7.62-3.5c2.51-1.4,4.87-3.06,7.22-4.71C147.66,421.53,151.18,427.63,147.49,430.22L147.49,430.22z"/>
</g>
</svg>
