<?xml version="1.0" encoding="utf-8"?>
<!-- Generator: Adobe Illustrator 25.4.1, SVG Export Plug-In . SVG Version: 6.00 Build 0)  -->
<svg version="1.0" id="Layer_1" xmlns="http://www.w3.org/2000/svg" xmlns:xlink="http://www.w3.org/1999/xlink" x="0px" y="0px"
	 viewBox="0 0 612 792" style="enable-background:new 0 0 612 792;" xml:space="preserve">
<g>
	<path d="M189.81,479.23c0.48,2.27,0.97,4.59,0.8,6.93c-0.14,1.93-0.4,3.92-0.95,5.78c-1.24,4.17-3.51,7.86-6.95,10.57
		c-1.84,1.45-4.04,2.74-6.27,3.47c-1.95,0.64-3.96,1.31-6,1.54c-2.48,0.27-4.87,0.48-7.35,0.26c-2.17-0.19-4.21-0.49-6.31-1.09
		c-7.73-2.2-14.38-6.83-20.12-12.37c1.19,5.5,2.36,11,3.4,16.53c0.35,1.86-1.56,3.86-2.88,4.8c-1.99,1.4-4.55,1.98-6.95,1.98
		c-3.49,0-8.06-1.38-9.47-4.98c-1.56-3.94-3.15-7.95-4.15-12.08c-0.66-2.69-1.39-5.38-1.95-8.1c-1.29-6.35-2.69-12.72-3.56-19.14
		c-1.09-7.99-2.18-15.97-2.92-24c-0.81-8.76-1.71-17.54-2.16-26.32c-0.43-8.6-0.9-17.19-0.9-25.81c0.01-4.65,0.05-9.28,0.16-13.93
		c0.05-1.89,0.1-3.76,0.21-5.65c0.08-1.41,0.16-2.82,0.24-4.24c0.11-2.06,0.53-4.05,0.93-6.07c0.72-1.63,1.83-2.95,3.33-3.94
		c1.74-1.16,3.65-1.92,5.71-2.29c0.1-0.02,0.2-0.05,0.3-0.07c1.07-0.24,2.23-0.37,3.42-0.37c3.97,0,8.29,1.39,10.72,4.34
		c0.18,0.2,0.34,0.41,0.49,0.63c0.82,1.13,1.7,2.8,1.45,4.08c-0.23,0.93-0.36,1.89-0.4,2.85c-0.08,0.69-0.16,1.38-0.25,2.06
		c0.64-0.15,1.27-0.29,1.92-0.41c3.5-0.63,7-0.97,10.52-0.97c1.95,0,3.9,0.1,5.85,0.32c4.09,0.45,8.32,1.41,12.06,3.16
		c4.11,1.94,8.18,4.46,11,8.12c2.98,3.86,4.97,8.19,5.68,13.04c0.72,4.96,0.29,9.9-0.9,14.76c-1.08,4.43-2.61,8.77-4.7,12.83
		c-4.73,9.22-11.13,17.43-17.89,25.24c-2.46,2.84-4.92,5.67-7.39,8.49c-0.57,0.65-1.15,1.3-1.72,1.96
		c7.99-0.94,16.28-1.1,24.11,0.91c4.67,1.2,9.16,3.19,12.85,6.34c1.95,1.67,3.51,3.51,4.8,5.71
		C188.57,475.69,189.42,477.39,189.81,479.23z M143.94,443.84c1.56-1.75,3.12-3.48,4.55-5.34c0.95-1.23,1.89-2.47,2.83-3.7
		c1.21-1.58,2.29-3.26,3.34-4.95c3.98-6.73,7.21-13.92,8.85-21.59c0.6-3.68,0.74-7.3,0.19-10.99c-0.54-2.23-1.3-4.31-2.39-6.33
		c-0.9-1.31-1.88-2.49-3.01-3.59c-1-0.79-2.03-1.5-3.13-2.15c-1.2-0.57-2.42-1.07-3.68-1.49c-1.43-0.35-2.86-0.62-4.32-0.8
		c-1.6-0.08-3.18-0.06-4.77,0.02c-1.86,0.25-3.7,0.59-5.52,1.06c-1.92,0.63-3.76,1.38-5.58,2.26c-0.39,0.22-0.77,0.45-1.15,0.68
		c-0.09,0.93-0.17,1.87-0.26,2.8c-1.53,16.56-1.62,33.24-0.39,49.81c0.43,5.7,0.87,11.39,1.42,17.08c0.92-0.85,1.84-1.71,2.75-2.56
		C137.2,450.75,140.74,447.45,143.94,443.84z M175.39,481.39c-0.38-1.41-0.89-2.72-1.56-4.01c-0.66-0.92-1.36-1.77-2.15-2.6
		c-0.97-0.79-1.98-1.48-3.05-2.11c-1.11-0.5-2.22-0.94-3.37-1.33c-1.65-0.41-3.32-0.71-5.01-0.93c-2.79-0.18-5.57-0.17-8.35,0.03
		c-2.77,0.3-5.54,0.71-8.27,1.28c-1.23,0.25-2.46,0.49-3.68,0.76c-0.66,0.15-1.33,0.3-2,0.44c1.6,2.31,3.21,4.62,4.81,6.94
		c2.81,4.05,5.94,7.86,9.54,11.21c1.82,1.51,3.72,2.86,5.76,4.04c1.18,0.56,2.38,1.06,3.62,1.48c0.77,0.18,1.54,0.32,2.32,0.44
		c0.67,0.02,1.33,0.02,2-0.01c0.72-0.11,1.43-0.25,2.13-0.41c0.55-0.2,1.09-0.42,1.63-0.66c0.6-0.37,1.17-0.77,1.73-1.21
		c0.69-0.72,1.3-1.47,1.87-2.28c0.86-1.63,1.51-3.29,1.99-5.09C175.65,485.37,175.67,483.42,175.39,481.39z"/>
	<path d="M282.69,385.46c0.32,2.15,0.45,4.29,0.1,6.45c-0.28,1.83-0.59,3.71-1.25,5.45c-1.33,3.5-3.26,7.01-5.91,9.69
		c-3.16,3.21-6.81,5.96-11.01,7.68c-4.14,1.68-8.46,2.69-12.92,2.97c-10.37,0.67-20.16-2.38-29.33-6.84
		c0.01,0.08,0.03,0.16,0.04,0.24c0.97,4.41,1.94,8.82,3.12,13.18c1.24,4.58,2.43,9.2,3.94,13.71c0.82,2.44,1.55,4.93,2.48,7.34
		c0.88,2.28,1.65,4.64,2.66,6.87c0.97,2.16,1.83,4.43,2.94,6.53c1.25,2.34,2.45,4.7,3.8,6.99c1.33,2.07,2.75,4.08,4.37,5.91
		c0.16-0.53,0.31-1.07,0.45-1.62c0.59-3.59,0.75-7.18,0.85-10.81c0.09-3.63,0.13-7.27,0.19-10.91c0.05-3.11,3.84-4.41,6.4-4.41
		c2.56,0,6.34,1.3,6.4,4.41c0.08,4.88,0.15,9.78-0.17,14.65c-0.22,3.42-0.44,6.81-1.07,10.19c-0.4,2.2-0.95,4.22-2.18,6.1
		c-0.35,0.67-0.81,1.24-1.39,1.72c-0.37,0.33-0.74,0.66-1.12,1c-0.77,0.42-1.56,0.84-2.34,1.25c-0.58,0.17-1.15,0.33-1.72,0.5
		c-5.73,1.48-11.68-1.02-15.57-5.26c-1.51-1.64-2.77-3.42-3.96-5.3c-1.23-1.97-2.45-4.01-3.4-6.13c-0.83-1.86-1.67-3.73-2.51-5.59
		c-0.7-1.56-1.26-3.2-1.88-4.8c-1.21-3.13-2.35-6.29-3.36-9.49c-2.25-7.01-4.38-14.04-6.45-21.1c0.03,1.93,0.08,3.86,0.22,5.78
		c0.37,5.14,0.74,10.28,1.1,15.43c0.32,4.37,0.95,8.74,1.44,13.09c0.83,7.54,2.16,15.02,3.51,22.49c0.89,4,1.78,7.98,2.81,11.94
		c1.41,5.41,2.82,10.82,4.16,16.24c0.44,1.14,0.44,2.28,0,3.42c-0.32,0.51-0.63,1.02-0.94,1.54c-1.36,1.65-3.52,2.56-5.56,2.95
		c-4,0.78-9.66-0.31-11.45-4.49c-1.07-2.48-2.16-4.92-2.99-7.48c-0.51-1.55-1.13-3.1-1.53-4.68c-0.67-2.64-1.42-5.28-1.98-7.95
		c-1.41-6.73-2.69-13.47-3.89-20.25c-0.36-2-0.6-4.03-0.9-6.05c-0.3-1.99-0.64-3.98-0.88-5.98c-0.56-4.65-1.13-9.29-1.68-13.94
		c-0.52-4.3-0.75-8.64-1.11-12.95c-0.3-3.59-0.46-7.15-0.6-10.75c-0.11-3.12-0.22-6.22-0.33-9.34c-0.04-1.02-0.09-2.05-0.07-3.07
		c0.12-5.22,0.24-10.45,0.36-15.67c0.09-4.08,0.66-8.18,1.02-12.24c0.27-3.04,0.63-6.03,1.2-9.04c0.53-2.82,0.94-5.78,1.98-8.48
		c0.5-1.3,1.12-2.77,2.01-3.86c1.2-1.45,2.9-2.23,4.64-2.82c1.5-0.51,3.22-0.82,4.94-0.82c2.84,0,5.67,0.85,7.5,3.07
		c0.77,0.94,1.22,2.03,1.23,3.18c0,0,0.01,0,0.01-0.01c0.06,0.49,0.02,0.97-0.04,1.44c8.2-3.24,17.08-5.01,25.88-5.15
		c0.39-0.01,0.78-0.01,1.18-0.01c8.64,0,17.38,1.46,25.03,5.62c1.8,0.98,3.42,2.06,4.99,3.39c1.54,1.3,3.1,2.73,4.23,4.42
		c1.07,1.58,2.19,3.25,2.89,5.03C281.9,381.81,282.41,383.61,282.69,385.46z M269.56,387.36c-0.48-1.81-1.15-3.47-2.04-5.11
		c-1.02-1.48-2.15-2.8-3.43-4.05c-1.29-1.04-2.63-1.97-4.06-2.82c-1.7-0.83-3.44-1.54-5.23-2.15c-2.22-0.57-4.44-0.98-6.72-1.25
		c-2.68-0.16-5.35-0.12-8.03,0.06c-3.32,0.39-6.58,1-9.81,1.85c-2.94,0.93-5.77,2.05-8.54,3.42c-1.39,0.78-2.77,1.6-4.05,2.56
		c-1.06,0.79-2.08,1.62-3.09,2.47c-0.37,3.82-0.74,7.64-1.11,11.46c3.04-0.24,6.11,0.49,8.68,2.22c1.4,0.93,2.69,1.98,4.04,2.98
		c2.45,1.82,4.89,3.59,7.54,5.1c2.35,1.17,4.74,2.16,7.23,2.98c1.89,0.49,3.79,0.86,5.72,1.12c1.73,0.12,3.45,0.13,5.18,0.03
		c1.45-0.2,2.86-0.46,4.27-0.82c1.24-0.42,2.43-0.9,3.63-1.45c1.48-0.86,2.87-1.81,4.19-2.91c1.33-1.33,2.48-2.71,3.51-4.26
		c0.93-1.74,1.6-3.48,2.09-5.37C269.87,391.39,269.85,389.41,269.56,387.36z"/>
	<path d="M359.31,395.08c3,9.82,3.48,20.31,2.95,30.51c-0.23,4.54-0.44,9.08-0.82,13.6c-0.74,8.82-1.71,17.6-2.76,26.38
		c-0.49,4.14-1.01,8.28-1.62,12.41c-0.36,2.46-0.77,4.88-1.35,7.3c-0.3,1.25-0.6,2.51-0.89,3.76c-0.43,1.86-1.2,3.67-1.8,5.48
		c-0.64,1.9-2.66,3.23-4.4,3.95c-2.29,0.94-4.96,1.13-7.38,0.66c-2.93-0.57-7.25-2.73-7.02-6.36c0.12-2.02,0.16-4.06,0.41-6.06
		c0.17-1.34,0.34-2.67,0.51-4.01c0.23-1.84,0.61-3.64,0.95-5.46c0.15-0.76,0.3-1.52,0.44-2.28c-7.75,3.72-15.53,7.41-23.42,10.82
		c-5.32,2.3-10.74,4.51-16.37,5.92c-5.65,1.42-11.57,2.19-17.31,0.92c-2.5-0.56-4.84-1.67-6.73-3.38c-1.67-1.51-2.75-3.3-3.2-5.51
		c-1.04-5.13,1.2-10.39,4.06-14.57c1.56-2.28,3.29-4.41,5.3-6.3c1.81-1.71,3.67-3.43,5.7-4.87c9.12-6.48,19.98-9.84,31.08-10.54
		c1.59-0.1,3.17-0.16,4.76-0.16c1.53,0,3.06,0.06,4.58,0.19c2.93,0.26,5.87,0.49,8.75,1.09c2.42,0.5,4.79,1.17,7.14,1.88
		c0.51-3.24,1.02-6.48,1.47-9.73c0.65-4.62,1.15-9.24,1.63-13.88c0.92-8.72,1.22-17.57-0.29-26.23c-0.68-2.91-1.62-5.64-3.04-8.24
		c-0.49-0.67-0.99-1.26-1.56-1.84c-0.12-0.09-0.25-0.19-0.38-0.27c-0.76,0.29-1.51,0.61-2.25,0.97c-2.04,1.26-3.95,2.67-5.79,4.21
		c-3.7,3.47-6.85,7.38-9.6,11.65c-1.39,2.35-2.7,4.78-3.78,7.28c-0.69,1.57-1.41,3.12-2.03,4.72c-0.33,0.83-0.65,1.67-0.93,2.52
		c-0.4,0.89-0.75,1.81-1.07,2.73c-0.71,1.3-1.25,2.57-2.34,3.61c-1.69,1.61-3.68,2.4-6.04,2.4c-2.24,0-4.5-0.72-6.04-2.4
		c-0.59-0.55-1.06-1.21-1.4-1.95c-0.09-0.48-0.19-0.95-0.28-1.42c-0.11-0.58-0.17-1.17-0.21-1.76c0.35-1.9,0.64-3.8,1.34-5.62
		c0.71-1.85,1.52-3.57,2.39-5.34c1.5-3.05,3.28-6.05,5.18-8.87c3.1-4.6,6.55-9.02,10.6-12.82c2.17-2.04,4.37-4.08,6.82-5.78
		c2.27-1.56,4.79-3.18,7.43-4.03c1.05-0.35,2.1-0.67,3.16-0.96c1.12-0.27,2.24-0.43,3.39-0.45c0.6-0.05,1.17-0.08,1.74-0.08
		c0.95,0,1.88,0.07,2.89,0.19c2.92,0.34,6.06,1.34,8.43,3.14c2.16,1.65,4.01,3.41,5.49,5.68
		C357.24,390.1,358.52,392.54,359.31,395.08z M338.3,465.92c0.04-0.2,0.08-0.39,0.11-0.59c0.05-0.29,0.1-0.59,0.15-0.88
		c-0.89-0.31-1.78-0.64-2.66-0.98c-3.36-1.32-6.69-2.7-10.13-3.8c-2.45-0.63-4.9-1.1-7.41-1.41c-2.22-0.13-4.43-0.13-6.65,0
		c-2.42,0.29-4.79,0.74-7.15,1.35c-2.29,0.74-4.51,1.64-6.67,2.71c-2.58,1.48-4.97,3.15-7.24,5.08c-2.56,2.39-4.87,4.96-6.8,7.88
		c-0.95,1.71-1.67,3.41-2.16,5.29c-0.08,0.9-0.07,1.7,0.02,2.58c0.08,0.25,0.18,0.49,0.29,0.73c0.13,0.18,0.27,0.35,0.42,0.52
		c0.14,0.1,0.28,0.19,0.42,0.29c0.19,0.08,0.39,0.16,0.59,0.24c0.29,0.07,0.59,0.12,0.88,0.17c1.12,0.05,2.22,0.04,3.34-0.02
		c2.29-0.3,4.51-0.78,6.74-1.38c13.24-4.16,25.32-11.29,37.59-17.63c1.45-0.75,3.55-0.76,5.11-0.46
		C337.49,465.67,337.9,465.78,338.3,465.92z M282.32,484.44c-0.04-0.06-0.07-0.12-0.11-0.18
		C282.24,484.32,282.28,484.38,282.32,484.44C282.32,484.44,282.32,484.44,282.32,484.44z"/>
	<path d="M433.85,402.29c-1.57,6.15-2.8,12.38-4.02,18.61c-2.77,15.24-5.31,30.53-8.16,45.75c-0.72,3.84-1.55,7.67-2.35,11.49
		c-0.91,4.37-1.99,8.8-3.28,13.07c-0.75,2.49-1.51,5.1-2.64,7.45c-0.53,1.09-1.11,2.12-1.74,3.16c-0.35,0.61-0.73,1.19-1.15,1.75
		c-1.51,1.71-3.49,3.2-5.83,3.54c-1.45,0.21-2.72,0.28-4.19,0.13c-0.82-0.02-1.62-0.21-2.39-0.52c-1.18-0.57-2.21-1.11-3.23-1.95
		c-0.95-0.79-1.96-1.7-2.67-2.73c-1.21-1.75-2.37-3.58-3.34-5.48c-2.02-3.97-3.79-8.1-5.22-12.33c-1.5-4.4-2.95-8.78-4.23-13.26
		c-1.27-4.43-2.28-8.9-3.31-13.4c-2.03-8.94-3.23-18.09-4.54-27.17c-1.23-8.51-2.03-17.08-2.82-25.64
		c-0.39-4.3-0.64-8.61-0.92-12.92c-0.12-1.94-0.16-3.89-0.23-5.83c-0.12-3.6-0.8-8.2,2.04-10.9c1.22-1.36,2.68-2.37,4.38-3.03
		c0.98-0.28,1.95-0.57,2.92-0.85c1.08-0.21,2.19-0.32,3.31-0.32c2.1,0,4.21,0.38,6.12,1.16c1.81,0.75,3.65,1.92,4.81,3.56
		c0.98,1.2,1.5,2.59,1.54,4.17c-0.03,0.79-0.04,1.59-0.02,2.39c0.01,0.53,0.03,1.04,0.02,1.56c0,1.24,0,2.48-0.01,3.71
		c-0.01,1.64-0.01,3.27,0.01,4.9c0.06,4.36,0.11,8.72,0.23,13.08c0.24,8.49,0.47,16.99,0.99,25.47c0.54,8.69,1.08,17.38,1.88,26.07
		c0.43,4.62,0.88,9.24,1.43,13.85c0.46,3.91,1.13,7.78,1.79,11.67c0.97,4.38,2.08,8.76,3.79,12.91c2.56-5.77,3.86-12.01,5.34-18.13
		c0.82-3.37,1.44-6.79,2.14-10.19c2.65-14.39,5.03-28.82,7.53-43.23c1.21-6.94,2.44-13.88,3.74-20.8c1.65-8.82,3.27-17.62,5.5-26.32
		c0.35-1.37,2.03-2.39,3.2-2.87c1.67-0.69,3.61-0.83,5.37-0.49c2.83,0.55,5.89,2.67,4.86,5.92
		C438.15,386.93,435.81,394.54,433.85,402.29z"/>
	<path d="M508.72,382.04c2.01,4.93,2.48,10.32,1.08,15.48c-1.3,4.8-3.93,9.45-7.54,12.91c-4.05,3.89-8.7,7.27-13.99,9.25
		c-5.17,1.94-10.56,3.01-16.1,2.67c-4.46-0.27-8.96-1.46-12.77-3.8c-0.75,8.26-0.55,16.6,0.39,24.84
		c0.61,5.39,1.63,10.68,2.54,16.01c0.86,3.71,1.69,7.42,2.74,11.08c0.86,2.96,1.67,5.95,2.71,8.86c1.78,4.96,3.85,9.78,6.47,14.36
		c1.35,2.13,2.81,4.16,4.51,6.02c1.17-2.35,1.9-4.8,2.48-7.36c1.44-8.99,0.77-18.08-0.08-27.09c-0.36-3.81-0.85-7.6-1.31-11.4
		c-0.56-4.61-0.97-9.2-1.19-13.84c-0.07-1.48,1.02-2.77,2.14-3.57c1.48-1.04,3.39-1.47,5.17-1.47c3,0,7.16,1.49,7.31,5.04
		c0.36,8.14,0.42,16.29,0.53,24.44c0.09,7.58,0.09,15.13-0.31,22.7c-0.22,4.17-0.78,8.46-1.92,12.49c-1.17,4.12-3.22,8.09-7.29,9.97
		c-5,2.31-11.11,1.12-15.54-1.93c-3.96-2.73-7.32-6.38-10.03-10.35c-3.18-4.66-6.06-9.56-8.4-14.7c-1.1-2.42-2.04-4.83-2.93-7.32
		c-0.56-1.54-1.24-3.08-1.66-4.66c-0.6-2.26-1.21-4.54-1.81-6.8c-1.13-4.25-1.76-8.64-2.56-12.96c-0.55-2.95-0.81-6.02-1.03-9.02
		c-0.21-2.78-0.36-5.57-0.39-8.36c-0.05-5.57,0.19-11.16,0.98-16.68c1.6-11.21,4.49-22.55,11.09-31.95
		c1.71-2.43,3.59-4.67,5.73-6.74c1.96-1.9,4.16-3.75,6.53-5.13c2.56-1.5,5.15-2.78,7.97-3.73c2.98-1.01,6-1.57,9.14-1.8
		c0.85-0.06,1.71-0.1,2.56-0.1c5.13,0,10.27,1.17,14.74,3.74c2.21,1.27,4.38,2.85,6.06,4.79
		C506.32,377.73,507.82,379.81,508.72,382.04z M495.95,388.4c-0.45-1.78-1.08-3.44-1.94-5.06c-0.69-0.99-1.43-1.89-2.27-2.75
		c-0.63-0.5-1.26-0.97-1.94-1.41c-0.65-0.31-1.3-0.58-1.98-0.84c-0.56-0.13-1.12-0.24-1.69-0.34c-0.74-0.03-1.47-0.03-2.21,0
		c-0.81,0.12-1.61,0.27-2.41,0.46c-1.27,0.43-2.49,0.93-3.7,1.51c-1.49,0.91-2.89,1.9-4.24,3.01c-2.28,2.21-4.23,4.63-5.97,7.28
		c-2.3,4.01-3.99,8.27-5.3,12.66c0.96,0.23,1.85,0.62,2.56,1.18c0.87,0.68,1.59,1.37,2.25,2.25c0.15,0.24,0.29,0.48,0.44,0.72
		c0.82,1.11,1.63,2.15,2.58,3.12c0.47,0.35,0.94,0.67,1.42,0.98c0.44,0.2,0.88,0.39,1.33,0.56c0.54,0.12,1.08,0.22,1.63,0.31
		c0.79,0.02,1.58,0.02,2.37-0.01c1.02-0.15,2.03-0.34,3.04-0.57c1.39-0.46,2.75-1,4.09-1.63c1.75-1,3.38-2.12,4.96-3.4
		c1.67-1.6,3.13-3.32,4.42-5.25c1.15-2.12,2-4.27,2.55-6.61C496.22,392.5,496.22,390.49,495.95,388.4z"/>
</g>
<g>
	<path d="M162.1,331.77c0,1.12-0.11,2.25-0.56,3.37c-0.67,1.35-1.57,1.91-3.15,1.8c-2.7-0.11-5.5-0.34-8.31-0.56
		c-0.79,0-1.57-0.11-2.36-0.23c-2.7-0.56-3.71-1.69-3.93-4.38c-0.11-2.7,0-5.28,0-7.86c-0.11-0.67-0.11-1.24-0.11-1.91
		c-0.11-2.25-0.11-2.36-2.36-2.25c-4.04,0.11-7.98,0.34-12.02,0.67c-5.06,0.45-10.11,0.56-15.17,0.56c-2.58,0-2.58,0-2.58,2.81
		c0,2.47,0,5.05,0,7.53c0,1.01-0.11,2.02-0.34,2.92c-0.45,1.35-1.57,2.25-3.03,2.36c-1.57,0.22-2.7-0.56-3.48-1.8
		c-0.67-1.24-0.67-2.58-0.79-3.82c-0.79-9.32,0.34-18.54,2.36-27.52c1.12-4.94,2.36-9.89,4.04-14.72
		c2.47-6.96,5.95-13.48,11.12-18.98c2.92-3.26,6.63-5.17,10.79-6.07c6.07-1.35,11.12,0.67,15.5,4.83
		c5.62,5.5,8.76,12.36,10.67,19.77c2.02,8.31,3.03,16.74,3.37,25.16c0.11,2.47,0,4.83,0,7.3c0.11,0,0.22,0,0.34,0
		C162.1,324.47,162.1,328.06,162.1,331.77z M143.12,312c-0.11-1.57-0.22-3.48-0.34-5.28c-0.67-7.3-1.57-14.49-3.71-21.57
		c-1.12-3.71-3.03-6.85-5.5-9.77c-0.79-1.01-1.69-1.69-2.81-2.25c-1.35-0.56-2.36-0.45-3.59,0.56c-2.81,2.58-4.94,5.73-6.63,9.32
		c-4.61,9.89-7.08,20.56-8.54,31.34c-0.22,1.57,0,1.57,1.57,1.57c0.45,0,0.9,0,1.35,0c8.65-0.67,17.3-1.24,26.06-1.35
		C143.34,314.47,143.34,314.47,143.12,312z M153.67,329.86c0.34-13.82-0.45-27.52-3.14-41.11c-1.12-5.84-3.37-11.01-8.43-14.49
		c0.11,1.12,0.67,2.02,1.24,3.03c1.8,2.47,2.92,5.28,3.48,8.31c0.9,4.27,1.8,8.54,2.36,12.92c1.35,10.33,2.47,20.67,2.7,31.23
		c0,0.67-0.22,1.46,0.9,1.46C153.9,331.32,153.67,330.53,153.67,329.86z"/>
	<path d="M185.46,324.35c0.11,1.24,0.34,2.47,0.56,3.59c0.45,2.36,0.45,2.36,2.92,1.91c2.58-0.45,5.28-1.01,7.98-1.57
		c1.01-0.22,2.02-0.34,3.03-0.11c1.24,0.22,2.25,0.79,2.47,2.02c0.22,1.35-0.34,2.25-1.35,2.92c-0.67,0.34-1.35,0.56-2.02,0.79
		c-5.95,1.46-12.02,2.58-18.2,3.26c-2.13,0.22-4.16-0.22-6.18-1.01c-2.47-1.01-4.16-2.81-4.94-5.39c-0.79-2.7-1.35-5.5-1.46-8.2
		c-0.67-10-1.24-19.88-1.35-29.88c0-7.19-0.22-14.38-0.22-21.68c0-0.9-0.11-1.91,0.11-2.81c0.45-2.02,1.8-3.03,3.82-2.92
		c3.93,0,7.86,0,11.68,0.45c1.91,0.11,2.81,0.9,3.03,2.92c0.11,1.57,0,3.15,0,4.72c-0.22,7.75-0.45,15.5-0.67,26.29
		C184.45,305.93,185.12,315.14,185.46,324.35z M177.37,276.61c0.11-1.69,0.22-3.37,0.45-4.94c0.11-0.9-0.22-1.24-1.12-1.35
		c-2.47,0-2.7,0.22-2.7,2.58c-0.11,0.34-0.11,0.67,0,1.12c0.23,12.81,0.34,25.61,0.67,38.42c0.11,4.94,0.45,10,1.46,15.05
		c0.34,2.13,0.79,2.7,2.58,2.92c1.46,0.34,1.69,0.11,1.46-1.24c-1.24-5.5-1.69-11.12-2.25-16.85c-0.67-8.54-0.9-17.19-0.9-27.07
		C177.15,283.24,177.26,279.87,177.37,276.61z"/>
	<path d="M238.37,314.36c-1.12,4.61-3.03,9.1-5.05,13.37c-1.01,2.02-2.25,3.93-3.82,5.62c-5.28,5.28-12.47,5.39-18.09,0.22
		c-2.36-2.13-3.93-4.83-5.06-7.75c-1.8-4.94-3.14-10.11-3.37-15.28c-0.79-13.26-0.45-26.4,1.91-39.43c0.22-0.79,0.34-1.69,0.67-2.47
		c0.9-2.36,2.81-3.59,5.17-3.71c3.37,0,6.63,0.11,9.89,0.79c2.58,0.56,3.48,1.8,2.92,4.38c-1.68,7.98-2.02,16.06-2.58,24.15
		c-0.34,4.94-0.45,9.89-0.45,14.83c-0.11,2.02,0.11,4.04,0.34,6.07c0.34,4.38,2.7,7.75,6.07,10.67c1.12-0.79,1.46-2.02,2.02-3.03
		c3.48-6.74,5.05-14.04,6.29-21.46c1.24-6.85,2.47-13.71,3.26-20.67c0.22-2.36,1.35-3.48,3.59-3.71c3.37-0.34,6.63-0.67,9.89-0.9
		c2.36-0.22,3.48,0.79,3.82,3.03c0.22,1.46,0.34,2.92,0.34,4.38c-0.11,5.95,0,11.91,0.67,17.75c0.56,4.94,1.68,9.77,3.59,14.38
		c0.9,2.13,2.02,4.16,3.71,5.73c1.12,1.12,1.68,1.01,2.81-0.22c1.8-2.02,2.81-4.61,3.82-7.08c2.25-5.06,2.92-10.33,3.14-15.84
		c0.22-8.87,0.11-17.75-2.13-26.51c-0.34-1.12-0.45-2.25-0.22-3.37c0.34-2.25,2.47-3.03,4.27-1.69c1.01,0.79,1.57,1.91,1.91,3.03
		c1.35,3.71,1.68,7.53,2.02,11.35c0.9,10.67,0.45,21.46-1.01,32.13c-0.56,4.49-1.8,8.99-3.71,13.26c-0.9,2.25-2.13,4.16-3.71,6.07
		c-3.93,4.72-9.32,6.07-14.94,3.71c-4.27-1.8-7.75-4.61-10.34-8.54c-2.7-4.27-4.38-8.87-5.5-13.82c-0.22-1.01-0.45-2.02-0.67-3.26
		C238.82,311.77,238.71,313.12,238.37,314.36z M215.9,318.51c-0.56-2.13-1.12-4.38-1.35-6.63c-0.9-9.89-1.12-19.66-0.56-29.54
		c0.11-3.26,0.67-6.52,1.12-9.77c0.11-0.56,0.45-1.12-0.22-1.35c-0.45-0.22-1.01-0.22-1.57-0.11c-0.56,0.11-0.67,0.79-0.67,1.24
		c-0.34,1.91-0.67,3.82-0.9,5.73c-0.9,8.2-1.24,16.29-1.12,24.49c0,7.08,0.9,14.15,3.26,20.89c0.45,1.46,1.12,2.92,2.02,4.16
		c1.91,2.47,4.38,3.37,7.19,2.25C218.15,325.37,217.36,324.02,215.9,318.51z M263.42,329.63c-4.38-1.46-7.08-4.72-9.32-8.65
		c-1.91-3.48-2.92-7.3-3.82-11.12c-1.8-8.43-2.7-16.85-1.91-25.39c0-0.34,0.11-0.79,0-1.12c-0.22-0.67-0.79-0.56-1.24-0.22
		c-0.45,0.22-0.34,0.9-0.45,1.35c0,2.13-0.11,4.27-0.22,6.29c-0.22,7.41-0.22,14.83,1.35,22.13c0.79,3.82,1.91,7.41,3.93,10.78
		c1.8,3.03,4.38,5.39,7.75,6.52c1.46,0.45,2.81,0.79,4.27,0.11C263.64,329.97,263.53,329.63,263.42,329.63z"/>
	<path d="M343.28,331.77c0,1.12-0.11,2.25-0.56,3.37c-0.67,1.35-1.57,1.91-3.15,1.8c-2.7-0.11-5.5-0.34-8.31-0.56
		c-0.79,0-1.57-0.11-2.36-0.23c-2.7-0.56-3.71-1.69-3.93-4.38c-0.11-2.7,0-5.28,0-7.86c-0.11-0.67-0.11-1.24-0.11-1.91
		c-0.11-2.25-0.11-2.36-2.36-2.25c-4.04,0.11-7.98,0.34-12.02,0.67c-5.05,0.45-10.11,0.56-15.17,0.56c-2.58,0-2.58,0-2.58,2.81
		c0,2.47,0,5.05,0,7.53c0,1.01-0.11,2.02-0.34,2.92c-0.45,1.35-1.57,2.25-3.03,2.36c-1.57,0.22-2.7-0.56-3.48-1.8
		c-0.67-1.24-0.67-2.58-0.79-3.82c-0.79-9.32,0.34-18.54,2.36-27.52c1.12-4.94,2.36-9.89,4.04-14.72
		c2.47-6.96,5.95-13.48,11.12-18.98c2.92-3.26,6.63-5.17,10.78-6.07c6.07-1.35,11.12,0.67,15.5,4.83
		c5.62,5.5,8.76,12.36,10.67,19.77c2.02,8.31,3.03,16.74,3.37,25.16c0.11,2.47,0,4.83,0,7.3c0.11,0,0.22,0,0.34,0
		C343.28,324.47,343.28,328.06,343.28,331.77z M324.3,312c-0.11-1.57-0.22-3.48-0.34-5.28c-0.67-7.3-1.57-14.49-3.71-21.57
		c-1.12-3.71-3.03-6.85-5.5-9.77c-0.79-1.01-1.68-1.69-2.81-2.25c-1.35-0.56-2.36-0.45-3.59,0.56c-2.81,2.58-4.94,5.73-6.63,9.32
		c-4.61,9.89-7.08,20.56-8.54,31.34c-0.22,1.57,0,1.57,1.57,1.57c0.45,0,0.9,0,1.35,0c8.65-0.67,17.3-1.24,26.06-1.35
		C324.52,314.47,324.52,314.47,324.3,312z M334.86,329.86c0.34-13.82-0.45-27.52-3.15-41.11c-1.12-5.84-3.37-11.01-8.42-14.49
		c0.11,1.12,0.67,2.02,1.24,3.03c1.8,2.47,2.92,5.28,3.48,8.31c0.9,4.27,1.8,8.54,2.36,12.92c1.35,10.33,2.47,20.67,2.7,31.23
		c0,0.67-0.23,1.46,0.9,1.46C335.08,331.32,334.86,330.53,334.86,329.86z"/>
	<path d="M358.11,306.27c0.11-1.01-0.11-1.8-1.01-2.47c-7.98-5.62-11.57-13.82-13.14-23.14c-0.45-3.03-0.56-6.07-0.67-9.21
		c0-0.67,0-1.35,0.11-2.02c0.45-3.03,1.68-4.27,4.72-4.61c1.91-0.22,3.82,0,5.73,0.11c1.91,0.11,3.82,0.11,5.73,0.11
		c2.7,0.11,3.71,0.9,3.93,3.59c0.11,1.35,0.11,2.7,0.11,4.16c0.22,4.04,0.79,8.09,1.8,12.13c0.56,1.91,1.35,3.82,2.7,5.28
		c1.46,1.8,2.36,1.8,3.71,0c3.71-4.94,6.85-10.22,8.42-16.18c0.56-2.02,1.35-4.04,1.57-6.29c0.11-1.8,1.57-2.58,3.71-2.25
		c1.8,0.22,2.7,1.01,2.36,3.03s-1.01,4.04-1.46,6.07c-1.69,7.19-4.04,14.27-7.86,20.67c-0.11,0.22-0.22,0.45-0.45,0.67
		c-2.7,2.81-2.92,6.4-2.81,10.11c0.22,8.31-0.11,16.51,0.56,24.83c0.11,0.79,0.11,1.57,0.11,2.36c-0.11,1.57-0.9,2.7-2.36,3.03
		c-3.26,1.01-6.4,1.8-9.77,1.46c-3.93-0.45-5.28-1.69-5.62-5.5c-0.34-4.61-0.22-9.1-0.11-13.59
		C358.11,314.47,358.11,310.43,358.11,306.27z M360.8,290.54c-3.15-5.62-5.28-11.46-5.95-17.97c-0.11-1.91-0.34-1.91-2.47-1.8
		c-1.57,0.11-1.68,0.11-1.57,1.91c0.22,4.38,0.9,8.76,2.25,12.81c1.91,5.62,5.06,10.33,9.89,13.82c2.58,1.8,3.26,1.69,5.28-0.9
		C364.62,296.16,362.94,294.47,360.8,290.54z M364.96,310.2c-0.11,6.29-0.22,12.47-0.34,18.65c0,0.45-0.11,1.01-0.11,1.57
		c0,0.67,0.34,1.12,1.12,1.12c0.45-0.11,0.9-0.11,1.35,0c1.12,0.11,1.8-0.22,1.57-1.69c-0.45-2.25-0.11-4.49-0.11-6.74
		c0-5.62,0-11.12,0-16.85C364.62,307.17,365.07,306.49,364.96,310.2z"/>
	<path d="M401.47,302.56c-1.46-1.12-2.92-2.36-4.16-3.82c-3.82-4.49-5.5-9.66-4.38-15.61c1.12-5.84,3.71-10.78,8.99-14.15
		c5.5-3.37,14.04-2.92,19.21,1.12c1.57,1.24,2.7,2.81,2.81,4.83c0,1.01-0.11,1.91-1.12,2.47c-1.01,0.56-1.68,0.11-2.47-0.45
		c-2.36-1.8-5.05-3.03-7.98-3.59c-3.03-0.56-5.5,0.45-7.64,2.47c-1.01,0.9-1.12,1.8-0.56,3.03c0.67,1.24,1.68,2.13,2.92,2.92
		c3.26,2.36,6.96,3.93,10.56,5.73c2.36,1.24,4.83,2.47,7.19,3.71c8.31,4.49,11.79,11.8,12.02,20.89c0.11,4.94-0.67,9.89-3.03,14.49
		c-2.81,5.73-7.41,9.1-13.37,10.78c-4.94,1.35-10.11,0.56-15.28,0c-1.35-0.11-2.58-0.9-3.71-1.69c-2.25-1.69-3.93-3.82-5.28-6.07
		c-1.46-2.36-1.35-4.94-0.9-7.41c0.56-3.15,2.02-5.95,4.27-8.31c1.91-2.02,4.04-3.71,6.51-5.17c0.79-0.45,1.8-0.67,2.47-1.8
		C406.07,305.48,403.6,304.25,401.47,302.56z M414.5,310.2c-0.9-0.67-1.57-0.79-2.47,0c-0.79,0.67-1.68,1.01-2.47,1.46
		c-3.26,1.69-5.95,3.93-8.09,6.85c-1.8,2.47-2.47,5.17-1.46,8.2c1.57,4.72,8.65,7.19,13.37,4.49c4.27-2.47,6.29-6.18,6.4-9.89
		C419.66,315.71,418.09,312.67,414.5,310.2z M402.36,293.8c1.46,1.91,3.48,3.37,5.5,4.72c2.7,1.57,5.5,3.03,8.09,4.83
		c6.96,4.61,11.12,10.67,10,19.43c0,0.22,0.11,0.56,0.11,0.9c1.24-0.67,1.57-1.8,1.91-2.92c1.12-3.93,1.35-7.98,0.9-12.02
		c-0.34-4.16-2.36-7.3-5.95-9.55c-2.81-1.8-5.73-3.37-8.65-4.83c-4.83-2.58-9.66-5.17-14.04-9.1
		C399.56,288.63,400.57,291.33,402.36,293.8z"/>
</g>
<g>
	<path d="M497.99,303.41c1.1-4.51,1.71-9.05,2.15-13.67c0.21-2.26,0.63-4.51,1.33-6.68c0.24-0.76,1.3-4.57,2.57-3.11
		c0.36,0.42,0.34,1.37,0.37,1.9c0.1,1.35,0.11,2.71,0.09,4.06c-0.03,2.84-0.24,5.7-0.71,8.51c-0.98,5.91-2.81,11.64-5.48,17
		c1.39-0.36,2.77-0.73,4.16-1.09c-10.29-6.25-24.84-9.06-30.47-20.87c-0.88,1.53-1.75,3.05-2.63,4.58c2.11,0.08,3.69,2.02,5.04,3.43
		c1.69,1.77,3.4,3.44,5.48,4.75c4.31,2.71,9.71,4.1,14.7,4.87c6.12,0.94,7.73-6.5,9.71-10.84c1.13-2.49,2.64-4.99,1.7-7.79
		c-0.47-1.4-1.45-2.48-1.71-3.96c-0.24-1.4,0.06-2.66,0.57-3.95c-1.99-0.27-3.98-0.54-5.98-0.81c-0.27,7.19-0.53,14.38-0.8,21.57
		c-0.04,1.14,0.36,3.66-0.28,4.65c0.61-0.94,0.27,0.02-0.14-0.58c-0.27-0.4-0.71-0.73-1.01-1.12c-1.82-2.37-3.45-4.8-5.55-6.95
		c-4.07-4.15-8.97-7.45-14.33-9.69c-4-1.68-10.3-3.15-12.15,2.32c-1.53,4.52,0.65,9.99,3.39,13.59c3,3.95,7.33,7.11,11.62,9.54
		c5.09,2.88,10.96,3.74,16.71,4.11c1.42,0.09,2.91,0.27,4.33,0.21c0.58-0.03,1.13-0.16,1.69-0.3c2.1-0.52-0.93,0.5,1.02-0.43
		c1.63-0.79,2.63-1.62,3.21-3.32c1.16-3.46,1.4-7.39,1.85-10.98c0.86-6.75,1.5-13.53,2.05-20.31c0.32-3.9-5.77-3.88-6.08,0
		c-0.75,9.16-1.36,18.51-3.17,27.54c-0.1,0.49-0.22,0.98-0.33,1.47c-0.13,0.55-0.59,0.99-0.04,0.35c-0.38,0.44,0.67-0.09,0.33-0.43
		c-0.09,0.05-0.17,0.09-0.26,0.14c-0.33,0.16-0.35,0.18-0.05,0.05c-0.24,0.1-0.48,0.2-0.73,0.31c0.75-0.17,0.68-0.23-0.21-0.18
		c-0.8-0.15-1.71-0.07-2.53-0.12c-5.32-0.29-10.68-0.95-15.34-3.7c-3.33-1.96-6.84-4.38-9.2-7.49c-1.15-1.51-2.04-3.3-2.42-5.16
		c-0.2-0.99-0.2-1.92-0.1-2.91c0-0.02,0.09,0.22-0.23,0.22c0.5-0.01,0.83-0.05,1.36,0.06c4.57,0.94,9.3,4.09,12.78,7.09
		c1.91,1.64,3.7,3.47,5.25,5.45c1.47,1.89,2.6,4.12,4.57,5.56c2.26,1.64,5.5,2,7.74,0.11c2.41-2.03,2.18-5.34,2.29-8.21
		c0.28-7.48,0.55-14.95,0.83-22.43c0.14-3.67-4.8-3.81-5.98-0.81c-0.89,2.28-1.09,4.79-0.57,7.19c0.26,1.19,0.75,2.29,1.29,3.38
		c0.63,1.26,0.26,1.64-0.34,2.95c-1.11,2.44-2.21,4.87-3.32,7.31c-0.21,0.46-0.38,1.1-0.71,1.48c-0.2,0.31-0.18,0.33,0.05,0.06
		c0.37-0.27,0.21-0.37-0.49-0.32c-1.02-0.41-2.32-0.49-3.4-0.75c-4.29-1.04-8.33-2.49-11.49-5.69c-3.09-3.13-5.94-6.4-10.65-6.58
		c-2.47-0.1-3.56,2.61-2.63,4.58c6.23,13.04,21.32,16.17,32.66,23.06c1.34,0.81,3.44,0.36,4.16-1.09
		c3.39-6.81,5.61-14.03,6.54-21.58c0.46-3.71,0.65-7.5,0.38-11.23c-0.2-2.71-0.91-5.56-3.36-7.12c-2.72-1.72-6.31-1.29-8.55,1.01
		c-2.24,2.3-3.23,6.17-3.82,9.21c-1.11,5.66-1.25,11.36-2.62,16.99C491.2,305.59,497.07,307.21,497.99,303.41L497.99,303.41z"/>
	<path d="M476.4,305.21c2.03,1.42,4.07,2.86,6.24,4.07c2.11,1.18,4.53,1.8,6.58,3.02c3.37,2,6.44-3.25,3.07-5.25
		c-2.08-1.23-4.47-1.84-6.58-3.02c-2.17-1.21-4.2-2.64-6.24-4.07C476.26,297.7,473.21,302.98,476.4,305.21L476.4,305.21z"/>
</g>
<g>
	<g>
		<path d="M492.89,245.95c13.36-24.94,10.27-56.63-8.82-77.74c-17.27-19.09-43.84-26.72-68.75-20.62
			c-9.95,2.43-20.12,6.77-28.37,12.92c2.55,1.96,5.09,3.91,7.64,5.87c3.5-12.69,3.67-26.77,0.17-39.45
			c-5.32-19.31-19.6-34.06-38.22-40.99c-29.49-10.98-64.99-6.73-91,10.83c-13.61,9.19-24.3,21.67-32.14,36.02
			c-10.29,18.86-17.51,40.83-15.23,62.54c2.01,19.15,11.32,34.95,27.91,44.99c14.2,8.59,32.4,12.31,48.24,6.21
			c8.49-3.27,17.32-8.62,21.81-16.84c4.52-8.27,3.13-17.99-2.2-25.53c-5.53-7.84-14.59-12.61-24.26-11.19
			c-10.6,1.56-18.3,9.7-21.62,19.54c-2.14,6.36,7.9,9.08,10.03,2.76c2.31-6.85,8.57-12.92,16.27-12.18
			c6.67,0.64,12.15,6.46,13.77,12.76c3.42,13.35-15.4,21.87-25.95,23.09c-13.65,1.57-28.23-4.1-38.37-13.1
			c-12.67-11.24-16.55-27.33-15.44-43.82c1.96-29.12,18.79-60.8,43.43-76.94c22.22-14.55,49.83-18.03,75.37-11.22
			c17.54,4.68,31.82,16.71,37.18,34.41c3.43,11.34,3.39,23.92,0.24,35.34c-1.11,4.02,3.85,8.7,7.64,5.87
			c16.71-12.45,39.75-17.37,59.62-10.56c20.05,6.87,36.86,26.08,38.8,48.54c0.97,11.27-1.33,23.22-6.69,33.23
			C480.75,246.6,489.72,251.86,492.89,245.95L492.89,245.95z"/>
	</g>
</g>
<g>
	<g>
		<path d="M227.74,157.02c-30.99-14.23-68.44-19.82-100.9-7.26c-31.1,12.04-61.89,40.99-60.88,76.8
			c0.48,17.11,8.54,33.38,20.73,45.21c4.8,4.67,12.17-2.68,7.35-7.35c-8.82-8.57-15.34-19.84-17.19-32.09
			c-2.59-17.1,4.94-33.48,15.61-46.45c21.94-26.69,58.52-36.35,91.78-31.24c13.13,2.02,26.19,5.82,38.26,11.37
			C228.53,168.77,233.82,159.81,227.74,157.02L227.74,157.02z"/>
	</g>
</g>
<g>
	<g>
		<path d="M98.24,544.48c32.24,54.65,63.24,110.02,92.96,166.09c3.92,7.39,15.14,0.83,11.23-6.56
			c-29.72-56.06-60.72-111.44-92.96-166.09C105.22,530.72,93.97,537.25,98.24,544.48L98.24,544.48z"/>
	</g>
</g>
<g>
	<g>
		<path d="M515.6,542.34c-26.92,55.56-52.71,111.67-77.34,168.29c-3.3,7.6,7.89,14.22,11.23,6.56
			c24.63-56.62,50.42-112.72,77.34-168.29C530.45,541.4,519.25,534.8,515.6,542.34L515.6,542.34z"/>
	</g>
</g>
<g>
	<g>
		<path d="M197.97,717.14c82.91-4.08,166.03-2.72,248.77,4.06c8.34,0.68,8.29-12.32,0-13c-82.73-6.79-165.86-8.14-248.77-4.06
			C189.64,704.55,189.59,717.55,197.97,717.14L197.97,717.14z"/>
	</g>
</g>
<g>
	<g>
		<path d="M450.53,546.03c-17.09,53.65-31.39,108.16-42.76,163.3c-1.3,6.28,8.34,8.97,9.64,2.66
			c11.38-55.15,25.67-109.65,42.76-163.3C462.13,542.55,452.48,539.92,450.53,546.03L450.53,546.03z"/>
	</g>
</g>
<g>
	<g>
		<path d="M384.83,543.26c-7.3,55.85-11.67,112.06-13.07,168.37c-0.16,6.44,9.84,6.43,10,0c1.4-56.31,5.77-112.52,13.07-168.37
			C395.66,536.9,385.65,536.96,384.83,543.26L384.83,543.26z"/>
	</g>
</g>
<g>
	<g>
		<path d="M330.13,551.01c2.72,51.86,3.6,103.81,2.62,155.73c-0.12,6.44,9.88,6.44,10,0c0.98-51.92,0.11-103.87-2.62-155.73
			C339.79,544.61,329.79,544.57,330.13,551.01L330.13,551.01z"/>
	</g>
</g>
<g>
	<g>
		<path d="M270.37,550.67c8.75,52.13,17.25,104.29,25.48,156.5c1,6.34,10.64,3.65,9.64-2.66c-8.24-52.21-16.73-104.38-25.48-156.5
			C278.95,541.68,269.32,544.37,270.37,550.67L270.37,550.67z"/>
	</g>
</g>
<g>
	<g>
		<path d="M218.03,544.81c18.73,52.01,32.53,105.68,41.04,160.3c0.99,6.34,10.63,3.65,9.64-2.66
			c-8.51-54.62-22.32-108.3-41.04-160.3C225.51,536.14,215.85,538.73,218.03,544.81L218.03,544.81z"/>
	</g>
</g>
<g>
	<g>
		<path d="M161.11,550.16c8.71,27.99,17.43,55.97,26.14,83.96c4.23,13.58,8.34,27.2,12.71,40.73c3.91,12.09,8.46,23.99,15.22,34.8
			c3.41,5.44,12.06,0.43,8.63-5.05c-6.79-10.86-11.15-22.74-15.01-34.9c-4.24-13.36-8.35-26.77-12.51-40.15
			c-8.51-27.35-17.03-54.7-25.54-82.05C168.84,541.38,159.19,543.99,161.11,550.16L161.11,550.16z"/>
	</g>
</g>
</svg>
