<?xml version="1.0" encoding="iso-8859-1"?>
<!-- Generator: Adobe Illustrator 17.1.0, SVG Export Plug-In . SVG Version: 6.00 Build 0)  -->
<!DOCTYPE svg PUBLIC "-//W3C//DTD SVG 1.1//EN" "http://www.w3.org/Graphics/SVG/1.1/DTD/svg11.dtd">
<svg version="1.1" id="Capa_1" xmlns="http://www.w3.org/2000/svg" xmlns:xlink="http://www.w3.org/1999/xlink" x="0px" y="0px"
	 viewBox="0 0 480.162 480.162" style="enable-background:new 0 0 480.162 480.162;" xml:space="preserve">
<path d="M457.673,249.533v-18.903c13.036-4.228,22.489-16.481,22.489-30.907c0-13.883-8.756-25.755-21.034-30.397
	c-4.056-54.088-49.36-96.856-104.468-96.856H125.502c-55.107,0-100.412,42.769-104.468,96.856C8.756,173.967,0,185.839,0,199.723
	c0,14.426,9.454,26.679,22.489,30.907v18.903C9.454,253.76,0,266.014,0,280.44c0,13.883,8.756,25.755,21.034,30.397
	c4.056,54.088,49.36,96.856,104.468,96.856H354.66c55.107,0,100.412-42.769,104.468-96.856
	c12.278-4.642,21.034-16.514,21.034-30.397C480.162,266.014,470.708,253.76,457.673,249.533z M42.489,232.211h395.184v15.74H42.489
	V232.211z M32.489,187.234h360.408c5.522,0,10-4.477,10-10s-4.478-10-10-10H41.347c4.966-42.041,40.8-74.765,84.155-74.765H354.66
	c44.939,0,81.803,35.157,84.578,79.409c-0.986,1.549-1.565,3.383-1.565,5.356c0,5.523,4.478,10,10,10
	c6.887,0,12.489,5.603,12.489,12.489s-5.603,12.488-12.489,12.488H32.489c-6.887,0-12.489-5.603-12.489-12.489
	S25.603,187.234,32.489,187.234z M447.673,292.928c-5.522,0-10,4.477-10,10c0,1.973,0.579,3.807,1.565,5.356
	c-2.775,44.252-39.639,79.409-84.578,79.409H125.502c-43.354,0-79.188-32.724-84.155-74.765h353.742c5.522,0,10-4.477,10-10
	s-4.478-10-10-10h-362.6c-6.887,0-12.489-5.603-12.489-12.489s5.603-12.488,12.489-12.488h415.184
	c6.887,0,12.489,5.603,12.489,12.489S454.56,292.928,447.673,292.928z"/>
<g>
</g>
<g>
</g>
<g>
</g>
<g>
</g>
<g>
</g>
<g>
</g>
<g>
</g>
<g>
</g>
<g>
</g>
<g>
</g>
<g>
</g>
<g>
</g>
<g>
</g>
<g>
</g>
<g>
</g>
</svg>
